<?xml version="1.0" encoding="utf-8"?>
<!-- Generator: Adobe Illustrator 22.1.0, SVG Export Plug-In . SVG Version: 6.00 Build 0)  -->
<svg version="1.1" id="Layer_1" xmlns="http://www.w3.org/2000/svg" xmlns:xlink="http://www.w3.org/1999/xlink" x="0px" y="0px"
	 viewBox="0 0 224.8 199.8" style="enable-background:new 0 0 224.8 199.8;" xml:space="preserve">
<style type="text/css">
	.st0{fill:#DFE1E5;}
	.st1{opacity:0.25;fill:#E8F5FF;enable-background:new    ;}
	.st2{fill:#FFFFFF;}
	.st3{clip-path:url(#SVGID_2_);}
	.st4{fill:#FAFAFC;}
	.st5{fill:#3E92DE;}
	.st6{fill:#61ADF2;}
	.st7{opacity:0.5;fill:#FFBE5E;}
	.st8{fill:#C6D9E6;}
	.st9{fill:#C9CBCF;}
	.st10{fill:#3D4E60;}
	.st11{fill:#F3F4F8;}
	.st12{fill:#DEDFE3;}
	.st13{fill:#1A2129;}
	.st14{fill:#B7B7C1;}
	.st15{fill:#DE703B;}
</style>
<title>login</title>
<circle class="st0" cx="114.6" cy="109.6" r="90.2"/>
<circle class="st1" cx="114.6" cy="109.6" r="71.7"/>
<circle class="st2" cx="114.9" cy="109.2" r="71.7"/>
<g id="Layer_2_1_">
	<defs>
		<path id="SVGID_1_" d="M186.6,109.2c0,39.6-32.1,71.7-71.7,71.7c-39.6,0-71.7-32.1-71.7-71.7c0,0,0,0,0,0
			c0-39.6-13.5-117.6,22.6-119c17-0.7,114.6,0.9,124.7,7.5C208.5,9.4,186.6,76.1,186.6,109.2z"/>
	</defs>
	<clipPath id="SVGID_2_">
		<use xlink:href="#SVGID_1_"  style="overflow:visible;"/>
	</clipPath>
	<g id="Icons" class="st3">
		<rect x="52.4" y="6.9" class="st0" width="82.9" height="143"/>
		<rect x="68.4" y="6.9" class="st4" width="75.4" height="143"/>
		<rect x="47.4" y="0" class="st5" width="83" height="6.9"/>
		<rect x="68.4" y="0" class="st6" width="83" height="6.9"/>
		<rect x="77.7" y="18.6" class="st0" width="12.8" height="20.3"/>
		<rect x="99.7" y="18.6" class="st0" width="12.8" height="20.3"/>
		<rect x="121.7" y="18.6" class="st0" width="12.8" height="20.3"/>
		<rect x="77.7" y="52.4" class="st7" width="12.8" height="20.3"/>
		<rect x="99.7" y="52.4" class="st0" width="12.8" height="20.3"/>
		<rect x="121.7" y="52.4" class="st7" width="12.8" height="20.3"/>
		<rect x="77.7" y="86.2" class="st0" width="12.8" height="20.3"/>
		<rect x="99.7" y="86.2" class="st0" width="12.8" height="20.3"/>
		<rect x="121.7" y="86.2" class="st0" width="12.8" height="20.3"/>
		<rect x="97.2" y="121.7" class="st0" width="17.7" height="28.2"/>
		<path class="st8" d="M164.2,146h7.8c1.3,0,2.4,1.1,2.4,2.3v0v2.1l0,0h-12.4l0,0v-2.1C161.8,147.1,162.9,146,164.2,146z"/>
		<g>
			<g>
				<g>
					<rect x="0" y="149.3" class="st9" width="241.8" height="39.7"/>
				</g>
			</g>
		</g>
		<g>
			<polygon class="st10" points="138.7,145.8 138.7,157.7 213.5,157.7 213.5,160 215.3,160 215.3,145.8 			"/>
			
				<rect x="163.3" y="103.5" transform="matrix(-1 -1.224647e-16 1.224647e-16 -1 381.9348 255.2303)" class="st11" width="55.4" height="48.2"/>
			<polygon class="st6" points="138.5,114.7 163.4,114.7 163.4,157.7 131.7,157.7 132.1,140.2 			"/>
			<path class="st5" d="M134.8,112.6h28.6v4.4h-28.6c-1,0-1.9-0.8-1.9-1.9v-0.6C132.9,113.4,133.8,112.6,134.8,112.6z"/>
			<polygon class="st2" points="137.8,137.4 159.9,134.7 159.9,120.6 141.6,120.6 			"/>
			<path class="st5" d="M155.6,140.3h3.6c0.4,0,0.7-0.3,0.7-0.7v-0.2c0-0.4-0.3-0.7-0.7-0.7h-3.6c-0.4,0-0.7,0.3-0.7,0.7v0.2
				C154.9,140,155.2,140.3,155.6,140.3z"/>
			<path class="st12" d="M152.2,152.9h-21.4v1.8c0,1.7,1.4,3,3,3h18.4V152.9z"/>
			<path class="st10" d="M186.2,154.5c0,1.1,0.2,2.2,0.5,3.3h19.6c0.3-1,0.5-2.1,0.5-3.3c0-3.6-1.9-6.8-4.7-8.7
				c-1.6-1.1-3.5-1.7-5.6-1.7s-4,0.6-5.6,1.7C188,147.7,186.2,150.9,186.2,154.5z"/>
			<circle class="st13" cx="196.5" cy="154.5" r="7.4"/>
			<circle class="st12" cx="196.5" cy="154.5" r="3.5"/>
			
				<rect x="138" y="154.7" transform="matrix(-1 -1.224647e-16 1.224647e-16 -1 284.9797 310.5621)" class="st14" width="9" height="1.1"/>
			
				<rect x="130.8" y="154.2" transform="matrix(-1 -1.224647e-16 1.224647e-16 -1 263.3956 310.5621)" class="st15" width="1.8" height="2.1"/>
			<path class="st10" d="M143.5,154.5c0,1.1,0.2,2.2,0.5,3.3h19.6c0.3-1,0.5-2.1,0.5-3.3c0-3.6-1.9-6.8-4.7-8.7
				c-1.6-1.1-3.5-1.7-5.6-1.7c-2.1,0-4,0.6-5.6,1.7C145.4,147.7,143.5,150.9,143.5,154.5z"/>
			<circle class="st13" cx="153.8" cy="154.5" r="7.4"/>
			<circle class="st12" cx="153.8" cy="154.5" r="3.5"/>
			<path class="st5" d="M130.6,150.7h2.4c0.1,0,0.3-0.2,0.3-0.4V145c0-0.2-0.1-0.4-0.3-0.4h-1.5c-0.1,0-0.2,0.1-0.3,0.3l-0.1,0.5
				l-0.7,4.4l-0.1,0.3C130.3,150.4,130.5,150.7,130.6,150.7z"/>
		</g>
	</g>
</g>
</svg>
