<svg version="1.1" id="Layer_1" xmlns="http://www.w3.org/2000/svg" xmlns:xlink="http://www.w3.org/1999/xlink" x="0px" y="0px"
	 viewBox="0 0 75 75" style="enable-background:new 0 0 75 75;" xml:space="preserve">
<g>
	<path fill="#fff" d="M46.9,19.3c0-1.1-0.9-2-2.1-2h-3.5c0-2.4-2-4.2-4.4-4.2c-2.4,0-4.3,1.9-4.4,4.2H29c-1.1,0-2.1,0.9-2.1,2v5.2
		h19.8v-5.2H46.9z M37,19.7c-1.3,0-2.4-1.1-2.4-2.4c0-1.3,1.1-2.4,2.4-2.4s2.4,1.1,2.4,2.4C39.4,18.6,38.3,19.7,37,19.7z M53.5,20.4
		h-4.4v6.2H24.9v-6.2h-4.4c-0.8,0-1.5,0.6-1.5,1.5v37.6c0,0.8,0.7,1.5,1.5,1.5h33c0.8,0,1.5-0.7,1.5-1.5V21.9
		C55,21,54.3,20.4,53.5,20.4z M33.4,49.3L27.1,43l2.4-2.3l4.3,4.2l11.1-11.1l2,2.1L33.4,49.3z"/>
</g>
<rect fill="none" width="75" height="75"/>
</svg>
