<svg version="1.1" id="Layer_1" xmlns="http://www.w3.org/2000/svg" xmlns:xlink="http://www.w3.org/1999/xlink" x="0px" y="0px"
	 viewBox="0 0 75 75" style="enable-background:new 0 0 75 75;" xml:space="preserve">
<path fill="#fff" d="M62.6,46.1v-0.2l-0.4-2.6l0-0.3c0-0.1-0.1-0.2-0.2-0.2h-0.3l-0.1-2.6l-3.4-13.4h1.6c0.6,0,1.2-0.4,1.3-1.1
	c0.1-0.7-0.4-1.3-1-1.5c-0.1,0-0.1,0-0.2,0H43.6v-5.2H14.9c-1.8,0-3.3,1.5-3.3,3.3V47h1.9v3.5h3.9c0,3.8,3.1,6.9,6.9,6.9
	s6.9-3.1,6.9-6.9h11c0,3.8,3.1,6.9,6.9,6.9c3.8,0,6.9-3.1,6.9-6.9h5.6l0.5-2.8h-0.6v-1.3h0.7C62.6,46.4,62.6,46.2,62.6,46.1z
	 M24.4,53.3c-1.6,0-3-1.3-3.1-2.9c0-0.1,0-0.1,0-0.2c0-1.7,1.4-3.1,3.1-3.1s3.1,1.4,3.1,3.1l0,0c0,0.1,0,0.1,0,0.2
	C27.4,52.1,26.1,53.3,24.4,53.3z M49.3,53.3c-1.6,0-3-1.3-3.1-2.9c0-0.1,0-0.1,0-0.2c0-1.7,1.4-3.1,3.1-3.1c1.7,0,3.1,1.4,3.1,3.1
	l0,0c0,0.1,0,0.1,0,0.2C52.3,52.1,50.9,53.3,49.3,53.3z M45.5,37.1V29h10.6l2.2,9.7L45.5,37.1z"/>
</svg>
