<svg xmlns="http://www.w3.org/2000/svg" viewBox="0 0 98.61 98.61"><defs><style>.b{fill:#9cf}.c{fill:#c8e7ff}.d{fill:#0f72ff}</style></defs><path fill="none" d="M0 0h98.61v98.61H0z"/><path class="b" d="M31.43 46.33h26.73a2.45 2.45 0 012.45 2.45v8.92H29v-8.92a2.45 2.45 0 012.45-2.45z"/><path class="c" d="M27.38 67.13h3V72a1 1 0 01-1 1h-1.05a1 1 0 01-1-1v-4.87zm32.01 0h3V72a1 1 0 01-1 1h-1.05a1 1 0 01-1-1v-4.87h.05z"/><rect class="d" x="31.71" y="51.22" width="11.88" height="6.7" rx=".72" ry=".72"/><rect class="d" x="45.34" y="51.22" width="11.88" height="6.7" rx=".72" ry=".72"/><path class="c" d="M28.48 56.45h32.63a2.45 2.45 0 012.45 2.45v8.91H26V58.9a2.45 2.45 0 012.48-2.45z"/><path class="b" d="M26.03 61.19h37.53v2.44H26.03z"/><rect class="c" x="62.15" y="24.86" width="27.45" height="43.72" rx="1.56" ry="1.56"/><path class="d" d="M74.49 24.86h2.04v43.72h-2.04z"/><path class="d" d="M62.15 59.19v-2.04H89.6v2.04zm0 5.32v-2.04h12.87v2.04zm16.99-24.95a.78.78 0 00-.78.77V43a.78.78 0 001.56 0v-2.7a.78.78 0 00-.78-.74zm-6.7 0a.78.78 0 00-.78.77V43a.78.78 0 001.56 0v-2.7a.78.78 0 00-.78-.74zm-2.5 21.27a.59.59 0 00-.54-.63h-1.86a.64.64 0 000 1.26h1.86a.59.59 0 00.54-.63zm0 5.32a.59.59 0 00-.54-.63h-1.86a.64.64 0 000 1.26h1.86a.59.59 0 00.54-.63zm14.4-4.9a.59.59 0 00-.54-.63h-1.86a.64.64 0 000 1.27h1.86a.59.59 0 00.54-.64z"/><circle class="d" cx="67.16" cy="71.17" r="2.59"/><circle class="c" cx="67.16" cy="71.17" r="1.21"/><circle class="d" cx="83.59" cy="71.17" r="2.59"/><circle class="c" cx="83.59" cy="71.17" r="1.21"/><rect class="b" x="12.85" y="56.06" width="4.73" height=".86" rx=".27" ry=".27" transform="rotate(-90 15.215 56.495)"/><path class="c" d="M17 53a.43.43 0 00-.43.43v2.29a.43.43 0 00.43.43.43.43 0 00.43-.43v-2.29A.44.44 0 0017 53z"/><rect class="c" x="13.07" y="58.16" width="4.54" height="2.25" rx=".19" ry=".19"/><path class="d" d="M17.35 50.56h-3.88l-1.24 4.05h6.14l-1.02-4.05z"/><rect class="c" x="9.66" y="70.74" width="4.73" height=".86" rx=".27" ry=".27" transform="rotate(-66.57 12.028 71.174)"/><rect class="c" x="19.69" y="70.74" width="4.73" height=".86" rx=".27" ry=".27" transform="rotate(-113.43 22.047 71.171)"/><rect class="b" x="9.02" y="59.93" width="16.36" height="11.33" rx=".82" ry=".82"/><path class="c" d="M9.02 64.5h16.36v1.42H9.02z"/><rect class="d" x="16.17" y="62.03" width="2.36" height=".86" rx=".27" ry=".27"/><rect class="d" x="16.17" y="67.18" width="2.36" height=".86" rx=".27" ry=".27"/></svg>