<svg xmlns="http://www.w3.org/2000/svg" viewBox="0 0 98.61 98.61"><defs><style>.b{fill:#0f72ff}.c{fill:#9cf}.d{fill:#c8e7ff}</style></defs><path fill="none" d="M0 0h98.61v98.61H0z"/><path class="b" d="M11.45 67.2S8.09 66 8 63.2s-1.5 3.57 2.13 6a2.76 2.76 0 001.32-2z"/><path class="c" d="M22.91 73.78s1.72-2.35 1.05-4.49c-1-3.23-7.45-2.55-7.45-2.55s-5.79-.68-6.79 2.55c-.67 2.14 1 4.49 1 4.49s-2.39.58-1.72 1.86 2.9.56 3.11 0S13.79 74 13.79 74h6.1s1.51 1 1.72 1.61 2.47 1.29 3.1 0-1.8-1.83-1.8-1.83z"/><path class="d" d="M13.23 68.87S15.34 74 14.51 74s-1.72.11-1.87 1 .56 1.64 2.06 1.37 1.57-.84 1.57-2.71v-1.78a2.76 2.76 0 00-1.86-2.6zm6.91 0S18 74 18.86 74s1.72.11 1.87 1-.56 1.64-2.07 1.37-1.56-.84-1.56-2.71v-1.78a2.75 2.75 0 011.9-2.6zm1.57-6.34c0 3.83-2.29 4.71-5.1 4.71s-5.11-.88-5.11-4.71 2.29-9.17 5.11-9.17 5.1 5.33 5.1 9.17z"/><path class="c" d="M14.5 55s-2.5-2.71-3.74-2.5-4.51 3.33-4.23 4.8.92 2.39 2.47 1.44a7.87 7.87 0 002.49-3.33L14 56.65zm4.6 0s2.5-2.71 3.73-2.5 4.52 3.33 4.23 4.8-.92 2.38-2.47 1.43a7.93 7.93 0 01-2.5-3.33l-2.48 1.24z"/><circle class="b" cx="15.1" cy="59.06" r=".6"/><circle class="b" cx="18.52" cy="59.06" r=".6"/><ellipse class="b" cx="16.79" cy="62.4" rx="1.52" ry="1.22"/><path class="b" d="M15.27 65.1c-1.18 0-1.54-.73-1.56-1.11a.27.27 0 01.29-.29.28.28 0 01.29.26c0 .05.09.58 1 .58s1.06-1.41 1.06-1.43a.27.27 0 01.29-.26.28.28 0 01.26.3c-.06.67-.45 1.95-1.63 1.95z"/><path class="b" d="M18.34 65.1c-1.18 0-1.58-1.28-1.62-1.95a.29.29 0 01.26-.3.27.27 0 01.29.26c0 .06.11 1.43 1.07 1.43s1-.58 1-.58a.28.28 0 01.3-.26.28.28 0 01.26.29c-.03.38-.38 1.11-1.56 1.11zm57.84-6.62L79 60l-2.49.81s2.27 2 1.53 2.93a1.3 1.3 0 01-1.64.41v-3.52z"/><path class="c" d="M64.49 74.01H69v1.27h-4.51zm5.52 0h3.96v1.27h-3.96z"/><path class="c" d="M66.06 71.16h-.79l1.6 3.21h.79l-1.6-3.21zm4.14 0h-.79l1.6 3.21h.79l-1.6-3.21z"/><path class="b" d="M75.56 55.77A1 1 0 0075 56l-.66-1-1 1.13a1 1 0 10-.66 1.73h2.86a1 1 0 000-2z"/><path class="d" d="M74.37 57.09a2 2 0 00-2 2v2.71H59.94a1.56 1.56 0 100 3.12H63V65h-1.37a1.47 1.47 0 000 2.94H63v1.63a1.59 1.59 0 001.59 1.59h7.68a4.06 4.06 0 004.06-4.06v-8a2 2 0 00-1.96-2.01z"/><circle class="b" cx="75.28" cy="58.96" r=".36"/><path class="b" d="M76 61.35s-1.69 1.81-1.14 2.65 1.51.08 1.51.08v-3.25zm5.53 3.87l-1.66.88 1.48.48s-1.34 1.2-.91 1.74a.79.79 0 001 .25V66.5z"/><path class="c" d="M88.47 75.2h-2.68v-.75h2.68zm-3.27 0h-2.35v-.75h2.35z"/><path class="c" d="M87.54 72.75h.47l-.95 1.91h-.47l.95-1.91zm-2.46 0h.47l-.95 1.91h-.47l.95-1.91z"/><path class="b" d="M81.9 63.62a.55.55 0 01.31.1l.39-.62.61.67a.59.59 0 11.39 1h-1.7a.59.59 0 110-1.18z"/><path class="d" d="M82.6 64.4a1.18 1.18 0 011.19 1.18v1.61h7.38a.93.93 0 110 1.85h-1.84v.06h.84a.87.87 0 010 1.74h-.84v1a.94.94 0 01-.94.94h-4.56a2.41 2.41 0 01-2.41-2.41v-4.79a1.18 1.18 0 011.18-1.18z"/><circle class="b" cx="82.07" cy="65.51" r=".21"/><path class="b" d="M81.63 66.93s1 1.07.68 1.59-.89 0-.89 0v-1.9zM62.19 26.22s-3.06-1.08-4.54.23-3.25 8-5.94 10.05-8.56 3.5-9.36 3.68S55.59 42 55.59 42l6.6-12.22zM34 42s-5.37-1.59-7.25 1.55-1.54 8.16-.4 13.42c.63 3 .4 5.25-1.54 6.08 4.68-.2 7.61-2.48 7.51-8.39A55.43 55.43 0 0134 42z"/><path class="d" d="M42.91 56.13c-.34.27-.59.7-.91 1-2.32 2.26-3.86 3.22-3.92 6.25s.65 12.26.65 12.26H34.8a22.5 22.5 0 01.36-5.71c.59-3 1.55-4.29.89-7.2s-5.18-8.34-5-14.47S34 38.8 39 38.86s13.81 2.85 16.9-1.67c2.15-2.8 2.84-11.57 7.39-13.69a6.7 6.7 0 017.95 2.79c2.62 5.09 5.78 6.21 5.7 7S75 36.4 74.06 35.61c-2-1.69-5.13-1.49-6.41-2s-2.31 1.51-2.37 3.89S67 53 63 54.27s-13.69 3.4-16.43 3z"/><path class="c" d="M63 48.06s2.52 3.93-1.69 9.78c-1.62 2.16-2.9 3.16-2.62 7.69s.93 10.11.93 10.11h-3.68a94.18 94.18 0 000-13.19c-.38-3.91-1.08-8.46-1.49-11a4.69 4.69 0 011.09-3.85c1.75-2 4.84-4.27 7.46.46z"/><path class="b" d="M63.62 25s-2-2.87-3.67-2.78.61 4.88 2.38 5.16z"/><circle class="b" cx="68.68" cy="28.05" r=".69"/></svg>