<svg xmlns="http://www.w3.org/2000/svg" viewBox="0 0 98.61 98.61"><defs><style>.b{fill:#9cf}.c{fill:#2b83ff}.d{fill:#c8e7ff}.e{fill:#0f72ff}</style></defs><path fill="none" d="M0 0h98.61v98.61H0z"/><path class="b" d="M67.67 22.99l-18.57-7-19.8 7 20.32 9.54 18.05-9.54z"/><path class="c" d="M67.67 22.99l-18.57 7.4v22.5l18.57-7.4v-22.5z"/><path class="d" d="M29.3 22.99l19.8 7.4v22.5l-19.8-7.4v-22.5z"/><path class="c" d="M39.33 36l-2.44-1.87 2.69-4.08-5.31-1.7v8.9a4 4 0 00.93 2.49z"/><path class="c" d="M40 41.51a3.07 3.07 0 003.55-3.12v-7.06l-2-.66-2.1 3.19L42.23 36l-5.43 5a3.68 3.68 0 001 .29h.16v3.21l-2.22-.73-.37 1.77 6.88 2.26.41-1.8-2.82-.93v-3.58z"/><path class="d" d="M77.32 50.41V35.7a2.65 2.65 0 115.29 0v22.61a3.38 3.38 0 01-.8 2.19L71.62 72.57a4.84 4.84 0 00-1.13 3.11v4.15h-11V65.31a3.35 3.35 0 011.35-2.7z"/><path class="e" d="M61.08 63.45L64 66.92l14.8-11.49a2.53 2.53 0 00.3-3.57l-.17-.2a2.53 2.53 0 00-3.57-.3z"/><path class="d" d="M60.21 63.19L64 66.92l13.4-13.66a2.12 2.12 0 000-3l-.76-.75a2.13 2.13 0 00-3 0z"/><path class="b" d="M56.01 76.63H76.7v6H56.01z"/><path class="d" d="M21.29 50.41V35.7a2.65 2.65 0 10-5.29 0v22.61a3.43 3.43 0 00.8 2.19L27 72.57a4.84 4.84 0 011.13 3.11v4.15h11.04V65.31a3.36 3.36 0 00-1.36-2.7z"/><path class="e" d="M37.54 63.45l-2.94 3.47-14.8-11.49a2.53 2.53 0 01-.3-3.57l.17-.2a2.53 2.53 0 013.57-.3z"/><path class="d" d="M38.4 63.19l-3.8 3.73-13.39-13.66a2.13 2.13 0 010-3l.79-.76a2.13 2.13 0 013 0z"/><path class="b" d="M42.61 82.62H21.92v-6h20.69z"/></svg>