<svg xmlns="http://www.w3.org/2000/svg" viewBox="0 0 98.61 98.61"><defs><style>.b{fill:#0f72ff}.c{fill:#9cf}.d{fill:#c8e7ff}</style></defs><path fill="none" d="M0 0h98.61v98.61H0z"/><path class="b" d="M68.37 30.14h-6.55a1.52 1.52 0 00-1.51 1.51v.42a1.52 1.52 0 001.51 1.51h3.69A1.51 1.51 0 0067 32.07v-.42a.8.8 0 000-.15h.55a.54.54 0 01.54.54v4.25h1.37v-5.08a1.07 1.07 0 00-1.09-1.07zm5.76 0h6.55a1.52 1.52 0 011.51 1.51v.42a1.52 1.52 0 01-1.51 1.51H77a1.51 1.51 0 01-1.51-1.51v-.42a.8.8 0 010-.15H75a.54.54 0 00-.54.54v4.25h-1.4v-5.08a1.07 1.07 0 011.07-1.07z"/><path class="c" d="M76.694 58.579l1.007-1.407 3.464 2.479-1.007 1.407z"/><path class="d" d="M90 52.72v14.94a.82.82 0 01-.82.81h-5.81a.8.8 0 01-.8-.81V52.72a.8.8 0 01.8-.81h5.76a.82.82 0 01.87.81z"/><path class="c" d="M80 56.9h2.55v5.56H80a.41.41 0 01-.41-.41v-4.74a.41.41 0 01.41-.41zm10-2.5v1.73h-3a.87.87 0 010-1.73h3zm0 6.6v1.73h-3a.86.86 0 01-.86-.85.87.87 0 01.85-.89h3zm-3.58-2.5a.87.87 0 01-.87.87h-3v-1.71h3a.9.9 0 01.87.84zm0 6.6a.87.87 0 01-.87.88h-3v-1.71h3a.88.88 0 01.87.83zm-24.96-5.444l3.464-2.479 1.006 1.407-3.464 2.48z"/><path class="c" d="M62.61 62.46h-2.54V56.9h2.54a.41.41 0 01.41.41v4.74a.41.41 0 01-.41.41z"/><path class="d" d="M76.72 35.71H66.03l-3.38 7.05v9.97l3.38 7.05h10.69l3.38-7.05v-9.97l-3.38-7.05z"/><path class="c" d="M55.59 50.43v-6.51a2.21 2.21 0 012.21-2.21h26.94a2.21 2.21 0 012.21 2.21v6.51H55.59z"/><circle class="b" cx="59.31" cy="46" r="2.07"/><circle class="b" cx="82.88" cy="46" r="2.07"/><rect class="b" x="65.71" y="44.28" width="11.28" height=".84" rx=".24" ry=".24"/><rect class="b" x="65.71" y="47.06" width="11.28" height=".84" rx=".24" ry=".24"/><rect class="c" x="68.89" y="37.95" width="5.06" height="2.03" rx=".59" ry=".59"/><path class="c" d="M76.22 52.71h-9.19l1.37 4.16h6.44l1.38-4.16z"/><circle class="b" cx="55.37" cy="60.14" r="8.34"/><circle class="d" cx="55.37" cy="60.14" r="3.88"/><circle class="b" cx="21.44" cy="60.14" r="8.34"/><circle class="d" cx="21.44" cy="60.14" r="3.88"/><path class="c" d="M36.31 64.02L9.57 62.9l-.31-1.91h27.05v3.03z"/><rect class="d" x="38.01" y="53.99" width="7.53" height="5.11" rx="1.48" ry="1.48"/><rect class="c" x="34.37" y="58.02" width="10.18" height="5.99" rx="1.48" ry="1.48"/><path class="c" d="M50.64 43.49a.88.88 0 01-.85-.68L49 39l-6.43-1.51a.87.87 0 01.4-1.69l7.49 1.77 1.05 4.92a.87.87 0 01-.67 1 .55.55 0 01-.2 0z"/><path class="b" d="M10.29 49.45l2.81 5.28 32.72-.74 2.88-6.69-38.41 2.15z"/><path class="d" d="M12.27 37.54h4.25a2 2 0 012 2v9.92h-8.23v-9.93a2 2 0 011.98-1.99z"/><path class="d" d="M18.51 44.54h9.43v4.91h-9.43z"/><path class="c" d="M37.57 49.45h-9.95v-4.91l9.95 1.36v3.55z"/><path class="c" d="M41.85 42.63h4.69A3.29 3.29 0 0149.71 46a3.3 3.3 0 01-3.17 3.41h-14.6l6.86-5.7a4.73 4.73 0 013.05-1.08zM55.37 61a.88.88 0 01-.84-.63l-4.75-16.64a.86.86 0 01.59-1.07.88.88 0 011.07.6L56.2 59.9a.87.87 0 01-.6 1.1zM15.14 48.82h12.61a4.85 4.85 0 014.85 4.85v3.94a.55.55 0 01-.55.55H10.84a.55.55 0 01-.55-.55v-3.94a4.85 4.85 0 014.85-4.85z"/><path class="b" d="M50.386 47.635l-1.461-5.613a.69.69 0 01.494-.841l2.419-.63a1.48 1.48 0 011.798 1.072l1.058 4.064a1.48 1.48 0 01-1.06 1.805l-2.419.63a.69.69 0 01-.83-.487z"/></svg>