<svg xmlns="http://www.w3.org/2000/svg" viewBox="0 0 98.61 98.61"><defs><style>.b{fill:#0f72ff}.c{fill:#9cf}.d{fill:#c8e7ff}</style></defs><path fill="none" d="M0 0h98.61v98.61H0z"/><path class="b" d="M79.68 56.47h-7.25V68.1h11.63l-4.38-11.63z"/><path class="c" d="M51.54 44.48h13.03v29.8H51.54z"/><path class="d" d="M36.56 59.37h13.03v14.9H36.56z"/><path class="c" d="M21.07 62.74H34.1v11.53H21.07z"/><path opacity=".7" fill="#c8e7ff" d="M36.56 49.42h13.03v10.22H36.56z"/><circle class="b" cx="53.79" cy="80.34" r="4.19"/><path class="d" d="M47.7 77.09h-9.38v3.54h8.56v-.29a6.9 6.9 0 01.82-3.25z"/><path class="d" d="M88.6 69.44h-.79l-1.14-3-3.83-10.07A4.12 4.12 0 0079 53.73h-6.71v-7.91L73.87 47a1.77 1.77 0 002.8-1.43v-6a1.75 1.75 0 00-.73-1.43L43.16 14.42a1.76 1.76 0 00-2.06 0L8 38a1.74 1.74 0 00-.74 1.44v6.08a1.76 1.76 0 00.93 1.56A1.78 1.78 0 0010 47l2-1.34v33.2a1.77 1.77 0 001.77 1.77h17v-3.54H15.48v-33.8l26.64-18.48 26.64 18.48v33.8h-8.88a6.89 6.89 0 01.84 3.25v.29h12v-.29a6.94 6.94 0 0113.87 0v.29h2.01a2.81 2.81 0 002.81-2.81v-5.58a2.81 2.81 0 00-2.81-2.8zm-15.55-1.89V56.9h6a.92.92 0 01.87.59l3.78 10.06z"/><circle class="b" cx="79.55" cy="80.34" r="4.19"/><path class="b" d="M56.86 44.48h2.79v3.09h-2.79zM42.1 49.42h2.79v3.09H42.1zm0 10.22h2.79v3.09H42.1zm-15.91 3.1h2.79v3.09h-2.79z"/></svg>