<svg xmlns="http://www.w3.org/2000/svg" viewBox="0 0 98.61 98.61"><defs><style>.b{fill:#c8e7ff}.c{fill:#9cf}.d{fill:#0f72ff}</style></defs><path fill="none" d="M0 0h98.61v98.61H0z"/><path class="b" d="M41.34 25.76h-8.79A26.18 26.18 0 006.37 51.94a9.53 9.53 0 009.53 9.53h38.36a4.63 4.63 0 004.63-4.63V43.32a17.56 17.56 0 00-17.55-17.56z"/><rect class="c" x="6.37" y="59.96" width="54.7" height="6.22" rx="1.83" ry="1.83"/><rect class="d" x="17.06" y="38.77" width="12.79" height="11.2" rx="2" ry="2"/><path class="c" d="M39.58 36.4h6.1A4.34 4.34 0 0150 40.75v19.8H35.24v-19.8a4.34 4.34 0 014.34-4.34z"/><circle class="d" cx="42.69" cy="44.86" r="3.88"/><circle class="d" cx="45.33" cy="53.3" r="1.88"/><circle class="d" cx="22.17" cy="63.42" r="7.32"/><circle class="b" cx="22.17" cy="63.42" r="3.41"/><path class="d" d="M86 57.4l-6.34-.32c-.54 0-1.1-.07-1.7-.08-2.79-.14-6.06-.31-9.41-.46l-1.7-.09c-7.45-.34-14.85-.65-17.48-.65a27.42 27.42 0 0117.47-8.75c.56 0 1.12-.1 1.7-.13s1 0 1.58 0A19.82 19.82 0 0178 48.37a12.16 12.16 0 011.7.8 14.85 14.85 0 016 5.95z"/><path class="b" d="M68.54 46.92V57.4h-1.7V47.05c.56-.05 1.16-.05 1.7-.13zm11.11 2.25v8.23H78v-9a12.16 12.16 0 011.65.77z"/><path class="b" d="M38.33 67.63h53.21a.7.7 0 00.71-.7v-3.26h-1.62v-5.89a1.07 1.07 0 00-.69-1l-4.26-1.65H48.07s-9.23.31-9.6 3.78v4.27h-1.3v3.3a1.16 1.16 0 001.16 1.15z"/><path class="d" d="M38.47 61.7h2.47v1.48h-2.47zm49.74-1.8h2.47v1.48h-2.47z"/><circle class="d" cx="49.37" cy="66.38" r="6.47"/><circle class="b" cx="49.37" cy="66.38" r="3.01"/><circle class="d" cx="79.65" cy="66.38" r="6.47"/><circle class="b" cx="79.65" cy="66.38" r="3.01"/></svg>