<svg xmlns="http://www.w3.org/2000/svg" viewBox="0 0 39.8 39.8"><g data-name="Layer 2"><path d="M11.24 18.35A3.75 3.75 0 007.65 21a1.1 1.1 0 002.09.67 1.56 1.56 0 011.5-1.11 1.61 1.61 0 010 3.21h-.1a1.1 1.1 0 00-1.1 1.1v1.43a1.1 1.1 0 102.2 0v-.5a3.8 3.8 0 00-1-7.45zm-.1 10.58A1.1 1.1 0 0010 30v.44a1.1 1.1 0 102.2 0V30a1.1 1.1 0 00-1.06-1.07zm17.29-10.58A3.76 3.76 0 0024.84 21a1.1 1.1 0 002.1.67 1.56 1.56 0 011.49-1.11 1.61 1.61 0 010 3.21h-.09a1.1 1.1 0 00-1.1 1.1v1.43a1.1 1.1 0 002.2 0v-.5a3.8 3.8 0 00-1-7.45zm-.09 10.58a1.1 1.1 0 00-1.1 1.1v.44a1.1 1.1 0 002.2 0V30a1.1 1.1 0 00-1.1-1.07z" fill="#c8e7ff"/><path d="M25.71 14.45a6.16 6.16 0 00-12-1.9 1.1 1.1 0 102.09.66 4 4 0 113.78 5.27h-.18a1.1 1.1 0 00-1.1 1.1v2.72a1.1 1.1 0 102.2 0v-1.7a6.22 6.22 0 005.21-6.15zm-6.35 10.31a1.1 1.1 0 00-1.1 1.1v.67a1.1 1.1 0 002.2 0v-.67a1.1 1.1 0 00-1.1-1.1z" fill="#0f72ff"/><path fill="none" d="M0 0h39.8v39.8H0z"/></g></svg>