<svg xmlns="http://www.w3.org/2000/svg" viewBox="0 0 626.82 201.63"><defs><style>.cls-1{fill:#ffef69;}.cls-2{fill:#e0edf5;}.cls-3{fill:#279553;}.cls-4{fill:#35c86f;}.cls-5{fill:#fff;}.cls-6{fill:#ed9595;}.cls-7{fill:#809ced;}.cls-8{fill:#71d1c3;}.cls-9{fill:#c1cfdb;}.cls-10{fill:#0172c3;}.cls-11{fill:#0083fe;}.cls-12{fill:#ffc007;}.cls-13{fill:#e6e6eb;}.cls-14{fill:#e3f4ff;}.cls-15{fill:#353435;}.cls-16{fill:#0091f7;}.cls-17{fill:#5c5d5d;}.cls-18{fill:#d1d5d8;}.cls-19{fill:#5e5d5d;}.cls-20{fill:#3d3d3d;}.cls-21{fill:#5c5b5c;}.cls-22{fill:#b2b2b3;}.cls-23{fill:#b6c8d4;}.cls-24{fill:#f5f9fc;}.cls-25{fill:#c1d4e0;}.cls-26{fill:#e0bb8b;}.cls-27{fill:#266999;}.cls-28{fill:#1391eb;}.cls-29{fill:#eecda2;}.cls-30{fill:#2675ad;}.cls-31{fill:#cfddeb;}.cls-32{fill:#ffb700;}.cls-33{fill:#d3e0f0;}</style></defs><title>banner-img</title><g id="Layer_2" data-name="Layer 2"><g id="Icons"><path class="cls-1" d="M481.55,23.46A15.47,15.47,0,1,1,466.09,8,15.47,15.47,0,0,1,481.55,23.46Z"/><path class="cls-2" d="M324,194.8a3.41,3.41,0,0,0-3.41,3.41h0a3.42,3.42,0,0,0,3.41,3.42H571.41c3,0,5.06-3.82,1.64-6.83Z"/><path class="cls-2" d="M301.49,194.8H93.74a3.54,3.54,0,0,0-3.6,3.23,3.42,3.42,0,0,0,3.41,3.6H301.49a3.42,3.42,0,0,0,3.41-3.42h0A3.41,3.41,0,0,0,301.49,194.8Z"/><path class="cls-2" d="M76.25,201.63H3.41A3.42,3.42,0,0,1,0,198.21H0a3.41,3.41,0,0,1,3.41-3.41H76.25a3.42,3.42,0,0,1,3.42,3.41h0A3.42,3.42,0,0,1,76.25,201.63Z"/><rect class="cls-3" x="514.17" y="100.67" width="1.72" height="12.53"/><circle class="cls-4" cx="515.03" cy="91.56" r="10.46"/><path class="cls-5" d="M511.53,96.08V87h3.33a6.09,6.09,0,0,1,1.59.17,3.18,3.18,0,0,1,1.08.49,1.78,1.78,0,0,1,.6.77,2.53,2.53,0,0,1,.19,1,2.33,2.33,0,0,1-.08.59,1.69,1.69,0,0,1-.28.53,2.09,2.09,0,0,1-.48.45,3,3,0,0,1-.7.35,2.52,2.52,0,0,1,1.33.7,1.87,1.87,0,0,1,.42,1.25,2.58,2.58,0,0,1-.22,1.08,2.48,2.48,0,0,1-.65.86,3.14,3.14,0,0,1-1.07.58,4.55,4.55,0,0,1-1.44.21Zm2.1-5.24h1.09a4,4,0,0,0,.63,0,1.24,1.24,0,0,0,.47-.17.89.89,0,0,0,.3-.34,1.29,1.29,0,0,0,.1-.55,1.43,1.43,0,0,0-.08-.54.76.76,0,0,0-.24-.34,1.13,1.13,0,0,0-.43-.19,3.49,3.49,0,0,0-.61,0h-1.23Zm0,1.4V94.5h1.48a1.9,1.9,0,0,0,.68-.11,1.13,1.13,0,0,0,.41-.27.82.82,0,0,0,.2-.38,1.54,1.54,0,0,0,.06-.43,1.63,1.63,0,0,0-.06-.45.76.76,0,0,0-.23-.33,1,1,0,0,0-.42-.21,2.35,2.35,0,0,0-.65-.08Z"/><rect class="cls-6" x="21.38" y="62.07" width="3.11" height="9.2" transform="translate(45.87 133.35) rotate(-180)"/><rect class="cls-5" x="22.01" y="63.83" width="1.85" height="5.48" transform="translate(45.87 133.13) rotate(-180)"/><rect class="cls-7" x="25.04" y="62.56" width="3.11" height="9.2" transform="translate(44.78 137.07) rotate(-172.98)"/><rect class="cls-5" x="25.91" y="64.32" width="1.85" height="1.85" transform="translate(45.48 133.29) rotate(-172.98)"/><rect class="cls-8" x="17.75" y="62.84" width="3.11" height="9.2" transform="translate(44.86 132.77) rotate(174.61)"/><rect class="cls-5" x="18.37" y="64.59" width="1.85" height="5.48" transform="translate(44.82 132.55) rotate(174.61)"/><polygon class="cls-9" points="51.23 64.74 46.17 64.74 33.96 64.74 33.96 89.73 63.44 89.73 63.44 64.74 51.23 64.74"/><rect class="cls-2" x="29.14" y="64.74" width="29.48" height="24.99" transform="translate(87.76 154.46) rotate(-180)"/><rect class="cls-9" x="41.35" y="64.74" width="5.06" height="5.8" transform="translate(87.76 135.27) rotate(-180)"/><rect class="cls-9" x="18.25" y="67.53" width="13.2" height="22.2" transform="translate(49.7 157.26) rotate(-180)"/><rect class="cls-2" x="15.64" y="67.53" width="13.2" height="22.2" transform="translate(44.47 157.26) rotate(-180)"/><rect class="cls-9" x="20.49" y="67.53" width="3.5" height="4.02" transform="translate(44.47 139.08) rotate(-180)"/><rect class="cls-10" x="97.08" y="99.78" width="1.84" height="13.37"/><circle class="cls-11" cx="98" cy="90.06" r="11.15"/><path class="cls-5" d="M102.88,94.88h-1.74a.82.82,0,0,1-.48-.13.81.81,0,0,1-.26-.35l-.57-1.68H96.17L95.6,94.4a.79.79,0,0,1-.26.33.73.73,0,0,1-.47.15H93.12l3.73-9.64h2.3Zm-6.2-3.69h2.64l-.89-2.64c-.06-.16-.12-.36-.2-.59s-.16-.47-.23-.74c-.07.27-.14.52-.22.75s-.14.43-.21.6Z"/><path class="cls-10" d="M131,75.83h4.29a0,0,0,0,1,0,0v9.24a2.14,2.14,0,0,1-2.14,2.14h0A2.14,2.14,0,0,1,131,85.07V75.83a0,0,0,0,1,0,0Z" transform="translate(96.63 -70.24) rotate(45)"/><polygon class="cls-11" points="140.65 73.98 128.92 76.33 138.3 85.71 140.65 73.98"/><path class="cls-3" d="M464.32,75.93h5.34a0,0,0,0,1,0,0v11.5A2.67,2.67,0,0,1,467,90.09h0a2.67,2.67,0,0,1-2.67-2.67V75.93A0,0,0,0,1,464.32,75.93Z" transform="matrix(-0.66, 0.75, -0.75, -0.66, 837.24, -213.44)"/><polygon class="cls-4" points="476.97 91.77 473.1 77.39 462.21 89.81 476.97 91.77"/><path class="cls-2" d="M507.91,171.26a1.58,1.58,0,0,1-1.42-2.27l4.17-8.64a1.58,1.58,0,0,1,2.84,1.38l-4.17,8.63A1.57,1.57,0,0,1,507.91,171.26Z"/><path class="cls-2" d="M514.31,169a1.64,1.64,0,0,1-.68-.15L505,164.7a1.58,1.58,0,0,1,1.37-2.85L515,166a1.58,1.58,0,0,1-.69,3Z"/><path class="cls-2" d="M81.61,115.5a1.69,1.69,0,0,1-.79-.18A1.8,1.8,0,0,1,80,112.9l.82-1.71a1.81,1.81,0,1,1,3.27,1.57l-.83,1.72A1.8,1.8,0,0,1,81.61,115.5Z"/><polygon class="cls-12" points="214.36 0 217.51 6.88 220.63 3.44 214.36 0"/><polygon class="cls-13" points="187.93 83.08 191.06 89.96 194.56 86.52 187.93 83.08"/><polygon class="cls-13" points="157.93 164.43 161.05 171.31 164.55 167.87 157.93 164.43"/><polygon class="cls-12" points="200.71 53.88 200.71 50.59 194.56 50.59 200.71 53.88"/><polygon class="cls-13" points="179.93 36.31 185.66 31.91 181.86 29.43 179.93 36.31"/><polygon class="cls-12" points="103.38 106.98 109.58 102.82 110.8 107.24 103.38 106.98"/><polygon class="cls-13" points="357.77 50.19 355.82 54.29 359.99 54.29 357.77 50.19"/><polygon class="cls-13" points="494.63 84.58 500.7 87.99 495.49 91.74 494.63 84.58"/><polygon class="cls-12" points="374.44 73.38 378.55 77.55 372.86 76.72 374.44 73.38"/><polygon class="cls-13" points="423.43 86.32 428.28 84.63 427.68 89.11 423.43 86.32"/><polygon class="cls-12" points="367.79 20.52 363.62 24.69 367.09 26.39 367.79 20.52"/><polygon class="cls-12" points="333.85 0.78 329.68 4.95 333.15 6.65 333.85 0.78"/><path class="cls-2" d="M342.45,67.54c0,35.4-64.09,128.64-64.09,128.64s-64.1-93.24-64.1-128.64a64.1,64.1,0,1,1,128.19,0Z"/><path class="cls-14" d="M337.85,67.54c0,35.4-64.1,128.64-64.1,128.64s-64.09-93.24-64.09-128.64a64.1,64.1,0,1,1,128.19,0Z"/><circle class="cls-5" cx="273.75" cy="67.54" r="31.88"/><circle class="cls-15" cx="286.57" cy="109.88" r="2.77"/><path class="cls-15" d="M284.08,106.72h13.57a.87.87,0,0,1,.87.87v.54a0,0,0,0,1,0,0H283.11a0,0,0,0,1,0,0v-.44A1,1,0,0,1,284.08,106.72Z" transform="translate(581.63 214.86) rotate(180)"/><rect class="cls-15" x="283.22" y="103.53" width="5.44" height="3.06" transform="translate(571.88 210.12) rotate(180)"/><path class="cls-16" d="M284.08,92.41h3.73a9.51,9.51,0,0,1,8.86,6.47,34.73,34.73,0,0,1,.87,3.84,17.35,17.35,0,0,1,.53,4.1c0,.38-.54,1-.54,1H283.11V92.41Z"/><rect class="cls-15" x="285.77" y="99.45" width="2.09" height="0.55" transform="translate(573.62 199.44) rotate(180)"/><path class="cls-15" d="M285.21,94.72l.21,2.77h4.33A2.15,2.15,0,0,1,291,99.14c.36,1.38.55,2,1.18,2s4-.34,4-.34L295.78,99a8.1,8.1,0,0,0-1.48-2.58,7.42,7.42,0,0,0-3.48-2.55H286A.75.75,0,0,0,285.21,94.72Z"/><path class="cls-5" d="M297.13,104.08h.66c.18,0,.31-.21.28-.43l-.19-1.13a.3.3,0,0,0-.27-.28H297c-.18,0-.31.21-.28.43l.19,1.13A.3.3,0,0,0,297.13,104.08Z"/><path class="cls-15" d="M287,106.22h6.66a0,0,0,0,1,0,0v2.12a2.29,2.29,0,0,1-2.29,2.29h-2.08a2.29,2.29,0,0,1-2.29-2.29v-2.12A0,0,0,0,1,287,106.22Z" transform="translate(580.6 216.85) rotate(-180)"/><circle class="cls-17" cx="290.25" cy="109.88" r="3.03"/><circle class="cls-5" cx="290.25" cy="109.88" r="1.92"/><path class="cls-18" d="M290.53,109.62a.37.37,0,0,0-.28-.13.38.38,0,0,0-.29.13,5.84,5.84,0,0,1-1-.14,1.36,1.36,0,0,1,2.59,0A5.84,5.84,0,0,1,290.53,109.62Z"/><path class="cls-18" d="M290,110.15a.39.39,0,0,0,.28.11.39.39,0,0,0,.27-.11,5.71,5.71,0,0,1,1,.14,1.35,1.35,0,0,1-2.57,0A5.71,5.71,0,0,1,290,110.15Z"/><polygon class="cls-15" points="251.17 106.15 282.53 106.15 282.53 107.15 265.02 107.15 262.71 109.47 255.77 109.47 252.86 107.15 251.17 107.15 251.17 106.15"/><rect class="cls-15" x="266.71" y="106.75" width="6.81" height="2.63" rx="0.91" ry="0.91" transform="translate(540.24 216.14) rotate(-180)"/><rect class="cls-15" x="271.81" y="106.75" width="0.31" height="2.63" transform="translate(543.92 216.14) rotate(180)"/><rect class="cls-15" x="268.23" y="106.75" width="0.31" height="2.63" transform="translate(536.76 216.14) rotate(180)"/><path class="cls-15" d="M258.78,106.45h6.33a0,0,0,0,1,0,0v2a2.18,2.18,0,0,1-2.18,2.18h-2a2.18,2.18,0,0,1-2.18-2.18v-2A0,0,0,0,1,258.78,106.45Z" transform="translate(523.9 217.1) rotate(180)"/><circle class="cls-15" cx="261.89" cy="109.93" r="2.88"/><circle class="cls-15" cx="261.89" cy="109.93" r="1.83"/><path class="cls-15" d="M262.16,109.68a.36.36,0,0,0-.27-.12.4.4,0,0,0-.27.12,5,5,0,0,1-.95-.12,1.28,1.28,0,0,1,2.45,0A5.14,5.14,0,0,1,262.16,109.68Z"/><path class="cls-15" d="M261.64,110.19a.33.33,0,0,0,.25.11.36.36,0,0,0,.26-.11,6.45,6.45,0,0,1,1,.13,1.29,1.29,0,0,1-2.45,0A6.28,6.28,0,0,1,261.64,110.19Z"/><path class="cls-15" d="M252.45,106.45h6.33a0,0,0,0,1,0,0v2a2.18,2.18,0,0,1-2.18,2.18h-2a2.18,2.18,0,0,1-2.18-2.18v-2a0,0,0,0,1,0,0Z" transform="translate(511.23 217.1) rotate(180)"/><circle class="cls-15" cx="255.56" cy="109.93" r="2.88"/><circle class="cls-15" cx="255.56" cy="109.93" r="1.83"/><path class="cls-15" d="M255.83,109.68a.36.36,0,0,0-.27-.12.4.4,0,0,0-.27.12,5,5,0,0,1-.95-.12,1.28,1.28,0,0,1,2.45,0A5.25,5.25,0,0,1,255.83,109.68Z"/><path class="cls-15" d="M255.31,110.19a.33.33,0,0,0,.25.11.36.36,0,0,0,.26-.11,6.16,6.16,0,0,1,1,.13,1.26,1.26,0,0,1-1.22.89,1.28,1.28,0,0,1-1.22-.89A6.28,6.28,0,0,1,255.31,110.19Z"/><polygon class="cls-15" points="259.66 106.15 283.11 106.15 283.11 107.15 273.51 107.15 271.2 109.47 264.26 109.47 261.35 107.15 259.66 107.15 259.66 106.15"/><rect class="cls-19" x="274.35" y="106.75" width="6.81" height="2.63" rx="0.91" ry="0.91" transform="translate(555.52 216.14) rotate(-180)"/><rect class="cls-20" x="279.45" y="106.75" width="0.31" height="2.63" transform="translate(559.2 216.14) rotate(180)"/><rect class="cls-20" x="275.87" y="106.75" width="0.31" height="2.63" transform="translate(552.05 216.14) rotate(180)"/><path class="cls-15" d="M267.27,106.45h6.33a0,0,0,0,1,0,0v2a2.18,2.18,0,0,1-2.18,2.18h-2a2.18,2.18,0,0,1-2.18-2.18v-2A0,0,0,0,1,267.27,106.45Z" transform="translate(540.88 217.1) rotate(180)"/><circle class="cls-19" cx="270.38" cy="109.93" r="2.88"/><circle class="cls-5" cx="270.38" cy="109.93" r="1.83"/><path class="cls-18" d="M270.65,109.68a.36.36,0,0,0-.27-.12.4.4,0,0,0-.27.12,5,5,0,0,1-.95-.12,1.28,1.28,0,0,1,2.45,0A5,5,0,0,1,270.65,109.68Z"/><path class="cls-18" d="M270.13,110.19a.33.33,0,0,0,.25.11.35.35,0,0,0,.26-.11,6.28,6.28,0,0,1,1,.13,1.29,1.29,0,0,1-2.45,0A6.28,6.28,0,0,1,270.13,110.19Z"/><path class="cls-15" d="M260.94,106.45h6.33a0,0,0,0,1,0,0v2a2.18,2.18,0,0,1-2.18,2.18h-2a2.18,2.18,0,0,1-2.18-2.18v-2A0,0,0,0,1,260.94,106.45Z" transform="translate(528.22 217.1) rotate(180)"/><circle class="cls-19" cx="264.05" cy="109.93" r="2.88"/><circle class="cls-5" cx="264.05" cy="109.93" r="1.83"/><path class="cls-18" d="M264.32,109.68a.36.36,0,0,0-.27-.12.4.4,0,0,0-.27.12,5,5,0,0,1-.95-.12,1.28,1.28,0,0,1,2.45,0A5.14,5.14,0,0,1,264.32,109.68Z"/><path class="cls-18" d="M263.8,110.19a.33.33,0,0,0,.25.11.36.36,0,0,0,.26-.11,6.45,6.45,0,0,1,1,.13,1.29,1.29,0,0,1-2.45,0A6.28,6.28,0,0,1,263.8,110.19Z"/><rect class="cls-21" x="250.36" y="105.78" width="9.3" height="1" transform="translate(510.02 212.57) rotate(180)"/><rect class="cls-22" x="250.36" y="106.78" width="9.3" height="1.72" transform="translate(510.02 215.29) rotate(180)"/><rect class="cls-23" x="250.36" y="88.68" width="31.36" height="17.47" transform="translate(532.07 194.83) rotate(180)"/><rect class="cls-24" x="259.66" y="88.68" width="23.45" height="17.47" transform="translate(542.77 194.83) rotate(180)"/><path class="cls-2" d="M63.44,166.71a4.75,4.75,0,1,0,4.75,4.75A4.75,4.75,0,0,0,63.44,166.71Zm0,8.33A3.59,3.59,0,1,1,67,171.46,3.59,3.59,0,0,1,63.44,175Z"/><path class="cls-2" d="M75.69,170.55h-3a9.25,9.25,0,0,0-8.29-8.29v-3a.91.91,0,0,0-1.81,0v3a9.25,9.25,0,0,0-8.3,8.29h-3a.91.91,0,1,0,0,1.81h3a9.25,9.25,0,0,0,8.3,8.29v3a.91.91,0,0,0,1.81,0v-3a9.25,9.25,0,0,0,8.29-8.29h3a.91.91,0,0,0,0-1.81Zm-12.25,8.34a7.44,7.44,0,1,1,7.44-7.43A7.44,7.44,0,0,1,63.44,178.89Z"/><path class="cls-2" d="M423.59,136.74a2.31,2.31,0,0,0,4.34,0,2.76,2.76,0,0,0,.14-.55h-4.63A3.63,3.63,0,0,0,423.59,136.74Z"/><path class="cls-2" d="M433.71,133.68a8.66,8.66,0,0,1-1.24-3.54,11.31,11.31,0,0,1-.13-1.35v-2.15c0-3.91-2.22-5.42-4.17-6a3,3,0,1,0-4.83,0c-1.95.58-4.17,2.09-4.17,6v2.15a11.31,11.31,0,0,1-.13,1.35,8.71,8.71,0,0,1-1.24,3.54.18.18,0,0,0-.05.07c-.2.29-.9,1.42.33,1.42h15.48C434.77,135.08,433.71,133.68,433.71,133.68Zm-7.95-16.15a1.34,1.34,0,0,1,.93,2.31,1.37,1.37,0,0,1-1.87,0,1.34,1.34,0,0,1,.94-2.31Z"/><path class="cls-25" d="M71.91,90v18.7h-43v26.56H64.72V154H28.88v40.8H4.41V90Z"/><path class="cls-25" d="M112.5,164.48V194.8h-19v-82h26.66a54.64,54.64,0,0,1,15.16,1.83,28.55,28.55,0,0,1,10.24,5.09,19.38,19.38,0,0,1,5.77,7.71,25.54,25.54,0,0,1,1.8,9.68,26,26,0,0,1-1.07,7.53,22.92,22.92,0,0,1-3.18,6.56,24.36,24.36,0,0,1-5.18,5.37,27.07,27.07,0,0,1-7.06,3.88,17.93,17.93,0,0,1,3.58,2.37,13.92,13.92,0,0,1,2.89,3.43l17.44,28.52H143.33q-4.79,0-6.87-3.6l-13.61-23.8a5.71,5.71,0,0,0-2.11-2.25,7.07,7.07,0,0,0-3.4-.67Zm0-13.11h7.65a19.46,19.46,0,0,0,6.61-1,11.84,11.84,0,0,0,4.47-2.72,10.46,10.46,0,0,0,2.53-4.08,15.57,15.57,0,0,0,.79-5A10.58,10.58,0,0,0,131,130.1q-3.52-3-10.89-3H112.5Z"/><path class="cls-25" d="M229.51,112.83v14.63H195.87v19.13h25.76v14.06H195.87v19.52h33.64V194.8H176.74v-82Z"/><path class="cls-25" d="M308.27,112.83v15.08H285.2V194.8h-19V127.91H243.12V112.83Z"/><path class="cls-25" d="M326.47,194.8V90H365a73.52,73.52,0,0,1,18.49,2A35.21,35.21,0,0,1,396,97.66a21.5,21.5,0,0,1,7,8.92,30,30,0,0,1,2.2,11.73,23.08,23.08,0,0,1-1,6.8,20,20,0,0,1-3.17,6.15,23.36,23.36,0,0,1-5.54,5.22,35.44,35.44,0,0,1-8.13,4.06q10.37,2.52,15.33,8.17t5,14.5A30,30,0,0,1,405,175.66a28.39,28.39,0,0,1-7.59,10,36.1,36.1,0,0,1-12.34,6.69,53.55,53.55,0,0,1-16.76,2.41Zm24.32-60.73h12.66a42.09,42.09,0,0,0,7.27-.58,15.11,15.11,0,0,0,5.51-2,9.24,9.24,0,0,0,3.45-4,14.86,14.86,0,0,0,1.19-6.33,17.92,17.92,0,0,0-.94-6.23,8.83,8.83,0,0,0-2.88-4,12,12,0,0,0-4.93-2.16,33.89,33.89,0,0,0-7.08-.65H350.79Zm0,16.26v26.12h17.12a21.58,21.58,0,0,0,7.88-1.22,12.46,12.46,0,0,0,4.79-3.17,10.64,10.64,0,0,0,2.37-4.39,19.35,19.35,0,0,0,.65-5,16.76,16.76,0,0,0-.75-5.19,8.57,8.57,0,0,0-2.6-3.88,12.63,12.63,0,0,0-4.85-2.45,28.6,28.6,0,0,0-7.63-.86Z"/><path class="cls-25" d="M506.07,194.8H491.33a6.88,6.88,0,0,1-4.08-1.15,6,6,0,0,1-2.22-3l-4.84-14.29H449l-4.84,14.29A6.52,6.52,0,0,1,438,194.8H423.14l31.73-82h19.47Zm-52.66-31.34H475.8L468.26,141c-.49-1.43-1.06-3.1-1.71-5s-1.31-4-1.94-6.27c-.61,2.29-1.22,4.41-1.86,6.36s-1.24,3.64-1.8,5.06Z"/><path class="cls-25" d="M550.73,163.63V194.8h-19V163.63L502,112.83h16.76a6.2,6.2,0,0,1,3.94,1.16,8.63,8.63,0,0,1,2.36,3l11.59,23.85,2.59,5.29c.79,1.61,1.48,3.21,2.08,4.78a46.06,46.06,0,0,1,2-4.84q1.18-2.42,2.54-5.23l11.47-23.85a7.42,7.42,0,0,1,.93-1.46,7.68,7.68,0,0,1,1.35-1.32,6.37,6.37,0,0,1,1.74-1,6.29,6.29,0,0,1,2.17-.37h16.88Z"/><path class="cls-2" d="M572.45,133.94h2.62a4.47,4.47,0,0,1,4.47,4.47v16.07a0,0,0,0,1,0,0h-9.09a0,0,0,0,1,0,0V135.94a2,2,0,0,1,2-2Z" transform="matrix(0.99, -0.13, 0.13, 0.99, -13.91, 76.36)"/><path class="cls-26" d="M576.66,158.14l-2.29-1.32a1.56,1.56,0,0,0-1.59,0l-6.06,3.48,3.88.27,2.07-1.19a1,1,0,0,1,1,0l1.38.79a.94.94,0,0,1,.46.75l.85.06,1.15-.68v-.78A1.58,1.58,0,0,0,576.66,158.14Z"/><rect class="cls-26" x="575.69" y="160.09" width="7.66" height="2.67" rx="1.34" ry="1.34"/><rect class="cls-26" x="569.54" y="163.07" width="14.41" height="2.61" rx="1.25" ry="1.25"/><rect class="cls-26" x="569.54" y="166" width="13.09" height="2.37" rx="1.14" ry="1.14"/><rect class="cls-26" x="569.54" y="168.85" width="11.15" height="2.17" rx="0.94" ry="0.94"/><path class="cls-26" d="M577,160.1V171h-8.73a7.8,7.8,0,0,1-3.92-1.05l-2.76-1.6v-6.71l3.45-1.17a7.08,7.08,0,0,1,2.33-.39Z"/><rect class="cls-27" x="559.67" y="160.1" width="3.84" height="10.93"/><rect class="cls-28" x="544.69" y="160.1" width="14.98" height="10.93"/><path class="cls-2" d="M587,126.88h11.64a5.19,5.19,0,0,1,5.19,5.19v24.8a0,0,0,0,1,0,0h-22a0,0,0,0,1,0,0v-24.8A5.19,5.19,0,0,1,587,126.88Z"/><rect class="cls-5" x="586.04" y="133.98" width="2.5" height="8.85" rx="1.25" ry="1.25"/><rect class="cls-5" x="591.6" y="133.98" width="2.5" height="8.85" rx="1.25" ry="1.25"/><rect class="cls-5" x="597.17" y="133.98" width="2.5" height="8.85" rx="1.25" ry="1.25"/><rect class="cls-2" x="613.47" y="135.61" width="1.1" height="17.31"/><polygon class="cls-2" points="620.36 125.9 607.68 125.9 606 136.37 622.03 136.37 620.36 125.9"/><rect class="cls-9" x="566.94" y="143.86" width="10.17" height="45.22"/><rect class="cls-2" x="575.28" y="143.86" width="45.22" height="45.22"/><rect class="cls-5" x="603.62" y="175.4" width="11.81" height="8.18"/><rect class="cls-9" x="605.25" y="176.84" width="8.55" height="5.31"/><path class="cls-29" d="M588.43,171.36,586.14,170a1.63,1.63,0,0,0-1.6,0l-6.06,3.48,3.88.28,2.07-1.19a1,1,0,0,1,1,0l1.37.79a1,1,0,0,1,.47.74l.85.06,1.15-.68v-.77A1.63,1.63,0,0,0,588.43,171.36Z"/><rect class="cls-29" x="587.45" y="173.32" width="7.66" height="2.67" rx="1.34" ry="1.34"/><rect class="cls-29" x="581.3" y="176.29" width="14.41" height="2.61" rx="1.25" ry="1.25"/><rect class="cls-29" x="581.3" y="179.22" width="13.09" height="2.37" rx="1.14" ry="1.14"/><rect class="cls-29" x="581.3" y="182.08" width="11.15" height="2.17" rx="0.94" ry="0.94"/><path class="cls-29" d="M588.77,173.32v10.93H580a7.8,7.8,0,0,1-3.92-1.05l-2.76-1.6v-6.71l3.44-1.18a7.12,7.12,0,0,1,2.33-.39Z"/><rect class="cls-30" x="571.43" y="173.32" width="3.84" height="10.93"/><rect class="cls-16" x="544.69" y="173.32" width="26.74" height="10.93"/><polygon class="cls-9" points="620.5 143.86 626.82 156.33 581.6 156.33 575.28 143.86 620.5 143.86"/><polygon class="cls-31" points="566.96 143.86 557.9 156.03 566.26 156.03 575.33 143.86 566.96 143.86"/><path class="cls-25" d="M550.73,163.63V194.8h-19V163.63L502,112.83h16.76a6.2,6.2,0,0,1,3.94,1.16,8.63,8.63,0,0,1,2.36,3l11.59,23.85,2.59,5.29c.79,1.61,1.48,3.21,2.08,4.78a46.06,46.06,0,0,1,2-4.84q1.18-2.42,2.54-5.23l11.47-23.85a7.42,7.42,0,0,1,.93-1.46,7.68,7.68,0,0,1,1.35-1.32,6.37,6.37,0,0,1,1.74-1,6.29,6.29,0,0,1,2.17-.37h16.88Z"/><polygon class="cls-32" points="168.41 113.84 172.81 109.9 166.94 109.3 164.55 103.9 164.52 103.96 164.5 103.9 164.5 104.02 162.16 109.3 156.29 109.9 160.69 113.84 159.44 119.61 164.52 116.66 169.63 119.61 169.62 119.59 169.65 119.61 168.41 113.84"/><path class="cls-33" d="M259.76,55.51c-2.31,14.86,2.12,24.81,13.5,30.47,11.38-5.66,15.81-15.61,13.5-30.47a19.25,19.25,0,0,1-13.5-3.27A19.81,19.81,0,0,1,259.76,55.51Z"/><path class="cls-4" d="M273.3,83.74c-5.91-3.17-9.59-7.62-11.22-13.58a33.08,33.08,0,0,1-.61-12.61h.72a21.52,21.52,0,0,0,11.1-3,21.49,21.49,0,0,0,11.1,3h.73C286.16,66.25,285.36,77.3,273.3,83.74Z"/><polygon class="cls-5" points="279.48 65.24 271.63 73.1 271.62 73.1 270.85 72.32 267.77 69.2 269.25 67.79 271.87 70.41 278.21 63.97 279.48 65.24"/></g></g></svg>