<svg xmlns="http://www.w3.org/2000/svg" viewBox="0 0 1263.59 1465.14"><defs><style>.cls-1{fill:#cfd3da}</style></defs><g id="Layer_2" data-name="Layer 2"><g id="Icons"><path class="cls-1" d="M1158.88 714l-464-18.92v-11.6L950 624c5-.82 16.44-4.55 16.17-22.48V403.94l115.35-55.18a23.16 23.16 0 0013.5-17.47 23.83 23.83 0 00-7-21L937 168c-3.34-3.3-7.49-5.46-10.66-5.92l-230.7-60.51-.32-17.32c-2-19.23-20.65-55.64-76.76-55.81-38.47 0-58.31 19.49-66.57 36L303.34 1.24a23.1 23.1 0 00-21.5 3.56c-2.5 1.9-10.64 8.92-10.64 19.33v297.44c0 19.15 30.95 24.77 31.37 24.84l238.3 37.16-221.15 67.71a23.23 23.23 0 00-10.21 5.89L164.17 596.92a23.85 23.85 0 00-6.71 20.9 23.23 23.23 0 0013.44 17.28l104 46.91-167.55-4.83h-3.66C42.65 677.18 0 718.61 0 777.94v415.48c0 61.39 45.52 109.49 104.62 109.49h.06l446.47-20.76v168a15 15 0 0015 15H697.4a15 15 0 0015-15v-177.96l446.43-14.81c57.74-2.36 104.71-48 104.71-101.8V815.77c.05-53.5-46.89-99.17-104.66-101.77zm-837-421.42c-1.26-.26 4.11-232.21 4.11-232.21L912.53 206l108.11 106.22-54.48 37.6v-62.61a15 15 0 00-19-14.52l-333.59 80zm-93.47 308.05L353 482.11l549.81-142.89-3 238.14L513.19 661l-139.53-4.35zm982.17 542.5c0 37.84-5.92 45.28-47.63 47l-1045.43 32-2.69.2c-41.29 0-48.68-9.51-48.68-54.06L63 803.54c0-42.27 10.77-59.47 54.81-59.47h3.22l1035.61 36.78c41.86 1.9 49.79 12.31 49.79 50z"/><path class="cls-1" d="M256.3 890.85l-112.8 1.14 1.72 171.97 36.69-.38-.68-67.65 59.17-.59-.28-28.2-59.17.59-.48-47.92 76.11-.75-.28-28.21zm109.86 99.39a71 71 0 008.23-3.85 51.08 51.08 0 0013.84-11.29 47.44 47.44 0 008.64-15 54.11 54.11 0 00-1.34-38.1 54.62 54.62 0 00-11.09-16c-5.13-5.42-18.7-12.14-26.92-14.3a44.1 44.1 0 00-12.94-1.7l-64.68.68 1.72 172 36.64-.37-.59-59.19 11.13-.11 8.55.12 39.51 52.82c3 4.73 6.28 5.66 11.83 5.66h.05l37.38-.38-59.25-70.03c-.24-.33-.47-.65-.71-.96zm-30.08-74.14v5.6c10.64 0 18.65 1.95 23.79 5.79 4.89 3.65 7.3 9.14 7.37 16.77a26.39 26.39 0 01-1.9 10.56 20.65 20.65 0 01-5.73 7.9 27.82 27.82 0 01-10 5.43 50.62 50.62 0 01-15 2.15l-17 .17-.48-48.57 18-.18.89-5.61zm144.28 116.31l-.39-39.46 59.21-.59-.28-28.21-59.22.59-.47-47.9 76.13-.77-.28-28.2L442.28 889l1.72 171.97 112.77-1.13-.28-28.19-76.13.76zm210.75-145.9l-123.05 1.24.29 28.2 43.38-.44 1.43 143.77 36.64-.36-1.43-143.77 43.03-.43-.29-28.21zm129.25 93.39a45.17 45.17 0 00-14.63-9.5l.25-.17a45.33 45.33 0 0010.69-9.65 39.71 39.71 0 006.38-11.81 40.35 40.35 0 002-13.09 50.41 50.41 0 00-3.9-19.67 38.1 38.1 0 00-12.06-15.1c-5.44-4.09-13.57-9.38-21.35-11.37a102.73 102.73 0 00-26.88-3.72l-56.39.57 1.72 172 67.93-.68c7.67 0 14.29-.07 21.25-2.29a56.56 56.56 0 0019.53-10.5 46.05 46.05 0 0012.32-16.48 51 51 0 003.9-20.7c-.12-11.43-3.73-20.74-10.76-27.84zm-39.85 10c6.09 0 8.94.64 11.33 2.56 4.55 3.61 6.8 8.53 6.87 15a27.34 27.34 0 01-1.56 9.62 17.35 17.35 0 01-4.71 6.92 24.93 24.93 0 01-9 4.86 17.57 17.57 0 01-5.7.71l-7-.07-28.22.28-.39-39.47zm-19-81.46V914c10.63 0 19.55 4.47 23.95 8.31 4.56 4 6.72 9.11 6.79 16.17a22.57 22.57 0 01-1.67 8.86 15.77 15.77 0 01-4.72 6.41 27.28 27.28 0 01-9.2 4.61 50.63 50.63 0 01-14.2 1.91l-20.61.14-.45-46.2 19.74-.19.37-5.6zm139.38-24.01l-70.68 172.7 26.42-.15a18.92 18.92 0 002.52.21 7.86 7.86 0 005.3-1.76 14 14 0 004.38-5.9l13.32-34.8 64.17-.65 14 34.58a14.3 14.3 0 004.36 5.79 7.85 7.85 0 005.1 1.68 34.6 34.6 0 004.28-.45l25.4-.26-74.16-171.23zM896.49 986l16.86-53.87 18.33 53.52zm199.32-103.52c-4.6.05-6.73 4.16-7.82 6.56a18.9 18.9 0 00-3.52 4.32l-36.08 53.85c-.61 1-1.17 2-1.7 3-.54-1-1.14-2.06-1.8-3.2l-37-52.44a23.47 23.47 0 00-4.93-5.83c-2-2.2-4.7-5.21-8.66-5.21l-27.19.27 64.89 99.64.72 71.66 28.19-.29-.72-71.65 62.83-101z"/></g></g></svg>