<svg version="1.1" id="Layer_1" xmlns="http://www.w3.org/2000/svg" xmlns:xlink="http://www.w3.org/1999/xlink" x="0px" y="0px" viewBox="0 0 595.279 307.856" enable-background="new 0 0 595.279 307.856"
	 xml:space="preserve">
<polygon fill="#cfd3da" points="7,94.581 7,60.505 26.443,60.505 26.443,60.835 9.583,60.835 9.583,78.236 23.626,78.236 
	23.626,78.597 9.583,78.597 9.583,94.581 "/>
<polygon fill="#cfd3da" points="29.944,57.005 3.501,57.005 3.501,98.08 13.085,98.08 13.085,82.097 27.126,82.097 27.126,74.736 
	13.085,74.736 13.085,64.335 29.944,64.335 "/>
<g>
	<defs>
		<rect id="SVGID_1_" width="595.279" height="307.856"/>
	</defs>
	<clipPath id="SVGID_2_">
		<use xlink:href="#SVGID_1_"  overflow="visible"/>
	</clipPath>
	<path clip-path="url(#SVGID_2_)" fill="#cfd3da" d="M62.14,94.581c-0.319,0-0.437-0.052-0.438-0.052l-6.594-11.574l2.109,1.057
		c0.383,0.192,0.756,0.44,1.11,0.737c0.253,0.214,0.495,0.505,0.708,0.855l5.489,8.977H62.14z M40.661,94.581V60.505h9.863
		c2.62,0,4.85,0.26,6.628,0.775c1.625,0.477,2.931,1.113,3.868,1.889c0.882,0.722,1.492,1.53,1.876,2.479
		c0.433,1.068,0.653,2.258,0.653,3.536c0,0.98-0.131,1.906-0.39,2.754c-0.251,0.841-0.621,1.605-1.102,2.285
		c-0.508,0.727-1.134,1.375-1.869,1.941c-0.63,0.487-1.343,0.899-2.169,1.254c0.184-0.157,0.362-0.32,0.532-0.49
		c0.968-0.967,1.679-2.109,2.115-3.394c0.385-1.166,0.575-2.384,0.575-3.647c0-2.814-1.026-5.192-2.969-6.875
		c-1.855-1.6-4.387-2.376-7.748-2.376h-7.334v33.944H40.661z M51.665,79.78l0.27-0.021l-0.16,0.061
		C51.738,79.806,51.702,79.792,51.665,79.78"/>
	<path clip-path="url(#SVGID_2_)" fill="#cfd3da" d="M50.524,57.005H37.161v41.076h9.529V82.884h2.422
		c0.733,0,1.305,0.115,1.707,0.337c0.408,0.229,0.757,0.601,1.057,1.13l6.826,11.927c0.691,1.202,1.839,1.803,3.437,1.803h8.628
		l-8.743-14.295c-0.408-0.673-0.895-1.25-1.447-1.719c-0.559-0.468-1.155-0.865-1.791-1.184c1.334-0.51,2.511-1.153,3.539-1.946
		c1.021-0.787,1.886-1.688,2.59-2.692c0.709-1.003,1.238-2.103,1.592-3.286c0.361-1.184,0.54-2.44,0.54-3.774
		c0-1.749-0.306-3.365-0.906-4.849c-0.601-1.484-1.562-2.776-2.89-3.864c-1.323-1.093-3.036-1.94-5.125-2.553
		C56.028,57.312,53.493,57.005,50.524,57.005 M46.69,76.317v-12.18h3.834c2.463,0,4.278,0.505,5.456,1.521
		c1.171,1.015,1.761,2.428,1.761,4.23c0,0.902-0.133,1.742-0.391,2.524c-0.264,0.781-0.691,1.46-1.273,2.043
		c-0.584,0.583-1.328,1.039-2.242,1.37c-0.908,0.324-2.013,0.492-3.311,0.492H46.69z"/>
	<polygon clip-path="url(#SVGID_2_)" fill="#cfd3da" points="80.415,94.581 80.415,60.505 99.859,60.505 99.859,60.835 
		82.999,60.835 82.999,77.419 95.911,77.419 95.911,77.468 82.999,77.468 82.999,94.25 99.859,94.25 99.859,94.581 	"/>
	<polygon clip-path="url(#SVGID_2_)" fill="#cfd3da" points="103.358,57.005 76.915,57.005 76.915,98.08 103.358,98.08 
		103.358,90.75 86.499,90.75 86.499,80.968 99.411,80.968 99.411,73.919 86.499,73.919 86.499,64.335 103.358,64.335 	"/>
	<polygon clip-path="url(#SVGID_2_)" fill="#cfd3da" points="123.268,94.581 123.268,61.059 111.707,61.059 111.707,60.505 
		137.353,60.505 137.353,61.059 125.792,61.059 125.792,94.581 	"/>
	<polygon clip-path="url(#SVGID_2_)" fill="#cfd3da" points="140.852,57.005 108.207,57.005 108.207,64.558 119.768,64.558 
		119.768,98.08 129.291,98.08 129.291,64.558 140.852,64.558 	"/>
	<path clip-path="url(#SVGID_2_)" fill="#cfd3da" d="M150.554,94.581V60.505h11.611c2.519,0,4.658,0.226,6.358,0.673
		c1.536,0.407,2.766,0.956,3.646,1.627c0.771,0.586,1.305,1.257,1.636,2.055c0.393,0.943,0.591,2.034,0.591,3.248
		c0,0.575-0.079,1.111-0.241,1.638c-0.145,0.477-0.369,0.909-0.692,1.339c-0.341,0.452-0.797,0.878-1.354,1.261
		c-0.269,0.186-0.567,0.364-0.894,0.534c0.434-1.059,0.651-2.279,0.651-3.642c0-1.423-0.194-2.626-0.593-3.679
		c-0.462-1.247-1.224-2.293-2.255-3.091c-0.923-0.716-2.049-1.222-3.341-1.5c-1.028-0.223-2.179-0.331-3.512-0.331h-9.082v33.756
		h10.212c1.715,0,3.147-0.238,4.378-0.729c1.308-0.521,2.386-1.253,3.202-2.178c0.797-0.88,1.375-1.946,1.692-3.137
		c0.245-0.932,0.369-1.887,0.369-2.845c0-1.125-0.158-2.175-0.47-3.121c-0.198-0.606-0.471-1.169-0.815-1.686
		c1.175,0.437,2.057,0.985,2.63,1.636c0.726,0.824,1.077,1.925,1.077,3.369c0,1.254-0.233,2.382-0.71,3.448
		c-0.465,1.029-1.139,1.915-2.058,2.703c-0.949,0.815-2.178,1.473-3.653,1.959c-1.549,0.509-3.391,0.768-5.474,0.768H150.554z"/>
	<path clip-path="url(#SVGID_2_)" fill="#cfd3da" d="M162.166,57.005h-15.112v41.076h16.41c2.464,0,4.65-0.313,6.567-0.944
		c1.917-0.631,3.528-1.502,4.837-2.626c1.305-1.117,2.295-2.427,2.975-3.929c0.673-1.502,1.015-3.13,1.015-4.879
		c0-2.314-0.648-4.206-1.947-5.679c-1.297-1.478-3.299-2.541-6.008-3.202c1.244-0.45,2.307-0.98,3.19-1.593
		c0.884-0.606,1.605-1.291,2.17-2.043c0.564-0.751,0.978-1.556,1.238-2.409c0.264-0.86,0.396-1.742,0.396-2.668
		c0-1.689-0.289-3.221-0.859-4.591c-0.571-1.375-1.49-2.541-2.746-3.496c-1.262-0.962-2.891-1.701-4.879-2.23
		C167.417,57.27,165.001,57.005,162.166,57.005 M156.583,74.286V64.137h5.582c1.069,0,1.995,0.084,2.776,0.253
		c0.782,0.168,1.424,0.45,1.935,0.847c0.505,0.39,0.884,0.914,1.124,1.562c0.246,0.649,0.366,1.46,0.366,2.44
		c0,0.998-0.156,1.827-0.463,2.481c-0.312,0.661-0.762,1.172-1.352,1.551c-0.594,0.378-1.316,0.637-2.156,0.787
		c-0.848,0.149-1.797,0.228-2.848,0.228H156.583z M156.583,90.894V80.656h6.651c1.203,0,2.2,0.114,2.993,0.342
		c0.787,0.222,1.423,0.541,1.899,0.956c0.48,0.414,0.817,0.919,1.015,1.525c0.199,0.602,0.295,1.274,0.295,2.025
		c0,0.661-0.084,1.31-0.252,1.948c-0.168,0.636-0.475,1.213-0.932,1.717c-0.451,0.511-1.076,0.926-1.875,1.245
		c-0.799,0.318-1.826,0.48-3.082,0.48H156.583z"/>
	<path clip-path="url(#SVGID_2_)" fill="#cfd3da" d="M217.199,94.58l-3.127-9.218h-0.014l-5.155-15.351l-0.866-2.536
		c-0.306-0.919-0.619-1.932-0.922-2.984l-1.148-3.986h0.266l13.19,34.075H217.199z M201.277,60.505h0.151l-1.063,4.069
		c-0.287,1.102-0.579,2.109-0.866,2.993c-0.312,0.934-0.587,1.706-0.835,2.334l-0.061,0.167l-5.156,15.294h-0.009l-3.125,9.215
		l-2.229,0.001L201.277,60.505z"/>
	<path clip-path="url(#SVGID_2_)" fill="#cfd3da" d="M208.631,57.005h-9.752L182.973,98.08h7.445c0.788,0,1.455-0.21,2.001-0.637
		c0.547-0.42,0.914-0.895,1.1-1.423l2.427-7.157h15.617l2.428,7.157c0.204,0.606,0.576,1.099,1.111,1.483
		c0.535,0.385,1.214,0.577,2.043,0.577h7.385L208.631,57.005z M198.145,82.379l3.773-11.193c0.284-0.716,0.584-1.563,0.909-2.536
		c0.318-0.98,0.625-2.043,0.925-3.191c0.325,1.13,0.649,2.175,0.973,3.149c0.33,0.967,0.619,1.808,0.859,2.517l3.78,11.254H198.145z
		"/>
	<path clip-path="url(#SVGID_2_)" fill="#cfd3da" d="M238.917,94.58V82.455l1.462,3.855l1.062-3.055V94.58H238.917z M226.629,60.505
		h2.262c0.02,0.033,0.043,0.072,0.065,0.118l5.788,11.922c0.482,0.97,0.907,1.84,1.293,2.64c0.359,0.728,0.666,1.432,0.927,2.121
		l0.939,2.475L226.629,60.505z M243.542,77.214c0.237-0.682,0.517-1.349,0.854-2.041l1.277-2.639l5.751-11.958
		c0.02-0.027,0.038-0.049,0.056-0.071h2.249l-10.795,18.459L243.542,77.214z"/>
	<path clip-path="url(#SVGID_2_)" fill="#cfd3da" d="M259.831,57.005h-8.46c-0.391,0-0.757,0.06-1.081,0.18
		c-0.331,0.127-0.625,0.282-0.877,0.481c-0.253,0.198-0.481,0.42-0.674,0.66c-0.198,0.247-0.354,0.493-0.469,0.734l-5.75,11.957
		c-0.451,0.937-0.876,1.815-1.267,2.62c-0.397,0.811-0.734,1.616-1.016,2.428c-0.301-0.793-0.648-1.593-1.046-2.398
		c-0.389-0.811-0.823-1.694-1.297-2.65l-5.805-11.957c-0.3-0.601-0.697-1.094-1.184-1.478c-0.492-0.385-1.147-0.577-1.976-0.577
		h-8.401l14.89,25.459V98.08h9.524V82.464L259.831,57.005z"/>
	<path clip-path="url(#SVGID_2_)" fill="#cfd3da" d="M451.882,246.188l-23.5,44.297c-1.526,2.774-3.468,4.854-5.822,6.236
		c-2.356,1.383-4.922,2.078-7.692,2.078c-6.104,0-10.677-2.769-13.723-8.314l-78.192-144.948h31.606l61.138,116.25l22.875-41.178
		l-39.302-75.072h31.816l58.435,116.25l61.558-116.25h29.528l-78.192,144.948c-1.525,2.774-3.503,4.854-5.925,6.236
		c-2.427,1.383-5.028,2.078-7.798,2.078c-2.777,0-5.342-0.695-7.698-2.078c-2.354-1.383-4.297-3.462-5.822-6.236L451.882,246.188z"
		/>
	<path clip-path="url(#SVGID_2_)" fill="#cfd3da" d="M438.688,220.609l-39.304-75.072H431.2l58.434,116.25l61.561-116.25h29.525
		l-78.19,144.948c-1.526,2.774-3.503,4.854-5.924,6.235c-2.429,1.384-5.029,2.079-7.801,2.079c-2.774,0-5.342-0.695-7.696-2.079
		c-2.356-1.382-4.296-3.461-5.822-6.235l-23.29-44.297L438.688,220.609z"/>
	<path clip-path="url(#SVGID_2_)" fill="#cfd3da" d="M248.698,307.856c-46.64,0-84.579-37.939-84.579-84.578
		c0-46.64,37.939-84.578,84.579-84.578c46.64,0,84.584,37.938,84.584,84.578C333.282,269.917,295.338,307.856,248.698,307.856
		 M248.698,163.311c-33.066,0-59.967,26.899-59.967,59.967c0,33.065,26.901,59.967,59.967,59.967
		c33.071,0,59.973-26.901,59.973-59.967C308.671,190.21,281.769,163.311,248.698,163.311"/>
	<path clip-path="url(#SVGID_2_)" fill="#cfd3da" d="M520.424,103.889c0,13.165-10.672,23.837-23.837,23.837
		c-13.164,0-23.837-10.672-23.837-23.837c0-13.164,10.673-23.836,23.837-23.836C509.752,80.053,520.424,90.725,520.424,103.889"/>
	<path clip-path="url(#SVGID_2_)" fill="#cfd3da" d="M489.942,27.565c-10.829,1.107-20.799,4.676-29.657,10.337
		c-9.354-5.907-20.182-9.722-31.872-10.583c-1.846-0.123-3.691-0.246-5.66-0.246c-39.133,0-71.128,31.749-71.497,71.004h-28.303
		C323.322,43.809,367.377,0,421.645,0c13.29,0,25.965,2.585,37.532,7.383C470.746,12.182,481.082,18.951,489.942,27.565"/>
	<path clip-path="url(#SVGID_2_)" fill="#cfd3da" d="M595.279,98.077h-25.965c-0.368-39.255-32.364-71.004-71.619-71.004
		c-2.584,0-5.168,0.123-7.754,0.492c-10.828,1.108-20.798,4.676-29.656,10.337c-20.305,12.306-33.842,34.703-34.088,60.175h-28.304
		c0.247-27.811,11.816-52.914,30.52-70.758c8.86-8.368,19.318-15.26,30.764-19.935C470.746,2.584,483.421,0,496.588,0
		C550.855,0,594.911,43.809,595.279,98.077"/>
	<path clip-path="url(#SVGID_2_)" fill="#cfd3da" d="M130.188,307.856c-6.796,0-12.306-5.51-12.306-12.307v-87.342
		c0-24.756-20.141-44.896-44.897-44.896c-24.756,0-44.897,20.141-44.897,44.896v87.342c0,6.797-5.509,12.307-12.305,12.307
		s-12.307-5.51-12.307-12.307v-87.342c0-38.33,31.18-69.508,69.509-69.508c38.33,0,69.509,31.178,69.509,69.508v87.342
		C142.494,302.346,136.984,307.856,130.188,307.856"/>
</g>
</svg>
