<svg version="1.1" id="Layer_1" xmlns="http://www.w3.org/2000/svg" xmlns:xlink="http://www.w3.org/1999/xlink" x="0px" y="0px" viewBox="2.7 326.5 506.701 181" enable-background="new 2.7 326.5 506.701 181"
	 xml:space="preserve">
<g>
	<g>
		<g>
			<path fill="#cfd3da" d="M38.8,436.6h0.7l9.1-34.3c1.9-7.398,4.9-12.5,8.9-15.2c4-2.698,10-4.1,18.1-4.1v77.7H65.1v-66
				c-1.9,0.8-3.4,2-4.4,3.398c-1,1.5-1.9,3.7-2.8,6.7L44,452.5h-9.8l-14-47.6c-0.9-3-1.8-5.302-2.8-6.7c-1-1.4-2.4-2.602-4.3-3.4v66
				H2.7V383c8.1,0,14.1,1.4,18,4.2c4,2.8,6.9,7.8,8.9,15.2L38.8,436.6z"/>
			<path fill="#cfd3da" d="M83.3,407.4H93V435.3c0,6,0.9,10.2,2.8,12.5c1.9,2.4,5.3,3.602,10.2,3.602h11.7v-44h9.8V458
				c0,9.3-2.4,16.2-7.3,20.9c-4.8,4.698-12.5,7.1-22.8,7.1h-8v-9.3h7c13.5,0,20.7-5.3,21.3-16h-9.3c-9.7,0-16.3-1.7-19.8-5.102
				c-3.5-3.398-5.3-10.3-5.3-20.8V407.4L83.3,407.4z"/>
			<path fill="#cfd3da" d="M364.4,436.6h0.699l9.101-34.3c1.899-7.398,4.899-12.5,8.899-15.2c4-2.698,10-4.1,18.101-4.1v77.7h-10.4
				v-66c-1.898,0.8-3.398,2-4.398,3.398c-1,1.5-1.9,3.7-2.801,6.7L369.7,452.4h-9.8l-14-47.602c-0.899-3-1.801-5.3-2.801-6.7
				c-1-1.398-2.399-2.6-4.3-3.398v66H328.4V383c8.101,0,14.101,1.4,18,4.2c4,2.8,6.899,7.8,8.899,15.2L364.4,436.6z"/>
			<path fill="#cfd3da" d="M441.5,429.4v10c-2.801-2.2-6.301-3.2-10.301-3.2c-3.5,0-6.199,0.7-8.102,2.1
				c-1.898,1.4-2.898,3.3-2.898,5.8c0,4.9,3.6,7.302,10.898,7.302h14.701v-21.2c0-9-4.398-13.4-13.1-13.4h-17.801v-9.3H433.2
				c7.199,0,12.699,1.8,16.5,5.3c3.799,3.602,5.799,8.7,5.799,15.3v32.6H430.7c-6.301,0-11.301-1.4-15-4.2
				c-3.701-2.8-5.602-6.9-5.602-12.3c0-5.4,2-9.5,5.9-12.3c3.9-2.802,8.799-4.2,14.799-4.2C434.2,427.6,437.799,428.2,441.5,429.4z"
				/>
			<path fill="#cfd3da" d="M465.1,407.4h19.199c8.201,0,14.102,1.198,17.701,3.698c3.199,2.102,5.199,4.7,6.1,7.7
				c0.801,3,1.301,6.9,1.301,11.8V460.7H499.6v-30c0-1.3,0-2.5-0.1-3.4c-0.1-0.898-0.301-2.1-0.801-3.6
				c-0.4-1.4-1.102-2.602-1.9-3.602c-0.799-0.898-2-1.698-3.6-2.398c-1.602-0.7-3.4-1.102-5.699-1.102h-12.701v44H465V407.4H465.1z"
				/>
		</g>
	</g>
	<g>
		<path fill="#cfd3da" d="M212.7,330.3l-48.9,3.602l-27.3,27.5l73.6-5.5C211,348,211.8,339.9,212.7,330.3z"/>
		<path fill="#cfd3da" d="M306.799,348.8L264.5,326.5l-37.601,2.8c2.3,9.3,4.3,17.2,6.3,25L306.799,348.8z"/>
		<polygon fill="#cfd3da" points="307.299,355.2 233.7,360.7 235.8,389.3 212.8,391 210.7,362.4 137.1,367.9 147.4,507.5 
			317.6,494.8 		"/>
		<polyline opacity="0.58" fill="#cfd3da" enable-background="new    " points="159.8,403.2 159.8,460.9 210.1,502.8 317.6,494.8 
			312.799,429.3 298.9,417.6 283.1,429.7 268.299,417.6 272,440.8 247,420.9 219.3,423.4 198.6,406.5 159.8,403.2 		"/>
		<g>
			<polygon fill="#4D515A" points="298.9,460.9 285.5,460.9 276.9,447.7 268.299,460.9 254.9,460.9 270.6,438.8 254.9,417.6 
				268.299,417.6 276.9,429.9 285.5,417.6 298.9,417.6 283.2,438.8 			"/>
			<path fill="#4D515A" d="M253.3,429.6c-1.2-2.8-2.7-5.198-4.7-7.198s-4.3-3.5-7-4.602c-2.7-1.1-5.5-1.6-8.6-1.6
				c-3,0-5.9,0.6-8.5,1.7c-2.7,1.198-5,2.698-7,4.8c-2,2-3.6,4.398-4.7,7.2c-1.2,2.8-1.7,5.8-1.7,9.1c0,3.2,0.6,6.2,1.7,9
				c1.1,2.8,2.7,5.2,4.7,7.2s4.3,3.6,7,4.8s5.5,1.8,8.5,1.8s5.9-0.6,8.6-1.8c2.7-1.2,5-2.8,7-4.8s3.5-4.4,4.7-7.2
				c1.1-2.8,1.701-5.8,1.701-9C255,435.5,254.4,432.4,253.3,429.6z M243.1,443.8c-0.6,1.5-1.4,2.7-2.3,3.7c-1,1-2.1,1.8-3.5,2.4
				c-1.3,0.6-2.7,0.8-4.2,0.8s-2.9-0.3-4.2-0.9c-1.3-0.6-2.5-1.398-3.5-2.5c-1-1-1.8-2.3-2.3-3.7c-0.6-1.398-0.8-3-0.8-4.6
				c0-1.8,0.3-3.4,0.8-4.8c0.6-1.4,1.3-2.7,2.3-3.7s2.1-1.8,3.5-2.4c1.3-0.5,2.7-0.8,4.2-0.8s2.9,0.3,4.2,0.8
				c1.3,0.5,2.5,1.302,3.5,2.4c1,1,1.8,2.3,2.3,3.7c0.6,1.398,0.9,3,0.9,4.8C243.9,440.7,243.6,442.3,243.1,443.8z"/>
			<path fill="#4D515A" d="M204.2,437c-0.5-1-1.2-2-1.9-2.9c-0.7-0.898-1.6-1.6-2.5-2.1c0.9-0.6,1.7-1.3,2.5-2.1
				c0.7-0.9,1.4-1.802,1.9-2.9c0.5-1,1-2.1,1.2-3.3c0.3-1.102,0.4-2.2,0.4-3.3c0-2.4-0.5-4.602-1.4-6.7c-0.9-2.102-2.1-3.9-3.7-5.5
				c-1.6-1.602-3.4-2.8-5.5-3.7c-2.1-0.9-4.3-1.4-6.7-1.4h-28.8V460.9h28.8c2.4,0,4.6-0.5,6.7-1.4c2.1-0.9,3.9-2.2,5.5-3.7
				c1.6-1.6,2.8-3.398,3.7-5.5c0.9-2.1,1.4-4.3,1.4-6.7c0-1.1-0.1-2.198-0.4-3.3C205.2,439.1,204.8,438.1,204.2,437z M193.9,445.9
				c-0.3,0.698-0.7,1.3-1.2,1.8s-1.1,0.898-1.8,1.2c-0.7,0.3-1.4,0.398-2.2,0.398h-17.3v-11.5h17.3c0.8,0,1.5,0.2,2.2,0.4
				c0.7,0.3,1.3,0.7,1.8,1.2s0.9,1.1,1.2,1.8c0.3,0.7,0.4,1.398,0.4,2.3S194.2,445.2,193.9,445.9z M193.9,422.8
				c-0.3,0.7-0.7,1.3-1.2,1.9c-0.5,0.5-1.1,0.898-1.8,1.2c-0.7,0.3-1.4,0.398-2.2,0.398h-17.3v-11.6h17.3c0.8,0,1.5,0.1,2.2,0.398
				c0.7,0.302,1.3,0.7,1.8,1.2s0.9,1.102,1.2,1.8c0.3,0.7,0.4,1.5,0.4,2.302C194.3,421.3,194.2,422.1,193.9,422.8z"/>
		</g>
		<g>
			<path fill="#4D515A" d="M225.9,448.4c1,1,2.1,1.898,3.5,2.5c1.3,0.6,2.7,0.898,4.2,0.898s2.9-0.3,4.2-0.8
				c1.3-0.6,2.5-1.4,3.5-2.4s1.8-2.3,2.3-3.698c0.6-1.4,0.9-3,0.9-4.802c0-1.8-0.3-3.398-0.9-4.8c-0.1-0.398-0.3-0.7-0.5-1
				c0.6,1.4,0.9,3,0.9,4.8c0,1.7-0.3,3.302-0.9,4.802s-1.4,2.698-2.3,3.698c-1,1-2.1,1.802-3.5,2.4c-1.3,0.6-2.7,0.8-4.2,0.8
				s-2.9-0.3-4.2-0.898c-1.3-0.602-2.5-1.4-3.5-2.5c-0.7-0.802-1.3-1.7-1.8-2.7l0,0C224.1,446.1,224.9,447.3,225.9,448.4z"/>
			<path fill="#4D515A" d="M191.4,450c0.7-0.3,1.3-0.7,1.8-1.2s0.9-1.1,1.2-1.8c0.3-0.7,0.4-1.5,0.4-2.3s-0.2-1.602-0.4-2.3
				c-0.1-0.302-0.3-0.602-0.5-0.9c0.2,0.7,0.4,1.3,0.4,2.1c0,0.802-0.2,1.602-0.4,2.302c-0.3,0.698-0.7,1.3-1.2,1.8
				s-1.1,0.898-1.8,1.2c-0.7,0.3-1.4,0.398-2.2,0.398h-17.3l0.6,1.102h17.3C190,450.4,190.7,450.3,191.4,450z"/>
			<polygon fill="#4D515A" points="268.9,418.6 277.5,431 286.1,418.6 298.1,418.6 298.9,417.5 285.5,417.5 277,429.9 
				268.299,417.5 254.9,417.5 255.7,418.6 			"/>
			<polygon fill="#4D515A" points="298.7,460.9 298.9,460.9 283.799,439.7 283.7,439.9 			"/>
			<polygon fill="#4D515A" points="270.6,438.8 254.9,460.9 257.7,460.9 			"/>
			<path fill="#4D515A" d="M213.3,449c-1.2-2.8-1.7-5.8-1.7-9c0-3.3,0.6-6.3,1.7-9.1c1.1-2.802,2.7-5.2,4.7-7.2s4.3-3.602,7-4.8
				c2.7-1.2,5.5-1.7,8.5-1.7s5.9,0.5,8.6,1.6c2.7,1.102,5,2.602,7,4.602c1.4,1.398,2.6,3,3.6,4.898c-1.1-2.3-2.4-4.2-4.1-5.898
				c-2-2-4.3-3.5-7-4.602c-2.7-1.1-5.5-1.6-8.6-1.6c-3,0-5.9,0.6-8.5,1.7c-2.7,1.198-5,2.698-7,4.8c-2,2-3.6,4.398-4.7,7.2
				c-1.2,2.8-1.7,5.8-1.7,9.1c0,3.2,0.6,6.2,1.7,9c0.3,0.8,0.7,1.6,1.1,2.3C213.7,449.9,213.5,449.5,213.3,449z"/>
			<path fill="#4D515A" d="M160.4,404.2h28.8c2.4,0,4.6,0.5,6.7,1.398c2.1,0.9,3.9,2.2,5.5,3.7c1.1,1.102,2.1,2.4,2.9,3.9
				c-0.9-1.9-2-3.5-3.4-4.9c-1.6-1.6-3.4-2.8-5.5-3.7c-2.1-0.898-4.3-1.398-6.7-1.398h-28.8V461h0.5V404.2z"/>
			<path fill="#4D515A" d="M194.5,419.3c-0.1-0.3-0.3-0.6-0.5-0.898c0.2,0.698,0.4,1.3,0.4,2.1s-0.2,1.6-0.4,2.3
				c-0.3,0.7-0.7,1.3-1.2,1.9c-0.5,0.5-1.1,0.898-1.8,1.2c-0.7,0.3-1.4,0.398-2.2,0.398h-17.3l0.6,1.102h17.3c0.8,0,1.5-0.2,2.2-0.4
				c0.7-0.3,1.3-0.7,1.8-1.2s0.9-1.1,1.2-1.898c0.3-0.7,0.4-1.5,0.4-2.302C194.9,420.7,194.7,420,194.5,419.3z"/>
			<path fill="#4D515A" d="M204.5,437.6c-0.1-0.198-0.2-0.398-0.3-0.6c-0.5-1-1.2-2-1.9-2.9c-0.5-0.5-1-1-1.5-1.398
				c-0.2,0.1-0.3,0.3-0.5,0.398c0.9,0.5,1.8,1.2,2.5,2.102C203.5,435.9,204,436.7,204.5,437.6z"/>
		</g>
	</g>
</g>
</svg>
