<svg xmlns="http://www.w3.org/2000/svg" viewBox="0 0 180.82 91.3"><defs><style>.cls-1{fill:#f5f9fc;}.cls-2{fill:#e0edf5;}.cls-3{fill:#baccdb;}.cls-4{fill:#f1615c;}.cls-5{fill:#ffc412;}.cls-6{fill:#d1b35a;}.cls-7{fill:#ffc007;}.cls-8{fill:#ffe28f;}.cls-9{fill:#a6bdcf;}.cls-10{fill:#d3e0f0;}.cls-11{fill:#39f;}.cls-12{fill:#fff;}</style></defs><title>6</title><g id="Layer_2" data-name="Layer 2"><g id="Icons"><path class="cls-1" d="M168.55,79.33a79,79,0,0,1-.42,8.18H10.28A79.41,79.41,0,0,1,41,16.29,79.85,79.85,0,0,1,51.33,9.61,79.44,79.44,0,0,1,126,9a77.74,77.74,0,0,1,11,7A79.43,79.43,0,0,1,155.34,35.5,78.9,78.9,0,0,1,168.55,79.33Z"/><path class="cls-2" d="M61.71,30.35v-3a5.56,5.56,0,1,0-11.11,0v3.14a6.73,6.73,0,1,0,11.11-.13ZM56.91,35v1.88a.69.69,0,0,1-.69.69h0a.69.69,0,0,1-.68-.69V35a1.53,1.53,0,1,1,2.21-1.36A1.51,1.51,0,0,1,56.91,35Zm2.72-6.56v1.46a5.29,5.29,0,0,0-7,.17V27.34a3.48,3.48,0,1,1,7,0Z"/><rect class="cls-3" x="90.99" y="35.26" width="72.25" height="47.46" rx="2.35" ry="2.35" transform="translate(18.45 -29.5) rotate(14.26)"/><rect class="cls-2" x="85.77" y="40.33" width="72.25" height="47.46" rx="2.35" ry="2.35" transform="translate(5.54 -9.58) rotate(4.61)"/><rect class="cls-1" x="125.3" y="46.03" width="28.69" height="6.29" transform="matrix(1, 0.08, -0.08, 1, 4.4, -11.05)"/><circle class="cls-4" cx="138.52" cy="80.36" r="4.18"/><circle class="cls-5" cx="145.07" cy="80.89" r="4.18"/><rect class="cls-6" x="97.15" y="52.6" width="9.59" height="12.4" rx="1.37" ry="1.37" transform="translate(35.15 155.69) rotate(-85.39)"/><rect class="cls-7" x="101.94" y="52.99" height="11.61" transform="translate(35.15 155.69) rotate(-85.39)"/><rect class="cls-8" x="100.85" y="49.61" width="2.67" height="12.4" transform="translate(38.35 153.18) rotate(-85.39)"/><rect class="cls-8" x="100.61" y="52.6" width="2.67" height="12.4" transform="translate(35.15 155.69) rotate(-85.39)"/><rect class="cls-8" x="100.37" y="55.58" width="2.67" height="12.4" transform="translate(31.96 158.19) rotate(-85.39)"/><rect class="cls-6" x="99.85" y="54" width="4.18" height="9.59" rx="1.25" ry="1.25" transform="translate(5.05 -8) rotate(4.61)"/><rect class="cls-8" x="100.22" y="54.46" width="3.44" height="8.66" rx="1.03" ry="1.03" transform="translate(5.05 -8) rotate(4.61)"/><path class="cls-6" d="M106.34,64.32l-9.63-.77a1.73,1.73,0,0,1-1.58-1.87l.55-6.83a1.73,1.73,0,0,1,1.86-1.58l9.63.77a1.75,1.75,0,0,1,1.59,1.87l-.55,6.83A1.73,1.73,0,0,1,106.34,64.32ZM97.48,54a1,1,0,0,0-1.08.92l-.55,6.83a1,1,0,0,0,.92,1.09l9.63.77a1,1,0,0,0,1.09-.92l.55-6.83a1,1,0,0,0-.93-1.09Z"/><path class="cls-1" d="M96,69.17l-1.11-2,.73.06a.14.14,0,0,1,.11,0,.11.11,0,0,1,.06.07l.79,1.54,0-.07,0-.07.93-1.24a.21.21,0,0,1,.17-.09l.71.06L97,69.23l1.15,2.18-.74-.06a.13.13,0,0,1-.11,0,.28.28,0,0,1-.07-.09l-.8-1.6,0,.06,0,0-1,1.34a.3.3,0,0,1-.08.08.2.2,0,0,1-.11,0l-.7-.06Z"/><path class="cls-1" d="M100.24,69.52l-1.12-2,.74.06.11,0a.28.28,0,0,1,.06.08l.79,1.53,0-.07.05-.06.93-1.24a.16.16,0,0,1,.16-.09l.71,0-1.43,1.8,1.15,2.19-.74-.06a.22.22,0,0,1-.12,0,.36.36,0,0,1-.07-.1l-.8-1.59a.14.14,0,0,1,0,.06.1.1,0,0,0,0,0l-1,1.33a.34.34,0,0,1-.09.08.14.14,0,0,1-.11,0l-.69-.06Z"/><path class="cls-1" d="M104.52,69.86l-1.11-2,.74.06a.16.16,0,0,1,.11,0,.18.18,0,0,1,0,.07l.79,1.54a.43.43,0,0,1,0-.07l0-.07.94-1.24a.19.19,0,0,1,.16-.09l.71.06-1.43,1.8,1.15,2.18L106,72a.17.17,0,0,1-.12-.05.31.31,0,0,1-.07-.09l-.8-1.6,0,.06,0,0-1,1.34a.3.3,0,0,1-.08.08.2.2,0,0,1-.11,0l-.69,0Z"/><path class="cls-1" d="M110.42,70.34l-1.11-2,.74.06a.16.16,0,0,1,.11,0,.13.13,0,0,1,0,.07L111,70a.43.43,0,0,0,0-.07l0-.06.94-1.24a.16.16,0,0,1,.16-.09l.71,0-1.44,1.8,1.16,2.19-.74-.06a.22.22,0,0,1-.12,0,.36.36,0,0,1-.07-.1l-.8-1.59,0,.06,0,0-1,1.33-.08.09a.2.2,0,0,1-.11,0l-.7-.06Z"/><path class="cls-1" d="M114.71,70.69l-1.11-2,.73.06c.06,0,.09,0,.11,0a.13.13,0,0,1,.06.07l.79,1.54,0-.07.05-.07L116.3,69a.21.21,0,0,1,.17-.09l.71.06-1.44,1.8,1.15,2.18-.74-.06a.13.13,0,0,1-.11,0,.2.2,0,0,1-.07-.09l-.8-1.6,0,.06,0,0-1,1.34a.3.3,0,0,1-.08.08.11.11,0,0,1-.11,0l-.7-.05Z"/><path class="cls-1" d="M119,71l-1.12-2,.74.06a.16.16,0,0,1,.11,0,.22.22,0,0,1,.06.07l.79,1.53,0-.07,0-.06.93-1.24a.16.16,0,0,1,.16-.09l.71.06L120,71.08l1.15,2.19-.74-.06a.22.22,0,0,1-.12,0l-.07-.09-.79-1.6,0,.06a.1.1,0,0,0,0,0l-1,1.34-.09.08a.18.18,0,0,1-.11,0l-.69-.06Z"/><path class="cls-1" d="M124.9,71.51l-1.12-2,.74.06.11,0,.06.07.78,1.54,0-.07a.43.43,0,0,0,0-.07l.94-1.24a.19.19,0,0,1,.16-.09l.71.06-1.43,1.8,1.15,2.18-.74-.06a.17.17,0,0,1-.12-.05.31.31,0,0,1-.07-.09l-.8-1.6a.09.09,0,0,1,0,.06l0,0-1,1.34a.34.34,0,0,1-.09.08.11.11,0,0,1-.11,0l-.69,0Z"/><path class="cls-1" d="M129.18,71.85l-1.11-2,.74.06a.16.16,0,0,1,.11,0A.13.13,0,0,1,129,70l.79,1.53,0-.06a.43.43,0,0,1,0-.07l.94-1.24a.16.16,0,0,1,.16-.09l.71.06-1.44,1.79,1.16,2.19-.74-.06a.22.22,0,0,1-.12,0l-.07-.09-.8-1.6,0,.06,0,.05-1,1.34-.08.08a.2.2,0,0,1-.11,0l-.7-.06Z"/><path class="cls-1" d="M133.47,72.2l-1.11-2,.73.06.11,0a.13.13,0,0,1,.06.07l.79,1.54,0-.07,0-.07.93-1.24a.21.21,0,0,1,.17-.09l.71.06-1.44,1.8,1.15,2.18-.74-.06a.16.16,0,0,1-.11,0,.23.23,0,0,1-.07-.1l-.8-1.6,0,.06,0,0-1,1.34a.3.3,0,0,1-.08.08.11.11,0,0,1-.11,0l-.7,0Z"/><rect class="cls-1" x="94.14" y="78.07" width="31.68" height="2.09" transform="translate(6.71 -8.58) rotate(4.61)"/><rect class="cls-9" y="87.25" width="180.82" height="4.06" rx="2.03" ry="2.03"/><path class="cls-10" d="M79.08,18.62c-2.65,16.94,2.4,28.29,15.38,34.74,13-6.45,18-17.8,15.39-34.74a21.9,21.9,0,0,1-15.39-3.73A22.59,22.59,0,0,1,79.08,18.62Z"/><path class="cls-11" d="M94.5,50.8c-6.73-3.61-10.92-8.69-12.78-15.48A38,38,0,0,1,81,21h.84A24.52,24.52,0,0,0,94.5,17.57,24.46,24.46,0,0,0,107.15,21H108C109.16,30.86,108.26,43.46,94.5,50.8Z"/><polygon class="cls-12" points="101.56 29.72 92.6 38.67 92.59 38.68 91.71 37.79 88.2 34.23 89.89 32.62 92.88 35.61 100.11 28.27 101.56 29.72"/><path class="cls-2" d="M45.29,64.82,41.46,61a1.35,1.35,0,0,0-1-.4H20.38A1.35,1.35,0,0,0,19,61.94V87.25h4.55v-1.1A1.46,1.46,0,0,1,25,84.68H39.67a1.46,1.46,0,0,1,1.46,1.47v1.1h4.55V65.77A1.34,1.34,0,0,0,45.29,64.82ZM39.67,78.59H25a1.47,1.47,0,0,1,0-2.93H39.67a1.47,1.47,0,0,1,0,2.93Zm1.46-8.89a1.46,1.46,0,0,1-1.46,1.46H25a1.46,1.46,0,0,1-1.46-1.46V67.27A1.46,1.46,0,0,1,25,65.81H39.67a1.46,1.46,0,0,1,1.46,1.46Z"/><path class="cls-2" d="M71.61,54.62H56a1.32,1.32,0,0,0-1.32,1.32v1.45h18.3V55.94A1.32,1.32,0,0,0,71.61,54.62Z"/><path class="cls-2" d="M54.63,65.45A1.32,1.32,0,0,0,56,66.77H71.61a1.32,1.32,0,0,0,1.32-1.32V59.17H54.63ZM67,61.74a1.5,1.5,0,0,1,1,.42,1.52,1.52,0,1,1,0,2.2,1.5,1.5,0,0,1-1,.42,1.52,1.52,0,1,1,0-3Z"/></g></g></svg>