<?xml version="1.0" encoding="utf-8"?>
<!-- Generator: Adobe Illustrator 21.1.0, SVG Export Plug-In . SVG Version: 6.00 Build 0)  -->
<svg version="1.1" id="Layer_1" xmlns="http://www.w3.org/2000/svg" xmlns:xlink="http://www.w3.org/1999/xlink" x="0px" y="0px"
	 viewBox="0 0 180.8 91.3" style="enable-background:new 0 0 180.8 91.3;" xml:space="preserve">
<style type="text/css">
	.st0{fill:#F5F9FC;}
	.st1{fill:#E0EDF5;}
	.st2{fill:#BACCDB;}
	.st3{fill:#FFFFFF;}
	.st4{fill:#6E5333;}
	.st5{fill:#FDCC9B;}
	.st6{fill:#FCBC85;}
	.st7{fill:#3B2519;}
	.st8{fill:#684B37;}
	.st9{fill:#F7945E;}
	.st10{fill:#80633F;}
	.st11{fill:#A6BDCF;}
	.st12{fill:#0083FE;}
	.st13{fill:#474E71;}
	.st14{fill:#3399FF;}
	.st15{fill:#0172C3;}
</style>
<title>3</title>
<g id="Layer_2">
	<g id="Icons">
		<path class="st0" d="M12.3,79.3c0,2.7,0.1,5.5,0.4,8.2h157.8c2.8-27.5-8.8-54.4-30.8-71.2c-3.3-2.5-6.7-4.7-10.3-6.7
			C106.3-3,78.3-3.2,54.8,9c-3.9,2-7.5,4.4-11,7c-7.2,5.4-13.4,12-18.4,19.5C16.8,48.5,12.2,63.7,12.3,79.3z"/>
		<path class="st1" d="M102.1,13.4c5.5,0,10,4.5,10,10s-4.5,10-10,10s-10-4.5-10-10S96.6,13.4,102.1,13.4z"/>
		<path class="st2" d="M102.1,31.8c-0.8,0-1.7-0.1-2.4-0.4c-4.4-1.3-6.9-6-5.5-10.4s6-6.9,10.4-5.5c4.4,1.3,6.9,6,5.5,10.4
			c-0.5,1.7-1.6,3.2-3.1,4.3C105.6,31.2,103.8,31.8,102.1,31.8L102.1,31.8z"/>
		<path class="st1" d="M101.8,26.1h-3.3v-0.5c0-1.3,3.5-2.1,3.5-4.4c0-1.1-0.9-2.1-2.1-2.1c0,0-0.1,0-0.1,0c-1.1-0.1-2,0.7-2.1,1.8
			c0,0,0,0,0,0.1c0,0.4,0.2,0.5,0.4,0.5s0.5-0.2,0.5-0.4c0-0.6,0.4-1.1,1-1.2c0.1,0,0.1,0,0.2,0c0.7,0,1.3,0.5,1.3,1.2
			c0,0,0,0.1,0,0.1c0,1.8-3.6,2.6-3.6,4.3v1c0,0.2,0.2,0.3,0.4,0.3h3.8c0.2,0,0.3-0.2,0.3-0.4S102,26.1,101.8,26.1L101.8,26.1z"/>
		<path class="st1" d="M106.7,24.3h-0.6v-1.8c0-0.2-0.2-0.3-0.4-0.3s-0.4,0.1-0.4,0.3v1.8h-1.8l2.3-4.6c0,0,0-0.1,0-0.1
			c0-0.2-0.3-0.4-0.4-0.4c-0.2,0-0.3,0.1-0.4,0.3l-2.6,5.2c0,0.1,0,0.1,0,0.2c0,0.2,0.1,0.3,0.3,0.3c0,0,0,0,0,0h2.7v1.5
			c0,0.2,0.2,0.3,0.4,0.3s0.4-0.1,0.4-0.3v-1.5h0.6c0.2,0,0.3-0.2,0.3-0.4S106.9,24.3,106.7,24.3L106.7,24.3z"/>
		<path class="st2" d="M119.4,40.4v47.4h44.1V40.4c0-1.6-1.3-2.8-2.8-2.8l0,0h-38.5C120.6,37.5,119.4,38.8,119.4,40.4z"/>
		<path class="st3" d="M121.6,47.2v40.6h39.7V47.2c0-0.9-0.8-1.7-1.7-1.7h-36.3c-0.1,0-0.2,0-0.3,0
			C122.2,45.7,121.6,46.4,121.6,47.2L121.6,47.2z"/>
		<path class="st1" d="M46.9,42.7H31.9c-0.7,0-1.2-0.6-1.2-1.3l0,0c0-0.7,0.6-1.2,1.2-1.2c0,0,0,0,0,0h14.9c0.7,0,1.2,0.6,1.2,1.2v0
			l0,0C48.1,42.1,47.6,42.7,46.9,42.7z"/>
		<path class="st1" d="M134.3,56h22.1c1.2,0,2.2,1,2.2,2.2c0,0,0,0,0,0V65c0,1.2-1,2.2-2.2,2.2c0,0,0,0,0,0h-1v2.4l-3.5-2.4h-17.6
			c-1.2,0-2.2-1-2.2-2.2c0,0,0,0,0,0v-6.7C132,57,133,56,134.3,56C134.3,56,134.3,56,134.3,56z"/>
		<path class="st1" d="M148.5,72h-22.1c-1.2,0-2.2,1-2.2,2.2v6.7c0,1.2,1,2.2,2.2,2.2l0,0h1v2.4l3.5-2.4h17.6c1.2,0,2.2-1,2.2-2.2
			l0,0v-6.7C150.8,73,149.8,72,148.5,72C148.5,72,148.5,72,148.5,72z"/>
		<path class="st1" d="M121.6,47.2v5.4h39.7v-5.4c0-0.9-0.8-1.7-1.7-1.7h-36.3c-0.1,0-0.2,0-0.3,0C122.2,45.7,121.6,46.4,121.6,47.2
			L121.6,47.2z"/>
		<path class="st0" d="M152.5,62.8h-11.6c-0.7,0-1.3-0.6-1.3-1.2v0c0-0.7,0.6-1.2,1.3-1.2h11.6c0.7,0,1.3,0.6,1.3,1.2v0
			C153.7,62.3,153.2,62.8,152.5,62.8z"/>
		<path class="st0" d="M142.4,78.8h-11.6c-0.7,0-1.3-0.6-1.3-1.2v0c0-0.7,0.6-1.2,1.3-1.2h11.6c0.7,0,1.3,0.6,1.3,1.2v0
			C143.6,78.2,143.1,78.8,142.4,78.8z"/>
		<path class="st4" d="M42.8,43.1v40.5c0,0,23,2.4,23-8.8c0,0-6.2,0.8-4.9-4.4c1.6-6.5,0.7-17.1,0-22.9S42.8,43.1,42.8,43.1
			L42.8,43.1z"/>
		<path class="st4" d="M42.9,43.1v40.5c0,0-23,2.4-23-8.8c0,0,6.2,0.8,4.9-4.4c-1.6-6.5-0.7-17.1,0-22.9S42.9,43.1,42.9,43.1
			L42.9,43.1z"/>
		<rect x="39.1" y="71.7" class="st5" width="7.4" height="8.3"/>
		<path class="st6" d="M46.6,72.7c-2.3,1.3-4.9,1.8-7.5,1.5v-2.5h7.5V72.7z"/>
		<path class="st6" d="M53.7,58.7c0.3,2,2.1,3.4,4.1,3.1s3.4-2.1,3.1-4.1c-0.2-1.8-1.8-3.2-3.6-3.2C55.2,54.8,53.5,56.6,53.7,58.7z"
			/>
		<path class="st6" d="M24.8,58.7c-0.1,2.1,1.5,4,3.6,4.2c2.3-0.3,3.9-2.4,3.6-4.7c-0.2-1.9-1.7-3.4-3.6-3.6
			C26.2,54.7,24.6,56.6,24.8,58.7z"/>
		<path class="st5" d="M28.4,50.8c0-6.1,4.5-10.6,14.4-10.6s14.5,4.5,14.5,10.6S58.3,73,42.8,73S28.4,56.9,28.4,50.8z"/>
		<path class="st7" d="M48.3,57.8c0.1,0.9,0.9,1.5,1.7,1.4s1.5-0.9,1.4-1.7c-0.1-0.8-0.8-1.4-1.6-1.4C49,56,48.3,56.8,48.3,57.8
			C48.3,57.7,48.3,57.7,48.3,57.8L48.3,57.8z"/>
		<path class="st3" d="M50.1,57c0,0.3,0.2,0.5,0.5,0.5c0.3,0,0.5-0.2,0.5-0.5c0-0.3-0.2-0.5-0.5-0.5C50.3,56.5,50.1,56.7,50.1,57
			C50.1,57,50.1,57,50.1,57z"/>
		<path class="st8" d="M52.4,54.1c-0.7,0.3-1.9-1-4.6,0.1c-0.5,0.2-0.8-1.7,2.1-1.7C52.4,52.5,52.9,53.9,52.4,54.1z"/>
		<path class="st7" d="M34,57.8c0.1,0.9,0.9,1.5,1.7,1.4s1.5-0.9,1.4-1.7c-0.1-0.8-0.8-1.4-1.5-1.4C34.7,56,34,56.8,34,57.8
			C34,57.7,34,57.7,34,57.8L34,57.8z"/>
		<path class="st3" d="M35.8,57c0,0.3,0.2,0.5,0.5,0.5c0.3,0,0.5-0.2,0.5-0.5c0-0.3-0.2-0.5-0.5-0.5C36,56.5,35.8,56.7,35.8,57
			C35.8,57,35.8,57,35.8,57z"/>
		<path class="st8" d="M33.3,54.1c0.7,0.3,1.9-1,4.6,0.1c0.5,0.2,0.8-1.7-2.1-1.7C33.3,52.5,32.8,53.9,33.3,54.1z"/>
		<path class="st6" d="M42.8,63.8c1.5,0,2.5-1.2,2.5-0.6s-0.5,1.6-2.5,1.6s-2.5-1.1-2.5-1.6S41.3,63.8,42.8,63.8z"/>
		<path class="st6" d="M42.8,68.9c0.5,0,0.9-0.4,0.9-0.2s-0.2,0.6-0.9,0.6S42,68.9,42,68.7S42.3,68.9,42.8,68.9L42.8,68.9z"/>
		<path class="st9" d="M42.8,67.5c2.5,0,3.9-1,3.9-0.8S46.1,68,42.8,68s-3.9-1-3.9-1.3S40.4,67.5,42.8,67.5L42.8,67.5z"/>
		<path class="st10" d="M42.8,32.1c16.8,0,19,14.6,19,25.4s-5.6,17-9.9,18.8c0,0,7-12.3,3.5-23.8c-2.8-9.3-12.6-6.6-12.6-6.6
			s-9.8-2.8-12.6,6.6c-3.4,11.4,3.5,23.8,3.5,23.8c-4.4-1.8-9.9-8-9.9-18.8S26.1,32.1,42.8,32.1L42.8,32.1z"/>
		<path class="st10" d="M37.2,48.5c0,0,6.3,3.1,11.8,2.5s7.7,5.1,7.3,8.9l1.9-8.5l-3.3-6.7l-9.5-4.9l-9,0.4L32,44l-3.6,4.5l-2.6,3
			l1.2,9.1l2.6,3.1C29.6,63.8,27.3,52,37.2,48.5z"/>
		<path class="st11" d="M24.1,59.7h2V52c0-9.2,7.4-16.6,16.6-16.6S59.3,42.8,59.3,52v7.8h2V52c0-10.2-8.3-18.5-18.5-18.5
			c-10.2,0-18.5,8.3-18.5,18.5L24.1,59.7L24.1,59.7z"/>
		<path class="st11" d="M30.1,70.8h4.3v-1.3h-4.3c-1.1,0-2-0.9-2-2v-4.1h-1.3v4.2C26.8,69.4,28.3,70.8,30.1,70.8L30.1,70.8
			L30.1,70.8z"/>
		<path class="st11" d="M26.1,54.4h1.7c0.9,0,1.7,0.8,1.7,1.7v7.4c0,0.9-0.7,1.7-1.7,1.7h-1.7V54.4z"/>
		<path class="st12" d="M25.8,54.4L25.8,54.4c0.9,0,1.7,0.8,1.7,1.7l0,0v7.4c0,0.9-0.8,1.7-1.7,1.7l0,0l0,0c-1.7,0-3.1-1.4-3.1-3.1
			v-4.5C22.7,55.8,24.1,54.4,25.8,54.4z"/>
		<path class="st13" d="M59.2,54.4h-1.7c-0.9,0-1.7,0.8-1.7,1.7l0,0v7.4c0,0.9,0.8,1.7,1.7,1.7l0,0h1.7
			C59.2,65.1,59.2,54.4,59.2,54.4z"/>
		<path class="st12" d="M59.5,54.4L59.5,54.4c-0.9,0-1.7,0.8-1.7,1.7l0,0v7.4c0,0.9,0.8,1.7,1.7,1.7l0,0l0,0c1.7,0,3.1-1.4,3.1-3.1
			v-4.5C62.6,55.8,61.2,54.4,59.5,54.4z"/>
		<path class="st12" d="M34.4,68.8c-0.8,0-1.4,0.6-1.4,1.4c0,0.8,0.6,1.4,1.4,1.4c0.8,0,1.4-0.6,1.4-1.4c0,0,0,0,0,0
			C35.9,69.4,35.2,68.8,34.4,68.8z"/>
		<path class="st14" d="M25.5,84.1V88c4.8,3.6,10.7,2.8,17.1,2.8S55,91.6,59.8,88v-3.9c0-1.1-0.6-2.1-1.6-2.6l-8-4l-7.5-1l-1,0.1
			l0,0l-6.5,0.8l-8,4C26.2,82,25.6,83,25.5,84.1L25.5,84.1z"/>
		<path class="st15" d="M41.6,76.6l6.5,0.8l8,4c1,0.5,1.6,1.5,1.6,2.6v5.3c0.7-0.4,1.4-0.9,2.1-1.4v-3.8c0-1.1-0.6-2.1-1.6-2.6l-8-4
			l-7.5-1L41.6,76.6L41.6,76.6z"/>
		<path class="st15" d="M48.5,75.3l-5.2,2.2c-0.5,0.2-0.7,0.8-0.5,1.3c0,0,0,0.1,0.1,0.1l1.7,3c0.3,0.5,0.9,0.6,1.4,0.4
			c0.1,0,0.2-0.1,0.2-0.2l4.3-4.7c0.4-0.4,0.3-1-0.1-1.4c0,0,0,0-0.1-0.1l-0.8-0.6C49.2,75.2,48.8,75.2,48.5,75.3L48.5,75.3z"/>
		<path class="st15" d="M36.8,75.3l5.2,2.2c0.5,0.2,0.8,0.8,0.5,1.3c0,0,0,0.1-0.1,0.1l-1.7,3c-0.3,0.5-0.9,0.6-1.4,0.4
			c-0.1,0-0.2-0.1-0.2-0.2L35,77.5c-0.4-0.4-0.4-1,0-1.4c0,0,0,0,0.1-0.1l0.8-0.6C36.2,75.2,36.5,75.2,36.8,75.3L36.8,75.3z"/>
		<path class="st3" d="M42.7,83.6c-0.7,0-1.2,0.6-1.2,1.2c0,0.7,0.6,1.2,1.2,1.2s1.2-0.6,1.2-1.2c0,0,0,0,0,0
			C43.9,84.2,43.4,83.6,42.7,83.6C42.7,83.6,42.7,83.6,42.7,83.6z"/>
		<path class="st3" d="M42.7,88.3c-0.7,0-1.2,0.6-1.2,1.2c0,0.7,0.6,1.2,1.2,1.2s1.2-0.6,1.2-1.2c0,0,0,0,0,0
			C43.9,88.8,43.4,88.3,42.7,88.3C42.7,88.3,42.7,88.3,42.7,88.3z"/>
		<path class="st11" d="M178.8,91.3H2c-1.1,0-2-0.9-2-2l0,0c0-1.1,0.9-2,2-2h176.8c1.1,0,2,0.9,2,2l0,0
			C180.8,90.4,179.9,91.3,178.8,91.3z"/>
		<path class="st2" d="M75.3,62c0-5.5,4.8-9.9,10.7-9.9s10.7,4.4,10.7,9.9S92,71.9,86,71.9c-1,0-2.1-0.1-3.1-0.4l-4.8,1l1.1-2.7
			C76.8,68,75.3,65.1,75.3,62z M90.6,63.1c0.6,0,1-0.4,1-1s-0.4-1-1-1s-1,0.4-1,1S90,63.1,90.6,63.1z M86.2,63.1c0.6,0,1-0.4,1-1
			s-0.4-1-1-1s-1,0.4-1,1S85.6,63.1,86.2,63.1C86.2,63.1,86.2,63.1,86.2,63.1z M81.7,63.1c0.6,0,1-0.4,1-1s-0.4-1-1-1s-1,0.4-1,1
			S81.2,63.1,81.7,63.1C81.7,63.1,81.7,63.1,81.7,63.1z"/>
		<path class="st1" d="M103.7,56.1c0.3-3.3-2.2-6.1-5.5-6.4c-3.3-0.3-6.1,2.2-6.4,5.5c-0.3,3.3,2.2,6.1,5.5,6.4c0.2,0,0.3,0,0.5,0
			c0.6,0,1.1-0.1,1.7-0.2l2.6,0.5l-0.6-1.5C102.9,59.4,103.7,57.8,103.7,56.1z M95.3,56.7c-0.3,0-0.5-0.2-0.5-0.5c0,0,0,0,0,0
			c0-0.3,0.2-0.5,0.5-0.5s0.5,0.2,0.5,0.5S95.6,56.7,95.3,56.7z M97.7,56.7c-0.3,0-0.5-0.2-0.5-0.5s0.2-0.5,0.5-0.5s0.5,0.2,0.5,0.5
			C98.2,56.4,98,56.7,97.7,56.7C97.7,56.7,97.7,56.7,97.7,56.7z M100.2,56.7c-0.3,0-0.5-0.2-0.5-0.5s0.2-0.5,0.5-0.5
			s0.5,0.2,0.5,0.5C100.7,56.4,100.5,56.7,100.2,56.7C100.2,56.7,100.2,56.7,100.2,56.7z"/>
		<path class="st1" d="M76.9,24.1l-6.1,4.3c0,0-0.1,0-0.2,0l-6.1-4.3c-0.1,0-0.2,0-0.2,0c0,0,0,0.1,0,0.1v6.3c0,0.4,0.4,0.8,0.8,0.8
			l0,0h11.2c0.4,0,0.8-0.4,0.8-0.8v0v-6.3c0-0.1,0-0.1-0.1-0.2C77,24.1,76.9,24.1,76.9,24.1z"/>
		<path class="st1" d="M76.8,22.2H64.7c-0.2,0-0.3,0.1-0.3,0.3v0.3c0,0,0,0.1,0.1,0.1l6.3,4.5c0,0,0.1,0,0.2,0l6.3-4.5
			c0,0,0.1-0.1,0.1-0.1v-0.3C77.1,22.4,77,22.2,76.8,22.2C76.8,22.2,76.8,22.2,76.8,22.2z"/>
	</g>
</g>
</svg>
