<svg xmlns="http://www.w3.org/2000/svg" xmlns:xlink="http://www.w3.org/1999/xlink" viewBox="0 0 180.82 92.92"><defs><style>.cls-1{fill:none;}.cls-2{fill:#f5f9fc;}.cls-3{fill:#a6bdcf;}.cls-4{clip-path:url(#clip-path);}.cls-5{fill:#cedbe6;}.cls-6{fill:#e0edf5;}.cls-7{fill:#baccdb;}.cls-16,.cls-19,.cls-8{fill:#91abbf;}.cls-9{fill:#c1cfdb;}.cls-10{fill:#ffd000;}.cls-11{fill:#fbd192;}.cls-12{fill:#39f;}.cls-13,.cls-14,.cls-17{fill:#fff;}.cls-14,.cls-15,.cls-16{opacity:0.8;}.cls-17,.cls-18,.cls-19{opacity:0.5;}</style><clipPath id="clip-path"><path class="cls-1" d="M99,33h30.43a43.37,43.37,0,0,1,43.37,43.37v10.9a0,0,0,0,1,0,0H99a0,0,0,0,1,0,0V33A0,0,0,0,1,99,33Z"/></clipPath></defs><title>7</title><g id="Layer_2" data-name="Layer 2"><g id="Icons"><path class="cls-2" d="M168.55,79.33a79,79,0,0,1-.42,8.18H10.29a79.34,79.34,0,1,1,158.26-8.18Z"/><rect class="cls-3" y="87.25" width="180.82" height="4.06" rx="2.03" ry="2.03"/><g class="cls-4"><rect class="cls-5" x="119.04" y="61.91" width="9.83" height="6.68"/><path class="cls-6" d="M138.88,91.12a56.41,56.41,0,0,0,8.15-2.7l0-14.55A7.83,7.83,0,0,0,139.23,66H108.67a7.83,7.83,0,0,0-7.83,7.83l0,14.55a55.88,55.88,0,0,0,8.14,2.7l1.73.4,11.47,1.37h0c.57,0,1.14,0,1.71,0a62.32,62.32,0,0,0,13.23-1.4Z"/><path class="cls-6" d="M111.8,41.64h24.31a0,0,0,0,1,0,0V52.57a10.78,10.78,0,0,1-10.78,10.78h-.72A12.81,12.81,0,0,1,111.8,50.54v-8.9a0,0,0,0,1,0,0Z"/><polygon class="cls-5" points="123.95 74.33 128.86 66.04 119.04 66.04 123.95 74.33"/><path class="cls-7" d="M110.72,72.86l0,18.66-1.73-.4,0-18.26Z"/><polygon class="cls-7" points="138.88 91.12 138.91 72.86 137.18 72.86 137.15 91.52 138.88 91.12"/><polygon class="cls-7" points="123.95 74.33 119.04 63.66 114.75 66.22 123.86 74.33 123.95 74.33"/><polygon class="cls-7" points="123.95 74.33 128.86 63.66 133.15 66.22 124.05 74.33 123.95 74.33"/><path class="cls-8" d="M106,41.6h5.81a0,0,0,0,1,0,0v7.68a0,0,0,0,1,0,0H106a3.73,3.73,0,0,1-3.73-3.73v-.23A3.73,3.73,0,0,1,106,41.6Z"/><path class="cls-3" d="M136.1,41.59H111.81a.78.78,0,0,1,0-.22,8,8,0,0,1,1.85-5c.18-.2.36-.4.54-.58a8.27,8.27,0,0,1,5.85-2.42h7.79A8.23,8.23,0,0,1,136.1,41.59Z"/><path class="cls-3" d="M106.8,41.6a16.67,16.67,0,0,1,4.72,3.7c2.39,2.61,3.7,4,7.17,4s8.2-2.39,8.2-7.68Z"/><path class="cls-9" d="M126.89,41.6h9.22a0,0,0,0,1,0,0V54.29a0,0,0,0,1,0,0h-.77a8.45,8.45,0,0,1-8.45-8.45V41.6a0,0,0,0,1,0,0Z"/><path class="cls-6" d="M123.52,36.35v5.24H111.81a.78.78,0,0,1,0-.22,8,8,0,0,1,1.85-5Z"/><ellipse class="cls-6" cx="133.88" cy="53.26" rx="4.05" ry="2.89" transform="matrix(0.3, -0.95, 0.95, 0.3, 42.74, 164.86)"/><path class="cls-10" d="M132.43,62.59a.29.29,0,0,0-.4,0,.28.28,0,0,0,0,.4l1.79,1.52a.34.34,0,0,0,.19.07.29.29,0,0,0,.22-.11.29.29,0,0,0,0-.4Z"/><path class="cls-10" d="M141,62.63a.29.29,0,0,0-.4,0l-1.79,1.52a.28.28,0,0,0,0,.4.26.26,0,0,0,.21.11.34.34,0,0,0,.19-.07L141,63A.28.28,0,0,0,141,62.63Z"/><path class="cls-10" d="M136.51,58.37a.29.29,0,0,0-.29.29v3.09a.29.29,0,1,0,.57,0V58.66A.29.29,0,0,0,136.51,58.37Z"/><path class="cls-10" d="M137.07,64.52l2.1,5.65a.54.54,0,0,0,.49.36l6,.25a.56.56,0,0,1,.32,1l-4.73,3.73a.55.55,0,0,0-.19.59l1.63,5.8a.56.56,0,0,1-.85.61l-5-3.34a.58.58,0,0,0-.62,0l-5,3.34a.55.55,0,0,1-.84-.61l1.63-5.8a.57.57,0,0,0-.19-.59l-4.73-3.73a.55.55,0,0,1,.32-1l6-.25a.55.55,0,0,0,.5-.36L136,64.52A.56.56,0,0,1,137.07,64.52Z"/><path class="cls-10" d="M151.54,60.37l-1.12,3a.29.29,0,0,1-.26.2l-3.22.13a.3.3,0,0,0-.17.53l2.52,2a.31.31,0,0,1,.11.32l-.87,3.1A.29.29,0,0,0,149,70l2.68-1.78a.27.27,0,0,1,.32,0L154.66,70a.29.29,0,0,0,.45-.32l-.87-3.1a.31.31,0,0,1,.11-.32l2.52-2a.3.3,0,0,0-.17-.53l-3.22-.13a.29.29,0,0,1-.26-.2l-1.12-3A.3.3,0,0,0,151.54,60.37Z"/><path class="cls-10" d="M156.47,51.85l-.73,2a.2.2,0,0,1-.18.12l-2.1.09a.19.19,0,0,0-.11.34L155,55.69a.18.18,0,0,1,.06.2l-.56,2a.19.19,0,0,0,.29.21L156.54,57a.22.22,0,0,1,.22,0l1.74,1.17a.2.2,0,0,0,.3-.21l-.57-2a.18.18,0,0,1,.07-.2L160,54.38a.19.19,0,0,0-.12-.34l-2.1-.09a.18.18,0,0,1-.17-.12l-.73-2A.2.2,0,0,0,156.47,51.85Z"/></g><path class="cls-11" d="M96.37,55.11h2.06c2.36,0,1.51,0,3.87,0,.2,0,.39,0,.59,0,1.13,0,1.9.7,1.89,1.61s-.76,1.55-1.91,1.6c-.26,0-.25,0-.25.06.91,1.42.75,2.18-.48,2.88a4.64,4.64,0,0,1,.14,1.7c-.15.47-.69.82-1.11,1.28.69,1.33.24,2-1.51,2.06-3,0-6,0-8.93.06-.71,0-.91-.22-.9-.92,0-2.41,0-4.83.06-7.24a3.89,3.89,0,0,1,.54-1.81c1-1.58,2-3.14,3-4.64A2.86,2.86,0,0,0,94,49.28a1.84,1.84,0,0,1-.06-.41c0-.49-.46-1.1.23-1.43a1.56,1.56,0,0,1,1.91.45,4.52,4.52,0,0,1,.81,4.36C96.66,53.15,96.55,54.08,96.37,55.11Z"/><rect class="cls-11" x="86.85" y="56.85" width="5.53" height="9.08"/><path class="cls-12" d="M89.6,56.85a3.41,3.41,0,0,0-.18.75c0,2.7,0,5.39,0,8.08,0,.56-.22.74-.76.73-1.48,0-3,0-4.46,0-.53,0-.77-.16-.76-.71,0-2.72,0-5.45,0-8.17,0-.23.32-.65.51-.65,1.62-.06,3.25,0,4.88,0C89,56.86,89.46,56.87,89.6,56.85Z"/><circle class="cls-13" cx="86.04" cy="58.34" r="0.64"/><path class="cls-6" d="M27.76,35.83h57a2.06,2.06,0,0,1,2.06,2.06V87.25a0,0,0,0,1,0,0H25.71a0,0,0,0,1,0,0V37.89a2.06,2.06,0,0,1,2.06-2.06Z"/><rect class="cls-13" x="29.54" y="40.82" width="53.44" height="12.77" rx="1.28" ry="1.28"/><rect class="cls-8" x="34.93" y="44.46" width="27.2" height="1.53" rx="0.77" ry="0.77"/><rect class="cls-8" x="34.93" y="48.43" width="20.26" height="1.53" rx="0.77" ry="0.77"/><path class="cls-10" d="M79,47.7c.39,0,.64-.23.65-.54a.59.59,0,0,0-.64-.55H76.76c.06-.34.09-.66.17-1a1.51,1.51,0,0,0-.28-1.47A.52.52,0,0,0,76,44c-.24.12-.08.32-.08.49a.78.78,0,0,0,0,.14,1,1,0,0,1-.18.83c-.36.51-.71,1-1,1.58a.69.69,0,0,0-.07.15s-1.11,0-1.44,0c-.06,0-.17.14-.17.22,0,.92,0,1.85,0,2.77,0,.19.08.24.26.24h.83c.15,0,.22,0,.25-.16h.18c0,.1.11.14.28.14,1,0,2,0,3,0,.59,0,.75-.25.51-.7.15-.16.33-.28.38-.44a1.65,1.65,0,0,0-.05-.57c.42-.24.47-.5.17-1C78.87,47.71,78.87,47.7,79,47.7Z"/><rect class="cls-14" x="29.54" y="56.86" width="53.44" height="12.77" rx="1.28" ry="1.28"/><g class="cls-15"><rect class="cls-8" x="34.93" y="60.49" width="27.2" height="1.53" rx="0.77" ry="0.77"/><rect class="cls-8" x="34.93" y="64.46" width="20.26" height="1.53" rx="0.77" ry="0.77"/></g><path class="cls-16" d="M79,63.73c.39,0,.64-.22.65-.54a.59.59,0,0,0-.64-.55H76.76c.06-.35.09-.67.17-1a1.52,1.52,0,0,0-.28-1.48.51.51,0,0,0-.64-.15c-.24.11-.08.31-.08.48a.59.59,0,0,0,0,.14,1,1,0,0,1-.18.83c-.36.51-.71,1-1,1.58a.77.77,0,0,0-.07.16l-1.44,0c-.06,0-.17.14-.17.22,0,.93,0,1.85,0,2.77,0,.19.08.25.26.24h.83c.15,0,.22,0,.25-.17h.18c0,.1.11.14.28.14,1,0,2,0,3,0,.59,0,.75-.25.51-.7.15-.15.33-.27.38-.43a1.69,1.69,0,0,0-.05-.58c.42-.24.47-.5.17-1C78.87,63.74,78.87,63.74,79,63.73Z"/><rect class="cls-17" x="29.54" y="72.87" width="53.44" height="12.77" rx="1.28" ry="1.28"/><g class="cls-18"><rect class="cls-8" x="34.93" y="76.5" width="27.2" height="1.53" rx="0.77" ry="0.77"/><rect class="cls-8" x="34.93" y="80.47" width="20.26" height="1.53" rx="0.77" ry="0.77"/></g><path class="cls-19" d="M79,79.74c.39,0,.64-.22.65-.54a.59.59,0,0,0-.64-.55H76.76c.06-.35.09-.67.17-1a1.52,1.52,0,0,0-.28-1.48.51.51,0,0,0-.64-.15c-.24.11-.08.31-.08.48a.68.68,0,0,0,0,.14,1,1,0,0,1-.18.83c-.36.51-.71,1-1,1.58a.77.77,0,0,0-.07.16l-1.44,0c-.06,0-.17.14-.17.22,0,.92,0,1.85,0,2.77,0,.19.08.25.26.24h.83c.15,0,.22,0,.25-.16h.18c0,.1.11.14.28.14,1,0,2,0,3,0,.59,0,.75-.25.51-.7.15-.16.33-.27.38-.44a1.65,1.65,0,0,0-.05-.57c.42-.24.47-.5.17-1C78.87,79.75,78.87,79.75,79,79.74Z"/></g></g></svg>