<svg xmlns="http://www.w3.org/2000/svg" viewBox="0 0 180.82 91.3"><defs><style>.cls-1,.cls-18{fill:#f5f9fc;}.cls-2{fill:#5b6366;}.cls-3{fill:#e0edf5;}.cls-4,.cls-5{fill:#c1cfdb;}.cls-5{opacity:0.5;}.cls-6{fill:#fafdff;}.cls-7{fill:#fb3;}.cls-8{fill:#00aeef;}.cls-9{fill:#ff4633;}.cls-10{fill:#d3e0f0;}.cls-11{fill:#35c86f;}.cls-12{fill:#fff;}.cls-13{fill:#d0deea;}.cls-14{fill:#e2eef7;}.cls-15{fill:#b4cbdb;}.cls-16{fill:#a6bdcf;}.cls-17{fill:#dfebf7;}.cls-18{stroke:#f5f9fc;stroke-miterlimit:10;stroke-width:1.5px;}</style></defs><title>8</title><g id="Layer_2" data-name="Layer 2"><g id="Icons"><path class="cls-1" d="M168.55,79.33a79,79,0,0,1-.42,8.18H10.28A79.41,79.41,0,0,1,41,16.29,79.85,79.85,0,0,1,51.33,9.61,79.44,79.44,0,0,1,126,9a77.74,77.74,0,0,1,11,7A79.43,79.43,0,0,1,155.34,35.5,78.9,78.9,0,0,1,168.55,79.33Z"/><path class="cls-2" d="M28.14,40H91.53a1.87,1.87,0,0,1,1.87,1.87V84.1a0,0,0,0,1,0,0H26.27a0,0,0,0,1,0,0V41.91A1.87,1.87,0,0,1,28.14,40Z"/><path class="cls-3" d="M16.18,84.1h87.31a.5.5,0,0,1,.5.5v1.61a0,0,0,0,1,0,0H15.68a0,0,0,0,1,0,0V84.6A.5.5,0,0,1,16.18,84.1Z"/><path class="cls-4" d="M104,86.14H15.68l1.75.64a11.9,11.9,0,0,0,4,.71H98.2a11.81,11.81,0,0,0,4-.71Z"/><rect class="cls-5" x="52.4" y="84.1" width="14.87" height="0.76"/><circle class="cls-4" cx="59.71" cy="41.23" r="0.32"/><rect class="cls-4" x="28.33" y="42.48" width="62.74" height="39.86"/><rect class="cls-6" x="29.44" y="45.94" width="60.52" height="35.63" rx="0.3" ry="0.3"/><circle class="cls-7" cx="84.3" cy="44.24" r="0.7"/><circle class="cls-8" cx="86.78" cy="44.24" r="0.7"/><circle class="cls-9" cx="89.26" cy="44.24" r="0.7"/><path class="cls-4" d="M44.12,69.47v1.2H41.38v1.68h2.28v1.2H41.38v2.59H39.82V69.47Z"/><path class="cls-4" d="M47.16,73.68v2.46H45.61V69.47h2.17a4.4,4.4,0,0,1,1.23.15,2.36,2.36,0,0,1,.84.42,1.43,1.43,0,0,1,.46.63,2,2,0,0,1,.15.78,2.11,2.11,0,0,1-.09.62,1.72,1.72,0,0,1-.25.53,2.23,2.23,0,0,1-.43.44,2.21,2.21,0,0,1-.57.31,1.81,1.81,0,0,1,.29.19,1.31,1.31,0,0,1,.24.28l1.42,2.32H49.66a.58.58,0,0,1-.55-.29L48,73.92a.53.53,0,0,0-.17-.19.7.7,0,0,0-.28,0Zm0-1.07h.62a1.71,1.71,0,0,0,.54-.08,1,1,0,0,0,.36-.22,1.15,1.15,0,0,0,.21-.33,1.4,1.4,0,0,0,.06-.41.84.84,0,0,0-.29-.69,1.34,1.34,0,0,0-.88-.25h-.62Z"/><path class="cls-4" d="M56.68,69.47v1.2H53.94v1.55H56v1.15h-2.1V75h2.74v1.19h-4.3V69.47Z"/><path class="cls-4" d="M63.09,69.47V70.7H61.21v5.44H59.66V70.7H57.79V69.47Z"/><path class="cls-4" d="M64.41,76.14V69.47h2.46A4.85,4.85,0,0,1,68,69.6a2.47,2.47,0,0,1,.8.36,1.42,1.42,0,0,1,.44.57,1.82,1.82,0,0,1,.14.75,1.54,1.54,0,0,1-.06.43,1.2,1.2,0,0,1-.2.39,1.28,1.28,0,0,1-.36.33,2,2,0,0,1-.51.26,1.83,1.83,0,0,1,1,.52,1.36,1.36,0,0,1,.32.93,1.93,1.93,0,0,1-.17.79,2,2,0,0,1-.48.64,2.24,2.24,0,0,1-.78.42,3.55,3.55,0,0,1-1.07.15ZM66,72.28h.81a2.19,2.19,0,0,0,.46,0,.91.91,0,0,0,.35-.12.56.56,0,0,0,.22-.26.92.92,0,0,0,.08-.4,1.07,1.07,0,0,0-.06-.39.55.55,0,0,0-.19-.26.81.81,0,0,0-.31-.14,2.89,2.89,0,0,0-.45,0H66Zm0,1V75h1.09a1.37,1.37,0,0,0,.5-.08.87.87,0,0,0,.31-.2.76.76,0,0,0,.15-.28,1.12,1.12,0,0,0,0-.32,1.14,1.14,0,0,0,0-.33.56.56,0,0,0-.16-.24.82.82,0,0,0-.31-.16,1.72,1.72,0,0,0-.49-.05Z"/><path class="cls-4" d="M77.32,76.14h-1.2a.59.59,0,0,1-.34-.09.55.55,0,0,1-.18-.24l-.39-1.16H72.67l-.39,1.16a.49.49,0,0,1-.18.23.51.51,0,0,1-.32.1H70.57l2.58-6.67h1.58ZM73,73.59h1.82l-.61-1.82c0-.12-.09-.25-.14-.41s-.11-.33-.16-.51c0,.18-.1.36-.15.52s-.1.29-.15.41Z"/><path class="cls-4" d="M81,73.61v2.53H79.4V73.61L77,69.47h1.36a.53.53,0,0,1,.32.1.65.65,0,0,1,.19.24l1,1.94c.07.16.14.3.21.43s.12.26.17.39a3.2,3.2,0,0,1,.16-.39c.06-.14.13-.28.21-.43l.93-1.94a.42.42,0,0,1,.08-.12.38.38,0,0,1,.11-.11.49.49,0,0,1,.31-.11h1.38Z"/><path class="cls-10" d="M72.35,27.65C69.44,46.27,75,58.74,89.26,65.83c14.26-7.09,19.82-19.56,16.91-38.18-6.75.77-13-1.11-16.91-4.1C85.33,26.45,79.18,28.33,72.35,27.65Z"/><path class="cls-11" d="M89.3,63c-7.4-4-12-9.55-14-17a41.67,41.67,0,0,1-.77-15.8l.91,0h0A27,27,0,0,0,89.3,26.5a26.9,26.9,0,0,0,13.9,3.73l.91,0C105.42,41.11,104.42,55,89.3,63Z"/><polygon class="cls-12" points="97.06 39.84 87.21 49.69 87.2 49.7 86.24 48.72 82.38 44.8 84.24 43.04 87.52 46.32 95.47 38.25 97.06 39.84"/><path class="cls-13" d="M58.86,58.11H71.46A2.94,2.94,0,0,1,74.4,61v0A2.94,2.94,0,0,1,71.46,64H58.86a.56.56,0,0,1-.56-.56V58.67a.56.56,0,0,1,.56-.56Z"/><path class="cls-14" d="M60.38,58.67H71.13A2.38,2.38,0,0,1,73.51,61v0a2.38,2.38,0,0,1-2.38,2.38H60.38a0,0,0,0,1,0,0V58.67a0,0,0,0,1,0,0Z"/><circle class="cls-6" cx="64.22" cy="60.92" r="0.87"/><circle class="cls-6" cx="67.22" cy="60.92" r="0.87"/><circle class="cls-6" cx="70.22" cy="60.92" r="0.87"/><path class="cls-13" d="M56.13,60.82a5,5,0,0,1-5-5V54.66a5,5,0,0,1,10.08,0v1.13A5,5,0,0,1,56.13,60.82Zm0-9.4a3.25,3.25,0,0,0-3.24,3.24v1.13A3.25,3.25,0,0,0,56.13,59h0a3.25,3.25,0,0,0,3.24-3.24V54.66A3.25,3.25,0,0,0,56.13,51.42Z"/><rect class="cls-14" x="49.26" y="56.37" width="13.74" height="9.8" rx="1.23" ry="1.23"/><path class="cls-15" d="M55.89,62.16V62a1.67,1.67,0,0,1,.44-1.17,1.36,1.36,0,0,0,.44-.78c0-.26-.18-.43-.55-.44a1.49,1.49,0,0,0-.74.22L55.22,59a2.54,2.54,0,0,1,1.25-.31c1,0,1.43.55,1.43,1.17a1.83,1.83,0,0,1-.64,1.25,1.33,1.33,0,0,0-.38.93v.14Zm-.19,1a.64.64,0,0,1,.66-.68.68.68,0,1,1-.66.68Z"/><rect class="cls-16" y="87.25" width="180.82" height="4.06" rx="2.03" ry="2.03"/><path class="cls-17" d="M151.15,68.86a5.83,5.83,0,0,0-8.64-5.15,9.55,9.55,0,0,0-18.7,1.87,4.79,4.79,0,0,0-1.32-.21,4.68,4.68,0,1,0,0,9.36h23.18v0A5.85,5.85,0,0,0,151.15,68.86Z"/><path class="cls-18" d="M139,70.82V68.43a4.41,4.41,0,0,0-8.82,0v2.5a5.34,5.34,0,1,0,8.82-.11ZM135.2,74.5V76a.55.55,0,0,1-.54.55h0a.55.55,0,0,1-.55-.55V74.5a1.21,1.21,0,1,1,1.76-1.08A1.21,1.21,0,0,1,135.2,74.5Zm2.16-5.21v1.16a4.21,4.21,0,0,0-2.68-1,4.15,4.15,0,0,0-2.84,1.11V68.43a2.76,2.76,0,0,1,5.52,0Z"/><path class="cls-17" d="M139,70.82V68.43a4.41,4.41,0,0,0-8.82,0v2.5a5.34,5.34,0,1,0,8.82-.11ZM135.2,74.5V76a.55.55,0,0,1-.54.55h0a.55.55,0,0,1-.55-.55V74.5a1.21,1.21,0,1,1,1.76-1.08A1.21,1.21,0,0,1,135.2,74.5Zm2.16-5.21v1.16a4.21,4.21,0,0,0-2.68-1,4.15,4.15,0,0,0-2.84,1.11V68.43a2.76,2.76,0,0,1,5.52,0Z"/><path class="cls-17" d="M134.66,38.73l-1.12,1.13-1-1,1.31-1.3-.71-.71-1.3,1.31-4.52-4.53a4.9,4.9,0,0,0-.61-6.2,4.81,4.81,0,0,0-6.87,0,4.88,4.88,0,0,0,0,6.88l0,0a4.92,4.92,0,0,0,5.65.87l8.87,8.9L135.59,43l.53-.53,1.13-1.13Zm-9.92-6.37a2,2,0,0,1-2.84,0h0a2,2,0,0,1,0-2.84,2,2,0,0,1,1.42-.6,2,2,0,0,1,1.42.59,2.05,2.05,0,0,1,.59,1.44A2,2,0,0,1,124.74,32.36Z"/></g></g></svg>