<svg xmlns="http://www.w3.org/2000/svg" viewBox="0 0 180.82 91.3"><defs><style>.cls-1{fill:#f5f9fc;}.cls-2{fill:#e0edf5;}.cls-3{fill:#fbd192;}.cls-4{fill:#ffa6c4;}.cls-5{fill:#baccdb;}.cls-6{fill:#a6bdcf;}</style></defs><title>2</title><g id="Layer_2" data-name="Layer 2"><g id="Icons"><path class="cls-1" d="M168.55,79.33a79,79,0,0,1-.42,8.18H10.29a79.34,79.34,0,1,1,158.26-8.18Z"/><rect class="cls-2" x="41.79" y="75.72" width="88.28" height="1.57" rx="0.67" ry="0.67"/><polygon class="cls-3" points="92.73 88.89 85.93 77.29 79.13 88.89 92.73 88.89"/><path class="cls-4" d="M58.55,62.53a8.66,8.66,0,0,0-2.89-3.75,6.27,6.27,0,0,1,.28-3.66,3.42,3.42,0,0,0-3.52,2.06,10.64,10.64,0,0,0-3-.42A10.07,10.07,0,0,0,42,59.9a3.17,3.17,0,0,0-1.28-1.52A3.13,3.13,0,0,0,39.39,58a1.57,1.57,0,0,0-.43-.53,1.81,1.81,0,0,0-1.73-.09,1.74,1.74,0,0,1,1.66.18,1.19,1.19,0,0,1,.33.44h-.38a2.81,2.81,0,0,0-1,.26,1.61,1.61,0,0,0-.71.75,1.1,1.1,0,0,0,.09,1,1,1,0,0,0,1,.36,1.6,1.6,0,0,0,.87-.43,1.9,1.9,0,0,0,.46-1.35,2.53,2.53,0,0,1,.81.34,2.56,2.56,0,0,1,1,1.73,7.81,7.81,0,0,0-1.55,4.63,8.34,8.34,0,0,0,4.31,7.12,1.24,1.24,0,0,1,.64,1.07v2.24h3.6v-2a9.46,9.46,0,0,0,1.07.06,11.11,11.11,0,0,0,1.16-.07v2h3.59V73.43a1.26,1.26,0,0,1,.64-1.08,8.49,8.49,0,0,0,4.07-5.63h1.56V63.1ZM39.32,59.05a1.58,1.58,0,0,1-.4.69,1.16,1.16,0,0,1-.72.3.58.58,0,0,1-.6-.24.66.66,0,0,1,0-.65,1.4,1.4,0,0,1,1.3-.64,2.73,2.73,0,0,1,.49.06A1.57,1.57,0,0,1,39.32,59.05ZM51,58.68a.45.45,0,0,1-.56.28,5.2,5.2,0,0,0-2.93-.05,5.38,5.38,0,0,0-2.28,1.2.46.46,0,0,1-.29.11.47.47,0,0,1-.33-.14.44.44,0,0,1,0-.62,6.45,6.45,0,0,1,6.08-1.34A.45.45,0,0,1,51,58.68Zm5.58,3.06c-.16,0-.3-.23-.3-.52s.14-.51.3-.51.3.23.3.51S56.77,61.74,56.6,61.74Z"/><path class="cls-5" d="M137.34,48.58a17.67,17.67,0,0,0-5.94-7.73c-.35-2.43-.53-5.71.58-7.53a7,7,0,0,0-7.25,4.24,21.77,21.77,0,0,0-6.1-.86,20.8,20.8,0,0,0-15.33,6.46A6.55,6.55,0,0,0,100.67,40a6.4,6.4,0,0,0-2.77-.85A2.75,2.75,0,0,0,97,38.08a3.65,3.65,0,0,0-3.55-.18,3.55,3.55,0,0,1,3.41.36,2.53,2.53,0,0,1,.69.9,5.18,5.18,0,0,0-.79,0,5.46,5.46,0,0,0-2,.53,3.26,3.26,0,0,0-1.45,1.53,2.23,2.23,0,0,0,.18,2.14,2,2,0,0,0,2,.75,3.27,3.27,0,0,0,1.79-.88,3.73,3.73,0,0,0,.87-1.74,3.63,3.63,0,0,0,.08-1,4.89,4.89,0,0,1,1.66.7A5.23,5.23,0,0,1,102,44.73a16.06,16.06,0,0,0-3.19,9.53c0,6.12,3.53,11.5,8.87,14.64A2.58,2.58,0,0,1,109,71.12v4.6h7.41v-4c.72.07,1.45.12,2.19.12a23.42,23.42,0,0,0,2.39-.14v4h7.4V71a2.59,2.59,0,0,1,1.3-2.2,17.52,17.52,0,0,0,8.39-11.6h3.22V49.74ZM97.77,41.4a3.22,3.22,0,0,1-.83,1.44,2.59,2.59,0,0,1-1.47.62,1.26,1.26,0,0,1-1.24-.5,1.34,1.34,0,0,1,0-1.34,2.88,2.88,0,0,1,2.66-1.32,5.91,5.91,0,0,1,1,.12A3.17,3.17,0,0,1,97.77,41.4Zm24.08-.75a.91.91,0,0,1-1.14.57,11,11,0,0,0-6-.11A11.24,11.24,0,0,0,110,43.59a.88.88,0,0,1-.61.23.93.93,0,0,1-.67-.29.91.91,0,0,1,.07-1.28,13,13,0,0,1,5.44-2.89,12.61,12.61,0,0,1,7.06.15A.91.91,0,0,1,121.85,40.65Zm11.49,6.29c-.34,0-.62-.48-.62-1.06s.28-1.06.62-1.06.61.47.61,1.06S133.68,46.94,133.34,46.94Z"/><path class="cls-2" d="M53.66,24.77a.61.61,0,0,0,0,1.21h5.89a.61.61,0,1,0,0-1.21Z"/><path class="cls-2" d="M53.53,24.22h6.15l1.18-4.81a.66.66,0,0,0-1-.71,1.54,1.54,0,0,1-2,.14l-.35-.26a1.55,1.55,0,0,0-1.87,0l-.22.18a1.54,1.54,0,0,1-2-.05l-.16-.1a.66.66,0,0,0-1,.72Z"/><path class="cls-2" d="M66.74,33.83,65,30.72a9.54,9.54,0,0,0-4.69-4.1H52.94a9.54,9.54,0,0,0-4.69,4.1l-1.79,3.11a9.64,9.64,0,0,0,8.35,14.46h3.58A9.64,9.64,0,0,0,66.74,33.83Zm-6.49,7.64a3.32,3.32,0,0,1-1.17,1.07,3.51,3.51,0,0,1-1.66.38A3.73,3.73,0,0,1,56,42.66a3.23,3.23,0,0,1-1.09-.77,4.07,4.07,0,0,1-.74-1.19,5.37,5.37,0,0,1-.36-1.31h-.65a.27.27,0,0,1-.27-.26v-.64a.27.27,0,0,1,.27-.26h.56v-.36h-.56a.27.27,0,0,1-.27-.26V37a.27.27,0,0,1,.27-.26h.69a5.31,5.31,0,0,1,.4-1.26,3.85,3.85,0,0,1,.79-1.15,3.24,3.24,0,0,1,1.09-.74,3.57,3.57,0,0,1,1.35-.26,3.38,3.38,0,0,1,1.55.34,3.65,3.65,0,0,1,1.11.93.27.27,0,0,1,0,.34l-.38.42a1.59,1.59,0,0,1-.13.13.49.49,0,0,1-.3.1.59.59,0,0,1-.42-.2,1.33,1.33,0,0,0-.27-.23,2.13,2.13,0,0,0-.43-.23,1.84,1.84,0,0,0-.68-.1,1.78,1.78,0,0,0-1.32.54,2.88,2.88,0,0,0-.66,1.37h3.08a.26.26,0,0,1,.26.26v.35a.55.55,0,0,1-.15.38.58.58,0,0,1-.43.17h-2.9a1.93,1.93,0,0,0,0,.24v.12h2.65a.26.26,0,0,1,.26.26v.35a.52.52,0,0,1-.16.38.55.55,0,0,1-.42.17H55.51a2.87,2.87,0,0,0,.66,1.48,1.69,1.69,0,0,0,1.31.55,2,2,0,0,0,.52-.05,2.49,2.49,0,0,0,.39-.14,1.85,1.85,0,0,0,.27-.19l.22-.2.19-.18a.51.51,0,0,1,.32-.12.4.4,0,0,1,.22.05l.13.1.47.44A.25.25,0,0,1,60.25,41.47Z"/><path class="cls-2" d="M154.61,65.48H139a3.11,3.11,0,0,0-3.12,3.11V86.08A3.12,3.12,0,0,0,139,89.2h15.65a3.12,3.12,0,0,0,3.12-3.12V68.59A3.12,3.12,0,0,0,154.61,65.48ZM143,73.84h.79v-.78H143v-1h.91a5.7,5.7,0,0,1,.5-1.51,4.32,4.32,0,0,1,.84-1.15,3.69,3.69,0,0,1,1.11-.73,3.58,3.58,0,0,1,1.36-.25,3.41,3.41,0,0,1,1.63.36,3.61,3.61,0,0,1,1.14,1l-.6.65a.86.86,0,0,1-.14.13.33.33,0,0,1-.21.06.28.28,0,0,1-.18-.06l-.17-.13-.21-.18a1.34,1.34,0,0,0-.28-.18,2.77,2.77,0,0,0-.38-.14,2.62,2.62,0,0,0-.52,0,1.86,1.86,0,0,0-1.37.55,3.11,3.11,0,0,0-.77,1.64h3.44v.52a.39.39,0,0,1-.13.29.44.44,0,0,1-.34.14h-3.09v.78h2.91v.51a.39.39,0,0,1-.13.29.44.44,0,0,1-.34.14h-2.36a3.3,3.3,0,0,0,.74,1.75,1.77,1.77,0,0,0,1.35.58,1.74,1.74,0,0,0,1.28-.43c.13-.11.23-.21.32-.3a.35.35,0,0,1,.28-.13l.13,0a.26.26,0,0,1,.11.1l.73.67a3.19,3.19,0,0,1-1.21,1.13,3.55,3.55,0,0,1-1.72.4,3.71,3.71,0,0,1-1.45-.27,3.31,3.31,0,0,1-1.11-.77,4,4,0,0,1-.78-1.19,6.15,6.15,0,0,1-.42-1.56H143ZM152,86H141.6a.59.59,0,0,1,0-1.17H152A.59.59,0,1,1,152,86Zm0-3H141.6a.59.59,0,0,1,0-1.17H152A.59.59,0,1,1,152,83Z"/><rect class="cls-6" y="87.25" width="180.82" height="4.06" rx="2.03" ry="2.03"/><path class="cls-2" d="M111.75,18.52c-2.07-3.71-5.92-5.27-11.83-3.53l-.71-1.79a.49.49,0,1,0-.91.36L99,15.3c-4.84,1.83-6.85,7.62-6.29,10.54,1.65-1.73,3.13-1.89,5.71-2.06a8.7,8.7,0,0,1,3-2.27l3.11,7.9a2.17,2.17,0,0,0,1.17,1.21,2.22,2.22,0,0,0,.87.18,2.28,2.28,0,0,0,.81-.15,2.2,2.2,0,0,0,1.24-2.84l-.36-.92a.49.49,0,1,0-.92.36l.36.92a1.21,1.21,0,0,1-.68,1.56,1.25,1.25,0,0,1-.93,0,1.2,1.2,0,0,1-.64-.67l-3.1-7.87a16.63,16.63,0,0,1,4-.44C108,18.28,111.75,18.52,111.75,18.52Z"/></g></g></svg>