<svg xmlns="http://www.w3.org/2000/svg" viewBox="0 0 180.82 91.3"><defs><style>.cls-1{fill:#f5f9fc;}.cls-2{fill:#e0edf5;}.cls-3{fill:#fff;}.cls-4{fill:#35c86f;}.cls-5{fill:#fbd192;}.cls-6{fill:#587582;}.cls-7{fill:#80633f;}.cls-8{fill:#a6bdcf;}</style></defs><title>5</title><g id="Layer_2" data-name="Layer 2"><g id="Icons"><path class="cls-1" d="M168.55,79.33a79,79,0,0,1-.42,8.18H10.29a79.34,79.34,0,1,1,158.26-8.18Z"/><path class="cls-2" d="M21.84,51.39H47.25a2.44,2.44,0,0,1,2.44,2.44V87.25a0,0,0,0,1,0,0H19.39a0,0,0,0,1,0,0V53.83A2.44,2.44,0,0,1,21.84,51.39Z"/><path class="cls-1" d="M25.58,62.39h0L25,61.84l-2.15-2.18,1-1,1.84,1.83,3.54-3.59v-.5a.63.63,0,0,0-.63-.63H22.24a.63.63,0,0,0-.63.63v6.42a.63.63,0,0,0,.63.63h6.42a.63.63,0,0,0,.63-.63V58.68Z"/><path class="cls-1" d="M25.58,76.91h0L25,76.36l-2.15-2.18,1-1L25.75,75l3.54-3.59v-.5a.63.63,0,0,0-.63-.63H22.24a.63.63,0,0,0-.63.63v6.42a.63.63,0,0,0,.63.63h6.42a.63.63,0,0,0,.63-.63V73.2Z"/><rect class="cls-1" x="31.51" y="56.45" width="14.19" height="1.97" rx="0.99" ry="0.99"/><rect class="cls-1" x="31.51" y="60.17" width="10.41" height="1.97" rx="0.99" ry="0.99"/><rect class="cls-1" x="31.51" y="71.07" width="14.19" height="1.97" rx="0.99" ry="0.99"/><rect class="cls-1" x="31.51" y="74.78" width="10.41" height="1.97" rx="0.99" ry="0.99"/><rect class="cls-2" x="64.94" y="26.26" width="39.78" height="13.46" rx="0.88" ry="0.88"/><path class="cls-3" d="M75.51,34.87h1L76.89,32l.08-.33-.72.56-.13.06-.11,0a.27.27,0,0,1-.16,0,.29.29,0,0,1-.1-.08l-.28-.47,1.83-1.4h.91l-.56,4.57h.9l-.1.8h-3Z"/><path class="cls-3" d="M83.75,30.76a.83.83,0,0,1-.06.21.65.65,0,0,1-.13.16.64.64,0,0,1-.22.1,1,1,0,0,1-.31,0H81.72l-.27.95.29,0H82a2.08,2.08,0,0,1,.69.11,1.42,1.42,0,0,1,.49.31,1.37,1.37,0,0,1,.3.45,1.75,1.75,0,0,1,.1.57,2.07,2.07,0,0,1-.18.86,2,2,0,0,1-.49.67,2.18,2.18,0,0,1-.72.44,2.66,2.66,0,0,1-.9.16,1.88,1.88,0,0,1-.49-.06,1.81,1.81,0,0,1-.43-.14,1.59,1.59,0,0,1-.35-.22,2.37,2.37,0,0,1-.29-.25l.4-.46a.36.36,0,0,1,.14-.11.41.41,0,0,1,.16,0,.33.33,0,0,1,.19.06l.2.13c.08,0,.16.09.26.13a1.08,1.08,0,0,0,.38.06.88.88,0,0,0,.45-.1,1,1,0,0,0,.32-.24,1.06,1.06,0,0,0,.18-.35,1.4,1.4,0,0,0,0-.41.69.69,0,0,0-.19-.52.9.9,0,0,0-.6-.19l-.34,0a2.24,2.24,0,0,0-.39.1L80.3,33l.78-2.67h2.73Z"/><path class="cls-3" d="M88.34,33.6h.55l-.08.62a.29.29,0,0,1-.08.14.24.24,0,0,1-.17.06h-.32l-.15,1.25h-1l.15-1.25H85.1a.31.31,0,0,1-.2-.07.24.24,0,0,1-.09-.18l0-.52,2.91-3.35h1.08Zm-.81-1.47c0-.07,0-.15,0-.24s0-.17.07-.26L86,33.6h1.4Z"/><path class="cls-3" d="M90.07,32.19h.42a3.12,3.12,0,0,1,.38-.8,2.62,2.62,0,0,1,.53-.61,2.17,2.17,0,0,1,1.43-.52,2.26,2.26,0,0,1,.47,0,1.59,1.59,0,0,1,.4.16,1.39,1.39,0,0,1,.31.23,1.66,1.66,0,0,1,.23.31l-.44.41-.1.08a.21.21,0,0,1-.14,0,.17.17,0,0,1-.1,0l-.09-.07-.09-.08-.11-.09L93,31.2l-.25,0a1,1,0,0,0-.67.25,1.72,1.72,0,0,0-.46.76h1.75l0,.33a.36.36,0,0,1,0,.09l-.07.08-.1.06-.13,0H91.48c0,.06,0,.12,0,.18s0,.12,0,.18h1.47l0,.32a.19.19,0,0,1,0,.1.27.27,0,0,1-.07.08.27.27,0,0,1-.1.06.27.27,0,0,1-.13,0H91.45a1.47,1.47,0,0,0,.26.82.68.68,0,0,0,.56.27,1,1,0,0,0,.38-.06,1.17,1.17,0,0,0,.25-.14l.16-.15a.25.25,0,0,1,.17-.06h.08a.13.13,0,0,1,.06.05l.43.43a2,2,0,0,1-.74.63,2.18,2.18,0,0,1-1,.21,1.81,1.81,0,0,1-.76-.15,1.58,1.58,0,0,1-.54-.42,1.75,1.75,0,0,1-.35-.63,2.92,2.92,0,0,1-.14-.81h-.44l.08-.58h.37c0-.06,0-.12,0-.18l0-.18H90Z"/><rect class="cls-2" x="63.7" y="70.11" width="42.26" height="13.46" rx="0.88" ry="0.88"/><path class="cls-3" d="M75.51,78.72h1l.34-2.88L77,75.5l-.72.56a.33.33,0,0,1-.13.07H76a.27.27,0,0,1-.16,0,.21.21,0,0,1-.1-.08l-.28-.46,1.83-1.41h.91l-.56,4.57h.9l-.1.8h-3Z"/><path class="cls-3" d="M81.61,79.58a2.21,2.21,0,0,1-.71-.1,1.52,1.52,0,0,1-.55-.29,1.36,1.36,0,0,1-.35-.44,1.34,1.34,0,0,1-.12-.58,1.78,1.78,0,0,1,.06-.47,1.2,1.2,0,0,1,.2-.41,1.19,1.19,0,0,1,.34-.33,1.86,1.86,0,0,1,.49-.24,1.07,1.07,0,0,1-.46-.4,1.09,1.09,0,0,1-.15-.58,1.41,1.41,0,0,1,.15-.65,1.58,1.58,0,0,1,.41-.52,2,2,0,0,1,.6-.34,2.37,2.37,0,0,1,.76-.12,1.81,1.81,0,0,1,.63.1,1.5,1.5,0,0,1,.5.27,1.46,1.46,0,0,1,.32.42,1.26,1.26,0,0,1,.11.51,1.41,1.41,0,0,1-.23.81,1.34,1.34,0,0,1-.66.52,1.07,1.07,0,0,1,.77,1.08,1.55,1.55,0,0,1-.16.72,1.5,1.5,0,0,1-.44.56,2.26,2.26,0,0,1-.67.36A2.84,2.84,0,0,1,81.61,79.58Zm.1-.83a.94.94,0,0,0,.39-.07.77.77,0,0,0,.27-.19.75.75,0,0,0,.16-.29,1,1,0,0,0,.06-.36,1.26,1.26,0,0,0,0-.28.56.56,0,0,0-.12-.2.6.6,0,0,0-.21-.14,1,1,0,0,0-.32,0,1.21,1.21,0,0,0-.41.07.77.77,0,0,0-.27.19.71.71,0,0,0-.14.29,1.36,1.36,0,0,0,0,.36.77.77,0,0,0,0,.27.72.72,0,0,0,.12.21.77.77,0,0,0,.21.14A1,1,0,0,0,81.71,78.75ZM82,76.34a.87.87,0,0,0,.39-.08.78.78,0,0,0,.23-.21.86.86,0,0,0,.11-.28,1.37,1.37,0,0,0,0-.28.78.78,0,0,0,0-.22.4.4,0,0,0-.1-.18.37.37,0,0,0-.17-.13.57.57,0,0,0-.27,0,.86.86,0,0,0-.34.06.84.84,0,0,0-.23.18.66.66,0,0,0-.14.26,1.06,1.06,0,0,0,0,.31.85.85,0,0,0,0,.23.72.72,0,0,0,.09.2.44.44,0,0,0,.18.14A.68.68,0,0,0,82,76.34Z"/><path class="cls-3" d="M89.21,74.16l0,.42a1.86,1.86,0,0,1,0,.27,1.09,1.09,0,0,1-.09.21l-2.53,4.22a.49.49,0,0,1-.18.17.4.4,0,0,1-.24.07h-.92l2.41-3.9a2.69,2.69,0,0,1,.2-.27c.06-.08.14-.15.21-.23H85.58a.25.25,0,0,1-.16-.06.24.24,0,0,1-.06-.15.72.72,0,0,1,0-.13s0-.12,0-.18a1.7,1.7,0,0,1,0-.22l0-.22Z"/><path class="cls-3" d="M90.07,76h.42a3.28,3.28,0,0,1,.38-.8,2.34,2.34,0,0,1,1.2-1,2.14,2.14,0,0,1,.76-.14,1.73,1.73,0,0,1,.47.06,1.28,1.28,0,0,1,.4.15,1.83,1.83,0,0,1,.31.24,1.33,1.33,0,0,1,.23.3l-.44.41a.81.81,0,0,1-.1.09.29.29,0,0,1-.14,0,.17.17,0,0,1-.1,0l-.09-.06-.09-.09-.11-.09L93,75.06a.9.9,0,0,0-.25,0,1,1,0,0,0-.67.26,1.63,1.63,0,0,0-.46.75h1.75l0,.33a.36.36,0,0,1,0,.09.27.27,0,0,1-.07.08l-.1.06a.3.3,0,0,1-.13,0H91.48c0,.06,0,.12,0,.18s0,.12,0,.18h1.47l0,.33a.16.16,0,0,1,0,.09l-.07.09-.1.05a.28.28,0,0,1-.13,0H91.45a1.44,1.44,0,0,0,.26.81.69.69,0,0,0,.56.28,1,1,0,0,0,.38-.07,1,1,0,0,0,.41-.29.25.25,0,0,1,.17-.06h.08l.06,0,.43.43a1.94,1.94,0,0,1-.74.63,2.18,2.18,0,0,1-1,.21,1.81,1.81,0,0,1-.76-.15A1.55,1.55,0,0,1,90.8,79a1.88,1.88,0,0,1-.35-.64,2.85,2.85,0,0,1-.14-.8h-.44L90,77h.37c0-.06,0-.12,0-.18l0-.18H90Z"/><path class="cls-4" d="M113.6,62.13H56.05a1,1,0,0,1-.9-1.09V46.79a1,1,0,0,1,.9-1.1H113.6a1,1,0,0,1,.91,1.1V61A1,1,0,0,1,113.6,62.13Z"/><path class="cls-3" d="M64.88,56.92h1.66l.56-4.62.12-.53-1.16.9a.62.62,0,0,1-.2.1l-.17,0a.5.5,0,0,1-.26-.06.56.56,0,0,1-.16-.13l-.46-.75,2.94-2.24h1.46l-.9,7.31h1.44l-.16,1.28H64.73Z"/><path class="cls-3" d="M76,49.53a3.23,3.23,0,0,1,1,.16,2.29,2.29,0,0,1,.75.44,1.78,1.78,0,0,1,.45.64,1.83,1.83,0,0,1,.16.77,2.8,2.8,0,0,1-.1.81,1.55,1.55,0,0,1-.29.59,1.47,1.47,0,0,1-.47.42,2.75,2.75,0,0,1-.67.27,2,2,0,0,1,.91.67,1.77,1.77,0,0,1,.3,1,2.82,2.82,0,0,1-.13.89,2.65,2.65,0,0,1-.35.74,3,3,0,0,1-.55.58,3.32,3.32,0,0,1-.68.41,3.47,3.47,0,0,1-.79.25,4,4,0,0,1-.84.08,3.9,3.9,0,0,1-1.08-.13,2.09,2.09,0,0,1-.8-.41A2.21,2.21,0,0,1,72.3,57,4.77,4.77,0,0,1,72,56l.83-.32a1,1,0,0,1,.21-.06.75.75,0,0,1,.21,0,.62.62,0,0,1,.31.07.41.41,0,0,1,.19.2,1.76,1.76,0,0,0,.47.75,1.07,1.07,0,0,0,.73.23,1.48,1.48,0,0,0,.61-.12,1.43,1.43,0,0,0,.44-.32,1.29,1.29,0,0,0,.28-.48,1.8,1.8,0,0,0,.1-.57,1,1,0,0,0-.07-.39.64.64,0,0,0-.25-.3,1.56,1.56,0,0,0-.51-.19,4.91,4.91,0,0,0-.87-.07l.16-1.21a3.79,3.79,0,0,0,.9-.09,1.67,1.67,0,0,0,.57-.26.93.93,0,0,0,.3-.41,1.67,1.67,0,0,0,.08-.57.92.92,0,0,0-.23-.68.89.89,0,0,0-.68-.24,1.18,1.18,0,0,0-.75.24,1.37,1.37,0,0,0-.47.57.93.93,0,0,1-.28.37.72.72,0,0,1-.4.11h-.11l-.13,0-.91-.15a3.54,3.54,0,0,1,.5-1.11,3.41,3.41,0,0,1,.76-.8,3.07,3.07,0,0,1,1-.47A3.68,3.68,0,0,1,76,49.53Z"/><path class="cls-3" d="M83.7,49.53a2.75,2.75,0,0,1,1.09.22,2.38,2.38,0,0,1,.84.65,3.13,3.13,0,0,1,.53,1.1,5.41,5.41,0,0,1,.2,1.53,8.4,8.4,0,0,1-.29,2.32,5.08,5.08,0,0,1-.8,1.65,3.2,3.2,0,0,1-1.18,1,3.36,3.36,0,0,1-1.47.32,2.67,2.67,0,0,1-1.08-.21,2.25,2.25,0,0,1-.84-.66,3.27,3.27,0,0,1-.54-1.09A5.43,5.43,0,0,1,80,54.8a8.11,8.11,0,0,1,.29-2.33,4.82,4.82,0,0,1,.79-1.64,3.32,3.32,0,0,1,1.18-1A3.5,3.5,0,0,1,83.7,49.53Zm-.84,7.35a1,1,0,0,0,.66-.24,1.76,1.76,0,0,0,.53-.71,4.47,4.47,0,0,0,.34-1.19,9.25,9.25,0,0,0,.13-1.68,4.85,4.85,0,0,0-.09-1,2,2,0,0,0-.24-.65.85.85,0,0,0-.34-.34.75.75,0,0,0-.38-.1,1,1,0,0,0-.67.24,1.86,1.86,0,0,0-.53.71,5.1,5.1,0,0,0-.34,1.2,10.34,10.34,0,0,0-.12,1.68,4.92,4.92,0,0,0,.09,1,2.11,2.11,0,0,0,.24.65.86.86,0,0,0,.33.33A.81.81,0,0,0,82.86,56.88Z"/><path class="cls-3" d="M88.18,52.63h.69a5.1,5.1,0,0,1,.6-1.29,4.15,4.15,0,0,1,.85-1,3.6,3.6,0,0,1,1.07-.62,3.51,3.51,0,0,1,1.21-.22,3,3,0,0,1,.76.09,2.94,2.94,0,0,1,.63.24,2.44,2.44,0,0,1,.5.38,2.23,2.23,0,0,1,.37.5l-.7.65a1,1,0,0,1-.17.13.36.36,0,0,1-.22.06.3.3,0,0,1-.16-.05.57.57,0,0,1-.13-.1l-.15-.14a.72.72,0,0,0-.19-.14,1.18,1.18,0,0,0-.27-.1,1.37,1.37,0,0,0-.39-.05,1.64,1.64,0,0,0-1.08.41,2.81,2.81,0,0,0-.74,1.21h2.81l-.06.53a.3.3,0,0,1,0,.14.49.49,0,0,1-.12.13.42.42,0,0,1-.16.09.46.46,0,0,1-.21,0H90.44l0,.28c0,.1,0,.2,0,.29h2.34l-.07.52a.52.52,0,0,1-.06.16.33.33,0,0,1-.11.13l-.16.1a.64.64,0,0,1-.2,0H90.39a2.47,2.47,0,0,0,.42,1.31,1.1,1.1,0,0,0,.9.44,1.48,1.48,0,0,0,.61-.11,1.43,1.43,0,0,0,.39-.23l.27-.23a.35.35,0,0,1,.26-.1l.13,0a.24.24,0,0,1,.1.08l.69.69a3.34,3.34,0,0,1-1.19,1,3.44,3.44,0,0,1-1.54.34,2.82,2.82,0,0,1-1.2-.24,2.4,2.4,0,0,1-.88-.66,3.13,3.13,0,0,1-.55-1,4.7,4.7,0,0,1-.23-1.29h-.69l.11-.94h.59l0-.28a2.89,2.89,0,0,1,0-.29h-.59Z"/><polygon class="cls-3" points="110.26 51.26 103.93 57.59 103.92 57.6 103.3 56.97 100.82 54.45 102.01 53.31 104.12 55.42 109.24 50.23 110.26 51.26"/><path class="cls-5" d="M143.74,58.9h15a0,0,0,0,1,0,0v8.43a4.92,4.92,0,0,1-4.92,4.92h-2.22a7.81,7.81,0,0,1-7.81-7.81V58.9a0,0,0,0,1,0,0Z"/><path class="cls-6" d="M140.24,58.87h3.5a0,0,0,0,1,0,0v4.73a0,0,0,0,1,0,0h-3.5a2.36,2.36,0,0,1-2.36-2.36v0a2.36,2.36,0,0,1,2.36-2.36Z"/><path class="cls-4" d="M158.68,58.86H143.74a.3.3,0,0,1,0-.13,4.85,4.85,0,0,1,1.14-3.09l.33-.36a5.09,5.09,0,0,1,3.6-1.48h4.79A5.05,5.05,0,0,1,158.68,58.86Z"/><path class="cls-4" d="M140.66,58.87a10.16,10.16,0,0,1,2.91,2.27c1.47,1.61,2.27,2.45,4.41,2.45a4.85,4.85,0,0,0,5-4.72Z"/><path class="cls-7" d="M153,58.87h5.67a0,0,0,0,1,0,0v7.81a0,0,0,0,1,0,0h-3A2.7,2.7,0,0,1,153,64v-5.1A0,0,0,0,1,153,58.87Z"/><path class="cls-3" d="M151,55.64v3.22h-7.21a.3.3,0,0,1,0-.13,4.85,4.85,0,0,1,1.14-3.09Z"/><ellipse class="cls-5" cx="157.32" cy="66.04" rx="2.49" ry="1.78" transform="translate(46.93 196.14) rotate(-72.46)"/><rect class="cls-8" y="87.25" width="180.82" height="4.06" rx="2.03" ry="2.03"/><path class="cls-8" d="M131.26,53.32h-9.39a1.42,1.42,0,0,0-1.42,1.43v6.47a1.41,1.41,0,0,0,1.42,1.42h4l4,3.39-.76-3.39h2.12a1.42,1.42,0,0,0,1.43-1.42V54.75A1.43,1.43,0,0,0,131.26,53.32Z"/><path class="cls-3" d="M125.55,55.93a1,1,0,0,1,.23-.18,1.35,1.35,0,0,1,.26-.15,1.63,1.63,0,0,1,.31-.11,2.22,2.22,0,0,1,.37,0,1.41,1.41,0,0,1,.47.07,1.17,1.17,0,0,1,.38.21.9.9,0,0,1,.25.33,1,1,0,0,1,.09.44,1.11,1.11,0,0,1-.07.43,1.08,1.08,0,0,1-.19.31,1.36,1.36,0,0,1-.24.24l-.25.18a1.8,1.8,0,0,0-.2.18.31.31,0,0,0-.09.19l-.06.5h-.4l0-.54v0a.41.41,0,0,1,.08-.25.64.64,0,0,1,.18-.19,1.55,1.55,0,0,1,.24-.19,1.59,1.59,0,0,0,.24-.2,1,1,0,0,0,.19-.26.89.89,0,0,0,.07-.34.51.51,0,0,0-.06-.25.4.4,0,0,0-.15-.19.54.54,0,0,0-.22-.13,1.17,1.17,0,0,0-.27,0,1.06,1.06,0,0,0-.34,0,.9.9,0,0,0-.24.11.74.74,0,0,0-.16.11.16.16,0,0,1-.1,0,.13.13,0,0,1-.12-.07Zm.64,3.88a.43.43,0,0,1,.11-.29.38.38,0,0,1,.13-.09.45.45,0,0,1,.16,0,.41.41,0,0,1,.16,0,.38.38,0,0,1,.13.09.3.3,0,0,1,.09.13.44.44,0,0,1,0,.32.38.38,0,0,1-.09.13.57.57,0,0,1-.13.08.41.41,0,0,1-.16,0,.45.45,0,0,1-.16,0,.33.33,0,0,1-.21-.21A.41.41,0,0,1,126.19,59.81Z"/><rect class="cls-2" x="129.1" y="74.64" width="8.78" height="6.68" rx="1.6" ry="1.6"/><polygon class="cls-2" points="132.57 80.96 135.88 83.75 135.18 80.62 132.57 80.96"/><path class="cls-3" d="M132.76,76.5l.16-.13.19-.1.22-.08.26,0a1.16,1.16,0,0,1,.34,0,1.06,1.06,0,0,1,.28.15,1.08,1.08,0,0,1,.18.24.78.78,0,0,1,.06.31,1,1,0,0,1,0,.31.91.91,0,0,1-.13.22,1.41,1.41,0,0,1-.18.17l-.18.14-.14.12a.27.27,0,0,0-.07.14l0,.36h-.29l0-.39v0a.27.27,0,0,1,.05-.18.57.57,0,0,1,.13-.14l.17-.13.18-.15a.83.83,0,0,0,.13-.18.6.6,0,0,0,.05-.24.41.41,0,0,0,0-.19.28.28,0,0,0-.11-.13.38.38,0,0,0-.15-.09.69.69,0,0,0-.2,0,.78.78,0,0,0-.24,0l-.18.08-.11.08-.07,0a.11.11,0,0,1-.09,0Zm.46,2.79a.25.25,0,0,1,0-.12.24.24,0,0,1,.06-.09.15.15,0,0,1,.09-.06.24.24,0,0,1,.12,0,.23.23,0,0,1,.11,0,.15.15,0,0,1,.09.06.24.24,0,0,1,.06.09.27.27,0,0,1,0,.12.2.2,0,0,1,0,.11.15.15,0,0,1-.06.09.22.22,0,0,1-.09.07l-.11,0-.12,0a.22.22,0,0,1-.09-.07.15.15,0,0,1-.06-.09A.2.2,0,0,1,133.22,79.29Z"/><rect class="cls-2" x="129.1" y="36.73" width="8.78" height="6.68" rx="1.6" ry="1.6"/><polygon class="cls-2" points="132.57 43.06 135.88 45.84 135.18 42.71 132.57 43.06"/><path class="cls-3" d="M132.76,38.6l.16-.13.19-.11.22-.07a1.09,1.09,0,0,1,.26,0,.9.9,0,0,1,.34.06.69.69,0,0,1,.28.15.76.76,0,0,1,.18.24.75.75,0,0,1,.06.31,1,1,0,0,1,0,.31,1.16,1.16,0,0,1-.13.22,1.41,1.41,0,0,1-.18.17l-.18.13-.14.13a.27.27,0,0,0-.07.14l0,.35h-.29l0-.38v0a.26.26,0,0,1,.05-.17.57.57,0,0,1,.13-.14l.17-.14a1.24,1.24,0,0,0,.18-.14,1.27,1.27,0,0,0,.13-.19.57.57,0,0,0,.05-.24.34.34,0,0,0,0-.18.36.36,0,0,0-.11-.14.38.38,0,0,0-.15-.09.69.69,0,0,0-.2,0,.87.87,0,0,0-.42.12l-.11.07s-.05,0-.07,0a.1.1,0,0,1-.09-.06Zm.46,2.78a.2.2,0,0,1,0-.11.15.15,0,0,1,.06-.09.22.22,0,0,1,.09-.07l.12,0,.11,0a.22.22,0,0,1,.09.07.15.15,0,0,1,.06.09.2.2,0,0,1,0,.11.27.27,0,0,1,0,.12.24.24,0,0,1-.06.09.15.15,0,0,1-.09.06.22.22,0,0,1-.11,0,.23.23,0,0,1-.12,0,.15.15,0,0,1-.09-.06.24.24,0,0,1-.06-.09A.25.25,0,0,1,133.22,41.38Z"/></g></g></svg>