<svg xmlns="http://www.w3.org/2000/svg" viewBox="0 0 180.82 91.3"><defs><style>.cls-1{fill:#f5f9fc;}.cls-2{fill:#e0edf5;}.cls-3{fill:#a6bdcf;}.cls-4{fill:#baccdb;}.cls-5{fill:#fcb22f;}.cls-6{fill:#fa5a6f;}.cls-7{fill:#cddbe8;}.cls-8{fill:#35c86f;}.cls-9{fill:#fff;}</style></defs><title>1</title><g id="Layer_2" data-name="Layer 2"><g id="Icons"><path class="cls-1" d="M168.55,79.33a79,79,0,0,1-.42,8.18H10.28A79.41,79.41,0,0,1,41,16.29,79.85,79.85,0,0,1,51.33,9.61,79.44,79.44,0,0,1,126,9a77.74,77.74,0,0,1,11,7A79.43,79.43,0,0,1,155.34,35.5,78.9,78.9,0,0,1,168.55,79.33Z"/><path class="cls-2" d="M24,46.23H54.15a2.44,2.44,0,0,1,2.44,2.44v39a0,0,0,0,1,0,0h-35a0,0,0,0,1,0,0v-39A2.44,2.44,0,0,1,24,46.23Z"/><rect class="cls-1" x="31.58" y="52.09" width="19.85" height="2.28" rx="0.99" ry="0.99"/><rect class="cls-1" x="31.58" y="68.87" width="16.17" height="2.28" rx="0.99" ry="0.99"/><rect class="cls-1" x="31.58" y="77.26" width="11.56" height="2.28" rx="0.99" ry="0.99"/><rect class="cls-1" x="31.58" y="60.48" width="14.32" height="2.28" rx="0.99" ry="0.99"/><polygon class="cls-1" points="30.29 75.92 26.67 79.53 26.67 79.54 26.31 79.18 24.9 77.74 25.58 77.09 26.78 78.3 29.7 75.34 30.29 75.92"/><polygon class="cls-1" points="30.29 68.14 26.67 71.76 26.67 71.76 26.31 71.4 24.9 69.96 25.58 69.31 26.78 70.52 29.7 67.56 30.29 68.14"/><polygon class="cls-1" points="30.29 59.66 26.67 63.27 26.67 63.28 26.31 62.92 24.9 61.48 25.58 60.83 26.78 62.04 29.7 59.08 30.29 59.66"/><polygon class="cls-1" points="30.29 51.71 26.67 55.32 26.67 55.33 26.31 54.97 24.9 53.53 25.58 52.88 26.78 54.09 29.7 51.12 30.29 51.71"/><rect class="cls-3" y="87.25" width="180.82" height="4.06" rx="2.03" ry="2.03"/><path class="cls-4" d="M107.54,41.58H147a2.72,2.72,0,0,1,2.72,2.72V87.69a0,0,0,0,1,0,0H104.82a0,0,0,0,1,0,0V44.3A2.72,2.72,0,0,1,107.54,41.58Z"/><rect class="cls-1" x="108.99" y="45.7" width="36.16" height="41.81"/><rect class="cls-5" x="116.18" y="39.77" width="22.65" height="7.2" rx="2.5" ry="2.5"/><rect class="cls-5" x="124.01" y="36.59" width="7.36" height="7.2" rx="3.6" ry="3.6"/><rect class="cls-2" x="113.24" y="53.86" width="28.78" height="2.28" rx="0.99" ry="0.99"/><rect class="cls-2" x="113.24" y="70.65" width="17.25" height="2.28" rx="0.99" ry="0.99"/><rect class="cls-2" x="113.24" y="79.04" width="16.76" height="2.28" rx="0.99" ry="0.99"/><rect class="cls-2" x="113.24" y="62.25" width="20.77" height="2.28" rx="0.99" ry="0.99"/><circle class="cls-1" cx="127.69" cy="40.19" r="1.31"/><path class="cls-6" d="M140.66,72.72h0a.81.81,0,0,0-1.14,0l-2.21,2.21-2.2-2.21a.81.81,0,0,0-1.14,0h0a.81.81,0,0,0,0,1.14l2.21,2.2L134,78.27a.81.81,0,0,0,0,1.14h0a.81.81,0,0,0,1.14,0l2.2-2.21,2.21,2.21a.81.81,0,0,0,1.14,0h0a.81.81,0,0,0,0-1.14l-2.21-2.21,2.21-2.2A.81.81,0,0,0,140.66,72.72Z"/><polygon class="cls-2" points="94.37 64.09 58.71 64.09 62.6 55.93 58.71 47.77 94.37 47.77 94.37 64.09"/><path class="cls-3" d="M65.27,58.16h1.45V54.35c0-.19,0-.39,0-.59l-.86.71a.47.47,0,0,1-.16.1.51.51,0,0,1-.17,0,.5.5,0,0,1-.24-.06.75.75,0,0,1-.16-.13l-.5-.68,2.35-2h1.33v6.41h1.25v1.17H65.27Z"/><path class="cls-3" d="M75.8,55.54a6.22,6.22,0,0,1-.21,1.72A3.5,3.5,0,0,1,75,58.47a2.52,2.52,0,0,1-.89.71,2.84,2.84,0,0,1-2.24,0,2.49,2.49,0,0,1-.88-.71,3.5,3.5,0,0,1-.59-1.21,7.15,7.15,0,0,1,0-3.44,3.54,3.54,0,0,1,.59-1.2,2.29,2.29,0,0,1,.88-.71,2.84,2.84,0,0,1,2.24,0,2.32,2.32,0,0,1,.89.71,3.54,3.54,0,0,1,.59,1.2A6.28,6.28,0,0,1,75.8,55.54Zm-1.66,0a6.44,6.44,0,0,0-.1-1.28,2.43,2.43,0,0,0-.26-.79.87.87,0,0,0-1.21-.39.86.86,0,0,0-.36.39,2.7,2.7,0,0,0-.26.79,9.22,9.22,0,0,0,0,2.57,2.92,2.92,0,0,0,.26.79.86.86,0,0,0,.36.39.88.88,0,0,0,1.21-.39,2.61,2.61,0,0,0,.26-.79A6.48,6.48,0,0,0,74.14,55.54Z"/><path class="cls-3" d="M81.83,55.54a6.22,6.22,0,0,1-.21,1.72A3.69,3.69,0,0,1,81,58.47a2.47,2.47,0,0,1-.9.71,2.82,2.82,0,0,1-2.23,0,2.52,2.52,0,0,1-.89-.71,3.68,3.68,0,0,1-.58-1.21,7.15,7.15,0,0,1,0-3.44,3.73,3.73,0,0,1,.58-1.2,2.32,2.32,0,0,1,.89-.71,2.82,2.82,0,0,1,2.23,0,2.28,2.28,0,0,1,.9.71,3.74,3.74,0,0,1,.59,1.2A6.28,6.28,0,0,1,81.83,55.54Zm-1.66,0a7.29,7.29,0,0,0-.1-1.28,3,3,0,0,0-.26-.79,1,1,0,0,0-.38-.39.84.84,0,0,0-.83,0,.94.94,0,0,0-.37.39,2.72,2.72,0,0,0-.25.79,8.31,8.31,0,0,0,0,2.57,2.94,2.94,0,0,0,.25.79.94.94,0,0,0,.37.39.84.84,0,0,0,.83,0,1,1,0,0,0,.38-.39,3.31,3.31,0,0,0,.26-.79A7.33,7.33,0,0,0,80.17,55.54Z"/><path class="cls-3" d="M85.92,53.59a1.87,1.87,0,0,1-.15.76,1.76,1.76,0,0,1-.4.59,1.62,1.62,0,0,1-.58.38,1.81,1.81,0,0,1-.69.14,1.89,1.89,0,0,1-.72-.14,1.59,1.59,0,0,1-.57-.38,1.71,1.71,0,0,1-.38-.59,2.06,2.06,0,0,1-.13-.76,2.2,2.2,0,0,1,.13-.78,1.86,1.86,0,0,1,.38-.6,1.75,1.75,0,0,1,.57-.39,2.09,2.09,0,0,1,1.45,0,1.69,1.69,0,0,1,.58.39,1.86,1.86,0,0,1,.38.6A2.2,2.2,0,0,1,85.92,53.59ZM88.3,52a1,1,0,0,1,.19-.17.61.61,0,0,1,.32-.07H90l-5.7,7.34a.58.58,0,0,1-.19.16.54.54,0,0,1-.29.07H82.6Zm-3.61,1.59a1.84,1.84,0,0,0,0-.44.85.85,0,0,0-.12-.27.43.43,0,0,0-.18-.15.64.64,0,0,0-.24,0,.51.51,0,0,0-.22,0,.43.43,0,0,0-.18.15.85.85,0,0,0-.12.27,2.65,2.65,0,0,0,0,.44,2.3,2.3,0,0,0,0,.42.7.7,0,0,0,.12.26.34.34,0,0,0,.18.14.51.51,0,0,0,.22.05.64.64,0,0,0,.24-.05.34.34,0,0,0,.18-.14.7.7,0,0,0,.12-.26A1.61,1.61,0,0,0,84.69,53.59Zm5.59,4a1.87,1.87,0,0,1-.15.76,2.11,2.11,0,0,1-.4.59,1.74,1.74,0,0,1-.58.39,1.8,1.8,0,0,1-.69.13,1.9,1.9,0,0,1-.73-.13,1.61,1.61,0,0,1-.57-.39,1.56,1.56,0,0,1-.37-.59,1.87,1.87,0,0,1-.14-.76,1.94,1.94,0,0,1,.14-.78,1.68,1.68,0,0,1,.37-.6,1.61,1.61,0,0,1,.57-.39,1.9,1.9,0,0,1,.73-.14,2,2,0,0,1,.73.14,1.61,1.61,0,0,1,.57.39,1.71,1.71,0,0,1,.38.6A2.13,2.13,0,0,1,90.28,57.55Zm-1.24,0a2.42,2.42,0,0,0,0-.43.66.66,0,0,0-.13-.28.43.43,0,0,0-.18-.15.85.85,0,0,0-.23,0,.79.79,0,0,0-.23,0,.43.43,0,0,0-.18.15.82.82,0,0,0-.11.28,1.74,1.74,0,0,0,0,.43,1.66,1.66,0,0,0,0,.42.7.7,0,0,0,.11.26.4.4,0,0,0,.18.14.56.56,0,0,0,.23,0,.59.59,0,0,0,.23,0,.4.4,0,0,0,.18-.14A.58.58,0,0,0,89,58,2.3,2.3,0,0,0,89,57.55Z"/><rect class="cls-7" x="94.37" y="52.22" width="10.45" height="16.79"/><polygon class="cls-4" points="94.46 69.02 89.53 64.09 94.46 64.09 94.46 69.02"/><path class="cls-2" d="M76,19V17.83a.26.26,0,0,0-.39-.22l-3,1.73a.25.25,0,0,0,0,.44l3,1.73a.27.27,0,0,0,.39-.22v-.82A4,4,0,1,1,71.23,22,.71.71,0,0,0,71,21a.73.73,0,0,0-1,.21,5.31,5.31,0,0,0-.87,2.91A5.44,5.44,0,1,0,76,19Z"/><rect class="cls-8" x="83.03" y="31.06" width="18.27" height="18.27" rx="9.14" ry="9.14"/><polygon class="cls-9" points="97.22 37.34 90.42 44.14 90.42 44.14 89.75 43.47 87.09 40.77 88.37 39.55 90.64 41.81 96.12 36.24 97.22 37.34"/><path class="cls-2" d="M82.27,75.93,79.53,71.2l-2.75-4.74a1.13,1.13,0,0,0-2,0L72.08,71.2l-2.74,4.73a1.12,1.12,0,0,0,1,1.68h11A1.12,1.12,0,0,0,82.27,75.93Zm-7.13-5.78a.64.64,0,0,1,.64-.63h0a.63.63,0,0,1,.63.63v3.48a.64.64,0,0,1-.63.64h0a.64.64,0,0,1-.64-.64Zm.7,6.2h-.07a.82.82,0,0,1,0-1.64h.07a.82.82,0,1,1,0,1.64Z"/></g></g></svg>