<svg xmlns="http://www.w3.org/2000/svg" viewBox="0 0 180.82 91.3"><defs><style>.cls-1{fill:#f5f9fc;}.cls-2{fill:#ffef69;}.cls-3{fill:#e0edf5;}.cls-4{fill:#35c86f;}.cls-5{fill:#279553;}.cls-6{fill:#a6bdcf;}.cls-7{fill:#353435;}.cls-8{fill:#0091f7;}.cls-9{fill:#fff;}.cls-10{fill:#5c5d5d;}.cls-11{fill:#d1d5d8;}.cls-12{fill:#5e5d5d;}.cls-13{fill:#3d3d3d;}.cls-14{fill:#5c5b5c;}.cls-15{fill:#b2b2b3;}.cls-16{fill:#b6c8d4;}</style></defs><title>9</title><g id="Layer_2" data-name="Layer 2"><g id="Icons"><path class="cls-1" d="M168.55,79.33a79,79,0,0,1-.42,8.18H10.29a79.34,79.34,0,1,1,158.26-8.18Z"/><path class="cls-2" d="M91.06,14.68A7.28,7.28,0,1,1,83.78,7.4,7.28,7.28,0,0,1,91.06,14.68Z"/><polygon class="cls-3" points="126.53 87.84 137.12 87.84 137.12 43.42 126.53 38.66 126.53 87.84"/><rect class="cls-3" x="118.2" y="60.6" width="10.44" height="27.24"/><rect class="cls-3" x="108.37" y="47.14" width="9.84" height="40.7"/><rect class="cls-3" x="111.26" y="36.2" width="4.05" height="40.7"/><rect class="cls-3" x="112.9" y="22.19" width="0.78" height="40.7"/><rect class="cls-3" x="104.28" y="58.18" width="5.14" height="29.66"/><rect class="cls-3" x="99.74" y="53.64" width="5.75" height="34.2"/><polygon class="cls-3" points="88.85 87.84 100.65 87.84 100.65 29.79 88.85 36.09 88.85 87.84"/><rect class="cls-3" x="77.35" y="48.19" width="12.56" height="39.64"/><rect class="cls-3" x="72.81" y="65.44" width="5.75" height="22.39"/><rect class="cls-3" x="66.45" y="54.1" width="7.26" height="33.74"/><polygon class="cls-3" points="51.17 87.84 66.61 87.84 66.61 48.5 58.9 43.56 51.17 48.5 51.17 87.84"/><rect class="cls-3" x="36.64" y="60.15" width="16.04" height="27.69"/><rect class="cls-3" x="27.87" y="41.99" width="10.29" height="45.85"/><rect class="cls-3" x="20.3" y="56.06" width="8.62" height="31.78"/><rect class="cls-3" x="135.39" y="56.63" width="13.71" height="31.21"/><rect class="cls-3" x="148.05" y="60.96" width="10.06" height="26.88"/><path class="cls-4" d="M43,55.05c-7.05,7.05-8,15-7.17,18.89.83,4.13,5.65,7,10.61,6.75,4.41-.24,9.38-2.48,9-9.65s-4.13-13.51-6.61-16S45.19,52.85,43,55.05Z"/><path class="cls-5" d="M41.12,57.11c-5.34,6.48-6,13.3-5.3,16.83.83,4.13,5.65,7,10.61,6.75,4.06-.22,8.59-2.14,9-8C46.27,81.93,36.28,71.64,41.12,57.11Z"/><polygon class="cls-6" points="45.65 68.92 44.94 88.83 46.11 88.83 45.65 68.92"/><polygon class="cls-6" points="41.81 74.52 45.45 79.66 45.59 78.49 41.81 74.52"/><polygon class="cls-6" points="45.59 75.77 45.59 76.67 49.3 73.74 45.59 75.77"/><path class="cls-4" d="M56.49,48.09a40.71,40.71,0,0,0-5.25,23.5c.61,5.14,4.14,8.75,7.77,8.4,3.23-.3,6.86-3.08,6.56-12s-3-16.81-4.84-19.9S58.1,45.35,56.49,48.09Z"/><path class="cls-5" d="M55.12,50.65a40.75,40.75,0,0,0-3.88,20.94c.61,5.14,4.14,8.75,7.77,8.4,3-.28,6.29-2.66,6.56-10C58.89,81.53,51.58,68.73,55.12,50.65Z"/><polygon class="cls-6" points="58.48 68.92 57.76 88.83 58.93 88.83 58.48 68.92"/><polygon class="cls-6" points="54.64 74.52 58.28 79.66 58.41 78.49 54.64 74.52"/><polygon class="cls-6" points="58.41 75.77 58.41 76.67 62.12 73.74 58.41 75.77"/><path class="cls-4" d="M135.06,48.09a40.63,40.63,0,0,0-5.25,23.5c.6,5.14,4.14,8.75,7.77,8.4,3.22-.3,6.86-3.08,6.56-12s-3-16.81-4.85-19.9S136.67,45.35,135.06,48.09Z"/><path class="cls-5" d="M133.69,50.65a40.75,40.75,0,0,0-3.88,20.94c.6,5.14,4.14,8.75,7.77,8.4,3-.28,6.28-2.66,6.56-10C137.46,81.53,130.14,68.73,133.69,50.65Z"/><polygon class="cls-6" points="137.04 68.92 136.33 88.83 137.5 88.83 137.04 68.92"/><polygon class="cls-6" points="133.21 74.52 136.85 79.66 136.98 78.49 133.21 74.52"/><polygon class="cls-6" points="136.98 75.77 136.98 76.67 140.69 73.74 136.98 75.77"/><path class="cls-4" d="M118.21,55.05c-7,7.05-7.94,15-7.16,18.89.82,4.13,5.65,7,10.61,6.75,4.4-.24,9.37-2.48,9-9.65s-4.14-13.51-6.62-16S120.42,52.85,118.21,55.05Z"/><path class="cls-5" d="M116.35,57.11c-5.34,6.48-6,13.3-5.3,16.83.82,4.13,5.65,7,10.61,6.75,4.06-.22,8.59-2.14,9-8C121.5,81.93,111.51,71.64,116.35,57.11Z"/><polygon class="cls-6" points="120.88 68.92 120.16 88.83 121.33 88.83 120.88 68.92"/><polygon class="cls-6" points="117.04 74.52 120.68 79.66 120.81 78.49 117.04 74.52"/><polygon class="cls-6" points="120.81 75.77 120.81 76.67 124.52 73.74 120.81 75.77"/><path class="cls-4" d="M130,71.79A13,13,0,0,0,127.37,81a3.81,3.81,0,0,0,3.93,3.29c1.63-.12,3.47-1.21,3.32-4.7a15.46,15.46,0,0,0-2.45-7.8C131.3,70.64,130.84,70.72,130,71.79Z"/><path class="cls-5" d="M129.34,72.79a12.9,12.9,0,0,0-2,8.21,3.81,3.81,0,0,0,3.93,3.29c1.5-.11,3.18-1,3.32-3.92C131.24,84.9,127.54,79.88,129.34,72.79Z"/><polygon class="cls-6" points="131.01 78.55 130.75 88.26 131.18 88.26 131.01 78.55"/><polygon class="cls-6" points="129.59 81.28 130.94 83.79 130.99 83.22 129.59 81.28"/><polygon class="cls-6" points="130.99 81.89 130.99 82.33 132.36 80.9 130.99 81.89"/><path class="cls-4" d="M30.43,71.79A13,13,0,0,0,27.78,81a3.8,3.8,0,0,0,3.93,3.29c1.63-.12,3.47-1.21,3.31-4.7a15.46,15.46,0,0,0-2.45-7.8C31.7,70.64,31.25,70.72,30.43,71.79Z"/><path class="cls-5" d="M29.74,72.79a12.88,12.88,0,0,0-2,8.21,3.8,3.8,0,0,0,3.93,3.29c1.5-.11,3.17-1,3.31-3.92C31.65,84.9,28,79.88,29.74,72.79Z"/><polygon class="cls-6" points="31.42 78.55 31.15 88.26 31.59 88.26 31.42 78.55"/><polygon class="cls-6" points="30 81.28 31.34 83.79 31.39 83.22 30 81.28"/><polygon class="cls-6" points="31.39 81.89 31.39 82.33 32.77 80.9 31.39 81.89"/><rect class="cls-6" y="87.25" width="180.82" height="4.06" rx="2.03" ry="2.03"/><circle class="cls-7" cx="96.47" cy="85.35" r="1.91"/><path class="cls-7" d="M95.06,83.18h8.76a.87.87,0,0,1,.87.87v.1a0,0,0,0,1,0,0H94.09a0,0,0,0,1,0,0v0A1,1,0,0,1,95.06,83.18Z" transform="translate(198.78 167.33) rotate(180)"/><rect class="cls-7" x="94.17" y="80.99" width="3.75" height="2.1" transform="translate(192.08 164.08) rotate(180)"/><path class="cls-8" d="M94.76,73.33h2.56a6.54,6.54,0,0,1,6.1,4.45,24,24,0,0,1,.6,2.65,12.35,12.35,0,0,1,.37,2.82c0,.26-.38.66-.38.66H94.09V73.33Z"/><rect class="cls-7" x="95.92" y="78.17" width="1.44" height="0.38" transform="translate(193.28 156.72) rotate(180)"/><path class="cls-7" d="M95.53,74.92l.15,1.91h3A1.49,1.49,0,0,1,99.54,78c.25,1,.38,1.36.81,1.38s2.78-.24,2.78-.24l-.32-1.21a5.49,5.49,0,0,0-1-1.77,5.17,5.17,0,0,0-2.39-1.76H96.05A.53.53,0,0,0,95.53,74.92Z"/><path class="cls-9" d="M103.74,81.37h.46c.12,0,.21-.15.18-.31l-.12-.77a.22.22,0,0,0-.19-.2h-.46c-.12,0-.21.15-.19.31l.13.77A.22.22,0,0,0,103.74,81.37Z"/><path class="cls-7" d="M96.75,82.84h4.58a0,0,0,0,1,0,0v.74A2.29,2.29,0,0,1,99,85.87h0a2.29,2.29,0,0,1-2.29-2.29v-.74a0,0,0,0,1,0,0Z" transform="translate(198.08 168.7) rotate(180)"/><circle class="cls-10" cx="99" cy="85.35" r="2.08"/><circle class="cls-9" cx="99" cy="85.35" r="1.32"/><path class="cls-11" d="M99.2,85.17a.28.28,0,0,0-.2-.08.24.24,0,0,0-.19.08,4.06,4.06,0,0,1-.7-.09.93.93,0,0,1,1.78,0A4.08,4.08,0,0,1,99.2,85.17Z"/><path class="cls-11" d="M98.81,85.54a.27.27,0,0,0,.38,0,3.38,3.38,0,0,1,.7.1.93.93,0,0,1-1.77,0A4.08,4.08,0,0,1,98.81,85.54Z"/><polygon class="cls-7" points="72.11 82.79 93.69 82.79 93.69 83.48 81.65 83.48 80.05 85.07 75.28 85.07 73.27 83.48 72.11 83.48 72.11 82.79"/><rect class="cls-7" x="82.81" y="83.2" width="4.69" height="1.81" rx="0.91" ry="0.91" transform="translate(170.31 168.22) rotate(180)"/><rect class="cls-7" x="86.31" y="83.2" width="0.21" height="1.81" transform="translate(172.84 168.22) rotate(180)"/><rect class="cls-7" x="83.85" y="83.2" width="0.21" height="1.81" transform="translate(167.91 168.22) rotate(180)"/><path class="cls-7" d="M77.35,83h4.36a0,0,0,0,1,0,0v.7a2.18,2.18,0,0,1-2.18,2.18h0a2.18,2.18,0,0,1-2.18-2.18V83A0,0,0,0,1,77.35,83Z" transform="translate(159.06 168.88) rotate(180)"/><circle class="cls-7" cx="79.49" cy="85.39" r="1.98"/><circle class="cls-7" cx="79.49" cy="85.39" r="1.26"/><path class="cls-7" d="M79.68,85.22a.26.26,0,0,0-.19-.08.23.23,0,0,0-.18.08,3.5,3.5,0,0,1-.66-.09.87.87,0,0,1,.84-.62.89.89,0,0,1,.85.62A3.74,3.74,0,0,1,79.68,85.22Z"/><path class="cls-7" d="M79.31,85.57a.27.27,0,0,0,.36,0,3.74,3.74,0,0,1,.66.09.88.88,0,0,1-.84.61.89.89,0,0,1-.84-.61A3.74,3.74,0,0,1,79.31,85.57Z"/><path class="cls-7" d="M73,83h4.36a0,0,0,0,1,0,0v.7a2.18,2.18,0,0,1-2.18,2.18h0A2.18,2.18,0,0,1,73,83.7V83A0,0,0,0,1,73,83Z" transform="translate(150.35 168.88) rotate(180)"/><circle class="cls-7" cx="75.14" cy="85.39" r="1.98"/><circle class="cls-7" cx="75.14" cy="85.39" r="1.26"/><path class="cls-7" d="M75.32,85.22a.23.23,0,0,0-.18-.08.26.26,0,0,0-.19.08,3.74,3.74,0,0,1-.66-.09.89.89,0,0,1,1.69,0A3.74,3.74,0,0,1,75.32,85.22Z"/><path class="cls-7" d="M75,85.57a.27.27,0,0,0,.18.07.24.24,0,0,0,.17-.07,3.73,3.73,0,0,1,.67.09.9.9,0,0,1-.84.61.88.88,0,0,1-.84-.61A3.62,3.62,0,0,1,75,85.57Z"/><polygon class="cls-7" points="77.96 82.79 94.09 82.79 94.09 83.48 87.49 83.48 85.89 85.07 81.12 85.07 79.12 83.48 77.96 83.48 77.96 82.79"/><rect class="cls-12" x="88.07" y="83.2" width="4.69" height="1.81" rx="0.91" ry="0.91" transform="translate(180.82 168.22) rotate(-180)"/><rect class="cls-13" x="91.57" y="83.2" width="0.21" height="1.81" transform="translate(183.35 168.22) rotate(180)"/><rect class="cls-13" x="89.11" y="83.2" width="0.21" height="1.81" transform="translate(178.43 168.22) rotate(180)"/><path class="cls-7" d="M83.19,83h4.36a0,0,0,0,1,0,0v.7a2.18,2.18,0,0,1-2.18,2.18h0a2.18,2.18,0,0,1-2.18-2.18V83A0,0,0,0,1,83.19,83Z" transform="translate(170.74 168.88) rotate(-180)"/><circle class="cls-12" cx="85.33" cy="85.39" r="1.98"/><circle class="cls-9" cx="85.33" cy="85.39" r="1.26"/><path class="cls-11" d="M85.52,85.22a.26.26,0,0,0-.19-.08.23.23,0,0,0-.18.08,3.74,3.74,0,0,1-.66-.09.89.89,0,0,1,1.69,0A3.74,3.74,0,0,1,85.52,85.22Z"/><path class="cls-11" d="M85.16,85.57a.26.26,0,0,0,.17.07.27.27,0,0,0,.18-.07,3.85,3.85,0,0,1,.67.09.89.89,0,0,1-1.69,0A3.73,3.73,0,0,1,85.16,85.57Z"/><path class="cls-7" d="M78.84,83h4.36a0,0,0,0,1,0,0v.7A2.18,2.18,0,0,1,81,85.88h0a2.18,2.18,0,0,1-2.18-2.18V83A0,0,0,0,1,78.84,83Z" transform="matrix(-1, 0, 0, -1, 162.03, 168.88)"/><circle class="cls-12" cx="80.98" cy="85.39" r="1.98"/><circle class="cls-9" cx="80.98" cy="85.39" r="1.26"/><path class="cls-11" d="M81.16,85.22a.23.23,0,0,0-.18-.08.26.26,0,0,0-.19.08,3.74,3.74,0,0,1-.66-.09.89.89,0,0,1,.85-.62.87.87,0,0,1,.84.62A3.5,3.5,0,0,1,81.16,85.22Z"/><path class="cls-11" d="M80.8,85.57a.27.27,0,0,0,.36,0,3.74,3.74,0,0,1,.66.09.89.89,0,0,1-.84.61.88.88,0,0,1-.84-.61A3.74,3.74,0,0,1,80.8,85.57Z"/><rect class="cls-14" x="71.56" y="82.54" width="6.4" height="0.69" transform="translate(149.51 165.76) rotate(180)"/><rect class="cls-15" x="71.56" y="83.22" width="6.4" height="1.19" transform="translate(149.51 167.63) rotate(180)"/><rect class="cls-16" x="71.56" y="70.76" width="21.58" height="12.02" transform="translate(164.69 153.55) rotate(180)"/><rect class="cls-1" x="77.96" y="70.76" width="16.13" height="12.02" transform="translate(172.04 153.55) rotate(180)"/></g></g></svg>