<svg xmlns="http://www.w3.org/2000/svg" viewBox="0 0 180.82 91.3"><defs><style>.cls-1{fill:#f5f9fc;}.cls-2{fill:#e0edf5;}.cls-3{fill:#baccdb;}.cls-4{fill:#ffd000;}.cls-5{fill:#a6bdcf;}.cls-6{fill:#fbd192;}.cls-7{fill:#39f;}</style></defs><title>4</title><g id="Layer_2" data-name="Layer 2"><g id="Icons"><path class="cls-1" d="M168.55,79.33a79,79,0,0,1-.42,8.18H10.28A79.41,79.41,0,0,1,41,16.29q1.11-.85,2.25-1.65a79.07,79.07,0,0,1,8-5,79.51,79.51,0,0,1,60.12-6.44h0A78.49,78.49,0,0,1,126,9q2.7,1.41,5.28,3,3,1.85,5.71,3.93A79.43,79.43,0,0,1,155.34,35.5,78.9,78.9,0,0,1,168.55,79.33Z"/><path class="cls-2" d="M132.88,51.38h25.42a2.44,2.44,0,0,1,2.44,2.44V87.24a0,0,0,0,1,0,0h-30.3a0,0,0,0,1,0,0V53.83A2.44,2.44,0,0,1,132.88,51.38Z"/><rect class="cls-1" x="134.73" y="56.45" width="21.54" height="1.97" rx="0.99" ry="0.99"/><rect class="cls-1" x="134.73" y="68.75" width="17.54" height="1.97" rx="0.99" ry="0.99"/><rect class="cls-1" x="134.73" y="74.91" width="12.54" height="1.97" rx="0.99" ry="0.99"/><rect class="cls-1" x="134.73" y="62.6" width="15.54" height="1.97" rx="0.99" ry="0.99"/><path class="cls-2" d="M108.4,49.08l-19,3.81a3.86,3.86,0,0,0-3,4.55l6.26,31.19c.42,2.09,2.73,1.78,4.82,1.36L120,87.07l-7-35A3.85,3.85,0,0,0,108.4,49.08ZM97.09,65.77l1-.19a1.06,1.06,0,0,1,0-.19l-.05-.2,0-.28a2.33,2.33,0,0,1,0-.28l-1,.19-.23-1.14,1.1-.23a6.77,6.77,0,0,1,.24-2,5,5,0,0,1,.74-1.6,4.45,4.45,0,0,1,1.17-1.16,4.4,4.4,0,0,1,1.59-.64,4,4,0,0,1,3.69,1l-.57.93a.94.94,0,0,1-.14.19.41.41,0,0,1-.47.1l-.24-.12-.3-.17a2.77,2.77,0,0,0-.38-.14,2.38,2.38,0,0,0-.5-.08,2.61,2.61,0,0,0-.65.06,2.31,2.31,0,0,0-1.52,1A4.06,4.06,0,0,0,99.89,63l4.18-.84.13.63a.49.49,0,0,1-.09.38.54.54,0,0,1-.38.25L100,64.2c0,.1,0,.19,0,.28l.06.28,0,.2c0,.07,0,.13,0,.19l3.53-.71.13.63a.54.54,0,0,1-.09.38.55.55,0,0,1-.38.25l-2.86.57a4.05,4.05,0,0,0,1.33,2,2.2,2.2,0,0,0,1.78.37,2.38,2.38,0,0,0,.93-.36,2.21,2.21,0,0,0,.52-.48c.12-.16.23-.31.31-.44a.51.51,0,0,1,.3-.23.48.48,0,0,1,.17,0,.38.38,0,0,1,.16.09l1,.63a4,4,0,0,1-1.2,1.68,4.5,4.5,0,0,1-2,.9,4.66,4.66,0,0,1-1.82,0,4.23,4.23,0,0,1-1.54-.66,4.93,4.93,0,0,1-1.23-1.26,7.31,7.31,0,0,1-.9-1.79l-1.05.21Zm14.35,15.06L98.85,83.35a.72.72,0,0,1-.85-.56.74.74,0,0,1,.57-.86l12.58-2.52a.72.72,0,0,1,.29,1.42Zm-.74-3.64L98.12,79.72a.72.72,0,1,1-.28-1.42l12.58-2.53a.72.72,0,1,1,.28,1.42Z"/><path class="cls-2" d="M131.6,34h.71a1.31,1.31,0,0,1,1.31,1.3v.71h.86v-.71a2.17,2.17,0,0,0-2.17-2.17h-.71Z"/><path class="cls-2" d="M125.13,36.05v-.71a1.3,1.3,0,0,1,1.3-1.3h.71v-.87h-.71a2.18,2.18,0,0,0-2.17,2.17v.71Z"/><path class="cls-2" d="M127.14,42.53h-.71a1.31,1.31,0,0,1-1.3-1.31v-.71h-.87v.71a2.17,2.17,0,0,0,2.17,2.17h.71Z"/><path class="cls-2" d="M133.62,40.51v.71a1.31,1.31,0,0,1-1.31,1.31h-.71v.86h.71a2.17,2.17,0,0,0,2.17-2.17v-.71Z"/><circle class="cls-2" cx="129.37" cy="38.28" r="1.84"/><path class="cls-3" d="M22.43,48.73H77a2.44,2.44,0,0,1,2.44,2.44V84.58a0,0,0,0,1,0,0H20a0,0,0,0,1,0,0V51.17A2.44,2.44,0,0,1,22.43,48.73Z" transform="translate(4.09 -2.86) rotate(3.44)"/><rect class="cls-3" x="49.05" y="57.12" width="24.4" height="1.97" rx="0.99" ry="0.99" transform="translate(3.6 -3.57) rotate(3.44)"/><rect class="cls-3" x="48.32" y="69" width="10.95" height="1.97" rx="0.99" ry="0.99" transform="translate(4.3 -3.1) rotate(3.44)"/><rect class="cls-3" x="47.96" y="75.07" width="8.8" height="1.97" rx="0.99" ry="0.99" transform="translate(4.66 -3.01) rotate(3.44)"/><rect class="cls-3" x="48.69" y="62.89" width="12.2" height="1.97" rx="0.99" ry="0.99" transform="translate(3.93 -3.17) rotate(3.44)"/><path class="cls-2" d="M21.3,51.31H75.9a2.44,2.44,0,0,1,2.44,2.44V87.17a0,0,0,0,1,0,0H18.86a0,0,0,0,1,0,0V53.75A2.44,2.44,0,0,1,21.3,51.31Z"/><rect class="cls-1" x="47.39" y="59.02" width="24.4" height="1.97" rx="0.99" ry="0.99"/><rect class="cls-1" x="47.39" y="71.33" width="10.95" height="1.97" rx="0.99" ry="0.99"/><rect class="cls-1" x="47.39" y="77.48" width="8.8" height="1.97" rx="0.99" ry="0.99"/><rect class="cls-1" x="47.39" y="65.18" width="12.2" height="1.97" rx="0.99" ry="0.99"/><polygon class="cls-3" points="70.1 73.3 64.42 73.3 64.42 80.35 67.26 78.67 70.1 80.35 70.1 73.3"/><path class="cls-4" d="M68.16,66.7l.51.71a1.14,1.14,0,0,0,.94.45l.87,0a1.12,1.12,0,0,1,1.12,1.41l-.23.83a1.11,1.11,0,0,0,.24,1l.56.66a1.11,1.11,0,0,1-.4,1.75l-.79.35a1.08,1.08,0,0,0-.65.81l-.16.86a1.11,1.11,0,0,1-1.62.77l-.77-.4a1.07,1.07,0,0,0-1,0l-.77.4a1.1,1.1,0,0,1-1.61-.77l-.16-.86a1.11,1.11,0,0,0-.66-.81l-.79-.35a1.11,1.11,0,0,1-.4-1.75l.57-.66a1.11,1.11,0,0,0,.23-1l-.23-.83A1.12,1.12,0,0,1,64,67.82l.87,0a1.14,1.14,0,0,0,.94-.45l.51-.71A1.12,1.12,0,0,1,68.16,66.7Z"/><rect class="cls-1" x="25.09" y="59.02" width="17.53" height="20.43"/><polygon class="cls-2" points="55.74 35.66 49.49 41.91 49.49 41.91 48.88 41.29 46.43 38.81 47.61 37.69 49.69 39.77 54.73 34.65 55.74 35.66"/><rect class="cls-5" y="87.24" width="180.82" height="4.06" rx="2.03" ry="2.03"/><path class="cls-6" d="M83.34,40.15a4.09,4.09,0,0,0,5.5-.19.84.84,0,0,0,.14-1l-.37-.69a2.07,2.07,0,0,1,.45-2.81,2,2,0,0,0,.8-1.81A2.75,2.75,0,0,1,93.37,31l.47.12A2.85,2.85,0,0,1,96,28c1.47-.44,2.53.33,3.49,1.47a3,3,0,0,1,2.26-2.83A3.12,3.12,0,0,1,105,28c2.61-2.17,5.2-4.31,7.77-6.46a.77.77,0,0,0,.16-1.16q-3.24-4.62-6.49-9.22a1,1,0,0,0-1.16-.37c-.56.19-1.14.36-1.71.52a6.22,6.22,0,0,1-4-.22,37.45,37.45,0,0,0-4.25-1.35,8,8,0,0,0-6.23,1.51l.43.36A18.09,18.09,0,0,1,95.39,21.8c.44,2.14-1.15,3.43-3.19,2.62a5.92,5.92,0,0,1-1.94-1.32c-.94-.94-1.73-2-2.65-3a23.84,23.84,0,0,0-2.2-1.94c-.36-.29-.73-.25-1.13.15-4.37,4.42-8.78,8.81-13.18,13.21a2.07,2.07,0,0,0-.63,2.15A2,2,0,0,0,72,35.15a2.14,2.14,0,0,0,2-.7c2.41-2.43,4.84-4.85,7.26-7.27.09-.09.16-.22.27-.25s.41-.07.5,0,.07.34,0,.5-.19.21-.29.31c-2.19,2.2-4.41,4.38-6.57,6.61a2.7,2.7,0,0,0-.68,1.37,1.91,1.91,0,0,0,1.13,2.06,2,2,0,0,0,2.38-.41c1.56-1.54,3.11-3.1,4.66-4.65l1-1c.2-.2.41-.46.7-.18s.06.51-.15.71L80,36.58a2.08,2.08,0,1,0,2.91,3c.79-.77,1.56-1.56,2.34-2.34l.3-.3c.2-.21.45-.39.66-.09a.67.67,0,0,1-.12.61c-.76.81-1.55,1.58-2.34,2.36C83.65,39.92,83.5,40,83.34,40.15Z"/><path class="cls-3" d="M72.62,28.94,78,23.59c2-2,4.08-4.07,6.11-6.12a.82.82,0,0,1,1-.25,7.86,7.86,0,0,1,1.89,1.1c.87.81,1.6,1.77,2.41,2.64s1.44,1.54,2.21,2.25a2.32,2.32,0,0,0,1.84.63c.91-.07,1.31-.47,1.29-1.38a5.5,5.5,0,0,0-.2-1.4A18.81,18.81,0,0,0,90,13.16a8.92,8.92,0,0,0-7.35-3,15.67,15.67,0,0,0-3.24.86,9.7,9.7,0,0,0-1.76.82,7.07,7.07,0,0,1-5.6.57c-.2-.05-.4-.12-.61-.16a1,1,0,0,0-1.09.46l-5.7,9.77a.76.76,0,0,0,.2,1.08Z"/><path class="cls-3" d="M90.46,33.78a6.13,6.13,0,0,0,.74,1.39c1.07,1.15,2.19,2.24,3.31,3.33a2.08,2.08,0,1,0,2.93-3c-1.09-1.12-2.2-2.22-3.31-3.31a2.08,2.08,0,0,0-3.54,1.47Z"/><path class="cls-3" d="M99.8,36.17A2.15,2.15,0,0,0,101.89,35a1.86,1.86,0,0,0-.24-2.17c-1.19-1.26-2.41-2.5-3.68-3.68A2.06,2.06,0,0,0,95.06,32c1.19,1.29,2.45,2.52,3.72,3.72A3,3,0,0,0,99.8,36.17Z"/><path class="cls-3" d="M100.16,29.55a7.46,7.46,0,0,0,.7,1.31,16.77,16.77,0,0,0,1.51,1.53,2.08,2.08,0,0,0,2.93-2.95c-.51-.53-1-1.06-1.57-1.55a2,2,0,0,0-2.25-.34A2.37,2.37,0,0,0,100.16,29.55Z"/><path class="cls-3" d="M88.76,41.08a5,5,0,0,0,5.63-1.61l-4-4.06a1.73,1.73,0,0,0-1.11,2.43C90.17,39.64,90.16,39.67,88.76,41.08Z"/><path class="cls-7" d="M131.25,12,114.56,23.42,113,21.19,106,10.84h0l-1.81-2.67,7.3-5h0A78.49,78.49,0,0,1,126,9Q128.67,10.43,131.25,12Z"/><path class="cls-2" d="M71.93,9.85l-9.23,16L43.29,14.64a79.07,79.07,0,0,1,8-5,78.14,78.14,0,0,1,11.4-5.07Z"/></g></g></svg>