<svg xmlns="http://www.w3.org/2000/svg" viewBox="0 0 180.82 91.3"><defs><style>.cls-1{fill:#f5f9fc;}.cls-2{fill:#e0edf5;}.cls-3{fill:#a6bdcf;}.cls-4{fill:#0091f7;}.cls-5{fill:#fff;}.cls-6{fill:#6cdb98;}.cls-7{fill:#35c86f;}.cls-8{fill:#baccdb;}.cls-9{fill:#b0c3d4;}</style></defs><title>10</title><g id="Layer_2" data-name="Layer 2"><g id="Icons"><path class="cls-1" d="M168.55,79.33a79,79,0,0,1-.42,8.18H10.28A79.41,79.41,0,0,1,41,16.29,79.85,79.85,0,0,1,51.33,9.61,79.44,79.44,0,0,1,126,9a77.74,77.74,0,0,1,11,7A79.43,79.43,0,0,1,155.34,35.5,78.9,78.9,0,0,1,168.55,79.33Z"/><g id="Group_1" data-name="Group 1"><path id="Path_4" data-name="Path 4" class="cls-2" d="M94.21,64.11l-8.54,2.46,5.11,3.68-2.92,5.83,9-2.61Z"/><path id="Path_5" data-name="Path 5" class="cls-2" d="M142.16,64.11l8.54,2.46-5.11,3.68,2.92,5.83-9-2.61Z"/></g><g id="Group_2" data-name="Group 2"><path id="Path_6" data-name="Path 6" class="cls-2" d="M137,66.18l7.8-4.28-5.09-4.26-2.2.51s-1.17,8-1.53,8Z"/><path id="Path_7" data-name="Path 7" class="cls-2" d="M99.4,66.18,91.6,61.9l5.09-4.26,2.2.51s1.17,8,1.53,8Z"/></g><path id="Path_1" data-name="Path 1" class="cls-3" d="M144.17,32.31c-17.82-6.87-26-6.36-26-6.36s-8.16-.51-26,6.36c-.59,5.25-1.23,41.84,26,54.55C145.4,74.15,144.75,37.56,144.17,32.31Z"/><path id="Path_2" data-name="Path 2" class="cls-4" d="M118.18,83.33C108.45,78,101.67,68.67,98,55.5a78.29,78.29,0,0,1-2.75-21.26c14-5.05,21.12-5.32,22.48-5.32h.16l.39,0,.2,0h.14c1.36,0,8.52.27,22.47,5.32a78.28,78.28,0,0,1-2.74,21.26C134.7,68.67,127.92,78,118.18,83.33Z"/><path id="Path_3" data-name="Path 3" class="cls-3" d="M141.63,74.31H94.81L91.6,61.9h53.17Z"/><g id="Group_3" data-name="Group 3"><path id="Path_8" data-name="Path 8" class="cls-5" d="M105.23,39.9V54.27h-2.78v-7.7a16.87,16.87,0,0,0-.06-2,.7.7,0,0,0-.34-.51,2.9,2.9,0,0,0-1.24-.18h-.27V42.2a5,5,0,0,0,3.06-2.3Z"/><path id="Path_9" data-name="Path 9" class="cls-5" d="M114.05,44.76v4.8a14.56,14.56,0,0,1-.14,2.38,3.69,3.69,0,0,1-.57,1.39,2.57,2.57,0,0,1-1,.94,3.2,3.2,0,0,1-1.37.28,3.9,3.9,0,0,1-1.65-.3,2.33,2.33,0,0,1-1.06-.93,4.39,4.39,0,0,1-.55-1.32,10.34,10.34,0,0,1-.17-2.22v-5a12.27,12.27,0,0,1,.27-3,2.85,2.85,0,0,1,1-1.58,3,3,0,0,1,1.91-.6,3.21,3.21,0,0,1,1.63.41,2.91,2.91,0,0,1,1.08,1,3.8,3.8,0,0,1,.49,1.34A17.26,17.26,0,0,1,114.05,44.76Zm-2.78-1.2a7,7,0,0,0-.09-1.44.38.38,0,0,0-.4-.29.4.4,0,0,0-.41.31,6.14,6.14,0,0,0-.1,1.42v7a6.36,6.36,0,0,0,.09,1.51.39.39,0,0,0,.4.26.39.39,0,0,0,.41-.3,5.67,5.67,0,0,0,.1-1.36Z"/><path id="Path_10" data-name="Path 10" class="cls-5" d="M122.46,44.76v4.8a14.56,14.56,0,0,1-.14,2.38,3.69,3.69,0,0,1-.57,1.39,2.55,2.55,0,0,1-1,.94,3.23,3.23,0,0,1-1.37.28,3.92,3.92,0,0,1-1.66-.3,2.31,2.31,0,0,1-1.05-.93,4.17,4.17,0,0,1-.56-1.32,10.33,10.33,0,0,1-.16-2.22v-5a11.78,11.78,0,0,1,.26-3,2.85,2.85,0,0,1,1-1.58,3.08,3.08,0,0,1,1.91-.6,3.22,3.22,0,0,1,1.64.41,3,3,0,0,1,1.08,1,3.78,3.78,0,0,1,.48,1.34A14.61,14.61,0,0,1,122.46,44.76Zm-2.78-1.2a7,7,0,0,0-.09-1.44.38.38,0,0,0-.4-.29.41.41,0,0,0-.41.31,6.14,6.14,0,0,0-.1,1.42v7a7.61,7.61,0,0,0,.09,1.51.43.43,0,0,0,.81,0,5.63,5.63,0,0,0,.1-1.36Z"/><path id="Path_11" data-name="Path 11" class="cls-5" d="M129,42.35v2.47a5.45,5.45,0,0,1-.14,1.45,1.66,1.66,0,0,1-.61.84,1.91,1.91,0,0,1-1.22.36,2.27,2.27,0,0,1-1.35-.34,1.75,1.75,0,0,1-.62-.82,4.58,4.58,0,0,1-.16-1.38V42.35a5.29,5.29,0,0,1,.17-1.58,1.57,1.57,0,0,1,.65-.83,2.15,2.15,0,0,1,1.19-.32,2.13,2.13,0,0,1,1.27.35,1.76,1.76,0,0,1,.65.85A5.25,5.25,0,0,1,129,42.35Zm-1.76-.63a2.72,2.72,0,0,0-.05-.7.22.22,0,0,0-.24-.14.24.24,0,0,0-.24.15,2.27,2.27,0,0,0,0,.69v3.62a3.15,3.15,0,0,0,0,.75c0,.08.12.12.26.12a.22.22,0,0,0,.23-.14,3,3,0,0,0,.05-.67Zm5.54-2.1-4.35,14.93h-1.06l4.37-14.93Zm2.53,9.67v2.48a5.45,5.45,0,0,1-.14,1.45,1.61,1.61,0,0,1-.6.85,2,2,0,0,1-1.23.36,2.2,2.2,0,0,1-1.34-.35,1.67,1.67,0,0,1-.62-.83,4.45,4.45,0,0,1-.16-1.36v-2.6a5.16,5.16,0,0,1,.17-1.56,1.55,1.55,0,0,1,.65-.84,2.07,2.07,0,0,1,1.19-.32,2.11,2.11,0,0,1,1.27.35,1.72,1.72,0,0,1,.66.85A5.57,5.57,0,0,1,135.33,49.29Zm-1.76-.62a3.39,3.39,0,0,0,0-.71c0-.09-.11-.13-.25-.13A.22.22,0,0,0,133,48a3.3,3.3,0,0,0,0,.7v3.62a3.64,3.64,0,0,0,0,.74.24.24,0,0,0,.25.13.22.22,0,0,0,.23-.14,2.53,2.53,0,0,0,0-.67Z"/></g><path class="cls-2" d="M72.48,16.57A4.53,4.53,0,0,0,68,21.1c0,2.51,4.53,9.1,4.53,9.1S77,23.61,77,21.1A4.53,4.53,0,0,0,72.48,16.57Zm0,6.79a2.26,2.26,0,1,1,2.26-2.26A2.26,2.26,0,0,1,72.48,23.36Z"/><path class="cls-3" d="M45.59,50.71h.57a.67.67,0,0,1,.67.67V68.77a0,0,0,0,1,0,0H44.92a0,0,0,0,1,0,0V51.38a.67.67,0,0,1,.67-.67Z" transform="translate(101.91 110.08) rotate(169.46)"/><path class="cls-6" d="M65.84,52.19a1.35,1.35,0,0,1,0,.28c-1.25-1.76-4.18-2.67-7.34-2.09-3.55.66-6.16,3-6.19,5.4-.9-2.23-4.18-3.47-7.73-2.81s-6.16,3-6.2,5.39c-.91-2.22-4.18-3.45-7.73-2.79-3.15.58-5.56,2.49-6.09,4.58a1.18,1.18,0,0,1-.06-.27,21,21,0,1,1,41.3-7.69Z"/><path class="cls-7" d="M38.08,56.92c-2-10.49-.8-19.63,2.53-21.36C22.1,40,23.86,57.94,24.6,60.15c.53-2.09,2.94-4,6.09-4.58,3.47-.65,6.66.52,7.65,2.64C38.25,57.78,38.16,57.36,38.08,56.92Z"/><path class="cls-7" d="M42.09,35.28c3.74.41,8.1,8.53,10,19,.09.46.16.9.23,1.35.12-2.35,2.68-4.62,6.17-5.27,3.16-.58,6.09.33,7.34,2.09C65.59,47.11,58.12,32.87,42.09,35.28Z"/><path class="cls-3" d="M40.86,33.16h.57a.67.67,0,0,1,.67.67v1.6a0,0,0,0,1,0,0H40.18a0,0,0,0,1,0,0v-1.6A.67.67,0,0,1,40.86,33.16Z" transform="translate(-5.58 8.11) rotate(-10.54)"/><rect class="cls-2" x="49.25" y="59.04" width="17.59" height="28.71" transform="translate(116.1 146.79) rotate(-180)"/><rect class="cls-8" x="56.54" y="59.04" width="3.02" height="3.46" transform="translate(116.1 121.54) rotate(-180)"/><rect class="cls-8" x="66.84" y="59.04" width="3.95" height="28.47"/><rect class="cls-8" x="47.74" y="67.38" width="6.71" height="20.37" transform="translate(102.2 155.12) rotate(-180)"/><rect class="cls-9" x="32.71" y="67.38" width="22.69" height="4.01" transform="translate(88.11 138.76) rotate(-180)"/><rect class="cls-2" x="30.64" y="67.38" width="20.37" height="20.37" transform="translate(81.65 155.12) rotate(-180)"/><rect class="cls-8" x="29.3" y="67.38" width="23.05" height="4.01" transform="translate(81.65 138.76) rotate(-180)"/><rect class="cls-8" x="38.34" y="73.97" width="4.96" height="1.84" rx="0.88" ry="0.88" transform="matrix(-1, 0, 0, -1, 81.65, 149.78)"/><path class="cls-5" d="M99.21,71.12V64.61h1.43a3.1,3.1,0,0,1,.85.1,1.68,1.68,0,0,1,.65.29,1.19,1.19,0,0,1,.43.53,2.12,2.12,0,0,1,.14.8c0,.13,0,.25,0,.36a3.21,3.21,0,0,1-.07.36,1.5,1.5,0,0,1-.14.36,1.23,1.23,0,0,1-.26.31,1.5,1.5,0,0,1-.4.25c.39,1.24.72,2.29,1,3.15h-1.36l-.74-3h-.22v3Zm1.31-3.8h.38a.37.37,0,0,0,.26-.1.56.56,0,0,0,.15-.26,1.14,1.14,0,0,0,.07-.28,1.1,1.1,0,0,0,0-.25,1.93,1.93,0,0,0,0-.24,1.68,1.68,0,0,0-.06-.27.68.68,0,0,0-.14-.25.32.32,0,0,0-.23-.09h-.44Z"/><path class="cls-5" d="M103.89,69.89v-2a1.74,1.74,0,0,1,.36-1.17,1.33,1.33,0,0,1,1.09-.43,1.37,1.37,0,0,1,1.1.42,1.8,1.8,0,0,1,.35,1.18v1h-1.68v1c0,.26.08.39.23.39s.26-.14.26-.42v-.52h1.19v.53a1.2,1.2,0,0,1-.42,1,1.6,1.6,0,0,1-2.05,0A1.24,1.24,0,0,1,103.89,69.89Zm1.22-1.67h.48v-.65c0-.24-.09-.35-.25-.35s-.23.11-.23.35Z"/><path class="cls-5" d="M108.09,71.12V66.4h1.22v.34a1.26,1.26,0,0,1,.4-.32,1.09,1.09,0,0,1,.49-.13.66.66,0,0,1,.43.16.94.94,0,0,1,.3.38,1.45,1.45,0,0,1,.43-.39,1.11,1.11,0,0,1,.55-.15.73.73,0,0,1,.45.16,1.08,1.08,0,0,1,.3.4,1.28,1.28,0,0,1,.1.47v3.8h-1.22V67.46s0-.07,0-.11a.17.17,0,0,0-.06-.1.15.15,0,0,0-.1,0c-.08,0-.2.08-.33.26v3.64h-1.22V67.56c0-.23,0-.34-.16-.34s-.21.09-.35.27v3.63Z"/><path class="cls-5" d="M114.15,71.12V64.61h1.22v2.11a1.28,1.28,0,0,1,.35-.31.86.86,0,0,1,1.13.23,1.19,1.19,0,0,1,.28.79v2.78a1,1,0,0,1-.27.71.86.86,0,0,1-.67.3,1,1,0,0,1-.46-.12,1.06,1.06,0,0,1-.36-.34v.36ZM115.92,70V67.53c0-.21-.07-.31-.21-.31a.24.24,0,0,0-.14.06.48.48,0,0,0-.1.09l-.1.13V70l0,0,0,0,0,0s0,0,0,0l0,0,0,0,0,0,0,0,0,0h0a.16.16,0,0,0,.14,0,.34.34,0,0,0,.06-.12S115.92,70,115.92,70Z"/><path class="cls-5" d="M118.44,69.89v-2a1.71,1.71,0,0,1,.36-1.17,1.38,1.38,0,0,1,1.11-.42,1.41,1.41,0,0,1,1.12.42,1.71,1.71,0,0,1,.36,1.17v2a1.18,1.18,0,0,1-.43,1,1.55,1.55,0,0,1-1,.37,1.63,1.63,0,0,1-.73-.16,1.27,1.27,0,0,1-.53-.47A1.2,1.2,0,0,1,118.44,69.89Zm1.75,0V67.57c0-.24-.1-.35-.28-.35s-.25.11-.25.35v2.34a.53.53,0,0,0,0,.13.6.6,0,0,0,0,.12.23.23,0,0,0,.08.11.26.26,0,0,0,.14,0C120.09,70.3,120.19,70.17,120.19,69.91Z"/><path class="cls-5" d="M122.73,70.2V66.4H124v3.51c0,.26,0,.39.16.39s.24-.08.38-.26V66.4h1.22v4.72h-1.22v-.41a1.53,1.53,0,0,1-.43.37,1,1,0,0,1-.5.14.72.72,0,0,1-.6-.31A1.2,1.2,0,0,1,122.73,70.2Z"/><path class="cls-5" d="M127.13,71.12V66.4h1.21v.39a.78.78,0,0,1,.65-.46l.33,0v1a3.76,3.76,0,0,0-.47,0,.46.46,0,0,0-.38.15.66.66,0,0,0-.13.44v3.17Z"/><path class="cls-5" d="M130.25,70l.93-.33a1.07,1.07,0,0,0,.06.17l.07.17a1.94,1.94,0,0,0,.1.17l.13.12a.33.33,0,0,0,.16,0c.16,0,.23-.09.23-.27a.51.51,0,0,0,0-.2.85.85,0,0,0-.1-.17,1.2,1.2,0,0,0-.17-.2l-.18-.18c-.05,0-.12-.1-.23-.19L131,69a3.34,3.34,0,0,1-.61-.66,1.33,1.33,0,0,1-.22-.72,1.28,1.28,0,0,1,.13-.56,1.13,1.13,0,0,1,.35-.4,1.53,1.53,0,0,1,.48-.23,1.79,1.79,0,0,1,.57-.08,1.25,1.25,0,0,1,.5.11,1.28,1.28,0,0,1,.43.3,1.9,1.9,0,0,1,.31.42,2.13,2.13,0,0,1,.21.49l-.87.3a1.78,1.78,0,0,0-.08-.18l-.09-.19a1.4,1.4,0,0,0-.12-.18.61.61,0,0,0-.15-.12.31.31,0,0,0-.18,0,.25.25,0,0,0-.2.09.37.37,0,0,0-.07.2.56.56,0,0,0,.18.36,5.6,5.6,0,0,0,.48.45l.23.2c.12.11.22.21.31.31a3,3,0,0,1,.26.32,1.27,1.27,0,0,1,.2.38,1.09,1.09,0,0,1,.07.4,1.22,1.22,0,0,1-.4.94,1.37,1.37,0,0,1-1,.37,1.43,1.43,0,0,1-1-.34A1.81,1.81,0,0,1,130.25,70Z"/><path class="cls-5" d="M134.26,69.89v-2a1.74,1.74,0,0,1,.36-1.17,1.33,1.33,0,0,1,1.09-.43,1.37,1.37,0,0,1,1.1.42,1.8,1.8,0,0,1,.35,1.18v1h-1.68v1c0,.26.08.39.23.39s.26-.14.26-.42v-.52h1.19v.53a1.2,1.2,0,0,1-.42,1,1.52,1.52,0,0,1-1,.37,1.49,1.49,0,0,1-1-.37A1.24,1.24,0,0,1,134.26,69.89Zm1.08-4,.5-1.6h1.24l-1,1.6Zm.14,2.29H136v-.65c0-.24-.09-.35-.25-.35s-.23.11-.23.35Z"/><rect class="cls-3" y="87.25" width="180.82" height="4.06" rx="2.03" ry="2.03"/></g></g></svg>