<?xml version="1.0" encoding="utf-8"?>
<!-- Generator: Adobe Illustrator 22.1.0, SVG Export Plug-In . SVG Version: 6.00 Build 0)  -->
<svg version="1.1" id="Layer_1" xmlns="http://www.w3.org/2000/svg" xmlns:xlink="http://www.w3.org/1999/xlink" x="0px" y="0px"
	 viewBox="0 0 187.4 187.4" style="enable-background:new 0 0 187.4 187.4;" xml:space="preserve">
<style type="text/css">
	.st0{fill:#8C99A5;}
	.st1{fill:none;}
</style>
<g id="Layer_2_1_">
	<g id="Icons">
		<path class="st0" d="M61.2,82.9h8.7c0.7-4.6,2-9.1,4-13.4c1.7-3.8,4.1-7.2,7-10.2c2.7-2.8,6-5,9.6-6.5c3.7-1.5,7.7-2.3,11.8-2.2
			c4.7-0.1,9.3,0.9,13.5,2.9c3.8,2,7.1,4.8,9.7,8.1l-3.6,4c-0.3,0.3-0.6,0.6-1,0.9s-0.8,0.4-1.3,0.4c-0.8-0.1-1.6-0.5-2.1-1.1
			c-0.9-0.9-1.9-1.7-2.9-2.5c-1.4-1-3-1.9-4.7-2.5c-2.3-0.8-4.8-1.2-7.3-1.1c-5.4-0.2-10.6,2-14.3,5.9c-3.8,3.9-6.3,9.7-7.6,17.2
			h32.2V86c0,0.7-0.3,1.4-0.8,1.9c-0.6,0.6-1.4,0.9-2.2,0.9H80c0,0.8-0.1,1.6-0.1,2.3s0,1.6,0,2.4v1.8c0,0.6,0,1.2,0,1.8h27.5v3.3
			c0,0.7-0.3,1.4-0.8,1.9c-0.6,0.6-1.4,0.9-2.2,0.8h-24c1.1,8.1,3.5,14.2,7.3,18.2c3.6,4,8.9,6.2,14.3,6.1c1.9,0,3.8-0.2,5.6-0.6
			c1.5-0.4,2.9-0.9,4.2-1.6c1.1-0.6,2.1-1.2,3-2c0.8-0.7,1.6-1.4,2.2-2s1.2-1.1,1.7-1.6c0.4-0.4,0.9-0.6,1.4-0.6
			c0.3,0,0.6,0.1,0.8,0.2c0.3,0.2,0.6,0.4,0.8,0.6l4.4,4.1c-2.6,3.9-6.1,7.1-10.3,9.3c-4.5,2.3-9.5,3.5-14.6,3.3
			c-4.2,0.1-8.4-0.7-12.3-2.3c-3.6-1.5-6.8-3.8-9.5-6.7c-2.8-3.1-5-6.7-6.6-10.6c-1.8-4.5-3-9.2-3.5-13.9H61v-6h7.9
			c0-0.6-0.1-1.2-0.1-1.8v-1.8c0-0.8,0-1.6,0-2.4s0-1.6,0.1-2.4h-8L61.2,82.9z"/>
		<rect class="st1" width="187.4" height="187.4"/>
	</g>
</g>
</svg>
