<?xml version="1.0" encoding="utf-8"?>
<!-- Generator: Adobe Illustrator 22.1.0, SVG Export Plug-In . SVG Version: 6.00 Build 0)  -->
<svg version="1.1" id="Layer_1" xmlns="http://www.w3.org/2000/svg" xmlns:xlink="http://www.w3.org/1999/xlink" x="0px" y="0px"
	 viewBox="0 0 187.4 187.4" style="enable-background:new 0 0 187.4 187.4;" xml:space="preserve">
<style type="text/css">
	.st0{fill:none;}
	.st1{fill:#8C99A5;}
</style>
<g id="Layer_2_1_">
	<g id="Icons">
		<rect class="st0" width="187.4" height="187.4"/>
		<path class="st1" d="M141.9,66.5c0-0.2,0-0.4-0.1-0.6c0,0,0-0.1,0-0.2s-0.1-0.3-0.1-0.4s0-0.1-0.1-0.2c-0.1-0.2-0.2-0.4-0.3-0.5
			l0,0c-0.1-0.2-0.2-0.3-0.4-0.4l-0.1-0.1h-0.1c-0.1-0.1-0.3-0.2-0.4-0.3c0,0-0.1,0-0.1-0.1h-0.1l-32.4-16.4
			c-0.6-0.3-1.2-0.4-1.9-0.3l-56.9,8c-0.1,0-0.3,0-0.4,0.1h-0.1c-0.2,0.1-0.4,0.2-0.7,0.3h-0.1h-0.1c-0.2,0.1-0.4,0.3-0.5,0.4
			c0,0,0,0.1-0.1,0.1c-0.1,0.2-0.3,0.3-0.4,0.5c0,0,0,0.1-0.1,0.1c-0.1,0.2-0.2,0.4-0.3,0.6c0,0,0,0.1,0,0.2c0,0.1,0,0.2,0,0.2
			c0,0.1,0,0.3,0,0.4l0,0l0,0l0,0l-0.7,62.6c0,1.2,0.7,2.3,1.8,2.9L79.6,140l0.1,0.1c0.1,0.1,0.3,0.1,0.5,0.2l0.2,0.1
			c0.2,0,0.4,0.1,0.7,0.1c0.1,0,0.3,0,0.4,0l57-8c1.6-0.2,2.7-1.5,2.7-3.1L141.9,66.5L141.9,66.5z M70.2,100.8l-4.4-1.5V110
			c0,0.2-0.2,0.4-0.4,0.4h-0.1l-3.2-0.8c-0.3-0.1-0.5-0.3-0.5-0.6V97.7l-5.1-1.2c-0.5-0.2-0.8-0.7-0.6-1.3c0-0.1,0-0.1,0.1-0.2
			l6.8-9.6c0.3-0.4,1-0.5,1.4-0.2c0.1,0.1,0.2,0.2,0.2,0.3l6.8,13.9c0.2,0.5,0,1.1-0.6,1.3C70.6,100.8,70.4,100.8,70.2,100.8z
			 M59.9,60l45.9-6.5l22.4,11.3l-32.6,4.6l-13.3,1.8L59.9,60z M134.8,126.4l-50.6,7.1l0.5-41.2l0.2-15l50.6-7.1L134.8,126.4z"/>
	</g>
</g>
</svg>
