<?xml version="1.0" encoding="utf-8"?>
<!-- Generator: Adobe Illustrator 22.1.0, SVG Export Plug-In . SVG Version: 6.00 Build 0)  -->
<svg version="1.1" id="Layer_1" xmlns="http://www.w3.org/2000/svg" xmlns:xlink="http://www.w3.org/1999/xlink" x="0px" y="0px"
	 viewBox="0 0 187.4 187.4" style="enable-background:new 0 0 187.4 187.4;" xml:space="preserve">
<style type="text/css">
	.st0{fill:none;}
	.st1{fill:#8C99A5;}
</style>
<g id="Layer_2_1_">
	<g id="Icons">
		<rect class="st0" width="187.4" height="187.4"/>
		<path class="st1" d="M141.9,66.5c0-0.2,0-0.4-0.1-0.6c0,0,0-0.1,0-0.2s-0.1-0.3-0.1-0.4s0-0.1-0.1-0.2c-0.1-0.2-0.2-0.4-0.3-0.5
			l0,0c-0.1-0.2-0.2-0.3-0.4-0.4l-0.1-0.1h-0.1c-0.1-0.1-0.3-0.2-0.4-0.3c0,0-0.1,0-0.1-0.1h-0.1l-32.4-16.4
			c-0.6-0.3-1.2-0.4-1.9-0.3l-56.9,8c-0.1,0-0.3,0-0.4,0.1h-0.1c-0.2,0.1-0.4,0.2-0.7,0.3h-0.1h-0.1c-0.2,0.1-0.4,0.3-0.5,0.4
			c0,0,0,0.1-0.1,0.1c-0.1,0.2-0.3,0.3-0.4,0.5c0,0,0,0.1-0.1,0.1c-0.1,0.2-0.2,0.4-0.3,0.6c0,0,0,0.1,0,0.2c0,0.1,0,0.2,0,0.2
			c0,0.1,0,0.3,0,0.4l0,0l0,0l0,0l-0.7,62.6c0,1.2,0.7,2.3,1.8,2.9L79.6,140l0.1,0.1c0.1,0.1,0.3,0.1,0.5,0.2l0.2,0.1
			c0.2,0,0.4,0.1,0.7,0.1c0.1,0,0.3,0,0.4,0l57-8c1.6-0.2,2.7-1.5,2.7-3.1L141.9,66.5L141.9,66.5z M77.9,132l-26-13.1l0.7-55.6
			l26,13.1L77.9,132z M122.5,103.4l-10.8,0.5l0.2,4.8c0,0.5-0.4,1-0.9,1c-0.2,0-0.3,0-0.5-0.1l-12.1-6.3c-0.5-0.2-0.6-0.8-0.4-1.3
			c0.1-0.1,0.2-0.3,0.3-0.4l11.6-7.3c0.5-0.3,1.1-0.1,1.3,0.4c0.1,0.1,0.1,0.2,0.1,0.3l0.2,4.8l10.8-0.5c0.3,0,0.5,0.2,0.5,0.5l0,0
			l0.1,3.2C123,103.2,122.8,103.4,122.5,103.4L122.5,103.4L122.5,103.4z M95,69.4l-12.7,1.8L59.9,60l45.9-6.5l22.4,11.3L95,69.4z"/>
	</g>
</g>
</svg>
