<?xml version="1.0" encoding="utf-8"?>
<!-- Generator: Adobe Illustrator 22.1.0, SVG Export Plug-In . SVG Version: 6.00 Build 0)  -->
<svg version="1.1" id="Layer_1" xmlns="http://www.w3.org/2000/svg" xmlns:xlink="http://www.w3.org/1999/xlink" x="0px" y="0px"
	 viewBox="0 0 582.9 582.9" style="enable-background:new 0 0 582.9 582.9;" xml:space="preserve">
<style type="text/css">
	.st0{fill:#8C99A5;}
	.st1{fill:none;}
</style>
<g id="Layer_2_1_">
	<g id="Icons">
		<path class="st0" d="M416.5,114.2c-3.4,3.1-3.6,8.3-0.5,11.7l0,0l13.6,14.7l-39.4,36.2L376.6,162l-17.4-18.9
			c-4.1-4.5-11.1-4.7-15.5-0.6c-4.5,4.1-4.7,11.1-0.6,15.5l10,10.8l-190,174.6c-4.5,4.1-4.8,11.1-0.7,15.5l0,0l13.6,14.8l-20.4,18.8
			c-5.5,5-7.6,12.8-5.4,19.9l-51.9,47.7c-3.5,3-3.8,8.2-0.8,11.7s8.2,3.8,11.7,0.8c0.1-0.1,0.2-0.2,0.4-0.3l51.9-47.8
			c6.9,2.8,14.8,1.4,20.3-3.7l20.4-18.8l13.6,14.8c4.1,4.5,11.1,4.8,15.5,0.7l0,0L421.2,243l9.9,10.8c4.1,4.5,11.1,4.8,15.5,0.7
			c4.5-4.1,4.8-11.1,0.7-15.5L430,220.1l-13.6-14.8l39.4-36.2l13.6,14.7c3.1,3.4,8.3,3.6,11.7,0.5c3.4-3.1,3.6-8.3,0.5-11.7l0,0
			l-53.2-57.9C425.1,111.3,419.9,111.1,416.5,114.2z M371.5,258.9L352.2,238c-3.1-3.4-8.3-3.6-11.7-0.5c-3.4,3.1-3.6,8.3-0.5,11.7
			l19.3,20.9l-36.5,33.6l-7-7.6c-3.2-3.3-8.4-3.3-11.7-0.1c-3.1,3.1-3.3,8-0.5,11.3l7,7.6l-36.5,33.6l-19.3-20.9
			c-3.2-3.3-8.4-3.3-11.7-0.1c-3.1,3.1-3.3,8-0.5,11.3l19.3,20.9L224.7,394l-38.5-41.8L367.8,185l38.5,41.8L371.5,258.9z"/>
		<rect class="st1" width="582.9" height="582.9"/>
	</g>
</g>
</svg>
