<svg version="1.1" id="Layer_1" xmlns="http://www.w3.org/2000/svg" x="0" y="0" viewBox="0 0 98.6 98.6" xml:space="preserve"><style>.st0{fill:#3d4e60}</style><path class="st0" d="M93.6 51.9l-12-12V25.1c0-2.9-2.3-5.2-5.2-5.2-2.9 0-5.2 2.3-5.2 5.2v4.4L53 11.3c-2-2-5.4-2-7.4 0L5.1 51.9c-2 2-2 5.4 0 7.4s5.4 2 7.4 0l4.7-4.7v28.9c0 2.9 2.3 5.2 5.2 5.2h53.7c2.9 0 5.2-2.3 5.2-5.2V54.6l4.7 4.7c1 1 2.4 1.5 3.7 1.5 1.3 0 2.7-.5 3.7-1.5 2.2-2 2.2-5.4.2-7.4zM70.9 78.3H55V59.8H43.6v18.4H27.7V44.1l21.6-21.6 21.6 21.6v34.2z"/><path class="st0" d="M45 41.1c0 3 2.5 5.5 5.5 5.5s5.5-2.5 5.5-5.5-2.5-5.5-5.5-5.5c-3.1 0-5.5 2.5-5.5 5.5z"/></svg>