<svg xmlns="http://www.w3.org/2000/svg" viewBox="0 0 98.61 98.61"><defs><style>.c{fill:#9cf}.d{fill:#0f72ff}</style></defs><path fill="none" d="M0 0h98.61v98.61H0z"/><path fill="#c8e7ff" d="M10.43 36.41h58.81v42.12H10.43z"/><path class="c" d="M69.23 36.41h-58.8l9.84-16.32h39.39l9.57 16.32z"/><rect class="d" x="31.58" y="43.06" width="19.51" height="4.56" rx=".89" ry=".89"/><path class="d" d="M38.51 20.09h4.29v16.32h-4.29zm1.6 44.39l-1.65-2.22-1.65-2.22-1.65 2.22-1.65 2.22h1.83v4.45h2.95v-4.45h1.82zm9.05 0l-1.65-2.22-1.65-2.22-1.65 2.22-1.65 2.22h1.82v4.45h2.95v-4.45h1.83zm-15.65 6.11h15.65v1.28H33.51zm23.77-16.64h30.9v24.58h-30.9z"/><path class="c" d="M65.72 59.1l-8.44-5.15v24.58l8.44-5.15V59.1zm14.02 0l8.44-5.15v24.58l-8.44-5.15V59.1z"/><path class="c" d="M65.73 65.49h14.02v1.5H65.73z"/></svg>