<svg xmlns="http://www.w3.org/2000/svg" viewBox="0 0 98.61 98.61"><defs><style>.b{fill:#c8e7ff}.c{fill:#0f72ff}</style></defs><path fill="none" d="M0 0h98.61v98.61H0z"/><path class="b" d="M36.38 14.98h25.84v25.46H36.38z"/><path class="c" d="M45.83 14.98h6.94v7.2h-6.94zm7.39 17.72l-1.09-1.47-1.1-1.48-1.09 1.48-1.1 1.47h1.21v2.95h1.96V32.7h1.21zm6.01 0l-1.1-1.47-1.1-1.48-1.09 1.48-1.1 1.47h1.21v2.95h1.96V32.7h1.22zm-10.39 4.05h10.38v.85H48.84z"/><path class="b" d="M20.95 44.14h25.84V69.6H20.95z"/><path class="c" d="M30.4 44.14h6.94v7.2H30.4zm7.39 17.72l-1.1-1.47-1.09-1.48-1.1 1.48-1.09 1.47h1.21v2.95h1.96v-2.95h1.21zm6 0l-1.09-1.47-1.1-1.48-1.1 1.48-1.09 1.47h1.21v2.95h1.96v-2.95h1.21zm-10.38 4.05h10.38v.85H33.41z"/><path class="b" d="M51.82 44.14h25.84V69.6H51.82z"/><path class="c" d="M61.27 44.14h6.94v7.2h-6.94zm7.39 17.72l-1.1-1.47-1.09-1.48-1.1 1.48-1.09 1.47h1.21v2.95h1.96v-2.95h1.21zm6 0l-1.1-1.47-1.09-1.48-1.1 1.48-1.09 1.47h1.21v2.95h1.96v-2.95h1.21zm-10.38 4.05h10.38v.85H64.28z"/><rect class="c" x="46.85" y="72.33" width="4.92" height="9.84" rx="1.44" ry="1.44"/><rect class="c" x="22.54" y="72.33" width="4.92" height="9.84" rx="1.44" ry="1.44"/><rect class="c" x="71.15" y="72.33" width="4.92" height="9.84" rx="1.44" ry="1.44"/><rect class="c" x="17.86" y="78.16" width="62.88" height="5.47" rx="1.44" ry="1.44"/><rect class="c" x="17.86" y="69.6" width="62.88" height="5.47" rx="1.44" ry="1.44"/></svg>