<svg xmlns="http://www.w3.org/2000/svg" viewBox="0 0 98.61 98.61"><defs><style>.b{fill:#9cf}.c{fill:#0f72ff}.d{fill:#c8e7ff}</style></defs><path fill="none" d="M0 0h98.61v98.61H0z"/><path class="b" d="M65.14 35.38l1.19-2.25a.93.93 0 000-1l-1.14-1.83a1.37 1.37 0 00-1.19-.59H48.43a7.24 7.24 0 00-5.3 2.3L32.7 43.14h31.1z"/><path class="c" d="M77 46.2L65.29 34.68H51.38a3.91 3.91 0 00-3 1.37L39.53 46.5z"/><circle class="c" cx="83.51" cy="65.5" r="2.83"/><circle class="c" cx="40.61" cy="64.13" r="4.77"/><circle class="d" cx="40.61" cy="64.13" r="2.27"/><circle class="c" cx="31.45" cy="64.13" r="4.77"/><circle class="d" cx="31.45" cy="64.13" r="2.27"/><path class="d" d="M11.18 44.22v16.24h53.4s24.27 0 24.27-18H33.42L27 44.22z"/><path class="b" d="M88.25 63.15H10.36a1.72 1.72 0 01-1.71-1.72V43.14a1.72 1.72 0 013.43 0v16.57h76.17a1.72 1.72 0 010 3.44z"/><path class="d" d="M56.51 34.68h3.44v9.91h-3.44zm-39.64 4.95h1.72v5.72h-1.72z"/><path class="d" d="M31.45 40.16H12.89a.86.86 0 010-1.72h18.56a.86.86 0 110 1.72z"/><path class="d" d="M25.222 39.923l1.183-1.248 5.19 4.917-1.183 1.249z"/><path class="c" d="M88.21 47.18s-6.74 4.26-76.07 4.26V56s72.25 1.63 76.07-8.82z"/></svg>