<svg xmlns="http://www.w3.org/2000/svg" viewBox="0 0 98.61 98.61"><defs><style>.b{fill:#9cf}.c{fill:#2b83ff}.d{fill:#c8e7ff}</style></defs><path fill="none" d="M0 0h98.61v98.61H0z"/><path class="b" d="M31.92 57.3h-12a36.24 36.24 0 01.91-8.41 52.33 52.33 0 001-6.47C22 41 22 40.11 22 40.11h7.86s0 .86.14 2.31a54.32 54.32 0 001 6.47 36 36 0 01.92 8.41z"/><rect class="c" x="20.36" y="36.76" width="11.01" height="3.34" rx=".93" ry=".93"/><path class="d" d="M30 42.42h-8.15C22 41 22 40.11 22 40.11h7.86s.02.89.14 2.31z"/><path class="b" d="M66.29 57.3H48.56a53.79 53.79 0 011.36-12.45 78.53 78.53 0 001.48-9.56c.19-2.15.21-3.42.21-3.42h11.63s0 1.27.21 3.42a78.88 78.88 0 001.49 9.56 53.37 53.37 0 011.35 12.45z"/><rect class="c" x="49.19" y="26.91" width="16.28" height="4.94" rx="1.38" ry="1.38"/><path class="d" d="M63.45 35.29H51.4c.19-2.15.21-3.42.21-3.42h11.63s.03 1.27.21 3.42z"/><circle class="d" cx="26.13" cy="33.46" r="1.6"/><circle class="d" cx="28.8" cy="31.86" r="2.57"/><circle class="d" cx="33.9" cy="31.08" r="3.31"/><circle class="d" cx="59.16" cy="21.99" r="2.55"/><circle class="d" cx="63.43" cy="19.43" r="4.1"/><circle class="d" cx="71.57" cy="18.19" r="5.28"/><path class="d" d="M67 63.08H31.14a7.42 7.42 0 00-7.42 7.42v13.22a1.81 1.81 0 01-1.8 1.8h-6.85a1.81 1.81 0 01-1.8-1.8V58.33l24.1-10.57v8l12-8v7.72L61 47.76v8.55l12.35-8.55v8.55l12-8.55v36a1.81 1.81 0 01-1.8 1.8h-7.33a1.8 1.8 0 01-1.8-1.8V70.5A7.42 7.42 0 0067 63.08z"/><path class="b" d="M55.66 73.32h12.33V85.7H55.66z"/><path class="d" d="M43.02 73.23h11.99V85.7H43.02z"/><path class="b" d="M31.76 71.4h10.91v14.12H31.76z"/><path opacity=".7" fill="#c8e7ff" d="M43.02 64.9h11.99v8.55H43.02z"/><path d="M60.69 73.32h2.64v2.93h-2.64zm-12.5-8.42h2.33v2.59h-2.33zm0 8.56h2.33v2.59h-2.33zM36.05 71.4h2.33v2.59h-2.33z" fill="#0f72ff"/></svg>