<?xml version="1.0" standalone="no"?>
<!DOCTYPE svg PUBLIC "-//W3C//DTD SVG 20010904//EN"
 "http://www.w3.org/TR/2001/REC-SVG-20010904/DTD/svg10.dtd">
<svg version="1.0" xmlns="http://www.w3.org/2000/svg"
 width="360.000000pt" height="125.000000pt" viewBox="0 0 360.000000 125.000000"
 preserveAspectRatio="xMidYMid meet">
<metadata>
Created by potrace 1.16, written by Peter Selinger 2001-2019
</metadata>
<g transform="translate(0.000000,125.000000) scale(0.100000,-0.100000)"
fill="#000000" stroke="none">
<path d="M300 1230 c0 -11 -4 -20 -10 -20 -5 0 -10 -13 -10 -30 0 -16 -4 -30
-10 -30 -5 0 -10 -9 -10 -20 0 -11 -4 -20 -10 -20 -5 0 -10 -9 -10 -20 0 -11
-4 -20 -10 -20 -5 0 -10 -9 -10 -20 0 -11 -4 -20 -10 -20 -5 0 -10 -9 -10 -20
0 -11 -4 -20 -10 -20 -5 0 -10 -9 -10 -20 0 -11 -4 -20 -10 -20 -5 0 -10 -9
-10 -20 0 -11 -4 -20 -10 -20 -5 0 -10 -9 -10 -20 0 -11 -4 -20 -10 -20 -5 0
-10 -9 -10 -21 0 -11 -7 -27 -15 -35 -8 -9 -15 -24 -15 -35 0 -10 -4 -19 -10
-19 -5 0 -10 -9 -10 -20 0 -11 -4 -20 -10 -20 -5 0 -10 -9 -10 -20 0 -11 -4
-20 -10 -20 -5 0 -10 -9 -10 -19 0 -11 -5 -21 -11 -23 -6 -2 -13 -31 -16 -64
l-5 -60 50 -52 c28 -29 54 -52 57 -52 8 0 35 -27 35 -35 0 -7 67 -75 75 -75 8
0 34 -24 170 -157 69 -68 129 -123 135 -123 5 0 10 -4 10 -10 0 -5 18 -10 40
-10 22 0 40 5 40 10 0 6 7 10 15 10 8 0 15 5 15 10 0 6 9 10 20 10 11 0 20 5
20 10 0 6 9 10 20 10 11 0 20 5 20 10 0 6 9 10 20 10 11 0 20 5 20 10 0 6 7
10 15 10 9 0 25 9 37 20 12 11 28 20 35 20 7 0 13 5 13 10 0 6 9 10 20 10 11
0 20 5 20 10 0 6 9 10 20 10 11 0 20 5 20 10 0 6 9 10 20 10 11 0 20 5 20 10
0 6 8 10 18 10 10 0 28 9 40 20 12 11 28 20 37 20 8 0 15 3 15 8 0 8 49 32 67
32 7 0 13 5 13 10 0 6 9 10 20 10 11 0 20 4 20 9 0 5 9 11 20 14 17 4 20 14
20 65 0 34 -4 64 -10 67 -5 3 -10 33 -10 66 0 33 -4 59 -10 59 -5 0 -10 23
-10 50 0 28 -4 50 -10 50 -6 0 -10 27 -10 60 0 54 -2 60 -20 60 -13 0 -52 -32
-100 -80 -44 -44 -84 -80 -90 -80 -11 0 -200 185 -200 196 0 7 -16 22 -80 74
-64 52 -80 67 -80 74 0 4 36 42 80 86 48 48 80 87 80 100 0 18 -6 20 -60 20
-33 0 -60 4 -60 10 0 6 -35 10 -85 10 -50 0 -85 4 -85 10 0 6 -38 10 -95 10
-88 0 -95 -1 -95 -20z"/>
<path d="M803 1114 c-52 -52 -73 -81 -73 -99 0 -29 60 -95 85 -95 9 0 38 23
65 50 27 28 54 50 60 50 6 0 21 -10 34 -23 l23 -23 -45 -40 c-24 -21 -51 -49
-59 -61 -13 -20 -13 -24 0 -38 9 -8 18 -15 22 -15 3 0 16 -11 29 -25 13 -14
29 -25 36 -25 7 0 48 36 92 80 78 81 78 81 78 135 0 29 -4 57 -10 60 -5 3 -10
26 -10 51 0 63 -14 74 -99 74 -41 0 -71 4 -71 10 0 6 -19 10 -42 9 -40 0 -49
-6 -115 -75z"/>
<path d="M2250 205 l0 -205 25 0 25 0 0 205 0 205 -25 0 -25 0 0 -205z"/>
<path d="M1650 340 c0 -5 -9 -10 -20 -10 -13 0 -20 -7 -20 -20 0 -11 -4 -20
-10 -20 -5 0 -10 -11 -10 -25 0 -14 5 -25 10 -25 6 0 10 -9 10 -20 0 -13 7
-20 20 -20 11 0 20 -4 20 -10 0 -5 7 -10 16 -10 8 0 21 -6 28 -13 20 -20 -8
-41 -45 -33 -40 8 -59 -2 -59 -30 0 -23 3 -24 71 -24 85 0 99 10 99 75 0 48
-16 75 -44 75 -9 0 -16 5 -16 10 0 6 -9 10 -20 10 -11 0 -20 7 -20 15 0 12 17
15 90 15 l90 0 0 -100 0 -100 25 0 c25 0 25 0 25 99 l0 100 38 3 c30 2 38 7
40 26 3 22 2 22 -122 22 -77 0 -126 4 -126 10 0 6 -16 10 -35 10 -19 0 -35 -4
-35 -10z"/>
<path d="M3070 310 l0 -40 -51 0 c-52 0 -79 -15 -79 -44 0 -9 -4 -16 -10 -16
-14 0 -13 -56 2 -83 22 -42 35 -47 112 -47 l76 0 0 135 0 135 -25 0 c-22 0
-25 -4 -25 -40z"/>
<path d="M1430 205 l0 -125 75 0 c73 0 75 1 75 25 0 23 -3 25 -50 25 -47 0
-50 2 -50 25 0 23 3 25 50 25 47 0 50 2 50 25 0 23 -3 25 -50 25 -47 0 -50 2
-50 25 0 23 3 25 50 25 47 0 50 2 50 25 0 24 -2 25 -75 25 l-75 0 0 -125z"/>
<path d="M2000 310 c0 -11 -4 -20 -10 -20 -5 0 -10 -13 -10 -30 0 -16 -4 -30
-10 -30 -5 0 -10 -13 -10 -30 0 -16 -4 -30 -10 -30 -5 0 -10 -13 -10 -30 0
-16 -4 -30 -10 -30 -5 0 -10 -7 -10 -15 0 -10 10 -15 33 -15 26 0 35 6 45 30
11 25 19 30 48 30 31 0 34 -3 34 -30 0 -28 3 -30 35 -30 31 0 35 3 35 25 0 14
-4 25 -10 25 -5 0 -10 14 -10 30 0 17 -4 30 -10 30 -5 0 -10 14 -10 30 0 17
-4 30 -10 30 -5 0 -10 12 -10 26 0 34 -22 54 -59 54 -24 0 -31 -4 -31 -20z"/>
<path d="M2410 205 l0 -125 35 0 35 0 0 50 0 50 35 0 35 0 0 -50 0 -50 35 0
35 0 0 125 0 125 -35 0 c-34 0 -35 -1 -35 -40 0 -39 -1 -40 -35 -40 -34 0 -35
1 -35 40 0 39 -1 40 -35 40 l-35 0 0 -125z"/>
<path d="M2663 245 c-18 -19 -23 -36 -23 -75 0 -27 5 -50 10 -50 6 0 10 -6 10
-14 0 -19 22 -26 87 -26 73 0 83 12 83 96 0 81 -12 93 -90 93 -45 0 -59 -5
-77 -24z"/>
<path d="M3230 175 l0 -95 35 0 35 0 0 56 c0 61 16 91 38 68 7 -7 12 -38 12
-69 0 -52 1 -55 25 -55 25 0 25 0 25 95 l0 95 -85 0 -85 0 0 -95z"/>
<path d="M3448 251 c-24 -24 -26 -151 -3 -151 8 0 15 -4 15 -10 0 -5 24 -10
53 -10 50 -1 51 -1 27 -15 -15 -8 -29 -10 -34 -4 -15 14 -33 11 -56 -8 -24
-21 -26 -33 -5 -33 8 0 15 -4 15 -10 0 -5 25 -10 55 -10 30 0 55 5 55 10 0 6
7 10 15 10 13 0 15 21 15 125 l0 125 -67 -1 c-51 0 -72 -5 -85 -18z"/>
</g>
</svg>
