<svg xmlns="http://www.w3.org/2000/svg" viewBox="0 0 1263.59 1465.14"><defs><style>.cls-1{fill:#cfd3da;}</style></defs><g id="Layer_2" data-name="Layer 2"><g id="Icons"><path class="cls-1" d="M1158.88,714l-464-18.92,0-11.6L950,624c5-.82,16.44-4.55,16.17-22.48V403.94l115.35-55.18a23.16,23.16,0,0,0,13.5-17.47,23.83,23.83,0,0,0-7-21L937,168c-3.34-3.3-7.49-5.46-10.66-5.92L695.64,101.57l-.32-17.32c-2-19.23-20.65-55.64-76.76-55.81-38.47,0-58.31,19.49-66.57,36L303.34,1.24a23.1,23.1,0,0,0-21.5,3.56c-2.5,1.9-10.64,8.92-10.64,19.33V321.57c0,19.15,30.95,24.77,31.37,24.84l238.3,37.16L319.72,451.28a23.23,23.23,0,0,0-10.21,5.89L164.17,596.92a23.85,23.85,0,0,0-6.71,20.9A23.23,23.23,0,0,0,170.9,635.1l104,46.91-167.55-4.83h-3.66C42.65,677.18,0,718.61,0,777.94v415.48c0,61.39,45.52,109.49,104.62,109.49h.06l446.47-20.76v168a15,15,0,0,0,15,15H697.4a15,15,0,0,0,15-15V1272.19l446.43-14.81c57.74-2.36,104.71-48,104.71-101.8V815.77C1263.59,762.27,1216.65,716.6,1158.88,714Zm-837-421.42c-1.26-.26,4.11-232.21,4.11-232.21L912.53,206l108.11,106.22-54.48,37.6V287.21a15,15,0,0,0-19-14.52l-333.59,80ZM228.41,600.63,353,482.11,902.81,339.22l-3,238.14L513.19,661l-139.53-4.35Zm982.17,542.5c0,37.84-5.92,45.28-47.63,47l-1045.43,32-2.69.2c-41.29,0-48.68-9.51-48.68-54.06L63,803.54c0-42.27,10.77-59.47,54.81-59.47h3.22l1035.61,36.78c41.86,1.9,49.79,12.31,49.79,50Z"/><polygon class="cls-1" points="256.3 890.85 143.5 891.99 145.22 1063.96 181.91 1063.58 181.23 995.93 240.4 995.34 240.12 967.14 180.95 967.73 180.47 919.81 256.58 919.06 256.3 890.85"/><path class="cls-1" d="M366.16,990.24a71,71,0,0,0,8.23-3.85,51.08,51.08,0,0,0,13.84-11.29,47.44,47.44,0,0,0,8.64-15A54.11,54.11,0,0,0,395.53,922a54.62,54.62,0,0,0-11.09-16c-5.13-5.42-18.7-12.14-26.92-14.3A44.1,44.1,0,0,0,344.58,890l-64.68.68,1.72,172,36.64-.37-.59-59.19,11.13-.11,8.55.12,39.51,52.82c3,4.73,6.28,5.66,11.83,5.66h.05l37.38-.38L366.87,991.2C366.63,990.87,366.4,990.55,366.16,990.24ZM336.08,916.1v5.6c10.64,0,18.65,1.95,23.79,5.79,4.89,3.65,7.3,9.14,7.37,16.77a26.39,26.39,0,0,1-1.9,10.56,20.65,20.65,0,0,1-5.73,7.9,27.82,27.82,0,0,1-10,5.43,50.62,50.62,0,0,1-15,2.15l-17,.17-.48-48.57,18-.18.89-5.61Z"/><polygon class="cls-1" points="480.36 1032.41 479.97 992.95 539.18 992.36 538.9 964.15 479.68 964.74 479.21 916.84 555.34 916.07 555.06 887.87 442.28 889 444 1060.97 556.77 1059.84 556.49 1031.65 480.36 1032.41"/><polygon class="cls-1" points="691.11 886.51 568.06 887.75 568.35 915.95 611.73 915.51 613.16 1059.28 649.8 1058.92 648.37 915.15 691.4 914.72 691.11 886.51"/><path class="cls-1" d="M820.36,979.9a45.17,45.17,0,0,0-14.63-9.5l.25-.17a45.33,45.33,0,0,0,10.69-9.65,39.71,39.71,0,0,0,6.38-11.81,40.35,40.35,0,0,0,2-13.09,50.41,50.41,0,0,0-3.9-19.67,38.1,38.1,0,0,0-12.06-15.1c-5.44-4.09-13.57-9.38-21.35-11.37a102.73,102.73,0,0,0-26.88-3.72h0l-56.39.57,1.72,172,67.93-.68c7.67,0,14.29-.07,21.25-2.29a56.56,56.56,0,0,0,19.53-10.5,46.05,46.05,0,0,0,12.32-16.48,51,51,0,0,0,3.9-20.7C831,996.31,827.39,987,820.36,979.9Zm-39.85,10c6.09,0,8.94.64,11.33,2.56,4.55,3.61,6.8,8.53,6.87,15a27.34,27.34,0,0,1-1.56,9.62,17.35,17.35,0,0,1-4.71,6.92,24.93,24.93,0,0,1-9,4.86,17.57,17.57,0,0,1-5.7.71l-7-.07-28.22.28-.39-39.47Zm-19-81.46V914c10.63,0,19.55,4.47,23.95,8.31,4.56,4,6.72,9.11,6.79,16.17a22.57,22.57,0,0,1-1.67,8.86,15.77,15.77,0,0,1-4.72,6.41,27.28,27.28,0,0,1-9.2,4.61,50.63,50.63,0,0,1-14.2,1.91l-20.61.14-.45-46.2,19.74-.19.37-5.6Z"/><path class="cls-1" d="M900.89,884.43l-70.68,172.7,26.42-.15a18.92,18.92,0,0,0,2.52.21,7.86,7.86,0,0,0,5.3-1.76,14,14,0,0,0,4.38-5.9l13.32-34.8,64.17-.65,14,34.58a14.3,14.3,0,0,0,4.36,5.79,7.85,7.85,0,0,0,5.1,1.68,34.6,34.6,0,0,0,4.28-.45l25.4-.26L925.3,884.19ZM896.49,986l16.86-53.87,18.33,53.52Z"/><path class="cls-1" d="M1095.81,882.48c-4.6.05-6.73,4.16-7.82,6.56a18.9,18.9,0,0,0-3.52,4.32l-36.08,53.85c-.61,1-1.17,2-1.7,3-.54-1-1.14-2.06-1.8-3.2l-37-52.44a23.47,23.47,0,0,0-4.93-5.83c-2-2.2-4.7-5.21-8.66-5.21l-27.19.27L1032,983.44l.72,71.66,28.19-.29-.72-71.65,62.83-101Z"/></g></g></svg>