<svg xmlns="http://www.w3.org/2000/svg" viewBox="0 0 206.79 239.77"><defs><style>.cls-1{fill:#cfd3da;}.cls-2{fill:#64bcd2;}</style></defs><g id="Layer_2" data-name="Layer 2"><g id="Icons"><path class="cls-1" d="M189.65,116.84l-75.94-3.1v-1.9l41.74-9.73c.81-.13,2.69-.75,2.65-3.68V66.1l18.88-9a3.79,3.79,0,0,0,2.21-2.86A3.9,3.9,0,0,0,178,50.78L153.34,27.5a3.42,3.42,0,0,0-1.75-1l-37.75-9.9-.05-2.84c-.33-3.15-3.38-9.11-12.56-9.13-6.3,0-9.54,3.19-10.89,5.9L49.64.2a3.78,3.78,0,0,0-3.52.58,4.24,4.24,0,0,0-1.74,3.16V52.63c0,3.13,5.06,4.05,5.13,4.07l39,6.08L52.32,73.85a3.8,3.8,0,0,0-1.67,1L26.87,97.69a3.9,3.9,0,0,0-1.1,3.42,3.8,3.8,0,0,0,2.2,2.83l17,7.68-27.42-.79H17c-10,0-17,6.78-17,16.49v68c0,10,7.45,17.92,17.12,17.92h0l73.06-3.4v27.49a2.46,2.46,0,0,0,2.46,2.46h21.47a2.46,2.46,0,0,0,2.46-2.46V208.19l73.06-2.42c9.45-.39,17.14-7.86,17.14-16.66V133.5C206.79,124.75,199.1,117.27,189.65,116.84Zm-137-69c-.21,0,.67-38,.67-38l96,23.85L167,51.1l-8.92,6.15V47A2.46,2.46,0,0,0,155,44.63L100.41,57.72ZM37.38,98.29,57.77,78.9l90-23.38-.48,39L84,108.18l-22.83-.71Zm160.73,88.78c0,6.19-1,7.41-7.8,7.69L19.23,200l-.44,0c-6.76,0-8-1.56-8-8.85l-.51-59.69c0-6.92,1.76-9.73,9-9.73h.53l169.48,6c6.85.31,8.15,2,8.15,8.18Z"/><polygon class="cls-1" points="41.94 145.79 23.48 145.97 23.77 174.12 29.77 174.06 29.66 162.98 39.34 162.89 39.3 158.27 29.61 158.37 29.54 150.53 41.99 150.4 41.94 145.79"/><path class="cls-1" d="M59.92,162.05a11.61,11.61,0,0,0,1.35-.63,8.36,8.36,0,0,0,2.27-1.85,7.76,7.76,0,0,0,1.41-2.46,8.85,8.85,0,0,0-.22-6.23,8.94,8.94,0,0,0-1.81-2.62,11.84,11.84,0,0,0-4.4-2.34,7.22,7.22,0,0,0-2.12-.29l-10.58.11.28,28.14,6-.06-.1-9.69,1.82,0,1.4,0,6.47,8.64a1.91,1.91,0,0,0,1.94.93h0l6.12-.06L60,162.21ZM55,149.92v.92a6.54,6.54,0,0,1,3.89.95,3.22,3.22,0,0,1,1.21,2.74,4.32,4.32,0,0,1-.31,1.73,3.38,3.38,0,0,1-.94,1.29,4.55,4.55,0,0,1-1.63.89,8.28,8.28,0,0,1-2.45.35l-2.78,0-.08-7.95,2.95,0,.15-.92Z"/><polygon class="cls-1" points="78.61 168.96 78.55 162.5 88.24 162.4 88.19 157.78 78.5 157.88 78.42 150.04 90.88 149.92 90.83 145.3 72.38 145.49 72.66 173.63 91.12 173.44 91.07 168.83 78.61 168.96"/><polygon class="cls-1" points="113.1 145.08 92.96 145.28 93.01 149.9 100.11 149.82 100.34 173.35 106.34 173.29 106.11 149.76 113.15 149.69 113.1 145.08"/><path class="cls-1" d="M134.25,160.36a7.39,7.39,0,0,0-2.39-1.55l0,0a7.42,7.42,0,0,0,1.75-1.58,6.5,6.5,0,0,0,1-1.93,6.6,6.6,0,0,0,.33-2.14,8.25,8.25,0,0,0-.64-3.22,6.23,6.23,0,0,0-2-2.47,10.89,10.89,0,0,0-3.49-1.86,16.81,16.81,0,0,0-4.4-.61h0l-9.23.09.28,28.14,11.12-.11a11.2,11.2,0,0,0,3.48-.38,9.26,9.26,0,0,0,3.2-1.72,7.54,7.54,0,0,0,2-2.7,8.35,8.35,0,0,0,.64-3.39A6.28,6.28,0,0,0,134.25,160.36ZM127.73,162a2.72,2.72,0,0,1,1.85.42,3,3,0,0,1,1.12,2.46,4.47,4.47,0,0,1-.26,1.57,2.84,2.84,0,0,1-.77,1.13,4.08,4.08,0,0,1-1.47.8,2.87,2.87,0,0,1-.93.12h-1.15l-4.62,0-.06-6.46Zm-3.11-13.33v.92a6.25,6.25,0,0,1,3.92,1.36,3.3,3.3,0,0,1,1.11,2.65,3.69,3.69,0,0,1-.27,1.45,2.58,2.58,0,0,1-.77,1,4.46,4.46,0,0,1-1.5.75,8.29,8.29,0,0,1-2.32.31l-3.37,0-.07-7.56,3.23,0,.06-.92Z"/><path class="cls-1" d="M147.43,144.74,135.86,173l4.32,0a3.1,3.1,0,0,0,.41,0,1.29,1.29,0,0,0,.87-.29,2.29,2.29,0,0,0,.72-1l2.18-5.69,10.5-.11,2.28,5.66a2.34,2.34,0,0,0,.71.95,1.28,1.28,0,0,0,.84.28,5.66,5.66,0,0,0,.7-.07l4.16,0-12.13-28Zm-.72,16.62,2.76-8.82,3,8.76Z"/><path class="cls-1" d="M179.33,144.42a1.52,1.52,0,0,0-1.28,1.07,3.09,3.09,0,0,0-.58.71l-5.9,8.81-.28.49L171,155l-6.05-8.58a3.84,3.84,0,0,0-.81-1,2,2,0,0,0-1.42-.85l-4.45,0,10.61,16.31.12,11.73,4.61,0-.12-11.73,10.28-16.52Z"/><rect class="cls-2" x="124.36" y="211.61" width="64.84" height="28.16" rx="2.34" ry="2.34"/><path d="M135.56,234h-2.83V217.12h11.38v11.23h-8.55Zm0-8.51h5.72v-5.58h-5.72Z"/><polygon points="152.74 234.03 149.91 234.03 149.91 220.02 161.04 220.02 161.04 222.85 152.74 222.85 152.74 234.03"/><path d="M181.07,234H166.94V219.91h14.13Zm-11.3-2.83h8.48v-8.48h-8.48Z"/></g></g></svg>