<svg xmlns="http://www.w3.org/2000/svg" viewBox="0 0 206.79 239.77"><defs><style>.cls-1{fill:#cfd3da}</style></defs><g id="Layer_2" data-name="Layer 2"><g id="Icons"><path class="cls-1" d="M189.65 116.84l-75.94-3.1v-1.9l41.74-9.73c.81-.13 2.69-.75 2.65-3.68V66.1l18.88-9a3.79 3.79 0 002.21-2.86 3.9 3.9 0 00-1.19-3.46L153.34 27.5a3.42 3.42 0 00-1.75-1l-37.75-9.9-.05-2.84c-.33-3.15-3.38-9.11-12.56-9.13-6.3 0-9.54 3.19-10.89 5.9L49.64.2a3.78 3.78 0 00-3.52.58 4.24 4.24 0 00-1.74 3.16v48.69c0 3.13 5.06 4.05 5.13 4.07l39 6.08-36.19 11.07a3.8 3.8 0 00-1.67 1L26.87 97.69a3.9 3.9 0 00-1.1 3.42 3.8 3.8 0 002.2 2.83l17 7.68-27.42-.79H17c-10 0-17 6.78-17 16.49v68c0 10 7.45 17.92 17.12 17.92l73.06-3.4v27.49a2.46 2.46 0 002.46 2.46h21.47a2.46 2.46 0 002.46-2.46v-29.14l73.06-2.42c9.45-.39 17.14-7.86 17.14-16.66V133.5c.02-8.75-7.67-16.23-17.12-16.66zm-137-69c-.21 0 .67-38 .67-38l96 23.85L167 51.1l-8.92 6.15V47a2.46 2.46 0 00-3.08-2.37l-54.59 13.09zM37.38 98.29L57.77 78.9l90-23.38-.48 39L84 108.18l-22.83-.71zm160.73 88.78c0 6.19-1 7.41-7.8 7.69L19.23 200h-.44c-6.76 0-8-1.56-8-8.85l-.51-59.69c0-6.92 1.76-9.73 9-9.73h.53l169.48 6c6.85.31 8.15 2 8.15 8.18z"/><path class="cls-1" d="M41.94 145.79l-18.46.18.29 28.15 6-.06-.11-11.08 9.68-.09-.04-4.62-9.69.1-.07-7.84 12.45-.13-.05-4.61zm17.98 16.26a11.61 11.61 0 001.35-.63 8.36 8.36 0 002.27-1.85 7.76 7.76 0 001.41-2.46 8.85 8.85 0 00-.22-6.23 8.94 8.94 0 00-1.81-2.62 11.84 11.84 0 00-4.4-2.34 7.22 7.22 0 00-2.12-.29l-10.58.11.28 28.14 6-.06-.1-9.69h3.22l6.47 8.64a1.91 1.91 0 001.94.93l6.12-.06L60 162.21zM55 149.92v.92a6.54 6.54 0 013.89.95 3.22 3.22 0 011.21 2.74 4.32 4.32 0 01-.31 1.73 3.38 3.38 0 01-.94 1.29 4.55 4.55 0 01-1.63.89 8.28 8.28 0 01-2.45.35h-2.78l-.08-7.95h2.95l.15-.92zm23.61 19.04l-.06-6.46 9.69-.1-.05-4.62-9.69.1-.08-7.84 12.46-.12-.05-4.62-18.45.19.28 28.14 18.46-.19-.05-4.61-12.46.13zm34.49-23.88l-20.14.2.05 4.62 7.1-.08.23 23.53 6-.06-.23-23.53 7.04-.07-.05-4.61zm21.15 15.28a7.39 7.39 0 00-2.39-1.55 7.42 7.42 0 001.75-1.58 6.5 6.5 0 001-1.93 6.6 6.6 0 00.33-2.14 8.25 8.25 0 00-.64-3.22 6.23 6.23 0 00-2-2.47 10.89 10.89 0 00-3.49-1.86 16.81 16.81 0 00-4.4-.61l-9.23.09.28 28.14 11.12-.11a11.2 11.2 0 003.48-.38 9.26 9.26 0 003.2-1.72 7.54 7.54 0 002-2.7 8.35 8.35 0 00.64-3.39 6.28 6.28 0 00-1.65-4.57zm-6.52 1.64a2.72 2.72 0 011.85.42 3 3 0 011.12 2.46 4.47 4.47 0 01-.26 1.57 2.84 2.84 0 01-.77 1.13 4.08 4.08 0 01-1.47.8 2.87 2.87 0 01-.93.12h-5.77l-.06-6.46zm-3.11-13.33v.92a6.25 6.25 0 013.92 1.36 3.3 3.3 0 011.11 2.65 3.69 3.69 0 01-.27 1.45 2.58 2.58 0 01-.77 1 4.46 4.46 0 01-1.5.75 8.29 8.29 0 01-2.32.31h-3.37l-.07-7.56h3.23l.06-.92zm22.81-3.93L135.86 173h4.32a3.1 3.1 0 00.41 0 1.29 1.29 0 00.87-.29 2.29 2.29 0 00.72-1l2.18-5.69 10.5-.11 2.28 5.66a2.34 2.34 0 00.71.95 1.28 1.28 0 00.84.28 5.66 5.66 0 00.7-.07h4.16l-12.13-28zm-.72 16.62l2.76-8.82 3 8.76zm32.62-16.94a1.52 1.52 0 00-1.28 1.07 3.09 3.09 0 00-.58.71l-5.9 8.81-.28.49-.29-.5-6.05-8.58a3.84 3.84 0 00-.81-1 2 2 0 00-1.42-.85h-4.45l10.61 16.31.12 11.73h4.61l-.12-11.73 10.28-16.52z"/><rect x="124.36" y="211.61" width="64.84" height="28.16" rx="2.34" ry="2.34" fill="#64bcd2"/><path d="M135.56 234h-2.83v-16.88h11.38v11.23h-8.55zm0-8.51h5.72v-5.58h-5.72zm17.18 8.54h-2.83v-14.01h11.13v2.83h-8.3v11.18zm28.33-.03h-14.13v-14.09h14.13zm-11.3-2.83h8.48v-8.48h-8.48z"/></g></g></svg>