<svg xmlns="http://www.w3.org/2000/svg" xmlns:xlink="http://www.w3.org/1999/xlink" viewBox="0 0 595.279 307.856"><path fill="#cfd3da" d="M7 94.581V60.505h19.443v.33H9.583v17.401h14.043v.361H9.583v15.984z"/><path fill="#cfd3da" d="M29.944 57.005H3.501V98.08h9.584V82.097h14.041v-7.361H13.085V64.335h16.859z"/><defs><path id="a" d="M0 0h595.279v307.856H0z"/></defs><clipPath id="b"><use xlink:href="#a" overflow="visible"/></clipPath><path clip-path="url(#b)" fill="#cfd3da" d="M62.14 94.581c-.319 0-.437-.052-.438-.052l-6.594-11.574 2.109 1.057c.383.192.756.44 1.11.737.253.214.495.505.708.855l5.489 8.977H62.14zm-21.479 0V60.505h9.863c2.62 0 4.85.26 6.628.775 1.625.477 2.931 1.113 3.868 1.889.882.722 1.492 1.53 1.876 2.479.433 1.068.653 2.258.653 3.536 0 .98-.131 1.906-.39 2.754a7.792 7.792 0 01-1.102 2.285 8.845 8.845 0 01-1.869 1.941 9.883 9.883 0 01-2.169 1.254c.184-.157.362-.32.532-.49a8.719 8.719 0 002.115-3.394c.385-1.166.575-2.384.575-3.647 0-2.814-1.026-5.192-2.969-6.875-1.855-1.6-4.387-2.376-7.748-2.376H43.19V94.58h-2.529zM51.665 79.78l.27-.021-.16.061c-.037-.014-.073-.028-.11-.04"/><path clip-path="url(#b)" fill="#cfd3da" d="M50.524 57.005H37.161v41.076h9.529V82.884h2.422c.733 0 1.305.115 1.707.337.408.229.757.601 1.057 1.13l6.826 11.927c.691 1.202 1.839 1.803 3.437 1.803h8.628l-8.743-14.295a7.01 7.01 0 00-1.447-1.719 9.245 9.245 0 00-1.791-1.184c1.334-.51 2.511-1.153 3.539-1.946a12.346 12.346 0 002.59-2.692 11.242 11.242 0 001.592-3.286c.361-1.184.54-2.44.54-3.774 0-1.749-.306-3.365-.906-4.849-.601-1.484-1.562-2.776-2.89-3.864-1.323-1.093-3.036-1.94-5.125-2.553-2.098-.607-4.633-.914-7.602-.914M46.69 76.317v-12.18h3.834c2.463 0 4.278.505 5.456 1.521 1.171 1.015 1.761 2.428 1.761 4.23 0 .902-.133 1.742-.391 2.524a5.226 5.226 0 01-1.273 2.043c-.584.583-1.328 1.039-2.242 1.37-.908.324-2.013.492-3.311.492H46.69zm33.725 18.264V60.505h19.444v.33h-16.86v16.584h12.912v.049H82.999V94.25h16.86v.331z"/><path clip-path="url(#b)" fill="#cfd3da" d="M103.358 57.005H76.915V98.08h26.443v-7.33H86.499v-9.782h12.912v-7.049H86.499v-9.584h16.859zm19.91 37.576V61.059h-11.561v-.554h25.646v.554h-11.561v33.522z"/><path clip-path="url(#b)" fill="#cfd3da" d="M140.852 57.005h-32.645v7.553h11.561V98.08h9.523V64.558h11.561zm9.702 37.576V60.505h11.611c2.519 0 4.658.226 6.358.673 1.536.407 2.766.956 3.646 1.627.771.586 1.305 1.257 1.636 2.055.393.943.591 2.034.591 3.248 0 .575-.079 1.111-.241 1.638a4.246 4.246 0 01-.692 1.339 5.798 5.798 0 01-1.354 1.261 8.314 8.314 0 01-.894.534c.434-1.059.651-2.279.651-3.642 0-1.423-.194-2.626-.593-3.679a6.873 6.873 0 00-2.255-3.091c-.923-.716-2.049-1.222-3.341-1.5-1.028-.223-2.179-.331-3.512-.331h-9.082v33.756h10.212c1.715 0 3.147-.238 4.378-.729 1.308-.521 2.386-1.253 3.202-2.178a7.534 7.534 0 001.692-3.137c.245-.932.369-1.887.369-2.845 0-1.125-.158-2.175-.47-3.121a6.9 6.9 0 00-.815-1.686c1.175.437 2.057.985 2.63 1.636.726.824 1.077 1.925 1.077 3.369 0 1.254-.233 2.382-.71 3.448-.465 1.029-1.139 1.915-2.058 2.703-.949.815-2.178 1.473-3.653 1.959-1.549.509-3.391.768-5.474.768h-12.909z"/><path clip-path="url(#b)" fill="#cfd3da" d="M162.166 57.005h-15.112v41.076h16.41c2.464 0 4.65-.313 6.567-.944 1.917-.631 3.528-1.502 4.837-2.626 1.305-1.117 2.295-2.427 2.975-3.929.673-1.502 1.015-3.13 1.015-4.879 0-2.314-.648-4.206-1.947-5.679-1.297-1.478-3.299-2.541-6.008-3.202 1.244-.45 2.307-.98 3.19-1.593.884-.606 1.605-1.291 2.17-2.043a7.772 7.772 0 001.238-2.409c.264-.86.396-1.742.396-2.668 0-1.689-.289-3.221-.859-4.591-.571-1.375-1.49-2.541-2.746-3.496-1.262-.962-2.891-1.701-4.879-2.23-1.996-.522-4.412-.787-7.247-.787m-5.583 17.281V64.137h5.582c1.069 0 1.995.084 2.776.253.782.168 1.424.45 1.935.847.505.39.884.914 1.124 1.562.246.649.366 1.46.366 2.44 0 .998-.156 1.827-.463 2.481a3.647 3.647 0 01-1.352 1.551c-.594.378-1.316.637-2.156.787-.848.149-1.797.228-2.848.228h-4.964zm0 16.608V80.656h6.651c1.203 0 2.2.114 2.993.342.787.222 1.423.541 1.899.956.48.414.817.919 1.015 1.525.199.602.295 1.274.295 2.025 0 .661-.084 1.31-.252 1.948a4.073 4.073 0 01-.932 1.717c-.451.511-1.076.926-1.875 1.245-.799.318-1.826.48-3.082.48h-6.712zm60.616 3.686l-3.127-9.218h-.014l-5.155-15.351-.866-2.536a77.115 77.115 0 01-.922-2.984l-1.148-3.986h.266l13.19 34.075h-2.224zm-15.922-34.075h.151l-1.063 4.069a53.283 53.283 0 01-.866 2.993 47.427 47.427 0 01-.835 2.334l-.061.167-5.156 15.294h-.009l-3.125 9.215-2.229.001 13.193-34.073z"/><path clip-path="url(#b)" fill="#cfd3da" d="M208.631 57.005h-9.752L182.973 98.08h7.445c.788 0 1.455-.21 2.001-.637.547-.42.914-.895 1.1-1.423l2.427-7.157h15.617l2.428 7.157a2.95 2.95 0 001.111 1.483c.535.385 1.214.577 2.043.577h7.385l-15.899-41.075zm-10.486 25.374l3.773-11.193c.284-.716.584-1.563.909-2.536.318-.98.625-2.043.925-3.191.325 1.13.649 2.175.973 3.149.33.967.619 1.808.859 2.517l3.78 11.254h-11.219zm40.772 12.201V82.455l1.462 3.855 1.062-3.055V94.58h-2.524zm-12.288-34.075h2.262c.02.033.043.072.065.118l5.788 11.922c.482.97.907 1.84 1.293 2.64.359.728.666 1.432.927 2.121l.939 2.475-11.274-19.276zm16.913 16.709c.237-.682.517-1.349.854-2.041l1.277-2.639 5.751-11.958c.02-.027.038-.049.056-.071h2.249l-10.795 18.459.608-1.75z"/><path clip-path="url(#b)" fill="#cfd3da" d="M259.831 57.005h-8.46c-.391 0-.757.06-1.081.18a3.315 3.315 0 00-.877.481c-.253.198-.481.42-.674.66a3.797 3.797 0 00-.469.734l-5.75 11.957c-.451.937-.876 1.815-1.267 2.62a21.704 21.704 0 00-1.016 2.428 27.135 27.135 0 00-1.046-2.398c-.389-.811-.823-1.694-1.297-2.65l-5.805-11.957a4.296 4.296 0 00-1.184-1.478c-.492-.385-1.147-.577-1.976-.577h-8.401l14.89 25.459V98.08h9.524V82.464l14.889-25.459zm192.051 189.183l-23.5 44.297c-1.526 2.774-3.468 4.854-5.822 6.236-2.356 1.383-4.922 2.078-7.692 2.078-6.104 0-10.677-2.769-13.723-8.314l-78.192-144.948h31.606l61.138 116.25 22.875-41.178-39.302-75.072h31.816l58.435 116.25 61.558-116.25h29.528l-78.192 144.948c-1.525 2.774-3.503 4.854-5.925 6.236-2.427 1.383-5.028 2.078-7.798 2.078-2.777 0-5.342-.695-7.698-2.078-2.354-1.383-4.297-3.462-5.822-6.236l-23.29-44.297z"/><path clip-path="url(#b)" fill="#cfd3da" d="M438.688 220.609l-39.304-75.072H431.2l58.434 116.25 61.561-116.25h29.525l-78.19 144.948c-1.526 2.774-3.503 4.854-5.924 6.235-2.429 1.384-5.029 2.079-7.801 2.079-2.774 0-5.342-.695-7.696-2.079-2.356-1.382-4.296-3.461-5.822-6.235l-23.29-44.297-13.309-25.579zm-189.99 87.247c-46.64 0-84.579-37.939-84.579-84.578 0-46.64 37.939-84.578 84.579-84.578 46.64 0 84.584 37.938 84.584 84.578 0 46.639-37.944 84.578-84.584 84.578m0-144.545c-33.066 0-59.967 26.899-59.967 59.967 0 33.065 26.901 59.967 59.967 59.967 33.071 0 59.973-26.901 59.973-59.967 0-33.068-26.902-59.967-59.973-59.967m271.726-59.422c0 13.165-10.672 23.837-23.837 23.837-13.164 0-23.837-10.672-23.837-23.837 0-13.164 10.673-23.836 23.837-23.836 13.165 0 23.837 10.672 23.837 23.836m-30.482-76.324c-10.829 1.107-20.799 4.676-29.657 10.337-9.354-5.907-20.182-9.722-31.872-10.583-1.846-.123-3.691-.246-5.66-.246-39.133 0-71.128 31.749-71.497 71.004h-28.303C323.322 43.809 367.377 0 421.645 0c13.29 0 25.965 2.585 37.532 7.383 11.569 4.799 21.905 11.568 30.765 20.182"/><path clip-path="url(#b)" fill="#cfd3da" d="M595.279 98.077h-25.965c-.368-39.255-32.364-71.004-71.619-71.004-2.584 0-5.168.123-7.754.492-10.828 1.108-20.798 4.676-29.656 10.337-20.305 12.306-33.842 34.703-34.088 60.175h-28.304c.247-27.811 11.816-52.914 30.52-70.758 8.86-8.368 19.318-15.26 30.764-19.935C470.746 2.584 483.421 0 496.588 0c54.267 0 98.323 43.809 98.691 98.077M130.188 307.856c-6.796 0-12.306-5.51-12.306-12.307v-87.342c0-24.756-20.141-44.896-44.897-44.896s-44.897 20.141-44.897 44.896v87.342c0 6.797-5.509 12.307-12.305 12.307s-12.307-5.51-12.307-12.307v-87.342c0-38.33 31.18-69.508 69.509-69.508 38.33 0 69.509 31.178 69.509 69.508v87.342c0 6.797-5.51 12.307-12.306 12.307"/></svg>