<svg xmlns="http://www.w3.org/2000/svg" viewBox="2.7 326.5 506.701 181"><path d="M38.8 436.6h.7l9.1-34.3c1.9-7.398 4.9-12.5 8.9-15.2 4-2.698 10-4.1 18.1-4.1v77.7H65.1v-66c-1.9.8-3.4 2-4.4 3.398-1 1.5-1.9 3.7-2.8 6.7L44 452.5h-9.8l-14-47.6c-.9-3-1.8-5.302-2.8-6.7-1-1.4-2.4-2.602-4.3-3.4v66H2.7V383c8.1 0 14.1 1.4 18 4.2 4 2.8 6.9 7.8 8.9 15.2l9.2 34.2zm44.5-29.2H93v27.9c0 6 .9 10.2 2.8 12.5 1.9 2.4 5.3 3.602 10.2 3.602h11.7v-44h9.8V458c0 9.3-2.4 16.2-7.3 20.9-4.8 4.698-12.5 7.1-22.8 7.1h-8v-9.3h7c13.5 0 20.7-5.3 21.3-16h-9.3c-9.7 0-16.3-1.7-19.8-5.102-3.5-3.398-5.3-10.3-5.3-20.8V407.4zm281.1 29.2h.699l9.101-34.3c1.899-7.398 4.899-12.5 8.899-15.2 4-2.698 10-4.1 18.101-4.1v77.7h-10.4v-66c-1.898.8-3.398 2-4.398 3.398-1 1.5-1.9 3.7-2.801 6.7L369.7 452.4h-9.8l-14-47.602c-.899-3-1.801-5.3-2.801-6.7-1-1.398-2.399-2.6-4.3-3.398v66H328.4V383c8.101 0 14.101 1.4 18 4.2 4 2.8 6.899 7.8 8.899 15.2l9.101 34.2zm77.1-7.2v10c-2.801-2.2-6.301-3.2-10.301-3.2-3.5 0-6.199.7-8.102 2.1-1.898 1.4-2.898 3.3-2.898 5.8 0 4.9 3.6 7.302 10.898 7.302h14.701v-21.2c0-9-4.398-13.4-13.1-13.4h-17.801v-9.3H433.2c7.199 0 12.699 1.8 16.5 5.3 3.799 3.602 5.799 8.7 5.799 15.3v32.6H430.7c-6.301 0-11.301-1.4-15-4.2-3.701-2.8-5.602-6.9-5.602-12.3s2-9.5 5.9-12.3c3.9-2.802 8.799-4.2 14.799-4.2 3.403-.102 7.002.498 10.703 1.698zm23.6-22h19.199c8.201 0 14.102 1.198 17.701 3.698 3.199 2.102 5.199 4.7 6.1 7.7.801 3 1.301 6.9 1.301 11.8V460.7H499.6v-30c0-1.3 0-2.5-.1-3.4-.1-.898-.301-2.1-.801-3.6-.4-1.4-1.102-2.602-1.9-3.602-.799-.898-2-1.698-3.6-2.398-1.602-.7-3.4-1.102-5.699-1.102h-12.701v44H465V407.4h.1zm-252.4-77.1l-48.9 3.602-27.3 27.5 73.6-5.5c.9-7.902 1.7-16.002 2.6-25.602zm94.099 18.5L264.5 326.5l-37.601 2.8c2.3 9.3 4.3 17.2 6.3 25l73.6-5.5zm.5 6.4l-73.599 5.5 2.1 28.6-23 1.7-2.1-28.6-73.6 5.5 10.3 139.6 170.2-12.7z" fill="#cfd3da"/><path opacity=".58" fill="#cfd3da" d="M159.8 403.2v57.7l50.3 41.9 107.5-8-4.801-65.5-13.899-11.7-15.8 12.1-14.801-12.1L272 440.8l-25-19.9-27.7 2.5-20.7-16.9-38.8-3.3"/><g fill="#4D515A"><path d="M298.9 460.9h-13.4l-8.6-13.2-8.601 13.2H254.9l15.7-22.1-15.7-21.2h13.399l8.601 12.3 8.6-12.3h13.4l-15.7 21.2z"/><path d="M253.3 429.6c-1.2-2.8-2.7-5.198-4.7-7.198s-4.3-3.5-7-4.602c-2.7-1.1-5.5-1.6-8.6-1.6-3 0-5.9.6-8.5 1.7-2.7 1.198-5 2.698-7 4.8-2 2-3.6 4.398-4.7 7.2-1.2 2.8-1.7 5.8-1.7 9.1 0 3.2.6 6.2 1.7 9s2.7 5.2 4.7 7.2 4.3 3.6 7 4.8 5.5 1.8 8.5 1.8 5.9-.6 8.6-1.8c2.7-1.2 5-2.8 7-4.8s3.5-4.4 4.7-7.2c1.1-2.8 1.701-5.8 1.701-9-.001-3.5-.601-6.6-1.701-9.4zm-10.2 14.2c-.6 1.5-1.4 2.7-2.3 3.7-1 1-2.1 1.8-3.5 2.4-1.3.6-2.7.8-4.2.8s-2.9-.3-4.2-.9c-1.3-.6-2.5-1.398-3.5-2.5-1-1-1.8-2.3-2.3-3.7-.6-1.398-.8-3-.8-4.6 0-1.8.3-3.4.8-4.8.6-1.4 1.3-2.7 2.3-3.7s2.1-1.8 3.5-2.4c1.3-.5 2.7-.8 4.2-.8s2.9.3 4.2.8c1.3.5 2.5 1.302 3.5 2.4 1 1 1.8 2.3 2.3 3.7.6 1.398.9 3 .9 4.8-.1 1.7-.4 3.3-.9 4.8zm-38.9-6.8c-.5-1-1.2-2-1.9-2.9-.7-.898-1.6-1.6-2.5-2.1.9-.6 1.7-1.3 2.5-2.1.7-.9 1.4-1.802 1.9-2.9.5-1 1-2.1 1.2-3.3.3-1.102.4-2.2.4-3.3 0-2.4-.5-4.602-1.4-6.7-.9-2.102-2.1-3.9-3.7-5.5-1.6-1.602-3.4-2.8-5.5-3.7-2.1-.9-4.3-1.4-6.7-1.4h-28.8v57.8h28.8c2.4 0 4.6-.5 6.7-1.4 2.1-.9 3.9-2.2 5.5-3.7 1.6-1.6 2.8-3.398 3.7-5.5.9-2.1 1.4-4.3 1.4-6.7 0-1.1-.1-2.198-.4-3.3-.2-1.2-.6-2.2-1.2-3.3zm-10.3 8.9c-.3.698-.7 1.3-1.2 1.8s-1.1.898-1.8 1.2c-.7.3-1.4.398-2.2.398h-17.3v-11.5h17.3c.8 0 1.5.2 2.2.4.7.3 1.3.7 1.8 1.2s.9 1.1 1.2 1.8c.3.7.4 1.398.4 2.3s-.1 1.702-.4 2.402zm0-23.1c-.3.7-.7 1.3-1.2 1.9-.5.5-1.1.898-1.8 1.2-.7.3-1.4.398-2.2.398h-17.3v-11.6h17.3c.8 0 1.5.1 2.2.398.7.302 1.3.7 1.8 1.2s.9 1.102 1.2 1.8c.3.7.4 1.5.4 2.302 0 .902-.1 1.702-.4 2.402z"/></g><g fill="#4D515A"><path d="M225.9 448.4c1 1 2.1 1.898 3.5 2.5 1.3.6 2.7.898 4.2.898s2.9-.3 4.2-.8c1.3-.6 2.5-1.4 3.5-2.4s1.8-2.3 2.3-3.698c.6-1.4.9-3 .9-4.802 0-1.8-.3-3.398-.9-4.8-.1-.398-.3-.7-.5-1 .6 1.4.9 3 .9 4.8 0 1.7-.3 3.302-.9 4.802s-1.4 2.698-2.3 3.698c-1 1-2.1 1.802-3.5 2.4-1.3.6-2.7.8-4.2.8s-2.9-.3-4.2-.898c-1.3-.602-2.5-1.4-3.5-2.5-.7-.802-1.3-1.7-1.8-2.7.5 1.4 1.3 2.6 2.3 3.7zm-34.5 1.6c.7-.3 1.3-.7 1.8-1.2s.9-1.1 1.2-1.8c.3-.7.4-1.5.4-2.3s-.2-1.602-.4-2.3c-.1-.302-.3-.602-.5-.9.2.7.4 1.3.4 2.1 0 .802-.2 1.602-.4 2.302-.3.698-.7 1.3-1.2 1.8s-1.1.898-1.8 1.2c-.7.3-1.4.398-2.2.398h-17.3l.6 1.102h17.3c.7-.002 1.4-.102 2.1-.402zm77.5-31.4l8.6 12.4 8.6-12.4h12l.8-1.1h-13.4l-8.5 12.4-8.701-12.4H254.9l.8 1.1zm29.8 42.3h.2l-15.101-21.2-.099.2zm-28.1-22.1l-15.7 22.1h2.8z"/><path d="M213.3 449c-1.2-2.8-1.7-5.8-1.7-9 0-3.3.6-6.3 1.7-9.1 1.1-2.802 2.7-5.2 4.7-7.2s4.3-3.602 7-4.8c2.7-1.2 5.5-1.7 8.5-1.7s5.9.5 8.6 1.6c2.7 1.102 5 2.602 7 4.602 1.4 1.398 2.6 3 3.6 4.898-1.1-2.3-2.4-4.2-4.1-5.898-2-2-4.3-3.5-7-4.602-2.7-1.1-5.5-1.6-8.6-1.6-3 0-5.9.6-8.5 1.7-2.7 1.198-5 2.698-7 4.8-2 2-3.6 4.398-4.7 7.2-1.2 2.8-1.7 5.8-1.7 9.1 0 3.2.6 6.2 1.7 9 .3.8.7 1.6 1.1 2.3-.2-.4-.4-.8-.6-1.3zm-52.9-44.8h28.8c2.4 0 4.6.5 6.7 1.398 2.1.9 3.9 2.2 5.5 3.7 1.1 1.102 2.1 2.4 2.9 3.9-.9-1.9-2-3.5-3.4-4.9-1.6-1.6-3.4-2.8-5.5-3.7-2.1-.898-4.3-1.398-6.7-1.398h-28.8V461h.5v-56.8z"/><path d="M194.5 419.3c-.1-.3-.3-.6-.5-.898.2.698.4 1.3.4 2.1s-.2 1.6-.4 2.3c-.3.7-.7 1.3-1.2 1.9-.5.5-1.1.898-1.8 1.2-.7.3-1.4.398-2.2.398h-17.3l.6 1.102h17.3c.8 0 1.5-.2 2.2-.4.7-.3 1.3-.7 1.8-1.2s.9-1.1 1.2-1.898c.3-.7.4-1.5.4-2.302-.1-.902-.3-1.602-.5-2.302zm10 18.3l-.3-.6c-.5-1-1.2-2-1.9-2.9-.5-.5-1-1-1.5-1.398-.2.1-.3.3-.5.398.9.5 1.8 1.2 2.5 2.102.7.698 1.2 1.498 1.7 2.398z"/></g></svg>