<svg xmlns="http://www.w3.org/2000/svg" viewBox="0 0 70 70"><defs><style>.cls-1{fill:#c2e5ff;}.cls-2{fill:#94d2ff;}.cls-3,.cls-5{fill:none;}.cls-3{stroke:#31a5f7;stroke-linecap:round;stroke-miterlimit:10;}.cls-4{fill:#31a5f7;}</style></defs><title>101h</title><g id="Layer_2" data-name="Layer 2"><g id="Layer_1-2" data-name="Layer 1"><path class="cls-1" d="M50,34.76,47.89,56.18s-2.66,2.08-10.32,2.08-10.11-2.08-10.11-2.08L25.13,34.76"/><ellipse class="cls-2" cx="37.57" cy="34.76" rx="12.44" ry="2.96"/><path class="cls-3" d="M36.86,34.76S38.93,23.4,33.5,19.85,19,16.2,19,16.2"/><path class="cls-3" d="M37.24,29.87s-1-7.26,5.34-8.24,9.27.82,9.27.82"/><line class="cls-3" x1="35.54" y1="21.84" x2="37.57" y2="17.23"/><path class="cls-4" d="M37.57,17.09s-5.18.19-5.56-2.92C31.67,11.37,35.36,13.83,37.57,17.09Z"/><path class="cls-4" d="M51.47,22.52s1.83,3.15,5,3.19S55.4,22.66,51.47,22.52Z"/><path class="cls-4" d="M19.2,16.63s-4.36,1.08-6.43-2.55C10.94,10.89,18.1,11.71,19.2,16.63Z"/><path class="cls-4" d="M37.57,17.23s-.11-4,3.19-5.34C43.66,10.71,41.85,16.85,37.57,17.23Z"/><path class="cls-4" d="M51.47,22.16s1.41-3.57,5-3.21C59.54,19.26,55.43,23.82,51.47,22.16Z"/><rect class="cls-5" width="70" height="70"/></g></g></svg>