<svg xmlns="http://www.w3.org/2000/svg" viewBox="0 0 70 70"><defs><style>.cls-1,.cls-4{fill:none;}.cls-1{stroke:#31a5f7;stroke-miterlimit:10;stroke-width:0.88px;}.cls-2{fill:#31a5f7;}.cls-3{fill:#c2e5ff;}</style></defs><title>102h</title><g id="Layer_2" data-name="Layer 2"><g id="Layer_1-2" data-name="Layer 1"><path class="cls-1" d="M34.74,43.5s2.94-23.16-2.16-26.89C28,13.26,19.89,13.42,19.89,13.42"/><path class="cls-1" d="M35.41,36.17s1-6.31,6.58-6.06,7.81,2.32,7.81,2.32"/><line class="cls-1" x1="34.8" y1="20.58" x2="39.56" y2="20.41"/><path class="cls-2" d="M39.63,20.49s-1.63-2.74-.32-5.15S42.63,18.17,39.63,20.49Z"/><path class="cls-2" d="M49.46,32.17s1,4.28,3.7,3.6S52.81,33,49.46,32.17Z"/><path class="cls-2" d="M20.35,13.77s-3.56.88-5.25-2.08C13.61,9.09,19.44,9.76,20.35,13.77Z"/><path class="cls-2" d="M39.62,20.57s2.74-1.93,5.16,0C46.91,22.33,41.72,23.69,39.62,20.57Z"/><path class="cls-2" d="M49.53,32.11s1.82-2.81,4.81-1.89C57,31,52.64,34.23,49.53,32.11Z"/><path class="cls-1" d="M35.43,27.9s-4.17,4.81-8.68,1.51-5.24-6.24-5.24-6.24"/><path class="cls-2" d="M21.51,23.36s2.13-4.08-.81-5.05C18.09,17.45,19.17,20.84,21.51,23.36Z"/><path class="cls-2" d="M21.57,23.58s-3.08,1.33-5.05-1.08C14.78,20.38,20.15,20.1,21.57,23.58Z"/><path class="cls-2" d="M30.75,56.6V59a.84.84,0,0,0,.83.84h5.31a.85.85,0,0,0,.84-.84V56.6"/><ellipse class="cls-3" cx="34.24" cy="50.33" rx="8.21" ry="6.83"/><rect class="cls-4" width="70" height="70"/></g></g></svg>