<svg id="Calque_1" data-name="Calque 1" xmlns="http://www.w3.org/2000/svg" viewBox="0 0 70 70"><defs><style>.cls-1{fill:#94d2ff;}.cls-2{fill:#31a5f7;}.cls-3{fill:#c2e5ff;}</style></defs><title>Missing_icons</title><polygon class="cls-1" points="55.04 23.5 17.47 23.5 17.32 55.33 54.9 55.33 55.04 23.5"/><polygon class="cls-2" points="17.47 23.5 21.26 22.18 50.99 22.18 55.04 23.5 17.47 23.5"/><path class="cls-2" d="M35,55.08a1.07,1.07,0,0,1,.9-.93c.78-.08.89.93.89.93v1s0,.74-.22.74H35.23s-.23-.07-.23-.45Z"/><path class="cls-2" d="M32.44,55.14s.07-1,.87-1.08.95,1.08.95,1.08l-.56,1.52c-.08.22-.06.29-.23.29H32.22a.33.33,0,0,1-.23-.34A9.46,9.46,0,0,1,32.44,55.14Z"/><path class="cls-2" d="M39.26,55.14s-.07-1-.87-1.08-1,1.08-1,1.08L38,56.66c.08.22.06.29.23.29h1.24a.33.33,0,0,0,.23-.34A9.62,9.62,0,0,0,39.26,55.14Z"/><rect class="cls-2" x="16.88" y="37.74" width="38.49" height="1.61"/><polyline class="cls-3" points="16.89 37.74 18.69 35.55 52.62 35.55 55.38 37.74"/><rect class="cls-3" x="31.99" y="29.11" width="8.08" height="6.44"/><rect class="cls-1" x="32.29" y="29.52" width="3.82" height="5.22"/><rect class="cls-1" x="36.26" y="29.52" width="3.47" height="5.22"/><rect class="cls-3" x="16.88" y="39.35" width="1.81" height="16.15"/><rect class="cls-3" x="53.57" y="39.35" width="1.81" height="16.15"/><path class="cls-2" d="M21.05,35.55l-.36.79s0,.16.12.17a.21.21,0,0,0,.19-.12l.32-.84Z"/><path class="cls-2" d="M23.65,35.55l-.2.79s0,.16.12.17a.19.19,0,0,0,.18-.12l.17-.84Z"/><path class="cls-2" d="M26.25,35.55l-.07.79s0,.16.12.17a.19.19,0,0,0,.18-.12l0-.84Z"/><path class="cls-2" d="M28.54,35.55l0,.79s0,.16.12.17a.21.21,0,0,0,.19-.12v-.84Z"/><path class="cls-2" d="M30.61,35.55l0,.79s0,.16.12.17a.19.19,0,0,0,.18-.12v-.84Z"/><path class="cls-2" d="M33,35.55l0,.79s0,.16.12.17a.21.21,0,0,0,.19-.12v-.84Z"/><path class="cls-2" d="M35.4,35.55l0,.79s0,.16.13.17a.2.2,0,0,0,.18-.12v-.84Z"/><path class="cls-2" d="M37.4,35.55l0,.79s0,.16.12.17a.21.21,0,0,0,.19-.12v-.84Z"/><path class="cls-2" d="M39.76,35.55l0,.79s0,.16.12.17a.19.19,0,0,0,.18-.12v-.84Z"/><path class="cls-2" d="M42.37,35.55l0,.79s0,.16.13.17a.2.2,0,0,0,.18-.12v-.84Z"/><path class="cls-2" d="M50.69,35.55l.44.79s0,.16-.12.17a.19.19,0,0,1-.18-.12l-.41-.84Z"/><path class="cls-2" d="M48.09,35.55l.2.79s0,.16-.12.17a.19.19,0,0,1-.18-.12l-.17-.84Z"/><path class="cls-2" d="M45.49,35.55l.08.79s0,.16-.13.17a.2.2,0,0,1-.18-.12l0-.84Z"/><polygon class="cls-2" points="52.37 35 19.04 35 18.69 35.55 52.72 35.55 52.37 35"/></svg>