<svg xmlns="http://www.w3.org/2000/svg" viewBox="0 0 70 70"><defs><style>.cls-1{fill:#a6daff;}.cls-2,.cls-4{fill:none;}.cls-2{stroke:#31a5f7;stroke-linecap:round;stroke-miterlimit:10;stroke-width:0.87px;}.cls-3{fill:#c2e5ff;}</style></defs><title>119h</title><g id="Layer_2" data-name="Layer 2"><g id="Layer_1-2" data-name="Layer 1"><path class="cls-1" d="M14.23,51H55.77a0,0,0,0,1,0,0v8.18a1.47,1.47,0,0,1-1.47,1.47H15.7a1.47,1.47,0,0,1-1.47-1.47V51A0,0,0,0,1,14.23,51Z"/><line class="cls-2" x1="21.05" y1="50.99" x2="21.05" y2="56.43"/><line class="cls-2" x1="27.96" y1="50.99" x2="27.96" y2="56.43"/><line class="cls-2" x1="34.87" y1="50.99" x2="34.87" y2="56.43"/><line class="cls-2" x1="41.78" y1="50.99" x2="41.78" y2="56.43"/><line class="cls-2" x1="48.7" y1="50.99" x2="48.7" y2="56.43"/><path class="cls-3" d="M10.72,51V23.28A13.92,13.92,0,0,1,24.64,9.36h0A13.92,13.92,0,0,1,38.57,23.28h0a4.8,4.8,0,0,0,4.8,4.8h7.54c5.65,0,8.37,3.12,8.37,7.86V51Z"/><rect class="cls-4" width="70" height="70"/></g></g></svg>