<svg xmlns="http://www.w3.org/2000/svg" viewBox="0 0 39.8 39.8"><defs><style>.cls-1{fill:none;}.cls-2{fill:#a6daff;}.cls-3{fill:#31a5f7;}.cls-4{fill:#94d2ff;}.cls-5{fill:#c2e5ff;}</style></defs><title>11h</title><g id="Layer_2" data-name="Layer 2"><g id="Icons"><rect class="cls-1" width="39.8" height="39.8"/><path class="cls-2" d="M27.12,14.21,25.93,29.54A1.61,1.61,0,0,1,24.33,31h-8.9a1.61,1.61,0,0,1-1.6-1.48L12.64,14.21"/><rect class="cls-3" x="16.88" y="20.74" width="0.93" height="2.35" rx="0.46" ry="0.46"/><rect class="cls-3" x="19.63" y="20.74" width="0.93" height="2.35" rx="0.46" ry="0.46"/><rect class="cls-3" x="22.37" y="20.74" width="0.93" height="2.35" rx="0.46" ry="0.46"/><rect class="cls-3" x="16.88" y="25.38" width="0.93" height="2.35" rx="0.46" ry="0.46"/><rect class="cls-3" x="19.63" y="25.38" width="0.93" height="2.35" rx="0.46" ry="0.46"/><rect class="cls-3" x="22.37" y="25.38" width="0.93" height="2.35" rx="0.46" ry="0.46"/><path class="cls-4" d="M20.9,10l-.6,2.89,7.58-.45L27,10.31a1.37,1.37,0,0,0-1-.84L22.66,8.8a1.39,1.39,0,0,0-1.48.7L20.9,10"/><rect class="cls-5" x="11.38" y="11.96" width="17.04" height="2.25" rx="1.13" ry="1.13"/><path class="cls-3" d="M21.07,14.15v4.16a.46.46,0,0,1-.65.41l-6.06-2.9-.7-3.2a1.57,1.57,0,0,1,.17-1.14h0a1.64,1.64,0,0,1,1.13-.8l5.87-.86A.15.15,0,0,1,21,10Z"/></g></g></svg>