<svg xmlns="http://www.w3.org/2000/svg" viewBox="0 0 70 70"><defs><style>.cls-1{fill:#c2e5ff;}.cls-2{fill:none;}.cls-3{fill:#a6daff;}.cls-4{fill:#31a5f7;}</style></defs><title>127h</title><g id="Layer_2" data-name="Layer 2"><g id="Layer_1-2" data-name="Layer 1"><rect class="cls-1" x="12.13" y="13.57" width="45.73" height="15.34"/><rect class="cls-1" x="12.13" y="39.32" width="45.73" height="15.34"/><path class="cls-2" d="M39.38,51.25,12.14,52.9V46.24A151.86,151.86,0,0,1,32.25,49,37.11,37.11,0,0,1,39.38,51.25Z"/><path class="cls-3" d="M57.86,21.24V45L32.25,49a151.86,151.86,0,0,0-20.11-2.76v-25Z"/><polygon class="cls-3" points="39.38 51.25 57.87 50.13 57.87 56.43 12.14 56.43 12.14 52.9 39.38 51.25"/><path class="cls-4" d="M33.43,32.32l-2.69.4a4.32,4.32,0,0,0-3.46,2.86l-.73,2.08,2-.58a4.36,4.36,0,0,0,3.09-3.61l.33-2.6"/><circle class="cls-4" cx="39.02" cy="30.1" r="0.82"/><circle class="cls-4" cx="43.85" cy="39.72" r="0.82"/><rect class="cls-2" width="70" height="70"/></g></g></svg>