<svg xmlns="http://www.w3.org/2000/svg" viewBox="0 0 70 70"><defs><style>.cls-1,.cls-5{fill:none;}.cls-1{stroke:#31a5f7;stroke-linecap:round;stroke-linejoin:round;stroke-width:2px;}.cls-2{fill:#31a5f7;}.cls-3{fill:#c2e5ff;}.cls-4{fill:#94d2ff;}</style></defs><title>128h</title><g id="Layer_2" data-name="Layer 2"><g id="Layer_1-2" data-name="Layer 1"><line class="cls-1" x1="23.26" y1="42.42" x2="20.53" y2="32.46"/><path class="cls-1" d="M44.31,38.37l3-8.49A3.15,3.15,0,0,0,47.35,28l-2.16-7.94"/><polyline class="cls-1" points="46.4 12.28 48.37 19.23 41.91 20.98"/><path class="cls-2" d="M16.76,31.49V29.73a1.08,1.08,0,0,1,1.08-1.08h.95a.44.44,0,0,1,.43.43h0a.35.35,0,0,0,.34.35h2.62a2,2,0,0,1,2,2h0a1,1,0,0,1-.95,1H17.62A.87.87,0,0,1,16.76,31.49Z"/><path class="cls-3" d="M54.45,46.52a8.15,8.15,0,0,1-8.15,8.15h-25a5.8,5.8,0,0,1-1-11.5l24.51-4.66a7.92,7.92,0,0,1,1.53-.14,8.17,8.17,0,0,1,8.14,8.15Z"/><rect class="cls-2" x="20.14" y="54.67" width="29.16" height="4.05" rx="2.02" ry="2.02"/><circle class="cls-2" cx="43.23" cy="46.8" r="4.38"/><path class="cls-4" d="M35.35,51.4a.5.5,0,0,1-.22-.95L43,46.62a.51.51,0,0,1,.67.23.5.5,0,0,1-.23.67l-7.88,3.83A.54.54,0,0,1,35.35,51.4Z"/><path class="cls-4" d="M37.21,52.77a.49.49,0,0,1-.3-.1L33,49.77a.5.5,0,1,1,.6-.8l3.88,2.9a.5.5,0,0,1-.3.9Z"/><rect class="cls-5" width="70" height="70"/></g></g></svg>