<svg xmlns="http://www.w3.org/2000/svg" viewBox="0 0 70 70"><defs><style>.cls-1{fill:#94d2ff;}.cls-2,.cls-3,.cls-7{fill:none;}.cls-2,.cls-3{stroke:#31a5f7;stroke-linecap:round;}.cls-2{stroke-miterlimit:10;}.cls-3{stroke-linejoin:round;stroke-width:2px;}.cls-4{fill:#31a5f7;}.cls-5{fill:#c2e5ff;}.cls-6{fill:#a6daff;}</style></defs><title>129h</title><g id="Layer_2" data-name="Layer 2"><g id="Layer_1-2" data-name="Layer 1"><rect class="cls-1" x="16.34" y="49.64" width="37.02" height="1.39" rx="0.7" ry="0.7"/><line class="cls-2" x1="55.25" y1="37.82" x2="10.15" y2="37.82"/><line class="cls-2" x1="14.43" y1="14.8" x2="48.64" y2="37.82"/><line class="cls-2" x1="59.85" y1="22.82" x2="48.64" y2="37.82"/><line class="cls-2" x1="35.55" y1="12.97" x2="26.42" y2="27.5"/><line class="cls-2" x1="13.85" y1="37.82" x2="17.97" y2="17.18"/><polyline class="cls-3" points="35.74 17.34 44.62 22.23 44.61 32.83 53.36 23.68"/><ellipse class="cls-4" cx="56.09" cy="18.33" rx="2.97" ry="2.99"/><ellipse class="cls-5" cx="24.39" cy="30.89" rx="3.89" ry="3.91"/><ellipse class="cls-4" cx="24.39" cy="30.89" rx="1.67" ry="1.68"/><rect class="cls-5" x="18.11" y="47.02" width="2.37" height="6.65" rx="1.18" ry="1.18"/><rect class="cls-6" x="20.48" y="45.18" width="2.37" height="10.32" rx="1.18" ry="1.18"/><rect class="cls-5" x="22.84" y="43.15" width="2.37" height="14.38" rx="1.18" ry="1.18"/><rect class="cls-5" x="49.61" y="47.02" width="2.37" height="6.65" rx="1.18" ry="1.18" transform="translate(101.6 100.68) rotate(-180)"/><rect class="cls-6" x="47.25" y="45.18" width="2.37" height="10.32" rx="1.18" ry="1.18" transform="translate(96.86 100.68) rotate(180)"/><rect class="cls-5" x="44.88" y="43.15" width="2.37" height="14.38" rx="1.18" ry="1.18" transform="translate(92.13 100.68) rotate(-180)"/><rect class="cls-7" width="70" height="70"/></g></g></svg>