<svg xmlns="http://www.w3.org/2000/svg" viewBox="0 0 70 70"><defs><style>.cls-1{fill:#31a5f7;}.cls-2{fill:#c2e5ff;}.cls-3{fill:#94d2ff;}.cls-4{fill:none;}</style></defs><title>131h</title><g id="Layer_2" data-name="Layer 2"><g id="Layer_1-2" data-name="Layer 1"><path class="cls-1" d="M16,59.23a1,1,0,0,1-1-1V47.7a1,1,0,1,1,2,0V58.23A1,1,0,0,1,16,59.23Z"/><path class="cls-1" d="M54,59.23a1,1,0,0,1-1-1V47.7a1,1,0,0,1,2,0V58.23A1,1,0,0,1,54,59.23Z"/><path class="cls-1" d="M54,54.49H16.4a1,1,0,1,1,0-2H54a1,1,0,0,1,0,2Z"/><path class="cls-2" d="M56,47.7H14.05a1.75,1.75,0,0,1-1.69-2.2l9-33.43a1.74,1.74,0,0,1,1.69-1.3H46.92a1.74,1.74,0,0,1,1.69,1.3l9,33.43A1.75,1.75,0,0,1,56,47.7Z"/><rect class="cls-1" x="17.04" y="22.6" width="35.92" height="6.59"/><rect class="cls-3" x="34.5" y="29.19" width="1" height="18.52"/><rect class="cls-3" x="34.5" y="11.28" width="1" height="11.32"/><rect class="cls-4" width="70" height="70"/></g></g></svg>