<?xml version="1.0" encoding="utf-8"?>
<!-- Generator: Adobe Illustrator 22.0.1, SVG Export Plug-In . SVG Version: 6.00 Build 0)  -->
<svg version="1.1" id="Calque_1" xmlns="http://www.w3.org/2000/svg" xmlns:xlink="http://www.w3.org/1999/xlink" x="0px" y="0px"
	 viewBox="0 0 70 70" style="enable-background:new 0 0 70 70;" xml:space="preserve">
<style type="text/css">
	.st0{fill:#C2E5FF;}
	.st1{fill:#A6DAFF;}
	.st2{fill:#31A5F7;}
	.st3{fill:none;stroke:#31A5F7;stroke-width:0.93;stroke-linecap:round;stroke-miterlimit:10;}
</style>
<path class="st0" d="M52.8,39.4l2.9,9.8c0.1,0.5-0.3,0.9-0.9,1c-0.1,0-0.2,0-0.3,0l-4.4-7.9l-29.6,0.1l-4.6,7.8
	c-0.7,0-1.2-0.4-1.2-0.9c0-0.1,0-0.2,0-0.2l3.3-9.8L52.8,39.4z"/>
<path class="st1" d="M55.2,39.4l3.4,9.8c0.2,0.5-0.3,0.9-1.1,1c-0.1,0-0.2,0-0.3,0l-5.1-4.6l-34,0.1l-5.4,4.5
	c-0.8,0-1.4-0.4-1.4-0.9c0-0.1,0-0.2,0.1-0.2l3.8-9.8L55.2,39.4z"/>
<path class="st2" d="M12.7,37.8h44.6c0.7,0,1.3,0.4,1.3,0.8v0.1c0,0.5-0.6,0.8-1.3,0.8H12.7c-0.7,0-1.3-0.4-1.3-0.8v-0.1
	C11.4,38.1,12,37.8,12.7,37.8z"/>
<rect x="19.1" y="40.3" class="st0" width="7.4" height="4.5"/>
<line class="st3" x1="22" y1="42.5" x2="23.7" y2="42.5"/>
<rect x="44.2" y="40.3" class="st0" width="7.4" height="4.5"/>
<line class="st3" x1="47.1" y1="42.5" x2="48.9" y2="42.5"/>
<rect x="27.3" y="40.3" class="st2" width="16.1" height="4.5"/>
<rect x="27.3" y="42.5" class="st0" width="16.1" height="0.4"/>
</svg>
