<svg xmlns="http://www.w3.org/2000/svg" viewBox="0 0 39.8 39.8"><defs><style>.cls-1{fill:none;}.cls-2{fill:#a6daff;}.cls-3{fill:#31a5f7;}.cls-4{fill:#c2e5ff;}</style></defs><title>13h</title><g id="Layer_2" data-name="Layer 2"><g id="Icons"><rect class="cls-1" width="39.8" height="39.8"/><path class="cls-2" d="M11,8.61H28.84a.66.66,0,0,1,.66.66V30.58a.62.62,0,0,1-.62.62h-18a.62.62,0,0,1-.62-.62V9.26A.66.66,0,0,1,11,8.61Z"/><rect class="cls-3" x="10.3" y="12.06" width="19.2" height="1"/><ellipse class="cls-4" cx="19.9" cy="22.21" rx="5.68" ry="5.62"/><ellipse class="cls-3" cx="19.9" cy="22.16" rx="4.27" ry="4.23"/><ellipse class="cls-3" cx="26.6" cy="10.64" rx="0.64" ry="0.63"/><ellipse class="cls-3" cx="23.9" cy="10.64" rx="0.64" ry="0.63"/><path class="cls-3" d="M19,11.14H12.87a.5.5,0,0,1-.5-.5.5.5,0,0,1,.5-.5H19a.5.5,0,0,1,.5.5A.51.51,0,0,1,19,11.14Z"/></g></g></svg>