<svg xmlns="http://www.w3.org/2000/svg" viewBox="0 0 39.8 39.8"><defs><style>.cls-1,.cls-5{fill:none;}.cls-2{fill:#a6daff;}.cls-3{fill:#31a5f7;}.cls-4{fill:#c2e5ff;}.cls-5{stroke:#fff;stroke-linecap:round;stroke-linejoin:round;stroke-width:0.5px;}</style></defs><title>14h</title><g id="Layer_2" data-name="Layer 2"><g id="Icons"><rect class="cls-1" width="39.8" height="39.8"/><path class="cls-2" d="M11,8.61H28.84a.66.66,0,0,1,.66.66V30.58a.62.62,0,0,1-.62.62h-18a.62.62,0,0,1-.62-.62V9.26A.66.66,0,0,1,11,8.61Z"/><rect class="cls-3" x="10.3" y="12.06" width="19.2" height="1"/><ellipse class="cls-4" cx="19.9" cy="22.21" rx="6.7" ry="6.64"/><ellipse class="cls-3" cx="19.9" cy="22.15" rx="5.05" ry="5"/><ellipse class="cls-3" cx="16.21" cy="10.64" rx="0.64" ry="0.63"/><ellipse class="cls-3" cx="27.07" cy="10.64" rx="0.64" ry="0.63"/><ellipse class="cls-3" cx="13.5" cy="10.64" rx="0.64" ry="0.63"/><path class="cls-5" d="M17.88,19.9a1.17,1.17,0,0,1,0,1.67h0a1.17,1.17,0,0,0,0,1.66l.08.08a1.16,1.16,0,0,1,.05,1.6"/><path class="cls-5" d="M21.84,19.9a1.17,1.17,0,0,1,0,1.67h0a1.16,1.16,0,0,0,0,1.66l.08.08a1.16,1.16,0,0,1,0,1.6"/><path class="cls-5" d="M19.77,19.9a1.17,1.17,0,0,1,0,1.67h0a1.16,1.16,0,0,0,0,1.66l.08.08a1.16,1.16,0,0,1,0,1.6"/></g></g></svg>