<svg xmlns="http://www.w3.org/2000/svg" viewBox="0 0 39.8 39.8"><defs><style>.cls-1{fill:none;}.cls-2{fill:#a6daff;}.cls-3{fill:#31a5f7;}.cls-4{fill:#c2e5ff;}</style></defs><title>16h</title><g id="Layer_2" data-name="Layer 2"><g id="Icons"><rect class="cls-1" width="39.8" height="39.8"/><path class="cls-2" d="M11.58,8.36H28.12a.62.62,0,0,1,.62.62v22a0,0,0,0,1,0,0H11a0,0,0,0,1,0,0V9A.62.62,0,0,1,11.58,8.36Z"/><path class="cls-3" d="M12.68,17.79V23.4h3.58V17.79a.32.32,0,0,0-.31-.33H13A.31.31,0,0,0,12.68,17.79Z"/><path class="cls-3" d="M13.88,26.52V31h5.49V26.52c0-.15-.21-.26-.47-.26H14.34C14.08,26.26,13.88,26.37,13.88,26.52Z"/><path class="cls-4" d="M17.33,17.79V23.4h3.58V17.79a.32.32,0,0,0-.3-.33h-3A.32.32,0,0,0,17.33,17.79Z"/><rect class="cls-4" x="23.48" y="18.07" width="1" height="5.29" transform="translate(-2.24 2.93) rotate(-6.67)"/><rect class="cls-4" x="25.86" y="18.08" width="1" height="5.27" transform="translate(-2.04 2.91) rotate(-6.07)"/><rect class="cls-4" x="23.55" y="11.25" width="0.86" height="3.94" transform="translate(-1.77 3.9) rotate(-8.96)"/><rect class="cls-4" x="25.93" y="11.26" width="0.86" height="3.93" transform="translate(-1.61 3.88) rotate(-8.16)"/><rect class="cls-4" x="18.9" y="11.25" width="0.86" height="3.94" transform="translate(-1.82 3.17) rotate(-8.96)"/><rect class="cls-4" x="21.28" y="11.26" width="0.86" height="3.93" transform="translate(-1.66 3.22) rotate(-8.16)"/><rect class="cls-4" x="14.29" y="12.79" width="3.93" height="0.86" transform="translate(0.87 27.44) rotate(-81.85)"/><rect class="cls-4" x="23.5" y="26.62" width="0.96" height="4.38" transform="translate(-3.81 3.65) rotate(-8.07)"/><rect class="cls-4" x="25.88" y="26.63" width="0.96" height="4.36" transform="translate(-3.47 3.61) rotate(-7.35)"/><rect class="cls-4" x="18.88" y="28.33" width="4.36" height="0.96" transform="translate(-10.21 46.02) rotate(-82.66)"/><rect class="cls-3" x="10.95" y="14.83" width="17.79" height="1"/><rect class="cls-3" x="10.95" y="22.98" width="17.79" height="1"/><rect class="cls-3" x="9.52" y="30.44" width="20.75" height="1"/></g></g></svg>