<svg id="Calque_1" data-name="Calque 1" xmlns="http://www.w3.org/2000/svg" viewBox="0 0 70 70"><defs><style>.cls-1{fill:#c2e5ff;}.cls-2{fill:#a6daff;}.cls-3,.cls-5{fill:none;}.cls-3{stroke:#31a5f7;stroke-linecap:round;stroke-miterlimit:10;}.cls-4{fill:#31a5f7;}</style></defs><title>Missing_icons</title><g id="Layer_2" data-name="Layer 2"><g id="Layer_1-2" data-name="Layer 1-2"><path class="cls-1" d="M55,39l3.15,15.6a1.4,1.4,0,0,1-1,1.66,1.33,1.33,0,0,1-.28,0L52.13,43.72l-31.75.11-5,12.44a1.34,1.34,0,0,1-1.31-1.38,1.73,1.73,0,0,1,.05-.38l3.52-15.57Z"/><path class="cls-2" d="M56.2,39l3.37,15.6a1.39,1.39,0,0,1-1.06,1.66l-.3,0L53.1,43.72l-34,.11L13.79,56.27a1.39,1.39,0,0,1-1.4-1.38,1.73,1.73,0,0,1,0-.38l3.77-15.57Z"/><line class="cls-3" x1="21.76" y1="41.36" x2="50.19" y2="41.36"/><path class="cls-1" d="M21,36.18l-1.44-3.44a.52.52,0,0,1,.28-.68.65.65,0,0,1,.2,0h7a.52.52,0,0,1,.45.27l2,3.55H34V37H21Z"/><rect class="cls-4" x="12.4" y="36.44" width="47.2" height="2.8" rx="1.3" ry="1.3"/><rect class="cls-5" x="1" y="3.51" width="70" height="70"/><rect class="cls-4" x="48.47" y="30.88" width="0.43" height="3.19" rx="0.22" ry="0.22"/><rect class="cls-4" x="49.21" y="29.88" width="0.43" height="3.19" rx="0.22" ry="0.22" transform="translate(5.59 -7.41) rotate(9.08)"/><rect class="cls-4" x="49.88" y="29.88" width="0.43" height="3.19" rx="0.22" ry="0.22" transform="translate(13.82 -15.26) rotate(20.04)"/><rect class="cls-1" x="47.19" y="32.02" width="3.42" height="4.42"/></g></g></svg>