<svg xmlns="http://www.w3.org/2000/svg" viewBox="0 0 39.8 39.8"><defs><style>.cls-1,.cls-3{fill:none;}.cls-2{fill:#a6daff;}.cls-3{stroke:#94d2ff;stroke-miterlimit:10;}.cls-4{fill:#31a5f7;}.cls-5{fill:#c2e5ff;}</style></defs><title>1h</title><g id="Layer_2" data-name="Layer 2"><g id="Icons"><rect class="cls-1" width="39.8" height="39.8"/><rect class="cls-2" x="12.82" y="24.45" width="14.26" height="3.18" rx="0.56" ry="0.56"/><line class="cls-3" x1="19.95" y1="17.78" x2="19.95" y2="24.8"/><rect class="cls-2" x="8.74" y="13.68" width="22.32" height="4.59" rx="0.72" ry="0.72"/><rect class="cls-4" x="9.88" y="14.8" width="20.04" height="2.35" rx="0.49" ry="0.49"/><path class="cls-5" d="M12.66,19.83a.25.25,0,0,1-.25-.25V12.43a.25.25,0,0,1,.5,0v7.15A.25.25,0,0,1,12.66,19.83Z"/><path class="cls-5" d="M27.47,19.83a.25.25,0,0,1-.25-.25V12.43a.25.25,0,0,1,.25-.25.25.25,0,0,1,.25.25v7.15A.25.25,0,0,1,27.47,19.83Z"/></g></g></svg>