<svg xmlns="http://www.w3.org/2000/svg" viewBox="0 0 70 70"><defs><style>.cls-1{fill:#c2e5ff;}.cls-2{fill:#87cafa;}.cls-3{fill:#94d2ff;}.cls-4{fill:#31a5f7;}.cls-5{fill:none;}</style></defs><title>22h</title><g id="Layer_2" data-name="Layer 2"><g id="Layer_1-2" data-name="Layer 1"><path class="cls-1" d="M51.19,28H53a5,5,0,0,1,5,5V44.59a1.12,1.12,0,0,1-1.12,1.11H13.13A1.12,1.12,0,0,1,12,44.59V32.94a5,5,0,0,1,5-5h1.79"/><rect class="cls-2" x="18.81" y="22.77" width="10.79" height="16.09" rx="1.26" ry="1.26"/><rect class="cls-3" x="29.6" y="22.77" width="10.79" height="16.09" rx="1.26" ry="1.26"/><rect class="cls-2" x="40.4" y="22.77" width="10.79" height="16.09" rx="1.26" ry="1.26"/><rect class="cls-4" x="15.25" y="45.7" width="3.56" height="1.53"/><rect class="cls-4" x="50.46" y="45.7" width="3.56" height="1.53"/><rect class="cls-4" x="18.81" y="35.47" width="32.38" height="3.75"/><rect class="cls-5" width="70" height="70"/></g></g></svg>