<svg id="Calque_1" data-name="Calque 1" xmlns="http://www.w3.org/2000/svg" viewBox="0 0 70 70"><defs><style>.cls-1{fill:#a6daff;}.cls-2{fill:#31a5f7;}.cls-3{fill:#c2e5ff;}.cls-4{fill:#94d2ff;}</style></defs><title>TV</title><rect class="cls-1" x="14.59" y="27.11" width="43.4" height="24.3"/><rect class="cls-2" x="15.84" y="28.32" width="40.9" height="20.63" rx="0.68" ry="0.68"/><path class="cls-3" d="M33.78,54.45h-6V56S29.27,58.7,37,58.63,45.28,56,45.28,56V54.45H33.78Z"/><path class="cls-4" d="M33.78,51.4v3.05h-6s1.47,2.68,9.15,2.61,8.33-2.61,8.33-2.61H39.13V51.4Z"/><path class="cls-2" d="M33.79,54.45V51.4h5.35v3.05a3.51,3.51,0,0,1-2.82,1C34.34,55.47,33.79,54.45,33.79,54.45Z"/><circle class="cls-2" cx="55.42" cy="50" r="0.42"/><circle class="cls-2" cx="53.34" cy="50" r="0.42"/><circle class="cls-2" cx="51.17" cy="50" r="0.42"/></svg>