<svg xmlns="http://www.w3.org/2000/svg" viewBox="0 0 70 70"><defs><style>.cls-1{fill:#a6daff;}.cls-2{fill:#c2e5ff;}.cls-3{fill:#31a5f7;}.cls-4{fill:#94d2ff;}.cls-5{fill:none;}</style></defs><title>26h</title><g id="Layer_2" data-name="Layer 2"><g id="Layer_1-2" data-name="Layer 1"><path class="cls-1" d="M35,56a1.32,1.32,0,0,1-1.32-1.32V13.82a1.33,1.33,0,1,1,2.65,0v40.9A1.32,1.32,0,0,1,35,56Z"/><path class="cls-1" d="M42.64,15.14H27.37a1.33,1.33,0,1,1,0-2.65H42.64a1.33,1.33,0,1,1,0,2.65Z"/><path class="cls-2" d="M34.57,55.25c-.29-.18-7-4.53-7-16h1.77c0,10.46,6.1,14.43,6.16,14.47Z"/><path class="cls-2" d="M35.06,56.31c-13.62,0-15.93-16.46-16-16.62l1.75-.23c.08.61,2.13,15.09,14.2,15.09Z"/><path class="cls-2" d="M35.93,55.24l-1-1.46c.24-.16,5.73-4.07,5.73-14.49h1.77C42.43,50.7,36.19,55.06,35.93,55.24Z"/><path class="cls-2" d="M35.4,56.31V54.55c12.08,0,14.13-14.48,14.21-15.09l1.75.23C51.34,39.85,49,56.31,35.4,56.31Z"/><circle class="cls-3" cx="35" cy="55.28" r="2.23"/><path class="cls-4" d="M55.38,35.16a5.1,5.1,0,0,1-10.19,0"/><path class="cls-4" d="M45.19,35.16a5.1,5.1,0,0,1-10.19,0"/><path class="cls-4" d="M35,35.16a5.09,5.09,0,0,1-10.18,0"/><path class="cls-4" d="M24.82,35.16a5.1,5.1,0,0,1-10.19,0"/><circle class="cls-3" cx="13.95" cy="33.78" r="2.08"/><circle class="cls-3" cx="24.9" cy="33.78" r="2.08"/><circle class="cls-3" cx="45.19" cy="33.78" r="2.08"/><circle class="cls-3" cx="56.05" cy="33.78" r="2.08"/><rect class="cls-5" width="70" height="70"/></g></g></svg>