<svg id="Calque_1" data-name="Calque 1" xmlns="http://www.w3.org/2000/svg" viewBox="0 0 70 70"><defs><style>.cls-1{fill:#c2e5ff;}.cls-2{fill:#a6daff;}.cls-3{fill:#94d2ff;}.cls-4{fill:none;stroke:#31a5f7;stroke-linecap:round;stroke-miterlimit:10;stroke-width:0.93px;}.cls-5{fill:#31a5f7;}</style></defs><title>Missing_icons</title><path class="cls-1" d="M16.34,12v42.4H53.09V12ZM50.08,37.72H19.61l-.48-24.43H49.61Z"/><rect class="cls-2" x="17.77" y="21.68" width="33.76" height="1.08"/><rect class="cls-2" x="17.9" y="30.06" width="33.76" height="0.99"/><polygon class="cls-3" points="46.76 31.05 46.73 36.93 22.08 36.93 22.02 31.05 17.9 31.05 18.03 38.51 51.66 38.51 51.66 31.05 46.76 31.05"/><polygon class="cls-2" points="18.03 38.51 22.08 36.93 46.73 36.93 51.77 38.51 18.03 38.51"/><polygon class="cls-3" points="46.71 22.76 46.67 28.48 22.02 28.48 21.96 22.76 17.84 22.76 17.97 30.06 51.6 30.06 51.6 22.76 46.71 22.76"/><polygon class="cls-1" points="17.97 30.06 22.02 28.48 46.67 28.48 51.71 30.06 17.97 30.06"/><polygon class="cls-3" points="46.51 13.29 46.42 20.16 21.87 20.16 21.87 13.29 17.77 13.29 17.83 21.75 51.53 21.68 51.38 13.29 46.51 13.29"/><polygon class="cls-1" points="17.7 21.75 21.75 20.16 46.4 20.16 51.53 21.68 17.7 21.75"/><rect class="cls-3" x="18.03" y="40.74" width="14.46" height="4.53"/><line class="cls-4" x1="23.66" y1="43.01" x2="27.04" y2="43.01"/><rect class="cls-3" x="18.03" y="47.5" width="14.46" height="4.53"/><line class="cls-4" x1="23.66" y1="49.77" x2="27.04" y2="49.77"/><rect class="cls-3" x="34.04" y="40.84" width="17.49" height="11.19"/><line class="cls-4" x1="40.86" y1="46.45" x2="44.94" y2="46.45"/><rect class="cls-5" x="16.34" y="54.39" width="1.88" height="1.88"/><rect class="cls-5" x="51.53" y="54.39" width="1.57" height="1.57"/></svg>