<svg xmlns="http://www.w3.org/2000/svg" viewBox="0 0 70 70"><defs><style>.cls-1{fill:#c2e5ff;}.cls-2{fill:#94d2ff;}.cls-3{fill:#31a5f7;}.cls-4{fill:none;}</style></defs><title>37h</title><g id="Layer_2" data-name="Layer 2"><g id="Layer_1-2" data-name="Layer 1"><rect class="cls-1" x="18.31" y="8.04" width="33.38" height="51.28" rx="2.39" ry="2.39"/><rect class="cls-2" x="23.73" y="44.08" width="22.54" height="9.14"/><rect class="cls-2" x="23.73" y="29.11" width="22.54" height="9.14"/><rect class="cls-2" x="23.73" y="14.14" width="22.54" height="9.14"/><circle class="cls-3" cx="35" cy="18.7" r="1.43"/><circle class="cls-3" cx="35" cy="32.9" r="1.43"/><circle class="cls-3" cx="35" cy="48.65" r="1.43"/><path class="cls-3" d="M24.09,59.32h4.38a0,0,0,0,1,0,0V61a.93.93,0,0,1-.93.93H25a.93.93,0,0,1-.93-.93V59.32A0,0,0,0,1,24.09,59.32Z"/><path class="cls-3" d="M41.54,59.32h4.38a0,0,0,0,1,0,0V61A.93.93,0,0,1,45,62H42.47a.93.93,0,0,1-.93-.93V59.32A0,0,0,0,1,41.54,59.32Z"/><rect class="cls-4" width="70" height="70"/></g></g></svg>