<svg xmlns="http://www.w3.org/2000/svg" viewBox="0 0 70 70"><defs><style>.cls-1{fill:#c2e5ff;}.cls-2{fill:#94d2ff;}.cls-3{fill:#31a5f7;}.cls-4{fill:none;}</style></defs><title>38h</title><g id="Layer_2" data-name="Layer 2"><g id="Layer_1-2" data-name="Layer 1"><path class="cls-1" d="M16.55,28.23A7.15,7.15,0,0,0,9.4,35.38v7.47c0,4.81,11.46,8.71,25.6,8.71s25.6-3.9,25.6-8.71V35.38a7.15,7.15,0,0,0-7.15-7.15Z"/><path class="cls-2" d="M14.33,25.19v4.4c0,3.6,9.25,6.51,20.67,6.51s20.67-2.91,20.67-6.51v-4.4"/><ellipse class="cls-1" cx="35" cy="25.19" rx="20.67" ry="6.51"/><path class="cls-3" d="M56.42,38.66a1,1,0,0,1-.63-.23.85.85,0,0,1,0-1.24l.08-.09A1,1,0,0,1,57.11,37a.85.85,0,0,1,.19,1.21l-.2.22A.93.93,0,0,1,56.42,38.66Z"/><path class="cls-3" d="M33.55,43.75h-.43a.88.88,0,1,1,0-1.75h.42a.89.89,0,0,1,.91.88A.9.9,0,0,1,33.55,43.75Zm4.47,0a.9.9,0,0,1-.92-.84A.89.89,0,0,1,38,42l.4,0a.91.91,0,0,1,1,.83.89.89,0,0,1-.88.92l-.41,0Zm-9.35-.18H28.6l-.41,0a.9.9,0,0,1-.85-1,.91.91,0,0,1,1-.79l.4,0a.89.89,0,0,1,.85.94A.91.91,0,0,1,28.67,43.53Zm14.22-.18a.9.9,0,0,1-.92-.78.89.89,0,0,1,.81-1l.39-.05a.94.94,0,0,1,1,.76.89.89,0,0,1-.8,1l-.41.05ZM23.83,43h-.16l-.41-.07a.89.89,0,0,1-.74-1,.91.91,0,0,1,1.08-.7l.39.06a.89.89,0,0,1,.75,1A.92.92,0,0,1,23.83,43Zm23.86-.42a.91.91,0,0,1-.9-.68.87.87,0,0,1,.69-1l.38-.09a.92.92,0,0,1,1.12.64.86.86,0,0,1-.67,1.06l-.41.09ZM19.1,41.86a.79.79,0,0,1-.3,0l-.4-.13a.87.87,0,0,1-.56-1.12A1,1,0,0,1,19,40l.37.12A.86.86,0,0,1,20,41.27.92.92,0,0,1,19.1,41.86Zm33.23-.74a.93.93,0,0,1-.85-.53A.85.85,0,0,1,52,39.44l.35-.15a1,1,0,0,1,1.23.43.87.87,0,0,1-.45,1.17l-.39.16A1,1,0,0,1,52.33,41.12Z"/><path class="cls-3" d="M14.82,39.64a.92.92,0,0,1-.67-.28,1.91,1.91,0,0,1-.22-.25.85.85,0,0,1,.25-1.21,1,1,0,0,1,1.27.22h0l.05.05a.85.85,0,0,1,0,1.24A1,1,0,0,1,14.82,39.64Z"/><path class="cls-3" d="M55.8,24.7c-.26-.16-6.36-3.87-16.8-1.16a9.79,9.79,0,0,0-3.4-.65V19a.6.6,0,1,0-1.2,0v3.85a9.61,9.61,0,0,0-3.42.66,23.73,23.73,0,0,0-16.72,1.1.59.59,0,0,0-.28.79.6.6,0,0,0,.54.35.62.62,0,0,0,.26-.06,22.81,22.81,0,0,1,15.43-1.15c.26.7,2,1.24,4.19,1.33h0v5.77a.6.6,0,1,0,1.2,0V25.92h0c2.22-.09,3.95-.64,4.2-1.34,9.62-2.32,15.3,1.11,15.36,1.15a.62.62,0,0,0,.32.09.6.6,0,0,0,.32-1.11Z"/><rect class="cls-4" width="70" height="70"/></g></g></svg>