<svg xmlns="http://www.w3.org/2000/svg" viewBox="0 0 70 70"><defs><style>.cls-1{fill:#c2e5ff;}.cls-2{fill:#a6daff;}.cls-3{fill:#94d2ff;}.cls-4{fill:#31a5f7;}.cls-5{fill:none;}</style></defs><title>39h</title><g id="Layer_2" data-name="Layer 2"><g id="Layer_1-2" data-name="Layer 1"><path class="cls-1" d="M25.08,14.75H57A2.27,2.27,0,0,1,59.22,17v3.53a0,0,0,0,1,0,0H22.81a0,0,0,0,1,0,0V17A2.27,2.27,0,0,1,25.08,14.75Z"/><rect class="cls-2" x="27.35" y="20.55" width="27.33" height="9.95"/><rect class="cls-1" x="30.83" y="22.71" width="20.37" height="5.38"/><polyline class="cls-3" points="22.81 41.12 22.81 20.55 27.35 20.55 27.35 43.1"/><path class="cls-3" d="M54.68,20.55h4.54a0,0,0,0,1,0,0v21.6A2.27,2.27,0,0,1,57,44.42h0a2.27,2.27,0,0,1-2.27-2.27V20.55a0,0,0,0,1,0,0Z"/><path class="cls-4" d="M13.38,47.49,29.1,34s3.79-3.06,6.68-.17.93,5.54.93,5.54L18.41,54.73"/><path class="cls-1" d="M25.37,37.22,18,26.3s-2.43-2.23-5.62.33-.55,6.66-.55,6.66l6.71,9.81"/><path class="cls-1" d="M18.51,48.48c1.73,1.73,1.95,4.32.48,5.79s-4.06,1.26-5.8-.48a4.26,4.26,0,0,1-.84-5.35,2.56,2.56,0,0,1,.36-.44C14.18,46.53,16.78,46.74,18.51,48.48Z"/><rect class="cls-5" width="70" height="70"/></g></g></svg>