<svg xmlns="http://www.w3.org/2000/svg" viewBox="0 0 70 70"><defs><style>.cls-1{fill:#c2e5ff;}.cls-2,.cls-4{fill:none;}.cls-2{stroke:#a6daff;stroke-miterlimit:10;stroke-width:1.27px;}.cls-3{fill:#31a5f7;}</style></defs><title>45h</title><g id="Layer_2" data-name="Layer 2"><g id="Layer_1-2" data-name="Layer 1"><path class="cls-1" d="M54,20.85a5.43,5.43,0,0,0-5.41-5.12h-11v2.54h11A2.88,2.88,0,0,1,51.41,21l1,17.94H25.65L26,32l-2.54-.14L22.3,59.77h2.55l.34-11.93H52.93l.37,11.93h2.54ZM25.32,45.3l.19-3.84H52.57l.21,3.84Z"/><path class="cls-1" d="M24.88,31.64H25a1.27,1.27,0,0,0,1.27-1.2c.34-6,5.58-10.4,10.31-12a1.27,1.27,0,0,0-.8-2.42c-5.52,1.81-11.64,7-12,14.23A1.27,1.27,0,0,0,24.88,31.64Z"/><path class="cls-2" d="M14.16,39.53h4.25a1.55,1.55,0,0,0,1.51-1.24l1.14-5.8"/><path class="cls-2" d="M23,30.37V23.53a3.74,3.74,0,0,1,3.74-3.74h0"/><path class="cls-3" d="M39,12,37.37,32.18a1.67,1.67,0,0,1-1.66,1.52H16.34a1.67,1.67,0,0,1,.21-3.32H34.17l1.54-18.61a1.68,1.68,0,0,1,1.8-1.53,1.7,1.7,0,0,1,1.42,1.06A1.67,1.67,0,0,1,39,12Z"/><path class="cls-3" d="M28.31,19.37v0a1.16,1.16,0,0,1-1.14,1.14H18.73a1.28,1.28,0,0,1-.52-.12,1.15,1.15,0,0,1-.29-1.83,1.12,1.12,0,0,1,.81-.33h8.44A1.14,1.14,0,0,1,28.31,19.37Z"/><rect class="cls-4" width="70" height="70"/></g></g></svg>