<svg xmlns="http://www.w3.org/2000/svg" viewBox="0 0 39.8 39.8"><defs><style>.cls-1{fill:none;}.cls-2{fill:#a6daff;}.cls-3{fill:#31a5f7;}.cls-4{fill:#94d2ff;}.cls-5{fill:#c2e5ff;}</style></defs><title>4h</title><g id="Layer_2" data-name="Layer 2"><g id="Icons"><rect class="cls-1" width="39.8" height="39.8"/><path class="cls-2" d="M17.48,19.37l14.37.2-7.8,7.75H12.83A4.87,4.87,0,0,1,8,22.48a4.27,4.27,0,0,1,4.28-4.25A3.73,3.73,0,0,1,16,22a3.27,3.27,0,0,1-3.28,3.27,2.87,2.87,0,0,1-2.88-2.86,2.51,2.51,0,0,1,2.52-2.51,2.2,2.2,0,0,1,2.22,2.2A1.94,1.94,0,0,1,12.61,24l-.31-1.65"/><ellipse class="cls-3" cx="18.46" cy="22.03" rx="1.13" ry="4.97" transform="translate(-4.58 39.2) rotate(-86.72)"/><ellipse class="cls-3" cx="27.09" cy="20.61" rx="0.25" ry="1.09" transform="translate(4.96 46.47) rotate(-86.72)"/><ellipse class="cls-3" cx="22.35" cy="25.68" rx="0.25" ry="1.09" transform="translate(-4.57 46.53) rotate(-86.72)"/><path class="cls-4" d="M15.37,23.84l5.94-5.3s2.39-2.89-.41-5.14a3.92,3.92,0,0,0-5.21.22L10,18.84"/><circle class="cls-3" cx="11.83" cy="22.27" r="3.86"/><circle class="cls-5" cx="11.96" cy="22.4" r="2.89"/><circle class="cls-3" cx="11.96" cy="22.4" r="1.54"/></g></g></svg>