<svg xmlns="http://www.w3.org/2000/svg" viewBox="0 0 70 70"><defs><style>.cls-1{fill:#31a5f7;}.cls-2{fill:#c2e5ff;}.cls-3{fill:#94d2ff;}.cls-4{fill:#a6daff;}.cls-5{fill:none;}</style></defs><title>51h</title><g id="Layer_2" data-name="Layer 2"><g id="Layer_1-2" data-name="Layer 1"><path class="cls-1" d="M24.55,61.21H22.8a1.08,1.08,0,0,1-1.08-1.08V44h3.91V60.13A1.08,1.08,0,0,1,24.55,61.21Z"/><path class="cls-1" d="M47.58,61.21H45.83a1.08,1.08,0,0,1-1.08-1.08V44h3.91V60.13A1.08,1.08,0,0,1,47.58,61.21Z"/><path class="cls-1" d="M32.22,55.13H30.48a1.08,1.08,0,0,1-1.08-1.08V44h3.9v10A1.08,1.08,0,0,1,32.22,55.13Z"/><path class="cls-1" d="M39.9,55.13H38.15a1.09,1.09,0,0,1-1.08-1.08V44H41v10A1.08,1.08,0,0,1,39.9,55.13Z"/><path class="cls-2" d="M24.27,37.53H45.73a4.35,4.35,0,0,1,4.35,4.35v0a2.85,2.85,0,0,1-2.85,2.85H22.77a2.85,2.85,0,0,1-2.85-2.85v0A4.35,4.35,0,0,1,24.27,37.53Z"/><rect class="cls-3" x="24.6" y="34.34" width="20.81" height="3.2" rx="1.46" ry="1.46"/><path class="cls-2" d="M44.21,34.34H25.79L24,22.38C23,15.24,28.19,8.79,35,8.79h0c6.81,0,12,6.45,11,13.59Z"/><path class="cls-4" d="M41.77,34.34H28.23l-1.29-8.79c-.77-5.25,3-10,8.06-10h0c5,0,8.83,4.74,8.06,10Z"/><rect class="cls-5" width="70" height="70"/></g></g></svg>