<svg xmlns="http://www.w3.org/2000/svg" viewBox="0 0 70 70"><defs><style>.cls-1{fill:#a6daff;}.cls-2{fill:#c2e5ff;}.cls-3{fill:#31a5f7;}.cls-4,.cls-5{fill:none;}.cls-4{stroke:#31a5f7;stroke-miterlimit:10;stroke-width:0.93px;}</style></defs><title>54h</title><g id="Layer_2" data-name="Layer 2"><g id="Layer_1-2" data-name="Layer 1"><path class="cls-1" d="M13.73,10.67H56.27a3.27,3.27,0,0,1,3.27,3.27V58.31a1,1,0,0,1-1,1H11.47a1,1,0,0,1-1-1V13.94A3.27,3.27,0,0,1,13.73,10.67Z"/><rect class="cls-2" x="16.64" y="26.4" width="36.71" height="25.93"/><polygon class="cls-3" points="42.39 34.53 27.61 34.53 23.56 44.21 46.44 44.21 42.39 34.53"/><rect class="cls-3" x="26.48" y="15.93" width="17.05" height="3.06" rx="1.53" ry="1.53"/><circle class="cls-3" cx="53.43" cy="17.04" r="1.95"/><circle class="cls-3" cx="16.57" cy="17.04" r="1.95"/><line class="cls-4" x1="53.36" y1="22.05" x2="16.64" y2="22.05"/><rect class="cls-5" width="70" height="70"/></g></g></svg>