<svg xmlns="http://www.w3.org/2000/svg" viewBox="0 0 70 70"><defs><style>.cls-1{fill:#a6daff;}.cls-2{fill:#c2e5ff;}.cls-3{fill:#31a5f7;}.cls-4{fill:none;}</style></defs><title>55h</title><g id="Layer_2" data-name="Layer 2"><g id="Layer_1-2" data-name="Layer 1"><path class="cls-1" d="M7.31,35.51H62.69a0,0,0,0,1,0,0v7.62a3.49,3.49,0,0,1-3.49,3.49H10.8a3.49,3.49,0,0,1-3.49-3.49V35.51A0,0,0,0,1,7.31,35.51Z"/><polygon class="cls-2" points="62.69 35.51 7.32 35.51 14.8 20.68 55.2 20.68 62.69 35.51"/><ellipse class="cls-3" cx="23.03" cy="27.71" rx="7.9" ry="3.2"/><ellipse class="cls-3" cx="47.24" cy="27.71" rx="7.9" ry="3.2"/><rect class="cls-3" x="13.98" y="46.62" width="4.1" height="2.69"/><rect class="cls-3" x="52.28" y="46.62" width="4.1" height="2.69"/><ellipse class="cls-3" cx="23.9" cy="41.15" rx="2" ry="1.98"/><ellipse class="cls-3" cx="46.1" cy="41.15" rx="2" ry="1.98"/><rect class="cls-4" width="70" height="70"/></g></g></svg>