<svg xmlns="http://www.w3.org/2000/svg" viewBox="0 0 70 70"><defs><style>.cls-1{fill:#c2e5ff;}.cls-2{fill:#31a5f7;}.cls-3{fill:#94d2ff;}.cls-4,.cls-5{fill:none;}.cls-4{stroke:#31a5f7;stroke-miterlimit:10;stroke-width:0.87px;}</style></defs><title>61h</title><g id="Layer_2" data-name="Layer 2"><g id="Layer_1-2" data-name="Layer 1"><polyline class="cls-1" points="52.94 51.04 52.94 48.94 56.19 48.94 56.19 51.04"/><path class="cls-2" d="M12.1,13.6H57.9a0,0,0,0,1,0,0v2A1.39,1.39,0,0,1,56.51,17h-43a1.39,1.39,0,0,1-1.39-1.39v-2a0,0,0,0,1,0,0Z" transform="translate(70 30.63) rotate(180)"/><rect class="cls-1" x="13.81" y="16.85" width="42.38" height="28.3" transform="translate(70 62.01) rotate(180)"/><path class="cls-1" d="M13.81,48.76h3.25a0,0,0,0,1,0,0v4.46a.66.66,0,0,1-.66.66H14.47a.66.66,0,0,1-.66-.66V48.76A0,0,0,0,1,13.81,48.76Z"/><circle class="cls-3" cx="54.43" cy="53.33" r="3.07"/><line class="cls-4" x1="13.81" y1="39.69" x2="56.19" y2="39.69"/><line class="cls-4" x1="13.81" y1="23.63" x2="56.19" y2="23.63"/><rect class="cls-2" x="13.81" y="45.16" width="42.38" height="3.78"/><rect class="cls-5" width="70" height="70"/></g></g></svg>