<svg xmlns="http://www.w3.org/2000/svg" viewBox="0 0 70 70"><defs><style>.cls-1{fill:#c2e5ff;}.cls-2{fill:#94d2ff;}.cls-3,.cls-5{fill:none;}.cls-3{stroke:#31a5f7;stroke-miterlimit:10;stroke-width:0.86px;}.cls-4{fill:#31a5f7;}</style></defs><title>63h</title><g id="Layer_2" data-name="Layer 2"><g id="Layer_1-2" data-name="Layer 1"><path class="cls-1" d="M17.84,52.49V15h4.22a7.6,7.6,0,0,0,4.16-1.2l1.11-.71c2.13-1.38,4.63-2.74,7.23-2.74,2.85,0,5.66,1.54,7.89,3.2A7.69,7.69,0,0,0,47,15h5.11V52.49"/><path class="cls-2" d="M49.26,49.65H20.67V17.84h1.39a10.53,10.53,0,0,0,5.69-1.65l1.11-.72a10.63,10.63,0,0,1,11.91.36h0a10.45,10.45,0,0,0,6.21,2h2.28Z"/><line class="cls-3" x1="20.67" y1="26.78" x2="49.26" y2="26.78"/><line class="cls-3" x1="20.67" y1="38.94" x2="49.26" y2="38.94"/><path class="cls-4" d="M20.12,55.33v2.58a.4.4,0,0,1-.4.4h0a.66.66,0,0,0-.66.67h0a.66.66,0,0,0,.66.67h3a.67.67,0,0,0,.67-.67h0a.67.67,0,0,0-.67-.67h0a.4.4,0,0,1-.4-.4V56"/><path class="cls-4" d="M49.36,55.33v2.58a.4.4,0,0,0,.4.4h0a.66.66,0,0,1,.66.67h0a.66.66,0,0,1-.66.67h-3a.67.67,0,0,1-.67-.67h0a.67.67,0,0,1,.67-.67h.05a.4.4,0,0,0,.4-.4V56"/><path class="cls-2" d="M52.16,55.7h-3.6l-5,2.47a2.38,2.38,0,0,1-1.85.12l-2.25-.8a2.4,2.4,0,0,0-2.69.81h0a2.39,2.39,0,0,1-3.77,0l0-.07a2.42,2.42,0,0,0-2.67-.78L28,58.29a2.38,2.38,0,0,1-1.85-.12l-5-2.47H17.85V52.06H52.16V55.7Z"/><rect class="cls-5" width="70" height="70"/></g></g></svg>