<svg xmlns="http://www.w3.org/2000/svg" viewBox="0 0 70 70"><defs><style>.cls-1{fill:#c2e5ff;}.cls-2{fill:#94d2ff;}.cls-3{fill:#a6daff;}.cls-4,.cls-6{fill:none;}.cls-4{stroke:#31a5f7;stroke-linecap:round;stroke-miterlimit:10;stroke-width:0.93px;}.cls-5{fill:#31a5f7;}</style></defs><title>64h</title><g id="Layer_2" data-name="Layer 2"><g id="Layer_1-2" data-name="Layer 1"><rect class="cls-1" x="12.33" y="15.76" width="11.34" height="23.06"/><rect class="cls-2" x="23.66" y="15.76" width="11.34" height="23.06"/><rect class="cls-2" x="35" y="15.76" width="11.34" height="23.06"/><rect class="cls-1" x="46.34" y="15.76" width="11.34" height="23.06"/><rect class="cls-1" x="12.33" y="38.82" width="11.34" height="15.52"/><rect class="cls-2" x="23.66" y="38.82" width="11.34" height="5.17"/><rect class="cls-2" x="35" y="38.82" width="11.34" height="5.17"/><rect class="cls-1" x="46.34" y="38.82" width="11.34" height="15.52"/><rect class="cls-3" x="23.66" y="43.99" width="11.34" height="5.17"/><rect class="cls-3" x="35" y="43.99" width="11.34" height="5.17"/><rect class="cls-2" x="23.66" y="49.17" width="11.34" height="5.17"/><rect class="cls-2" x="35" y="49.17" width="11.34" height="5.17"/><polygon class="cls-2" points="59.69 13.32 10.31 13.32 12.33 15.76 57.67 15.76 59.69 13.32"/><line class="cls-4" x1="28.08" y1="46.58" x2="30.73" y2="46.58"/><line class="cls-4" x1="21.03" y1="47.9" x2="21.03" y2="45.26"/><line class="cls-4" x1="28.08" y1="51.94" x2="30.73" y2="51.94"/><line class="cls-4" x1="39.43" y1="51.94" x2="42.08" y2="51.94"/><line class="cls-4" x1="39.43" y1="46.58" x2="42.08" y2="46.58"/><line class="cls-4" x1="39.43" y1="41.41" x2="42.08" y2="41.41"/><line class="cls-4" x1="28.08" y1="41.41" x2="30.73" y2="41.41"/><line class="cls-4" x1="48.98" y1="48.24" x2="48.98" y2="45.6"/><polygon class="cls-2" points="58.68 56.68 11.32 56.68 12.33 54.34 57.67 54.34 58.68 56.68"/><rect class="cls-5" x="14.91" y="18.12" width="5.87" height="18.27"/><rect class="cls-5" x="26.4" y="18.12" width="5.87" height="18.27"/><rect class="cls-5" x="37.88" y="18.12" width="5.87" height="18.27"/><rect class="cls-5" x="49.37" y="18.12" width="5.87" height="18.27"/><line class="cls-4" x1="35" y1="15.76" x2="35" y2="54.34"/><rect class="cls-6" width="70" height="70"/></g></g></svg>