<svg id="Calque_1" data-name="Calque 1" xmlns="http://www.w3.org/2000/svg" viewBox="0 0 70 70"><defs><style>.cls-1{fill:#c2e5ff;}.cls-2{fill:#94d2ff;}.cls-3{fill:#a6daff;}.cls-4,.cls-6{fill:none;}.cls-4{stroke:#31a5f7;stroke-linecap:round;stroke-miterlimit:10;stroke-width:0.93px;}.cls-5{fill:#31a5f7;}</style></defs><title>Missing_icons</title><g id="Layer_2" data-name="Layer 2"><g id="Layer_1-2" data-name="Layer 1-2"><rect class="cls-1" x="12.33" y="15.76" width="11.52" height="23.06"/><rect class="cls-2" x="23.66" y="15.76" width="11.34" height="23.06"/><rect class="cls-2" x="35" y="15.76" width="11.34" height="23.06"/><rect class="cls-1" x="46.34" y="15.76" width="11.34" height="23.06"/><rect class="cls-1" x="12.33" y="38.82" width="11.52" height="15.52"/><rect class="cls-2" x="23.66" y="38.82" width="11.34" height="5.17"/><rect class="cls-2" x="35" y="38.82" width="11.34" height="5.17"/><rect class="cls-1" x="46.34" y="38.82" width="11.34" height="15.52"/><rect class="cls-3" x="23.66" y="43.99" width="11.34" height="5.17"/><rect class="cls-3" x="35" y="43.99" width="11.34" height="5.17"/><rect class="cls-2" x="23.66" y="49.17" width="11.34" height="5.17"/><rect class="cls-2" x="35" y="49.17" width="11.34" height="5.17"/><polygon class="cls-2" points="59.69 13.32 10.31 13.32 12.33 15.76 57.67 15.76 59.69 13.32"/><line class="cls-4" x1="28.08" y1="46.58" x2="30.73" y2="46.58"/><line class="cls-4" x1="21.03" y1="47.9" x2="21.03" y2="45.26"/><line class="cls-4" x1="28.08" y1="51.94" x2="30.73" y2="51.94"/><line class="cls-4" x1="39.43" y1="51.94" x2="42.08" y2="51.94"/><line class="cls-4" x1="39.43" y1="46.58" x2="42.08" y2="46.58"/><line class="cls-4" x1="48.98" y1="48.24" x2="48.98" y2="45.6"/><polygon class="cls-2" points="58.68 56.68 11.32 56.68 12.33 54.34 57.67 54.34 58.68 56.68"/><rect class="cls-5" x="14.91" y="18.12" width="5.87" height="18.27"/><rect class="cls-5" x="26.4" y="18.12" width="5.87" height="18.27"/><rect class="cls-5" x="26.4" y="18.12" width="17.35" height="23.77"/><rect class="cls-5" x="49.37" y="18.12" width="5.87" height="18.27"/><rect class="cls-6" width="70" height="70"/></g></g><polygon class="cls-2" points="41.35 17.21 41.3 22.85 27.81 22.85 27.82 17.21 25.56 17.21 25.6 24.16 44.11 24.1 44.03 17.21 41.35 17.21"/><polygon class="cls-2" points="41.39 23.74 41.47 40.65 27.98 40.65 27.86 23.74 25.6 23.74 25.76 41.95 44.27 41.89 44.07 23.74 41.39 23.74"/><polygon class="cls-3" points="25.6 24.16 27.81 22.85 41.3 22.85 44.11 24.1 25.6 24.16"/><rect class="cls-3" x="25.27" y="41.58" width="18.48" height="0.89"/><polygon class="cls-3" points="25.24 41.64 27.45 40.34 40.94 40.34 43.75 41.58 25.24 41.64"/><rect class="cls-3" x="25.22" y="28.98" width="18.64" height="10.11"/><rect class="cls-3" x="25.63" y="24.1" width="18.48" height="0.89"/><rect class="cls-3" x="14.91" y="21.19" width="5.87" height="0.89"/><rect class="cls-3" x="14.91" y="26.43" width="5.87" height="0.89"/><rect class="cls-3" x="14.91" y="31.68" width="5.87" height="0.89"/><rect class="cls-3" x="49.37" y="21.19" width="5.87" height="0.89"/><rect class="cls-3" x="49.37" y="26.43" width="5.87" height="0.89"/><rect class="cls-3" x="49.37" y="31.68" width="5.87" height="0.89"/><rect class="cls-5" x="25.74" y="29.65" width="17.57" height="8.86" rx="0.68" ry="0.68"/><path class="cls-2" d="M33.87,39.09v1.25H31.42s.6,1.09,3.75,1.06,3.41-1.06,3.41-1.06H36.06V39.09Z"/></svg>