<svg xmlns="http://www.w3.org/2000/svg" viewBox="0 0 70 70"><defs><style>.cls-1{fill:#31a5f7;}.cls-2{fill:#c2e5ff;}.cls-3{fill:none;}</style></defs><title>69h</title><g id="Layer_2" data-name="Layer 2"><g id="Layer_1-2" data-name="Layer 1"><rect class="cls-1" x="15.31" y="13.91" width="39.39" height="6.51" rx="3.25" ry="3.25"/><path class="cls-2" d="M39.06,20.42l-2,3.91a1.24,1.24,0,0,0,.15,1.39h0a3.53,3.53,0,0,1,.11,4.48l-.83,1.07a1.26,1.26,0,0,0,.31,1.82h0a4.63,4.63,0,0,1,1.16,6.74L36.5,41.64a1.24,1.24,0,0,0,.36,1.85l.9.51a1.25,1.25,0,0,1,0,2.17h0a1.25,1.25,0,0,0,.1,2.22l2.46,1.11A1.24,1.24,0,0,1,41,50.64v1.3a1.25,1.25,0,0,0,1.11,1.24h.05a2.9,2.9,0,0,1,2.9,2.9H24.9a2.9,2.9,0,0,1,2.9-2.9h0a1.24,1.24,0,0,0,1.1-1.24v-1.3a1.25,1.25,0,0,1,.74-1.14l2.45-1.11a1.25,1.25,0,0,0,.1-2.22h0a1.25,1.25,0,0,1,0-2.17l.89-.51a1.25,1.25,0,0,0,.37-1.85l-1.42-1.81a4.62,4.62,0,0,1,1.15-6.74h0a1.25,1.25,0,0,0,.32-1.82l-.84-1.07a3.55,3.55,0,0,1,.11-4.48h0A1.25,1.25,0,0,0,33,24.33l-2-3.91"/><path class="cls-1" d="M45.1,56.09H24.9a2.92,2.92,0,0,1,2.91-2.91h0a1.24,1.24,0,0,0,1.1-1.24v-.09H41.05v.09a1.24,1.24,0,0,0,1.09,1.24h.06A2.9,2.9,0,0,1,45.1,56.09Z"/><rect class="cls-3" width="70" height="70"/></g></g></svg>