<svg xmlns="http://www.w3.org/2000/svg" viewBox="0 0 70 70"><defs><style>.cls-1{fill:#c2e5ff;}.cls-2{fill:#31a5f7;}.cls-3{fill:#a6daff;}.cls-4{fill:#94d2ff;}.cls-5,.cls-6{fill:none;}.cls-5{stroke:#31a5f7;stroke-linecap:round;stroke-miterlimit:10;stroke-width:0.85px;}</style></defs><title>70h</title><g id="Layer_2" data-name="Layer 2"><g id="Layer_1-2" data-name="Layer 1"><rect class="cls-1" x="20.3" y="46.46" width="29.4" height="6.49"/><rect class="cls-2" x="20.3" y="39.96" width="29.4" height="6.49"/><path class="cls-3" d="M26.65,15H43.35A6.35,6.35,0,0,1,49.7,21.3V40a0,0,0,0,1,0,0H20.3a0,0,0,0,1,0,0V21.3A6.35,6.35,0,0,1,26.65,15Z"/><path class="cls-4" d="M14.94,27.48h4.6a.76.76,0,0,1,.76.76V54.29a.76.76,0,0,1-.76.76H12.65a.76.76,0,0,1-.76-.76V30.52A3,3,0,0,1,14.94,27.48Z"/><path class="cls-4" d="M50.46,27.48h4.6a3,3,0,0,1,3,3V54.29a.76.76,0,0,1-.76.76H50.46a.76.76,0,0,1-.76-.76V28.24A.76.76,0,0,1,50.46,27.48Z"/><line class="cls-5" x1="36.65" y1="22.87" x2="34.16" y2="25.35"/><line class="cls-5" x1="34.06" y1="22.76" x2="36.73" y2="25.43"/><rect class="cls-6" width="70" height="70"/></g></g></svg>