<svg xmlns="http://www.w3.org/2000/svg" viewBox="0 0 70 70"><defs><style>.cls-1{fill:#a6daff;}.cls-2{fill:#c2e5ff;}.cls-3{fill:#31a5f7;}.cls-4{fill:none;}</style></defs><title>71h</title><g id="Layer_2" data-name="Layer 2"><g id="Layer_1-2" data-name="Layer 1"><path class="cls-1" d="M47.18,31.59c.71-.74,1.08-1.11,1.81-1.85a4.65,4.65,0,0,0,.59-6.1c-.71-.85-1.08-1.28-1.82-2.14.33-3.89.49-1.25.82-5.15H21.42c.33,3.9.49,1.26.82,5.15-.74.86-1.11,1.29-1.82,2.14a4.65,4.65,0,0,0,.59,6.1c.73.74,1.1,1.11,1.81,1.85.26,3.05.39,4.57.66,7.62h0a4.86,4.86,0,0,0-.28,4.88c.46,1,.69,1.47,1.13,2.44H45.67c.44-1,.67-1.46,1.13-2.44a4.86,4.86,0,0,0-.28-4.88h0Z"/><path class="cls-2" d="M21.6,16.63,21.15,16a1.13,1.13,0,0,1,.91-1.79H48.11A1.13,1.13,0,0,1,49,16l-.47.59"/><path class="cls-3" d="M23.24,14.21l0-.55a1.29,1.29,0,0,1,1.61-1.38,4.56,4.56,0,0,0,3.07-.06c1.94-1,3.94-1.13,4.56-.5a2.58,2.58,0,0,1,2.46-1.52h.27a2.57,2.57,0,0,1,2.45,1.52c.63-.63,2.63-.45,4.57.5a4.56,4.56,0,0,0,3.07.06,1.29,1.29,0,0,1,1.61,1.38l0,.55"/><circle class="cls-3" cx="35.09" cy="31.58" r="8.41"/><path class="cls-2" d="M34.89,31.14a.46.46,0,0,1-.43-.3l-1.78-5a.45.45,0,1,1,.85-.3l1.78,5a.45.45,0,0,1-.27.57A.4.4,0,0,1,34.89,31.14Z"/><path class="cls-2" d="M33.4,36.71a.35.35,0,0,1-.14,0,.34.34,0,0,1-.18-.45l1.66-4a.36.36,0,0,1,.46-.19.35.35,0,0,1,.18.45l-1.67,4A.34.34,0,0,1,33.4,36.71Z"/><circle class="cls-2" cx="35.27" cy="31.47" r="0.99"/><path class="cls-2" d="M43.92,59.8H26.2a2.51,2.51,0,0,1-2.51-2.63l.69-10.64H45.75l.69,10.64A2.52,2.52,0,0,1,43.92,59.8Z"/><polygon class="cls-3" points="38.22 59.8 31.88 59.8 32.46 46.53 37.63 46.53 38.22 59.8"/><rect class="cls-4" width="70" height="70"/></g></g></svg>