<svg xmlns="http://www.w3.org/2000/svg" viewBox="0 0 70 70"><defs><style>.cls-1{fill:#31a5f7;}.cls-2{fill:#a6daff;}.cls-3{fill:#c2e5ff;}.cls-4{fill:none;}</style></defs><title>73h</title><g id="Layer_2" data-name="Layer 2"><g id="Layer_1-2" data-name="Layer 1"><path class="cls-1" d="M19.32,21.24C20.26,28.46,21,34,22.13,42.89H47.87C49,34,49.74,28.46,50.68,21.24a7,7,0,0,0-7-7.93H26.29A7,7,0,0,0,19.32,21.24Z"/><path class="cls-2" d="M22.54,35.52h2.34a2,2,0,0,1,2,2v9.85a0,0,0,0,1,0,0H20.19a0,0,0,0,1,0,0V37.87A2.35,2.35,0,0,1,22.54,35.52Z"/><path class="cls-2" d="M45.5,35.52h2.34a2,2,0,0,1,2,2v9.85a0,0,0,0,1,0,0H43.15a0,0,0,0,1,0,0V37.87a2.35,2.35,0,0,1,2.35-2.35Z"/><path class="cls-1" d="M24.9,49.09h2a0,0,0,0,1,0,0v6.59a1,1,0,0,1-1,1h0a1,1,0,0,1-1-1V49.09A0,0,0,0,1,24.9,49.09Z"/><path class="cls-1" d="M43.07,49.09h2a0,0,0,0,1,0,0v6.59a1,1,0,0,1-1,1h0a1,1,0,0,1-1-1V49.09A0,0,0,0,1,43.07,49.09Z"/><path class="cls-1" d="M36.91,49.09h2a0,0,0,0,1,0,0v3a.71.71,0,0,1-.71.71h-.61a.71.71,0,0,1-.71-.71v-3A0,0,0,0,1,36.91,49.09Z"/><path class="cls-1" d="M31.06,49.09h2a0,0,0,0,1,0,0v3a.71.71,0,0,1-.71.71h-.61a.71.71,0,0,1-.71-.71v-3a0,0,0,0,1,0,0Z"/><circle class="cls-2" cx="28.63" cy="22.78" r="0.82"/><circle class="cls-2" cx="35" cy="22.78" r="0.82"/><circle class="cls-2" cx="41.37" cy="22.78" r="0.82"/><circle class="cls-2" cx="28.63" cy="30.92" r="0.82"/><circle class="cls-2" cx="35" cy="30.92" r="0.82"/><circle class="cls-2" cx="41.37" cy="30.92" r="0.82"/><circle class="cls-2" cx="38.19" cy="27.02" r="0.82"/><circle class="cls-2" cx="31.74" cy="27.02" r="0.82"/><path class="cls-3" d="M29.34,38.82H40.66A9.15,9.15,0,0,1,49.81,48v0a1.12,1.12,0,0,1-1.12,1.12H21.31A1.12,1.12,0,0,1,20.19,48v0A9.15,9.15,0,0,1,29.34,38.82Z"/><rect class="cls-4" width="70" height="70"/></g></g></svg>