<svg xmlns="http://www.w3.org/2000/svg" viewBox="0 0 70 70"><defs><style>.cls-1{fill:#94d2ff;}.cls-2{fill:#31a5f7;}.cls-3{fill:#c2e5ff;}.cls-4,.cls-5{fill:none;}.cls-4{stroke:#31a5f7;stroke-miterlimit:10;stroke-width:0.81px;}</style></defs><title>74h</title><g id="Layer_2" data-name="Layer 2"><g id="Layer_1-2" data-name="Layer 1"><path class="cls-1" d="M12.76,34V21.9a4,4,0,0,1,4-4H53.06a4,4,0,0,1,4,4V34"/><path class="cls-2" d="M21.49,30.33,20.86,25a1.26,1.26,0,0,1,.83-1.34,15.89,15.89,0,0,1,6.1-.61,46.76,46.76,0,0,1,6,.71,1.26,1.26,0,0,1,1,1.32l-.34,5.47"/><path class="cls-2" d="M49.28,30.33,49.92,25a1.28,1.28,0,0,0-.84-1.34A15.89,15.89,0,0,0,43,23a46.3,46.3,0,0,0-6,.71,1.26,1.26,0,0,0-1,1.32l.34,5.47"/><path class="cls-3" d="M12.05,37.41V52.09H18.9v-2a3.43,3.43,0,0,1,3.43-3.42H47.67a3.43,3.43,0,0,1,3.43,3.42v2H58V37.41A6.91,6.91,0,0,0,51,30.51H19A6.91,6.91,0,0,0,12.05,37.41Z"/><line class="cls-4" x1="57.95" y1="40.61" x2="12.05" y2="40.61"/><rect class="cls-5" width="70" height="70"/></g></g></svg>