<svg xmlns="http://www.w3.org/2000/svg" viewBox="0 0 70 70"><defs><style>.cls-1,.cls-4{fill:none;}.cls-1{stroke:#31a5f7;stroke-linecap:round;stroke-miterlimit:10;stroke-width:2.49px;}.cls-2{fill:#31a5f7;}.cls-3{fill:#c2e5ff;}</style></defs><title>75h</title><g id="Layer_2" data-name="Layer 2"><g id="Layer_1-2" data-name="Layer 1"><line class="cls-1" x1="44.73" y1="54.83" x2="48.36" y2="54.83"/><line class="cls-1" x1="10.77" y1="54.83" x2="14.39" y2="54.83"/><line class="cls-1" x1="55.61" y1="54.83" x2="59.23" y2="54.83"/><path class="cls-2" d="M17.45,19.66h3.89a3.46,3.46,0,0,1,3.46,3.46v.65a0,0,0,0,1,0,0H15.28a0,0,0,0,1,0,0V21.83A2.17,2.17,0,0,1,17.45,19.66Z"/><path class="cls-2" d="M17.45,43.11h3.89a3.46,3.46,0,0,1,3.46,3.46v.65a0,0,0,0,1,0,0H15.28a0,0,0,0,1,0,0V45.28A2.17,2.17,0,0,1,17.45,43.11Z"/><rect class="cls-3" x="12.58" y="47.21" width="45.26" height="4.35"/><rect class="cls-3" x="12.58" y="23.5" width="45.26" height="4.35"/><rect class="cls-3" x="46.54" y="35.36" width="11.3" height="4.35"/><line class="cls-1" x1="12.58" y1="15.17" x2="12.58" y2="54.83"/><line class="cls-1" x1="57.42" y1="15.17" x2="57.42" y2="54.83"/><line class="cls-1" x1="46.54" y1="15.17" x2="46.54" y2="54.83"/><rect class="cls-4" width="70" height="70"/></g></g></svg>