<svg xmlns="http://www.w3.org/2000/svg" viewBox="0 0 39.8 39.8"><defs><style>.cls-1{fill:none;}.cls-2{fill:#31a5f7;}.cls-3{fill:#a6daff;}.cls-4{fill:#c2e5ff;}</style></defs><title>7h</title><g id="Layer_2" data-name="Layer 2"><g id="Icons"><rect class="cls-1" width="39.8" height="39.8"/><path class="cls-2" d="M12.58,31.28l-.14,0a.52.52,0,0,1-.35-.62L14,23.87a.52.52,0,0,1,.62-.35.51.51,0,0,1,.35.62l-1.87,6.77A.5.5,0,0,1,12.58,31.28Z"/><path class="cls-2" d="M21.06,31.28a.49.49,0,0,1-.47-.34l-2.38-6.77a.51.51,0,0,1,.31-.64.5.5,0,0,1,.63.31l2.38,6.77a.51.51,0,0,1-.31.64A.45.45,0,0,1,21.06,31.28Z"/><path class="cls-2" d="M27.31,31.28a.5.5,0,0,1-.48-.36l-2-6.77a.5.5,0,0,1,.95-.29l2,6.77a.49.49,0,0,1-.34.62A.35.35,0,0,1,27.31,31.28Z"/><path class="cls-3" d="M20.82,20.53V9.93a1.41,1.41,0,0,0-1.41-1.41h-6A1.41,1.41,0,0,0,12,9.93V22.6A1.41,1.41,0,0,0,13.4,24H24.8A1.16,1.16,0,0,0,26,22.85h0a1.16,1.16,0,0,0-1.16-1.16H22A1.16,1.16,0,0,1,20.82,20.53Z"/><rect class="cls-4" x="13.9" y="11.13" width="0.9" height="7.18"/><rect class="cls-4" x="17.26" y="11.13" width="0.9" height="7.18"/></g></g></svg>