<svg xmlns="http://www.w3.org/2000/svg" viewBox="0 0 70 70"><defs><style>.cls-1,.cls-2,.cls-6,.cls-7,.cls-8{fill:none;}.cls-1,.cls-2,.cls-6,.cls-7{stroke:#31a5f7;}.cls-1,.cls-2{stroke-linecap:round;}.cls-1,.cls-6,.cls-7{stroke-miterlimit:10;}.cls-1{stroke-width:1.86px;}.cls-2{stroke-linejoin:round;stroke-width:1.86px;}.cls-3{fill:#c2e5ff;}.cls-4{fill:#a6daff;}.cls-5{fill:#31a5f7;}.cls-6{stroke-width:0.93px;}.cls-7{stroke-width:1.47px;}</style></defs><title>80h</title><g id="Layer_2" data-name="Layer 2"><g id="Layer_1-2" data-name="Layer 1"><path class="cls-1" d="M27.28,24.27l4-3.26a5.88,5.88,0,0,1,7.48,0l4,3.26"/><path class="cls-2" d="M32.27,14.38A2.73,2.73,0,1,1,35,17.11v2.56"/><path class="cls-3" d="M35,59.28H19.8a3.89,3.89,0,0,1-3.89-3.89v-25a5.08,5.08,0,0,1,3.37-4.79l6.44-2.3L35,32.55Z"/><path class="cls-4" d="M35,59.28H50.2a3.89,3.89,0,0,0,3.89-3.89v-25a5.08,5.08,0,0,0-3.37-4.79l-6.44-2.3L35,32.55Z"/><circle class="cls-5" cx="31.4" cy="39.96" r="1.23"/><circle class="cls-5" cx="31.4" cy="48.29" r="1.23"/><line class="cls-6" x1="43.33" y1="35.88" x2="48.68" y2="35.88"/><line class="cls-7" x1="35" y1="32.55" x2="35" y2="59.28"/><rect class="cls-8" width="70" height="70"/></g></g></svg>