<svg xmlns="http://www.w3.org/2000/svg" viewBox="0 0 70 70"><defs><style>.cls-1,.cls-2,.cls-5{fill:none;}.cls-1,.cls-2{stroke:#31a5f7;stroke-miterlimit:10;}.cls-2{stroke-linecap:round;}.cls-3{fill:#31a5f7;}.cls-4{fill:#c2e5ff;}</style></defs><title>81h</title><g id="Layer_2" data-name="Layer 2"><g id="Layer_1-2" data-name="Layer 1"><path class="cls-1" d="M19.51,29.81c1.49,0,2.7-.31,2.7,1.19v6.64a4.53,4.53,0,0,0,4.53,4.53H43.27a4.53,4.53,0,0,0,4.53-4.53V31c0-1.5,1.21-1.19,2.7-1.19"/><line class="cls-2" x1="34.67" y1="56.39" x2="34.67" y2="42.17"/><polyline class="cls-2" points="24.33 54.5 24.33 53.57 34.8 46.52 44.99 53.38 44.99 54.5"/><circle class="cls-3" cx="44.87" cy="56.02" r="1.51"/><circle class="cls-3" cx="34.66" cy="57.75" r="1.51"/><circle class="cls-3" cx="24.33" cy="56.02" r="1.51"/><path class="cls-4" d="M41.91,38.31,38,37.24a11.33,11.33,0,0,0-6.14,0l-3.61,1a2.25,2.25,0,0,1-2.24-2L24.46,19.64a8.13,8.13,0,0,1,8.09-8.9h5.1a8.13,8.13,0,0,1,8.09,8.9L44.15,36.27A2.25,2.25,0,0,1,41.91,38.31Z"/><path class="cls-3" d="M18.89,28.55h3a.86.86,0,0,1,.86.86v1.66a.86.86,0,0,1-.86.86h-3a1.69,1.69,0,0,1-1.69-1.69v0A1.69,1.69,0,0,1,18.89,28.55Z"/><path class="cls-3" d="M49,28.55h3a.86.86,0,0,1,.86.86v1.66a.86.86,0,0,1-.86.86H49a1.69,1.69,0,0,1-1.69-1.69v0A1.69,1.69,0,0,1,49,28.55Z" transform="translate(100.09 60.48) rotate(180)"/><rect class="cls-5" width="70" height="70"/></g></g></svg>