<svg xmlns="http://www.w3.org/2000/svg" viewBox="0 0 70 70"><defs><style>.cls-1{fill:#a6daff;}.cls-2{fill:#31a5f7;}.cls-3{fill:#c2e5ff;}.cls-4{fill:none;}</style></defs><title>82h</title><g id="Layer_2" data-name="Layer 2"><g id="Layer_1-2" data-name="Layer 1"><path class="cls-1" d="M16.82,13H53.18A1.83,1.83,0,0,1,55,14.78V54.33a0,0,0,0,1,0,0H15a0,0,0,0,1,0,0V14.78A1.83,1.83,0,0,1,16.82,13Z"/><path class="cls-2" d="M15,54.33h2.72a0,0,0,0,1,0,0v1.83a.89.89,0,0,1-.89.89h-.95a.89.89,0,0,1-.89-.89V54.33A0,0,0,0,1,15,54.33Z"/><path class="cls-2" d="M52.29,54.33H55a0,0,0,0,1,0,0v1.83a.89.89,0,0,1-.89.89h-.95a.89.89,0,0,1-.89-.89V54.33A0,0,0,0,1,52.29,54.33Z"/><rect class="cls-3" x="20.05" y="29.11" width="29.91" height="9.06"/><rect class="cls-3" x="20.05" y="40.02" width="29.91" height="9.06"/><rect class="cls-3" x="20.05" y="18.19" width="29.91" height="9.06"/><circle class="cls-2" cx="26.38" cy="44.55" r="1.16"/><circle class="cls-2" cx="43.62" cy="44.55" r="1.16"/><circle class="cls-2" cx="26.38" cy="33.64" r="1.16"/><circle class="cls-2" cx="43.62" cy="33.64" r="1.16"/><circle class="cls-2" cx="26.38" cy="22.73" r="1.16"/><circle class="cls-2" cx="43.62" cy="22.73" r="1.16"/><rect class="cls-4" width="70" height="70"/></g></g></svg>