<svg xmlns="http://www.w3.org/2000/svg" viewBox="0 0 70 70"><defs><style>.cls-1{fill:#94d2ff;}.cls-2{fill:#31a5f7;}.cls-3{fill:#c2e5ff;}.cls-4,.cls-5{fill:none;}.cls-4{stroke:#31a5f7;stroke-miterlimit:10;stroke-width:0.88px;}</style></defs><title>83h</title><g id="Layer_2" data-name="Layer 2"><g id="Layer_1-2" data-name="Layer 1"><path class="cls-1" d="M13.26,34V20.9a4.29,4.29,0,0,1,4.29-4.29h34.7a4.3,4.3,0,0,1,4.3,4.29V34"/><path class="cls-2" d="M27.55,30l-.68-5.78a1.36,1.36,0,0,1,.9-1.44,17.11,17.11,0,0,1,6.57-.67,52.21,52.21,0,0,1,6.49.77,1.35,1.35,0,0,1,1.09,1.42l-.37,5.88"/><path class="cls-3" d="M12.49,37.6V53.39h7.37V51.2a3.69,3.69,0,0,1,3.69-3.69h22.9a3.69,3.69,0,0,1,3.69,3.69v2.19h7.37V37.6a7.44,7.44,0,0,0-7.44-7.44H19.93A7.44,7.44,0,0,0,12.49,37.6Z"/><line class="cls-4" x1="57.51" y1="41.04" x2="12.49" y2="41.04"/><rect class="cls-5" width="70" height="70"/></g></g></svg>