<svg xmlns="http://www.w3.org/2000/svg" viewBox="0 0 70 70"><defs><style>.cls-1{fill:#a6daff;}.cls-2{fill:#c2e5ff;}.cls-3{fill:#31a5f7;}.cls-4,.cls-5{fill:none;}.cls-4{stroke:#31a5f7;stroke-linecap:round;stroke-miterlimit:10;}</style></defs><title>89h</title><g id="Layer_2" data-name="Layer 2"><g id="Layer_1-2" data-name="Layer 1"><path class="cls-1" d="M56.12,34.53H13.88a4.15,4.15,0,0,1-3.48-2.18,15.12,15.12,0,0,1-1.46-8C9.71,19,15.21,16,20.13,15.82H49.87C54.79,16,60.29,19,61.06,24.3a15.12,15.12,0,0,1-1.46,8.05A4.15,4.15,0,0,1,56.12,34.53Z"/><path class="cls-2" d="M11.89,33.8H58.11a0,0,0,0,1,0,0v6.67A1.52,1.52,0,0,1,56.6,42H13.4a1.52,1.52,0,0,1-1.52-1.52V33.8A0,0,0,0,1,11.89,33.8Z"/><path class="cls-3" d="M20.58,54.18h0A2.14,2.14,0,0,1,18.44,52V42h4.29V52A2.15,2.15,0,0,1,20.58,54.18Z"/><path class="cls-3" d="M49.42,54.18h0A2.15,2.15,0,0,1,47.27,52V42h4.29V52A2.14,2.14,0,0,1,49.42,54.18Z"/><line class="cls-4" x1="21.46" y1="22.49" x2="17.95" y2="22.49"/><line class="cls-4" x1="19.71" y1="20.74" x2="19.71" y2="24.25"/><line class="cls-4" x1="28.29" y1="28.82" x2="24.78" y2="28.82"/><line class="cls-4" x1="26.54" y1="27.06" x2="26.54" y2="30.57"/><line class="cls-4" x1="35.63" y1="21.47" x2="32.12" y2="21.47"/><line class="cls-4" x1="33.88" y1="19.72" x2="33.88" y2="23.23"/><line class="cls-4" x1="52.05" y1="21.47" x2="48.54" y2="21.47"/><line class="cls-4" x1="50.29" y1="19.72" x2="50.29" y2="23.23"/><line class="cls-4" x1="45.67" y1="28.61" x2="42.16" y2="28.61"/><line class="cls-4" x1="43.91" y1="26.85" x2="43.91" y2="30.37"/><rect class="cls-5" width="70" height="70"/></g></g></svg>