<svg xmlns="http://www.w3.org/2000/svg" viewBox="0 0 70 70"><defs><style>.cls-1{fill:#94d2ff;}.cls-2{fill:#c2e5ff;}.cls-3,.cls-4{fill:none;}.cls-3{stroke:#31a5f7;stroke-linejoin:round;stroke-width:0.85px;}</style></defs><title>91h</title><g id="Layer_2" data-name="Layer 2"><g id="Layer_1-2" data-name="Layer 1"><path class="cls-1" d="M7.44,29.19s-.84,6.44.42,7.18S46.11,47.12,48.27,46.85s14-11.38,14-11.38,1.25-4.82,0-6.81"/><path class="cls-2" d="M26,23.35,7.44,29.19l38.65,9.4a4.57,4.57,0,0,0,3.79-.76l12.4-9.17L28.1,23.2A4.62,4.62,0,0,0,26,23.35Z"/><polyline class="cls-3" points="28.94 23.53 16.24 30.52 36.09 25.11 26.77 33.33 43.69 26.16 38.24 36.39 50.86 27.81 47.19 38.59"/><rect class="cls-4" width="70" height="70"/></g></g></svg>