<svg xmlns="http://www.w3.org/2000/svg" viewBox="0 0 70 70"><defs><style>.cls-1,.cls-3,.cls-5,.cls-6{fill:none;}.cls-1,.cls-3,.cls-5{stroke:#31a5f7;stroke-linecap:round;}.cls-1{stroke-linejoin:round;stroke-width:0.8px;}.cls-2{fill:#31a5f7;}.cls-3,.cls-5{stroke-miterlimit:10;}.cls-3{stroke-width:2.4px;}.cls-4{fill:#c2e5ff;}.cls-5{stroke-width:1.6px;}</style></defs><title>96h</title><g id="Layer_2" data-name="Layer 2"><g id="Layer_1-2" data-name="Layer 1"><path class="cls-1" d="M57.93,50.74A2.06,2.06,0,0,1,55,51h0a2.06,2.06,0,0,0-2.93.18l-.12.14a2.06,2.06,0,0,1-2.82.28"/><path class="cls-1" d="M23.12,51.23a2.05,2.05,0,0,1,2.95,0h0a2.06,2.06,0,0,0,2.94,0l.13-.13"/><polyline class="cls-2" points="41.83 55.03 35.48 31.42 33.55 31.91 39.9 55.53"/><line class="cls-3" x1="29.76" y1="16.17" x2="29.35" y2="14.63"/><path class="cls-4" d="M53.5,28.28A3.22,3.22,0,0,1,49.57,26a3.22,3.22,0,1,1-6.23,1.62A3.22,3.22,0,0,1,37.1,29.2a3.22,3.22,0,0,1-6.23,1.62,3.22,3.22,0,0,1-6.24,1.61A3.22,3.22,0,0,1,18.39,34a3.23,3.23,0,0,1-1.18,3.39,3.38,3.38,0,0,1-1.13.54,3.22,3.22,0,0,1-3.92-2.31l-.39-1.5c-1.09-4.22,6.62-14.71,18.67-17.83a29.59,29.59,0,0,1,19.88,1.84c2.82,1.4,4.7,3.13,5.1,4.69l.39,1.5A3.22,3.22,0,0,1,53.5,28.28Z"/><path class="cls-5" d="M32.47,55.15c.68-.94,5.8-.52,6.72.19h0a2.05,2.05,0,0,0,2.9-.39l.11-.15c.66-.88,6-1,6.91-.42"/><rect class="cls-6" width="70" height="70"/></g></g></svg>