<svg xmlns="http://www.w3.org/2000/svg" viewBox="0 0 70 70"><defs><style>.cls-1{fill:#c2e5ff;}.cls-2{fill:#94d2ff;}.cls-3,.cls-5,.cls-6,.cls-8{fill:none;}.cls-3,.cls-5,.cls-6{stroke:#31a5f7;}.cls-3,.cls-6{stroke-linecap:round;stroke-linejoin:round;}.cls-3{stroke-width:1.5px;}.cls-4{fill:#31a5f7;}.cls-5{stroke-miterlimit:10;}.cls-5,.cls-6{stroke-width:0.75px;}.cls-7{fill:#a6daff;}</style></defs><title>97h</title><g id="Layer_2" data-name="Layer 2"><g id="Layer_1-2" data-name="Layer 1"><polygon class="cls-1" points="56.4 54.59 24.95 54.59 27.54 38.78 26.89 19.65 54.46 19.65 53.81 38.78 56.4 54.59"/><circle class="cls-2" cx="40.68" cy="38.59" r="7.79"/><polyline class="cls-3" points="36.2 22 36.2 16.16 44.32 16.16 44.32 22"/><path class="cls-4" d="M40.63,42.16a3.64,3.64,0,0,0,3.64-3.64H37A3.65,3.65,0,0,0,40.63,42.16Z"/><path class="cls-4" d="M40.63,42.39a4.11,4.11,0,0,0,4.1-4.1h-8.2A4.11,4.11,0,0,0,40.63,42.39Z"/><line class="cls-5" x1="38.95" y1="41.76" x2="36.44" y2="44.83"/><line class="cls-5" x1="42.4" y1="41.76" x2="44.92" y2="44.83"/><path class="cls-6" d="M38.85,34.7h0a.94.94,0,0,0,0,1.33l.06.06a.93.93,0,0,1,0,1.28"/><path class="cls-6" d="M42,34.7h0A.94.94,0,0,0,42,36l.06.06a.93.93,0,0,1,0,1.28"/><path class="cls-6" d="M40.36,33.37a.93.93,0,0,1,0,1.33h0a.93.93,0,0,0,0,1.33l.06.06a.93.93,0,0,1,0,1.28"/><line class="cls-5" x1="27.02" y1="24.8" x2="54.32" y2="24.8"/><path class="cls-7" d="M15.37,47.11S13,44.27,15,42.42A11.49,11.49,0,0,1,19.43,40s3.58-.55,3.92,1a6.64,6.64,0,0,1,0,2.84"/><path class="cls-2" d="M17.6,45.78a3.36,3.36,0,0,1,3.16-2.49,11,11,0,0,1,4.83,1.25l.71,1.84-.76,4.38-3,.41"/><path class="cls-1" d="M24.07,48.57A6,6,0,0,0,20.49,46c-2.41-.55-4.75.28-5.17.9a15.28,15.28,0,0,0-1.72,3c0,.42,1.79,3.1,2.83,3.45s4.95.2,6-1A11,11,0,0,0,24.07,48.57Z"/><rect class="cls-8" width="70" height="70"/></g></g></svg>