<svg xmlns="http://www.w3.org/2000/svg" viewBox="0 0 70 70"><defs><style>.cls-1{fill:#a6daff;}.cls-2{fill:#31a5f7;}.cls-3{fill:#94d2ff;}.cls-4{fill:#c2e5ff;}.cls-5{fill:none;}</style></defs><title>99h</title><g id="Layer_2" data-name="Layer 2"><g id="Layer_1-2" data-name="Layer 1"><path class="cls-1" d="M42.79,35.12H27.21V25.85a1.85,1.85,0,0,1,.09-.58l2-5.84A1.82,1.82,0,0,1,31,18.19h8.14a1.82,1.82,0,0,1,1.74,1.28l1.82,5.81a1.7,1.7,0,0,1,.08.55Z"/><rect class="cls-2" x="30.51" y="28.4" width="8.98" height="3.75"/><path class="cls-2" d="M33.85,14.22h2.3a1.29,1.29,0,0,1,1.29,1.29v2.67a0,0,0,0,1,0,0H32.56a0,0,0,0,1,0,0V15.52A1.29,1.29,0,0,1,33.85,14.22Z"/><rect class="cls-3" x="15.97" y="35.12" width="38.07" height="3.69" rx="1.84" ry="1.84"/><path class="cls-4" d="M19.67,38.81H50.33a0,0,0,0,1,0,0V54.13a1.64,1.64,0,0,1-1.64,1.64H21.31a1.64,1.64,0,0,1-1.64-1.64V38.81A0,0,0,0,1,19.67,38.81Z"/><rect class="cls-2" x="30.51" y="42.28" width="8.98" height="10.14"/><rect class="cls-5" width="70" height="70"/></g></g></svg>