<svg id="Calque_1" data-name="Calque 1" xmlns="http://www.w3.org/2000/svg" viewBox="0 0 70 70"><defs><style>.cls-1{fill:#31a5f7;}.cls-2{fill:#c2e5ff;}.cls-3{fill:#94d2ff;}.cls-4{fill:#a6daff;}</style></defs><title>Missing_icons</title><rect class="cls-1" x="27.67" y="13.43" width="13.63" height="42.1"/><path class="cls-2" d="M27.67,13.13v42.4H41.3V13.13ZM40.14,36.38H28.83l-.13-22H40Z"/><polygon class="cls-3" points="40.01 54.19 28.7 54.19 28.77 37.41 40.07 37.41 40.01 54.19"/><rect class="cls-4" x="28.75" y="21.73" width="11.31" height="0.94"/><rect class="cls-4" x="28.79" y="29.03" width="11.31" height="0.86"/><rect class="cls-4" x="29.97" y="39.25" width="8.76" height="1.2" rx="0.6" ry="0.6"/><rect class="cls-4" x="29.97" y="43.46" width="8.76" height="1.2" rx="0.6" ry="0.6"/><rect class="cls-4" x="29.97" y="47.64" width="8.76" height="1.2" rx="0.6" ry="0.6"/><rect class="cls-4" x="29.97" y="51.67" width="8.76" height="1.2" rx="0.6" ry="0.6"/><polygon class="cls-3" points="38.46 29.89 38.45 35 30.19 35 30.17 29.89 28.79 29.89 28.83 36.38 40.1 36.38 40.1 29.89 38.46 29.89"/><polygon class="cls-4" points="28.83 36.38 30.19 35 38.45 35 40.14 36.38 28.83 36.38"/><polygon class="cls-3" points="38.44 22.67 38.43 27.65 30.17 27.65 30.15 22.67 28.77 22.67 28.81 29.03 40.08 29.03 40.08 22.67 38.44 22.67"/><polygon class="cls-2" points="28.81 29.03 30.17 27.65 38.43 27.65 40.12 29.03 28.81 29.03"/><polygon class="cls-3" points="38.37 14.43 38.34 20.41 30.08 20.41 30.08 14.43 28.7 14.43 28.72 21.79 40.05 21.73 40.01 14.43 38.37 14.43"/><polygon class="cls-2" points="28.72 21.79 30.08 20.41 38.34 20.41 40.05 21.73 28.72 21.79"/></svg>