<?xml version="1.0" encoding="utf-8"?>
<!-- Generator: Adobe Illustrator 22.1.0, SVG Export Plug-In . SVG Version: 6.00 Build 0)  -->
<svg version="1.1" id="fb_svg" xmlns="http://www.w3.org/2000/svg" xmlns:xlink="http://www.w3.org/1999/xlink" x="0px" y="0px"
	 viewBox="0 0 36 36" style="enable-background:new 0 0 36 36;" xml:space="preserve">
<style type="text/css">
	.st0{fill:#3D4E60;}
</style>
<path class="st0" d="M18,0C8.1,0,0,8.1,0,18s8.1,18,18,18s18-8.1,18-18S27.9,0,18,0z M22,15l-0.2,2.7H19V27h-3.5v-9.4h-1.9V15h1.9
	v-1.8c0-0.8,0-2,0.6-2.8C16.7,9.5,17.6,9,19,9c2.3,0,3.3,0.3,3.3,0.3l-0.5,2.8c0,0-0.8-0.2-1.5-0.2s-1.4,0.3-1.4,1V15H22z"/>
</svg>
