<?xml version="1.0" encoding="utf-8"?>
<!-- Generator: Adobe Illustrator 22.1.0, SVG Export Plug-In . SVG Version: 6.00 Build 0)  -->
<svg version="1.1" id="linkedin_svg" xmlns="http://www.w3.org/2000/svg" xmlns:xlink="http://www.w3.org/1999/xlink" x="0px"
	 y="0px" viewBox="0 0 36 36" style="enable-background:new 0 0 36 36;" xml:space="preserve">
<style type="text/css">
	.st0{fill:#3D4E60;}
</style>
<path class="st0" d="M18,0C8.1,0,0,8.1,0,18s8.1,18,18,18s18-8.1,18-18S27.9,0,18,0z M13,25.5H9.5V14.3H13V25.5z M11.1,12.9
	L11.1,12.9c-1.3,0-2.1-0.9-2.1-2S9.8,9,11.1,9s2.1,0.8,2.1,1.9C13.3,12,12.4,12.9,11.1,12.9z M27,25.5h-4v-5.8c0-1.5-0.6-2.6-2-2.6
	c-1,0-1.6,0.7-1.9,1.4c-0.1,0.3-0.1,0.6-0.1,1v6.1h-3.9c0,0,0.1-10.3,0-11.2H19v1.8c0.2-0.8,1.5-1.9,3.5-1.9c2.5,0,4.5,1.6,4.5,5.1
	V25.5z"/>
</svg>
