<?xml version="1.0" encoding="utf-8"?>
<!-- Generator: Adobe Illustrator 22.1.0, SVG Export Plug-In . SVG Version: 6.00 Build 0)  -->
<svg version="1.1" id="Layer_1" xmlns="http://www.w3.org/2000/svg" xmlns:xlink="http://www.w3.org/1999/xlink" x="0px" y="0px"
	 viewBox="0 0 582.9 582.9" style="enable-background:new 0 0 582.9 582.9;" xml:space="preserve">
<style type="text/css">
	.st0{fill:#8C99A5;}
	.st1{fill:none;}
</style>
<g id="Layer_2_1_">
	<g id="Icons">
		<path class="st0" d="M427.9,426.9l-14.4-201.3c-0.7-9.9-9.7-17.6-20.5-17.6h-44.8c1.1-4.5,1.7-9.1,1.7-13.8
			c0-32.2-26.1-58.4-58.4-58.4s-58.4,26.1-58.4,58.4l0,0c0,4.6,0.5,9.2,1.6,13.8h-44.8c-10.8,0-19.8,7.7-20.6,17.6L155,426.9
			c-0.3,5,1.4,9.9,4.9,13.5c4.1,4.3,9.7,6.7,15.7,6.6h231.8c5.9,0,11.6-2.4,15.7-6.6C426.4,436.8,428.2,431.9,427.9,426.9z
			 M291.4,151.8c23.4,0,42.4,19,42.5,42.5c0,4.7-0.8,9.3-2.3,13.7h-80.2c-1.5-4.4-2.3-9.1-2.3-13.7C249,170.8,268,151.8,291.4,151.8
			z M276.5,362.4c-2.8,3.4-7.8,3.9-11.3,1.1l-20.8-20.8v18.7c-0.3,3.9-3.4,6.9-7.3,7.3c-4.4,0.4-8.3-2.9-8.7-7.3v-56.8
			c0.3-3.9,3.4-6.9,7.3-7.3c4.4-0.4,8.3,2.9,8.7,7.3V319l16.9-16.9c3-2.5,7.3-2.5,10.3,0c3.4,2.8,3.8,7.9,1,11.3l-17.5,17.5
			l21.4,21.4C278.9,355.2,278.9,359.5,276.5,362.4z M363.4,361.5c0,4.4-3.6,8-8,8h-45.5c-4.4,0-8-3.6-8-8v-56.8c0-4.4,3.6-8,8-8
			h45.5c4.4,0,7.9,3.6,8,8v11.7c0,0.5,0,1,0,1.5c-0.4,4.4-4.3,7.6-8.7,7.2c-4.4-0.4-7.6-4.3-7.2-8.7v-3.7H318v40.9h29.5V345h-12.3
			c-0.5,0-1,0-1.5,0c-4.4-0.4-7.6-4.3-7.2-8.7c0.4-4.4,4.3-7.6,8.7-7.2h20.3c4.4,0,8,3.6,8,8L363.4,361.5L363.4,361.5z"/>
		<rect class="st1" width="582.9" height="582.9"/>
	</g>
</g>
</svg>
