<?xml version="1.0" encoding="utf-8"?>
<!-- Generator: Adobe Illustrator 22.1.0, SVG Export Plug-In . SVG Version: 6.00 Build 0)  -->
<svg version="1.1" id="Layer_1" xmlns="http://www.w3.org/2000/svg" xmlns:xlink="http://www.w3.org/1999/xlink" x="0px" y="0px"
	 viewBox="0 0 187.4 187.4" style="enable-background:new 0 0 187.4 187.4;" xml:space="preserve">
<style type="text/css">
	.st0{fill:none;}
	.st1{fill:#8C99A5;}
</style>
<g id="Layer_2_1_">
	<g id="Icons">
		<rect class="st0" width="187.4" height="187.4"/>
		<path class="st1" d="M136.3,46.1H51.1c-2.8,0-5,2.2-5,5v85.1c0,2.8,2.2,5,4.9,5c0,0,0,0,0.1,0h85.2c2.8,0,5-2.2,5.1-4.9v-0.1V51.1
			c0-2.8-2.2-5-4.9-5C136.3,46.1,136.3,46.1,136.3,46.1z M73.4,87.7H60.6v-3.5h4.3V72.9c0-0.6,0-1.1,0-1.8l-2.5,2.1
			c-0.2,0.1-0.3,0.2-0.5,0.3c-0.2,0-0.3,0.1-0.5,0.1c-0.3,0-0.5-0.1-0.7-0.2s-0.3-0.2-0.5-0.4l-1.5-2l7-5.9h4v19.1h3.7L73.4,87.7z
			 M107,110.4H79v-2.7c0-0.6,0.1-1.2,0.3-1.7c0.2-0.6,0.6-1.2,1.1-1.6L92,92.8c1-1,1.8-1.9,2.6-2.8c0.7-0.8,1.3-1.7,1.8-2.6
			c0.5-0.8,0.8-1.7,1.1-2.6c0.2-0.9,0.3-1.8,0.3-2.8c0.1-1.3-0.3-2.6-1.1-3.7c-0.9-0.9-2.2-1.4-3.5-1.3c-0.6,0-1.2,0.1-1.8,0.3
			c-0.5,0.2-1,0.4-1.4,0.7c-0.4,0.3-0.8,0.7-1.1,1.1c-0.3,0.4-0.5,0.9-0.7,1.4c-0.2,0.7-0.6,1.3-1.1,1.8c-0.5,0.4-1.2,0.6-1.8,0.6
			h-0.6L84,82.8L79.6,82c0.2-1.8,0.8-3.6,1.7-5.2c1.6-2.9,4.2-5,7.3-5.9c1.7-0.5,3.4-0.7,5.1-0.7c1.8,0,3.6,0.2,5.3,0.8
			c1.5,0.5,2.8,1.3,4,2.4c1.1,1,2,2.3,2.6,3.7c0.6,1.5,0.9,3.1,0.9,4.7c0,1.4-0.2,2.7-0.6,4c-0.4,1.2-1,2.4-1.7,3.5
			s-1.6,2.2-2.5,3.3c-0.9,1.1-1.9,2.1-3,3.2l-7.8,8c1-0.3,2-0.5,3-0.7c0.9-0.2,1.8-0.3,2.8-0.3h7.4c0.8,0,1.6,0.2,2.2,0.8
			c0.5,0.5,0.8,1.2,0.8,2L107,110.4z M127.9,120.4c-0.4,0.9-1,1.6-1.7,2.2s-1.6,1-2.5,1.3c-1,0.3-2,0.4-3,0.4s-1.9-0.1-2.9-0.3
			c-0.8-0.2-1.6-0.6-2.2-1.1c-0.7-0.5-1.3-1.2-1.7-1.9c-0.5-0.9-1-1.8-1.3-2.7l2.1-0.9c0.2-0.1,0.4-0.1,0.5-0.2c0.2,0,0.4,0,0.5,0
			c0.3,0,0.6,0.1,0.9,0.2s0.5,0.3,0.6,0.6c0.4,0.7,0.9,1.4,1.5,1.9c0.5,0.4,1.2,0.6,1.8,0.6c0.5,0,1-0.1,1.4-0.3
			c0.4-0.2,0.7-0.4,1-0.7c0.3-0.3,0.5-0.6,0.6-1c0.1-0.3,0.2-0.7,0.2-1.1s0-0.9-0.1-1.3s-0.3-0.7-0.6-1c-0.4-0.3-0.9-0.5-1.4-0.6
			c-0.9-0.2-1.7-0.2-2.6-0.2V111c0.8,0,1.5-0.1,2.3-0.2c0.5-0.1,0.9-0.3,1.3-0.6c0.3-0.2,0.5-0.6,0.6-0.9c0.1-0.4,0.2-0.8,0.2-1.2
			c0-0.7-0.2-1.4-0.6-2c-0.5-0.5-1.3-0.8-2-0.7c-0.3,0-0.7,0-1,0.2c-0.3,0.1-0.6,0.2-0.8,0.4c-0.2,0.2-0.4,0.4-0.6,0.6
			s-0.3,0.5-0.4,0.8c-0.1,0.4-0.3,0.7-0.6,1c-0.3,0.2-0.6,0.3-1,0.3h-0.3h-0.4l-2.5-0.4c0.2-1,0.5-2,1-2.9c0.4-0.8,1-1.5,1.8-2.1
			c0.7-0.6,1.5-1,2.4-1.3s1.9-0.4,2.9-0.4s2,0.1,3,0.5c0.8,0.3,1.5,0.7,2.2,1.3c0.6,0.5,1,1.1,1.4,1.9c0.3,0.7,0.5,1.5,0.5,2.2
			c0,0.6-0.1,1.3-0.2,1.9c-0.1,0.5-0.3,1-0.6,1.4c-0.3,0.4-0.6,0.7-1,1s-0.9,0.5-1.4,0.7c2.3,0.6,3.8,2.7,3.7,5.1
			C128.7,118.5,128.5,119.5,127.9,120.4L127.9,120.4z"/>
	</g>
</g>
</svg>
