<svg version="1.1" id="Layer_1" xmlns="http://www.w3.org/2000/svg" xmlns:xlink="http://www.w3.org/1999/xlink" x="0px" y="0px"
	 viewBox="0 0 104.5 111.4" style="enable-background:new 0 0 104.5 111.4;" xml:space="preserve">
<style type="text/css">
	.st0{fill:#35C86F;}
</style>
<title>date</title>
<path class="st0" d="M95.8,18.8h-9.6h-7.4v-5.5c-0.2-4-3.5-7.2-7.6-7.1c-3.8,0.1-6.9,3.2-7.1,7.1v5.5h-25v-5.5
	c-0.1-3.9-3.4-7-7.3-6.9c-3.9-0.1-7.2,3-7.3,6.9v5.5h-7.4H8.7c-2.8-0.1-5.1,2.1-5.2,4.9v76.6c0.1,2.8,2.4,4.9,5.2,4.9h87.1
	c2.8,0.1,5.1-2.1,5.2-4.9V23.7C100.9,21,98.6,18.7,95.8,18.8z M91.1,95.8H13.4V31.3h77.8V95.8z"/>
</svg>
