<svg version="1.1" id="Layer_1" xmlns="http://www.w3.org/2000/svg" xmlns:xlink="http://www.w3.org/1999/xlink" x="0px" y="0px"
	 viewBox="0 0 104.5 111.4" style="enable-background:new 0 0 104.5 111.4;" xml:space="preserve">
<style type="text/css">
	.st0{opacity:0.8;fill:#3D4E60;}
	.st1{fill:#FFFFFF;}
</style>
<title>date</title>
<path class="st0" d="M94.5,20h-9.3H78v-5.3c-0.2-3.9-3.4-7-7.3-6.9c-3.7,0.1-6.7,3.1-6.9,6.9V20H39.5v-5.3c-0.1-3.8-3.3-6.8-7.1-6.7
	c-3.8-0.1-7,2.9-7.1,6.7V20h-7.1H10c-2.7-0.1-5,2-5.1,4.7v74.3c0.1,2.7,2.4,4.8,5.1,4.7h84.4c2.7,0.1,5-2,5.1-4.7V24.7
	C99.4,22,97.2,19.9,94.5,20z"/>
<rect x="13.9" y="33.6" class="st1" width="76.6" height="60.9"/>
</svg>
