<svg version="1.1" id="Layer_1" xmlns="http://www.w3.org/2000/svg" xmlns:xlink="http://www.w3.org/1999/xlink" x="0px" y="0px"
	 viewBox="0 0 204.8 204.8" style="enable-background:new 0 0 204.8 204.8;" xml:space="preserve">
<style type="text/css">
	.st0{opacity:0.8;}
	.st1{fill:#3D4E60;}
</style>
<g id="Layer_2_1_" class="st0">
	<g id="Icons_1_">
		<path class="st1" d="M144.5,125.3l-7,7l-5.8-5.9l8.1-8.1l-4.4-4.4l-8.1,8.1l-28-28c3.3-4.9,5.1-10.7,5.2-16.7
			c0-16.7-13.5-30.3-30.2-30.4c-16.7,0.1-30.1,13.8-30,30.5c0.1,7.8,3.2,15.4,8.7,21l0.1,0.1c9.3,9.1,23.3,11.3,34.9,5.4l54.9,54.9
			l7.3-7.3l3.3-3.3l7-7L144.5,125.3z M83.1,86c-4.9,4.7-12.6,4.7-17.5,0h-0.1c-4.8-4.9-4.8-12.7,0.1-17.6s12.7-4.8,17.6,0.1
			c2.3,2.3,3.6,5.5,3.6,8.8C86.8,80.6,85.5,83.7,83.1,86L83.1,86z"/>
	</g>
</g>
</svg>
