<svg version="1.1" id="Layer_1" xmlns="http://www.w3.org/2000/svg" xmlns:xlink="http://www.w3.org/1999/xlink" x="0px" y="0px"
	 viewBox="0 0 27.2 27.2" style="enable-background:new 0 0 27.2 27.2;" xml:space="preserve">
<g id="Layer_2_1_">
	<g id="Icons">
		<path fill="#737480" d="M26.6,23.7l-6.2-6.2c3.2-4.4,2.7-10.5-1.1-14.4C14.9-1.1,7.8-1,3.4,3.4c-4.5,4.3-4.6,11.5-0.3,16l0,0
			c3.9,3.8,10,4.3,14.4,1.1l6.2,6.2c0.8,0.8,2.1,0.8,2.9,0C27.4,25.9,27.4,24.6,26.6,23.7L26.6,23.7z M16.3,16.3
			c-2.8,2.9-7.4,2.9-10.3,0.2C3.3,13.6,3.3,9,6.2,6.2C9,3.3,13.6,3.3,16.5,6.1C19.3,8.9,19.2,13.5,16.3,16.3z"/>
	</g>
</g>
</svg>
