<svg xmlns="http://www.w3.org/2000/svg" viewBox="0 0 70 70"><defs><style>.cls-1{fill:#c2e5ff;}.cls-2{fill:#94d2ff;}.cls-3{fill:#a6daff;}.cls-4{fill:#31a5f7;}.cls-5{fill:none;}</style></defs><title>100h</title><g id="Layer_2" data-name="Layer 2"><g id="Layer_1-2" data-name="Layer 1"><polygon class="cls-1" points="55.44 30.2 55.44 35.36 24.74 35.42 14.56 34.32 14.56 30.2 28.8 20.78 34.14 17.25 34.36 17.11 55.44 30.2"/><path class="cls-2" d="M35.27,21.09,32,22.74c-.09-1.34-1.67-1.81-3.19-2l5.34-3.53.22-.14Z"/><path class="cls-3" d="M55.44,30.2v.12a101.4,101.4,0,0,1-14.26,1.5c-6,0-16.51-.92-16.51-.92s4-2.28,7.32-8.16a21.6,21.6,0,0,0,2.15-5.49l.22-.14,6.89,4.28Z"/><path class="cls-1" d="M41.25,21.39c-2.06-.26-7-.62-9.26,1.35a21.6,21.6,0,0,0,2.15-5.49l.22-.14Z"/><rect class="cls-4" x="24.92" y="35.36" width="30.52" height="3.03"/><polygon class="cls-2" points="14.56 37.35 24.92 38.39 24.92 35.36 14.56 34.32 14.56 37.35"/><polygon class="cls-3" points="24.67 30.9 14.56 30.2 14.56 34.32 24.74 35.42 24.67 30.9"/><rect class="cls-4" x="54.19" y="38.39" width="1.25" height="11.58"/><rect class="cls-4" x="24.92" y="38.39" width="1.25" height="14.51"/><rect class="cls-4" x="42.13" y="38.39" width="1.25" height="7.16"/><rect class="cls-4" x="14.56" y="36.87" width="1.25" height="11.58"/><rect class="cls-5" width="70" height="70"/></g></g></svg>