<svg xmlns="http://www.w3.org/2000/svg" viewBox="0 0 39.8 39.8"><defs><style>.cls-1{fill:none;}.cls-2{fill:#c2e5ff;}.cls-3{fill:#94d2ff;}.cls-4{fill:#31a5f7;}.cls-5{fill:#a6daff;}</style></defs><title>10h</title><g id="Layer_2" data-name="Layer 2"><g id="Icons"><rect class="cls-1" width="39.8" height="39.8"/><rect class="cls-2" x="12.93" y="20.81" width="13.94" height="0.81"/><path class="cls-3" d="M14.1,15.83H11.75v9.49a.47.47,0,0,0,.47.47h.83a.45.45,0,0,0,.46-.44Z"/><path class="cls-3" d="M25.7,15.83h2.35v9.49a.47.47,0,0,1-.47.47h-.83a.45.45,0,0,1-.46-.44Z"/><rect class="cls-4" x="9.49" y="14.01" width="20.87" height="1.23" rx="0.62" ry="0.62"/><path class="cls-5" d="M31.65,16.09a1.46,1.46,0,0,1-1.46,1.46H9.61a1.46,1.46,0,1,1,0-2.92H30.19A1.46,1.46,0,0,1,31.65,16.09Z"/></g></g></svg>