<svg xmlns="http://www.w3.org/2000/svg" viewBox="0 0 70 70"><defs><style>.cls-1{fill:#c2e5ff;}.cls-2{fill:#94d2ff;}.cls-3{fill:#31a5f7;}.cls-4{fill:none;}</style></defs><title>121h</title><g id="Layer_2" data-name="Layer 2"><g id="Layer_1-2" data-name="Layer 1"><polyline class="cls-1" points="12.27 23.65 58.16 23.65 58.16 25.91 11.84 25.91"/><polyline class="cls-1" points="12.27 36.98 58.16 36.98 58.16 39.23 11.84 39.23"/><path class="cls-2" d="M27.33,41.61H30V37h-.84l1.32-8h.88l.74-6.88-3.74-1.12A3.67,3.67,0,0,0,30,18.14a2.43,2.43,0,0,0-2.56-2.56h-.17a2.43,2.43,0,0,0-2.56,2.56,3.67,3.67,0,0,0,1.65,2.8l-3.75,1.12.75,6.88h.88l1.32,8h-.85v4.63h2.65"/><path class="cls-2" d="M44.69,54.42h2.64V49.78h-.84l1.32-8h.88L49,39.23,49.2,37l.23-2.1-3.74-1.12A3.67,3.67,0,0,0,47.33,31a2.43,2.43,0,0,0-2.56-2.56h-.16A2.43,2.43,0,0,0,42.05,31a3.67,3.67,0,0,0,1.64,2.8L40,34.87l.23,2.1.24,2.26.27,2.51h.88l1.32,8h-.84v4.64h2.64"/><circle class="cls-3" cx="34.1" cy="48.34" r="3.58"/><rect class="cls-4" width="70" height="70"/></g></g></svg>