<svg xmlns="http://www.w3.org/2000/svg" viewBox="0 0 70 70"><defs><style>.cls-1{fill:#c2e5ff;}.cls-2{fill:none;}.cls-3{fill:#a6daff;}.cls-4{fill:#31a5f7;}</style></defs><title>123h</title><g id="Layer_2" data-name="Layer 2"><g id="Layer_1-2" data-name="Layer 1"><rect class="cls-1" x="15.76" y="13.57" width="38.47" height="15.34"/><rect class="cls-1" x="15.76" y="39.32" width="38.47" height="15.34"/><path class="cls-2" d="M54.24,45v5.15L38.69,51.25a27.75,27.75,0,0,0-6-2.25Z"/><path class="cls-2" d="M38.69,51.25,15.77,52.9V46.24A108.63,108.63,0,0,1,32.69,49,27.75,27.75,0,0,1,38.69,51.25Z"/><path class="cls-3" d="M54.24,21.24V45L32.69,49a108.63,108.63,0,0,0-16.92-2.76v-25Z"/><polygon class="cls-3" points="38.69 51.25 54.24 50.13 54.24 56.43 15.77 56.43 15.77 52.9 38.69 51.25"/><path class="cls-4" d="M24.19,29.37,26.38,31a4.34,4.34,0,0,0,4.47.42l2-1-1.83-1a4.33,4.33,0,0,0-4.73.36l-2.08,1.6"/><circle class="cls-4" cx="37.87" cy="25.82" r="0.82"/><circle class="cls-4" cx="42.7" cy="35.43" r="0.82"/><rect class="cls-2" width="70" height="70"/></g></g></svg>