<svg xmlns="http://www.w3.org/2000/svg" viewBox="0 0 70 70"><defs><style>.cls-1{fill:#c2e5ff;}.cls-2{fill:#31a5f7;}.cls-3,.cls-5,.cls-6{fill:none;}.cls-3,.cls-5{stroke:#31a5f7;stroke-linecap:round;stroke-miterlimit:10;}.cls-3{stroke-width:1.72px;}.cls-4{fill:#94d2ff;}.cls-5{stroke-width:0.86px;}</style></defs><title>130h</title><g id="Layer_2" data-name="Layer 2"><g id="Layer_1-2" data-name="Layer 1"><polyline class="cls-1" points="40.04 48.17 25.55 44.43 20.83 32 58.07 32 49.64 41.27"/><path class="cls-2" d="M54.32,48a7.15,7.15,0,0,1-7.15,7.15,7.06,7.06,0,0,1-4.36-1.5A7.14,7.14,0,1,1,54.32,48Z"/><circle class="cls-1" cx="47.17" cy="47.98" r="2.17"/><path class="cls-3" d="M25.55,44.43l-9.89-2A3.56,3.56,0,0,1,12.79,39V35.72"/><path class="cls-3" d="M28.2,51.51h0A1.79,1.79,0,0,1,26.42,50l-.87-5.55,5,1.3L30,50A1.79,1.79,0,0,1,28.2,51.51Z"/><path class="cls-4" d="M58.07,32,46.2,15.86a2.43,2.43,0,0,0-3.92,0l-5.76,7.85L32.26,20a2.44,2.44,0,0,0-3.63.47L20.83,32"/><line class="cls-5" x1="44.55" y1="19.33" x2="45.13" y2="20.02"/><line class="cls-5" x1="48.38" y1="25.36" x2="47.56" y2="25.41"/><line class="cls-5" x1="43.92" y1="23.72" x2="42.91" y2="24.83"/><line class="cls-5" x1="32.03" y1="23.77" x2="32.72" y2="24.51"/><line class="cls-5" x1="29.6" y1="27.16" x2="28.69" y2="27.63"/><rect class="cls-6" width="70" height="70"/></g></g></svg>