<svg xmlns="http://www.w3.org/2000/svg" viewBox="0 0 39.8 39.8"><defs><style>.cls-1,.cls-6{fill:none;}.cls-2{fill:#a6daff;}.cls-3,.cls-5{fill:#31a5f7;}.cls-4{fill:#c2e5ff;}.cls-5{opacity:0.5;}.cls-6{stroke:#31a5f7;stroke-miterlimit:10;}</style></defs><title>15h</title><g id="Layer_2" data-name="Layer 2"><g id="Icons"><rect class="cls-1" width="39.8" height="39.8"/><rect class="cls-2" x="11.01" y="8.61" width="17.79" height="22.59" rx="0.62" ry="0.62"/><path class="cls-3" d="M24.92,12.67V12a.07.07,0,0,1,.07-.06h.26v-.8a.26.26,0,0,0-.26-.26H23.23a.27.27,0,0,0-.27.26v.8h.26a.07.07,0,0,1,.07.06v.67a.25.25,0,0,1-.25.25H23a.3.3,0,0,0-.3.3v3h2.85v-3a.29.29,0,0,0-.3-.3h-.06A.26.26,0,0,1,24.92,12.67Z"/><path class="cls-4" d="M17.89,13.22v3h2.86v-3a1.42,1.42,0,0,0-1.43-1.42h0A1.42,1.42,0,0,0,17.89,13.22Z"/><path class="cls-4" d="M13,12v4.14h2.85V12a.24.24,0,0,0-.24-.24H13.25A.24.24,0,0,0,13,12Z"/><path class="cls-3" d="M16.12,20.82v-.73h.33v-.8a.27.27,0,0,0-.27-.26H14.42a.26.26,0,0,0-.26.26v.8h.33v.73a.26.26,0,0,1-.25.25h-.06a.29.29,0,0,0-.3.3v3h2.85v-3a.3.3,0,0,0-.3-.3h-.06A.25.25,0,0,1,16.12,20.82Z"/><path class="cls-4" d="M23.73,21.37v3h2.85v-3A1.42,1.42,0,0,0,25.15,20h0A1.41,1.41,0,0,0,23.73,21.37Z"/><path class="cls-4" d="M18.71,20.19v4.14h2.85V20.19a.23.23,0,0,0-.24-.24H19A.24.24,0,0,0,18.71,20.19Z"/><path class="cls-5" d="M19,31.19H21.1V28.54a.17.17,0,0,0-.18-.16H19.31"/><path class="cls-4" d="M17,27.63v3.56h2.85V27.63a.23.23,0,0,0-.24-.21H17.21A.23.23,0,0,0,17,27.63Z"/><line class="cls-6" x1="11.01" y1="16.2" x2="28.79" y2="16.2"/><line class="cls-6" x1="11.01" y1="24.35" x2="28.79" y2="24.35"/></g></g></svg>