<svg xmlns="http://www.w3.org/2000/svg" viewBox="0 0 70 70"><defs><style>.cls-1{fill:#a6daff;}.cls-2{fill:#87cafa;}.cls-3{fill:#31a5f7;}.cls-4{fill:none;}</style></defs><title>19h</title><g id="Layer_2" data-name="Layer 2"><g id="Layer_1-2" data-name="Layer 1"><path class="cls-1" d="M21.45,45,18.9,23.27a9.62,9.62,0,0,1,9.58-10.71h13A9.62,9.62,0,0,1,51.1,23.27L48.59,44.64"/><path class="cls-2" d="M58.84,34.33l-1.12-.09a4.09,4.09,0,0,0-1.95.34l-6.09,2.73a4,4,0,0,0-2.34,3.62v4.76H22.66V40.93a4,4,0,0,0-2.34-3.62l-6.09-2.73a4.09,4.09,0,0,0-2-.34l-1.12.09a4,4,0,0,0-3.67,4v.91a4,4,0,0,0,3.39,3.93A4,4,0,0,1,14.28,47v10.4H55.72V47a4,4,0,0,1,3.4-3.92,4,4,0,0,0,3.39-3.93v-.91A4,4,0,0,0,58.84,34.33Z"/><circle class="cls-3" cx="35" cy="29.01" r="2.21"/><polyline class="cls-3" points="39.64 28.02 37.21 29.42 39.64 30.83"/><polyline class="cls-3" points="30.36 30.83 32.79 29.42 30.36 28.02"/><rect class="cls-3" x="22.66" y="41.37" width="24.67" height="7.15"/><rect class="cls-4" width="70" height="70"/></g></g></svg>