<svg xmlns="http://www.w3.org/2000/svg" viewBox="0 0 70 70"><defs><style>.cls-1{fill:#a6daff;}.cls-2{fill:#31a5f7;}.cls-3{fill:#87cafa;}.cls-4{fill:none;}</style></defs><title>20h</title><g id="Layer_2" data-name="Layer 2"><g id="Layer_1-2" data-name="Layer 1"><path class="cls-1" d="M12,16.91h9.77a1.41,1.41,0,0,1,1.41,1.41V53.09a0,0,0,0,1,0,0H10.62a0,0,0,0,1,0,0V18.31A1.41,1.41,0,0,1,12,16.91Z"/><path class="cls-1" d="M48.21,16.91H58a1.41,1.41,0,0,1,1.41,1.41V53.09a0,0,0,0,1,0,0H46.8a0,0,0,0,1,0,0V18.31A1.41,1.41,0,0,1,48.21,16.91Z"/><circle class="cls-2" cx="16.91" cy="26.37" r="2.61"/><circle class="cls-2" cx="16.91" cy="37.61" r="2.61"/><circle class="cls-2" cx="53.09" cy="26.19" r="2.61"/><circle class="cls-2" cx="53.09" cy="37.43" r="2.61"/><path class="cls-3" d="M28.56,31.63H41.44A5.36,5.36,0,0,1,46.8,37V53.09a0,0,0,0,1,0,0H23.2a0,0,0,0,1,0,0V37A5.36,5.36,0,0,1,28.56,31.63Z"/><circle class="cls-2" cx="35" cy="42.36" r="5.68"/><circle class="cls-1" cx="35" cy="42.36" r="2.26"/><rect class="cls-4" width="70" height="70"/></g></g></svg>