<svg xmlns="http://www.w3.org/2000/svg" viewBox="0 0 70 70"><defs><style>.cls-1{fill:#87cafa;}.cls-2{fill:#a6daff;}.cls-3{fill:#31a5f7;}.cls-4{fill:none;}</style></defs><title>21h</title><g id="Layer_2" data-name="Layer 2"><g id="Layer_1-2" data-name="Layer 1"><path class="cls-1" d="M56.11,20v4.49c0,4.62-9.45,8.37-21.11,8.37s-21.11-3.75-21.11-8.37V20"/><path class="cls-1" d="M45.83,51.75v2.31c0,2.37-4.85,4.29-10.83,4.29s-10.83-1.92-10.83-4.29V51.75"/><ellipse class="cls-2" cx="35" cy="20.02" rx="21.11" ry="8.37"/><path class="cls-2" d="M37.13,48.35c5,.34,8.7,1.84,8.7,3.64,0,2.06-4.85,3.72-10.83,3.72S24.17,54.05,24.17,52c0-1.8,3.74-3.3,8.7-3.64"/><polyline class="cls-3" points="32.87 32.88 32.87 51.99 37.13 51.99 37.13 32.88"/><rect class="cls-4" width="70" height="70"/></g></g></svg>