<svg xmlns="http://www.w3.org/2000/svg" viewBox="0 0 70 70"><defs><style>.cls-1{fill:#31a5f7;}.cls-2{fill:#c2e5ff;}.cls-3{fill:#a6daff;}.cls-4{fill:none;}</style></defs><title>24h</title><g id="Layer_2" data-name="Layer 2"><g id="Layer_1-2" data-name="Layer 1"><path class="cls-1" d="M10.81,47.78H59.19a0,0,0,0,1,0,0v0a4.49,4.49,0,0,1-4.49,4.49H15.31a4.49,4.49,0,0,1-4.49-4.49v0A0,0,0,0,1,10.81,47.78Z"/><path class="cls-2" d="M42.08,45.72H16.57a4.6,4.6,0,0,0,0-6.1H42.08a3,3,0,0,1,3,3.05h0A3,3,0,0,1,42.08,45.72Z"/><path class="cls-2" d="M42.08,33.52H16.57a4.6,4.6,0,0,0,0-6.1H42.08a3,3,0,0,1,3,3h0A3,3,0,0,1,42.08,33.52Z"/><path class="cls-3" d="M39.39,39.62H13.88a4.6,4.6,0,0,0,0-6.1H39.39a3,3,0,0,1,3,3h0A3,3,0,0,1,39.39,39.62Z"/><polygon class="cls-2" points="56.9 45.6 50.23 47.48 42.43 19.59 49.09 17.72 56.9 45.6"/><polygon class="cls-1" points="50.81 25.27 44.83 26.95 43.87 23.54 49.85 21.86 50.81 25.27"/><polygon class="cls-1" points="55.53 42.15 49.55 43.83 48.59 40.42 54.58 38.74 55.53 42.15"/><rect class="cls-4" width="70" height="70"/></g></g></svg>