<svg xmlns="http://www.w3.org/2000/svg" viewBox="0 0 70 70"><defs><style>.cls-1{fill:#a6daff;}.cls-2{fill:#31a5f7;}.cls-3{fill:#d3dee6;}.cls-4{fill:#c2e5ff;}.cls-5{fill:#94d2ff;}.cls-6{fill:none;}</style></defs><title>25h</title><g id="Layer_2" data-name="Layer 2"><g id="Layer_1-2" data-name="Layer 1"><path class="cls-1" d="M29.08,53H40.92a4.68,4.68,0,0,1,4.68,4.68v0a0,0,0,0,1,0,0H24.4a0,0,0,0,1,0,0v0A4.68,4.68,0,0,1,29.08,53Z"/><rect class="cls-2" x="32.65" y="37.11" width="4.71" height="15.85"/><path class="cls-3" d="M37.62,14.09h8l9.71,20.5s-3.59,1.54-12.05,2.21c-2.37.19-5.11.31-8.26.31s-5.89-.12-8.26-.31c-8.46-.67-12-2.21-12-2.21l9.71-20.5H37.62Z"/><path class="cls-4" d="M30.06,14.09c-.08.58-.16,1.13-.24,1.68-.13.91-.25,1.77-.38,2.61-.09.59-.17,1.17-.25,1.73s-.16,1.11-.25,1.65c-.1.7-.2,1.38-.3,2-.13.89-.26,1.77-.38,2.64-.08.52-.15,1-.22,1.54l-.12.77c-.17,1.2-.35,2.41-.54,3.67,0,.24-.07.47-.1.7s-.07.47-.1.7c-.07.45-.13.9-.2,1.37a.29.29,0,0,0,0,.09c-.07.49-.14,1-.22,1.51-8.46-.67-12-2.21-12-2.21l9.71-20.5Z"/><path class="cls-5" d="M39.94,14.09c1.34,9.17,2.11,14.48,3.32,22.71-2.37.19-5.11.31-8.26.31s-5.89-.12-8.26-.31c.08-.51.15-1,.22-1.51a.29.29,0,0,1,0-.09c.07-.47.13-.92.2-1.37,0-.23.07-.47.1-.7s.07-.46.1-.7c.19-1.26.37-2.47.54-3.67L28,28c.07-.51.14-1,.22-1.54.12-.87.25-1.75.38-2.64.1-.67.2-1.35.3-2,.09-.54.17-1.09.25-1.65s.16-1.14.25-1.73c.12-.84.25-1.7.38-2.61.08-.55.16-1.1.24-1.68h2.32a15.89,15.89,0,0,0,5.24,0Z"/><path class="cls-4" d="M55.31,34.59s-3.59,1.54-12.05,2.21c-1.21-8.23-2-13.54-3.32-22.71H45.6Z"/><ellipse class="cls-2" cx="35" cy="14.09" rx="10.6" ry="1.72"/><rect class="cls-6" width="70" height="70"/></g></g></svg>