<svg xmlns="http://www.w3.org/2000/svg" viewBox="0 0 70 70"><defs><style>.cls-1{fill:#c2e5ff;}.cls-2{fill:#a6daff;}.cls-3{fill:#31a5f7;}.cls-4{fill:none;}</style></defs><title>27h</title><g id="Layer_2" data-name="Layer 2"><g id="Layer_1-2" data-name="Layer 1"><rect class="cls-1" x="33.74" y="32.29" width="2.52" height="8.79"/><path class="cls-2" d="M55.76,33.18H14.24a1.26,1.26,0,0,1-1.16-1.77L21.22,12.9a1.27,1.27,0,0,1,1.16-.76H47.62a1.27,1.27,0,0,1,1.16.76l8.14,18.51A1.26,1.26,0,0,1,55.76,33.18Z"/><path class="cls-3" d="M35,36.68h0a4.09,4.09,0,0,1,4.09,4.09V54.61a0,0,0,0,1,0,0H30.91a0,0,0,0,1,0,0V40.77A4.09,4.09,0,0,1,35,36.68Z"/><rect class="cls-2" x="27.94" y="54.61" width="14.11" height="3.25" rx="1.62" ry="1.62"/><rect class="cls-4" width="70" height="70"/></g></g></svg>