<?xml version="1.0" encoding="utf-8"?>
<!-- Generator: Adobe Illustrator 22.1.0, SVG Export Plug-In . SVG Version: 6.00 Build 0)  -->
<svg version="1.1" id="Layer_1" xmlns="http://www.w3.org/2000/svg" xmlns:xlink="http://www.w3.org/1999/xlink" x="0px" y="0px"
	 viewBox="0 0 39.8 39.8" style="enable-background:new 0 0 39.8 39.8;" xml:space="preserve">
<style type="text/css">
	.st0{fill:#C2E5FF;}
	.st1{fill:#A6DAFE;}
	.st2{fill:#2CA5F8;}
</style>
<title>3h</title>
<g>
	<path class="st0" d="M30.5,15.8H9.2c-2.4,0-4.4,2-4.4,4.4v6.9h30v-6.9C34.8,17.8,32.9,15.8,30.5,15.8z"/>
	<path class="st1" d="M19,12.5h-8.7c-0.6,0-1.1,0.5-1.1,1.1v9.3h10.8v-9.3C20.1,13,19.6,12.5,19,12.5z"/>
	<path class="st2" d="M14.8,17.7l0.6-0.6c0.1-0.1,0.1-0.3,0-0.4c-0.1-0.1-0.3-0.1-0.4,0l-0.6,0.6l-0.6-0.6c-0.1-0.1-0.3-0.1-0.4,0
		c-0.1,0.1-0.1,0.3,0,0.4l0.6,0.6l-0.6,0.6c-0.1,0.1-0.1,0.3,0,0.4c0.1,0.1,0.3,0.1,0.4,0l0.6-0.6l0.6,0.6c0.1,0.1,0.3,0.1,0.4,0
		c0.1-0.1,0.1-0.3,0-0.4L14.8,17.7z"/>
	<path class="st1" d="M29.9,12.5h-8.7c-0.6,0-1.1,0.5-1.1,1.1v9.3h10.8v-9.3C30.9,13,30.4,12.5,29.9,12.5z"/>
	<path class="st2" d="M25.5,17.7l0.6-0.6c0.1-0.1,0.1-0.3,0-0.4c-0.1-0.1-0.3-0.1-0.4,0l-0.6,0.6l-0.6-0.6c-0.1-0.1-0.3-0.1-0.4,0
		c-0.1,0.1-0.1,0.3,0,0.4l0.6,0.6l-0.6,0.6c-0.1,0.1-0.1,0.3,0,0.4c0.1,0.1,0.3,0.1,0.4,0l0.6-0.6l0.6,0.6c0.1,0.1,0.3,0.1,0.4,0
		c0.1-0.1,0.1-0.3,0-0.4L25.5,17.7z"/>
	<rect x="6.8" y="27.1" class="st2" width="2.8" height="1.4"/>
	<rect x="30" y="27.1" class="st2" width="2.8" height="1.4"/>
	<rect x="9.2" y="20.7" class="st2" width="21.7" height="2.7"/>
</g>
</svg>
