<svg id="Calque_1" data-name="Calque 1" xmlns="http://www.w3.org/2000/svg" viewBox="0 0 70 70"><defs><style>.cls-1{fill:#94d2ff;}.cls-2{fill:#31a5f7;}.cls-3{fill:none;}.cls-4{fill:#c2e5ff;}</style></defs><title>Missing_icons</title><polygon class="cls-1" points="13.31 42.02 48.11 45.17 36.44 26.2 13.31 32.5 13.31 42.02"/><polygon class="cls-2" points="13.51 34.24 36.36 27 36.36 24.26 10.36 31.76 13.51 34.24"/><polygon class="cls-1" points="57.35 42.39 36.36 32.5 36.36 22 56.36 26.85 57.35 42.39"/><polygon class="cls-2" points="56.29 29.22 36.36 22 41.16 20.8 60.7 27.07 56.29 29.22"/><polyline class="cls-1" points="13.82 39.77 12.92 35 32.68 41.7"/><polyline class="cls-1" points="34.35 37.01 34.35 45.16 55.72 40.75 55.98 34.49 55.99 34.18 34.35 37.01"/><path class="cls-2" d="M13.82,39.77s.63-1.66,3.52-2.76a6.59,6.59,0,0,1,5,0,12.92,12.92,0,0,1,4.33-2.77,17,17,0,0,1,5.36-.35l4.3-1.39,1.27.54a8.44,8.44,0,0,1,3.9.22c1.74.64,4.59,3.4,4.59,3.4a13.92,13.92,0,0,1,5.6.58,11.14,11.14,0,0,1,4,3.51L44.25,45.84l-9.66-5.41L23,45.16Z"/><rect class="cls-3" x="0.53" y="2.01" width="70" height="70"/><path class="cls-4" d="M60.7,27.07l0,15.32a2.08,2.08,0,0,1-1.25,1.91L44.56,51.43C44.28,51.55,34.35,46,34.35,46L22.8,50.9,11.36,44.61a2.15,2.15,0,0,1-1-1.81V31.7l3.15,2.48.24,4.25a2.41,2.41,0,0,0,1.19,2l8,4.71,11.61-4.73,9.66,5.41,9.62-4.28a3.26,3.26,0,0,0,1.92-2.79l.5-9.55Z"/><path class="cls-4" d="M32.32,23.55s-2.88,6.91-2.62,8.8,7.73,3,7.73,3,2.9-6.94,2.62-8.54S32.32,23.55,32.32,23.55Z"/><path class="cls-4" d="M42.78,23.09S38.57,33.22,39,36s11.33,4.41,11.33,4.41,4.24-10.17,3.83-12.51S42.78,23.09,42.78,23.09Z"/><path class="cls-2" d="M34.75,29.44a.38.38,0,0,1-.37.37c-.21,0-.19-.17-.19-.37a.37.37,0,0,1,.37-.37C34.76,29.07,34.75,29.23,34.75,29.44Z"/><path class="cls-2" d="M46.66,32a.54.54,0,0,1-.54.54c-.3,0-.27-.25-.27-.54a.54.54,0,0,1,.54-.54C46.69,31.5,46.66,31.74,46.66,32Z"/></svg>