<svg id="Calque_1" data-name="Calque 1" xmlns="http://www.w3.org/2000/svg" viewBox="0 0 70 70"><defs><style>.cls-1{fill:#c2e5ff;}.cls-2{fill:#a6daff;}.cls-3{fill:#31a5f7;}.cls-4,.cls-5{fill:none;}.cls-5{stroke:#31a5f7;stroke-linecap:round;stroke-miterlimit:10;stroke-width:0.93px;}.cls-6{fill:#94d2ff;}</style></defs><title>Missing_icons</title><path class="cls-1" d="M53.8,45.38l2.93,9.83c.15.47-.26.94-.92,1a1.1,1.1,0,0,1-.26,0L51.1,48.36l-29.59.07-4.62,7.84c-.67,0-1.22-.38-1.22-.87a.67.67,0,0,1,0-.24L19,45.35Z"/><path class="cls-2" d="M56.2,45.38l3.37,9.83c.17.47-.31.94-1.06,1a1.51,1.51,0,0,1-.3,0l-5.06-4.6-34,.07-5.37,4.53c-.77,0-1.39-.38-1.4-.87a.69.69,0,0,1,0-.24l3.77-9.81Z"/><path class="cls-3" d="M13.7,43.77H58.3c.72,0,1.3.37,1.3.82v.13c0,.45-.58.82-1.3.82H13.7c-.72,0-1.3-.37-1.3-.82v-.13C12.4,44.14,13,43.77,13.7,43.77Z"/><rect class="cls-4" x="1" y="3.51" width="70" height="70"/><rect class="cls-1" x="20.07" y="46.28" width="7.42" height="4.53"/><line class="cls-5" x1="22.97" y1="48.55" x2="24.7" y2="48.55"/><rect class="cls-3" x="28.33" y="46.28" width="16.14" height="4.53"/><rect class="cls-1" x="28.33" y="48.55" width="16.14" height="0.44"/><rect class="cls-2" x="22.5" y="27.05" width="26.99" height="14.64"/><rect class="cls-3" x="23.28" y="27.96" width="25.44" height="12.83" rx="0.68" ry="0.68"/><path class="cls-1" d="M34.74,43.11H32v.73s.68,1.24,4.25,1.21,3.86-1.21,3.86-1.21v-.73H34.74Z"/><path class="cls-6" d="M34.74,41.69v1.42H32s.68,1.24,4.25,1.21,3.86-1.21,3.86-1.21H37.22V41.69Z"/></svg>