<svg xmlns="http://www.w3.org/2000/svg" viewBox="0 0 39.8 39.8"><defs><style>.cls-1{fill:none;}.cls-2{fill:#94d2ff;}.cls-3{fill:#31a5f7;}.cls-4{fill:#c2e5ff;}.cls-5{fill:#a6daff;}</style></defs><title>3h</title><g id="Layer_2" data-name="Layer 2"><g id="Icons"><rect class="cls-1" width="39.8" height="39.8"/><rect class="cls-2" x="17.19" y="20.34" width="3.14" height="3.58" rx="0.97" ry="0.97"/><rect class="cls-3" x="16.71" y="21.95" width="4.11" height="3.05" rx="1.02" ry="1.02"/><rect class="cls-4" x="16.71" y="23.77" width="4.11" height="1.45"/><rect class="cls-2" x="11.68" y="20.34" width="3.14" height="3.58" rx="0.97" ry="0.97"/><rect class="cls-3" x="11.2" y="21.95" width="4.11" height="3.05" rx="1.02" ry="1.02"/><rect class="cls-4" x="11.2" y="23.77" width="4.11" height="1.45"/><rect class="cls-2" x="18.5" y="13" width="3.8" height="4.32" rx="1.17" ry="1.17"/><rect class="cls-3" x="17.92" y="14.94" width="4.97" height="3.68" rx="1.23" ry="1.23"/><rect class="cls-4" x="17.92" y="17.15" width="4.97" height="1.75"/><rect class="cls-2" x="24.49" y="13" width="3.8" height="4.32" rx="1.17" ry="1.17"/><rect class="cls-3" x="23.9" y="14.94" width="4.97" height="3.68" rx="1.23" ry="1.23"/><rect class="cls-4" x="23.9" y="17.15" width="4.97" height="1.75"/><rect class="cls-2" x="8.15" y="24.34" width="22.94" height="1.32"/><rect class="cls-2" x="8.15" y="17.8" width="22.94" height="1.32"/><rect class="cls-5" x="7.99" y="10.7" width="1.44" height="18.4" rx="0.72" ry="0.72"/><rect class="cls-5" x="30.37" y="10.7" width="1.44" height="18.4" rx="0.72" ry="0.72"/></g></g></svg>