<svg xmlns="http://www.w3.org/2000/svg" viewBox="0 0 70 70"><defs><style>.cls-1{fill:#a6daff;}.cls-2{fill:#31a5f7;}.cls-3{fill:none;}</style></defs><title>41h</title><g id="Layer_2" data-name="Layer 2"><g id="Layer_1-2" data-name="Layer 1"><rect class="cls-1" x="13.58" y="12.15" width="42.84" height="43.1" rx="1.83" ry="1.83"/><rect class="cls-2" x="34.48" y="12.15" width="1.05" height="43.1"/><polygon class="cls-2" points="13.58 20.95 34.48 20.95 35.52 20.95 56.42 20.95 56.42 22 35.52 22 34.48 22 13.58 22 13.58 20.95"/><polygon class="cls-2" points="13.58 30.2 34.48 30.2 35.52 30.2 56.42 30.2 56.42 31.25 35.52 31.25 34.48 31.25 13.58 31.25 13.58 30.2"/><path class="cls-2" d="M31.3,40.88a.53.53,0,0,1-.53-.53V36.9a.52.52,0,0,1,.53-.52.52.52,0,0,1,.52.52v3.45A.52.52,0,0,1,31.3,40.88Z"/><path class="cls-2" d="M38.7,40.88a.52.52,0,0,1-.52-.53V36.9a.52.52,0,0,1,.52-.52.52.52,0,0,1,.53.52v3.45A.53.53,0,0,1,38.7,40.88Z"/><path class="cls-2" d="M26.11,17H22.65a.52.52,0,0,1-.53-.52.53.53,0,0,1,.53-.53h3.46a.53.53,0,0,1,.53.53A.52.52,0,0,1,26.11,17Z"/><path class="cls-2" d="M47.35,17H43.89a.52.52,0,0,1-.53-.52.53.53,0,0,1,.53-.53h3.46a.53.53,0,0,1,.53.53A.52.52,0,0,1,47.35,17Z"/><path class="cls-2" d="M26.11,26.63H22.65a.53.53,0,0,1-.53-.53.52.52,0,0,1,.53-.52h3.46a.52.52,0,0,1,.53.52A.53.53,0,0,1,26.11,26.63Z"/><path class="cls-2" d="M47.35,26.63H43.89a.53.53,0,0,1-.53-.53.52.52,0,0,1,.53-.52h3.46a.52.52,0,0,1,.53.52A.53.53,0,0,1,47.35,26.63Z"/><path class="cls-2" d="M19.67,55.25h4.78a0,0,0,0,1,0,0V56.9a.95.95,0,0,1-.95.95H20.62a.95.95,0,0,1-.95-.95V55.25A0,0,0,0,1,19.67,55.25Z"/><path class="cls-2" d="M45.55,55.25h4.78a0,0,0,0,1,0,0V56.9a.95.95,0,0,1-.95.95H46.5a.95.95,0,0,1-.95-.95V55.25A0,0,0,0,1,45.55,55.25Z"/><rect class="cls-3" width="70" height="70"/></g></g></svg>