<svg xmlns="http://www.w3.org/2000/svg" viewBox="0 0 70 70"><defs><style>.cls-1{fill:#c2e5ff;}.cls-2{fill:#31a5f7;}.cls-3{fill:#94d2ff;}.cls-4{fill:none;}</style></defs><title>43h</title><g id="Layer_2" data-name="Layer 2"><g id="Layer_1-2" data-name="Layer 1"><path class="cls-1" d="M11.07,19.52H58.94a0,0,0,0,1,0,0v36.3a3,3,0,0,1-3,3H14.12a3,3,0,0,1-3-3V19.52A0,0,0,0,1,11.07,19.52Z"/><rect class="cls-2" x="18.63" y="32.41" width="32.66" height="14.9"/><rect class="cls-3" x="11.07" y="26.51" width="47.87" height="1.07"/><rect class="cls-3" x="11.07" y="50.79" width="47.87" height="1.07"/><path class="cls-3" d="M52.93,11.14H17.07a3.53,3.53,0,0,0-3.2,2l-3,6.35H59.13l-3-6.35A3.53,3.53,0,0,0,52.93,11.14Z"/><ellipse class="cls-2" cx="24.77" cy="14.83" rx="3.68" ry="1.07"/><ellipse class="cls-2" cx="46.95" cy="14.83" rx="3.68" ry="1.07"/><circle class="cls-2" cx="23.78" cy="23.6" r="1.09"/><circle class="cls-2" cx="35.08" cy="23.6" r="1.09"/><circle class="cls-2" cx="46.37" cy="23.6" r="1.09"/><rect class="cls-4" width="70" height="70"/></g></g></svg>