<svg xmlns="http://www.w3.org/2000/svg" viewBox="0 0 70 70"><defs><style>.cls-1{fill:#94d2ff;}.cls-2{fill:#c2e5ff;}.cls-3,.cls-4{fill:none;}.cls-3{stroke:#31a5f7;stroke-miterlimit:10;stroke-width:0.88px;}</style></defs><title>44h</title><g id="Layer_2" data-name="Layer 2"><g id="Layer_1-2" data-name="Layer 1"><path class="cls-1" d="M18.79,9.35H51.17a2.56,2.56,0,0,1,2.56,2.56v5a0,0,0,0,1,0,0H16.23a0,0,0,0,1,0,0v-5A2.56,2.56,0,0,1,18.79,9.35Z"/><path class="cls-2" d="M16.23,13.55h37.5a0,0,0,0,1,0,0V58.23a2.41,2.41,0,0,1-2.41,2.41H18.64a2.41,2.41,0,0,1-2.41-2.41V13.55A0,0,0,0,1,16.23,13.55Z"/><line class="cls-3" x1="16.23" y1="54.37" x2="53.73" y2="54.37"/><line class="cls-3" x1="20.76" y1="18.2" x2="24.52" y2="18.2"/><line class="cls-3" x1="34" y1="18.2" x2="37.76" y2="18.2"/><line class="cls-3" x1="46.28" y1="18.2" x2="50.04" y2="18.2"/><line class="cls-3" x1="20.76" y1="20.51" x2="24.52" y2="20.51"/><line class="cls-3" x1="31.63" y1="20.51" x2="35.39" y2="20.51"/><line class="cls-3" x1="43.14" y1="20.51" x2="46.9" y2="20.51"/><polyline class="cls-3" points="16.23 23.06 26.7 23.06 26.7 25.7 43.5 25.7 43.5 23.06 53.77 23.06"/><rect class="cls-4" width="70" height="70"/></g></g></svg>