<svg xmlns="http://www.w3.org/2000/svg" viewBox="0 0 70 70"><defs><style>.cls-1{fill:#c2e5ff;}.cls-2{fill:#a6daff;}.cls-3{fill:#31a5f7;}.cls-4{fill:none;}</style></defs><title>46h</title><g id="Layer_2" data-name="Layer 2"><g id="Layer_1-2" data-name="Layer 1"><rect class="cls-1" x="17.52" y="8.2" width="34.96" height="53.6" rx="1.33" ry="1.33" transform="translate(0 70) rotate(-90)"/><rect class="cls-2" x="19.59" y="17.61" width="23.13" height="34.78" rx="1.38" ry="1.38" transform="translate(-3.84 66.16) rotate(-90)"/><rect class="cls-3" x="42.43" y="34.02" width="23.13" height="1.95" rx="0.98" ry="0.98" transform="translate(19 89) rotate(-90)"/><path class="cls-3" d="M26.76,41.4a.59.59,0,0,1-.38-.14.58.58,0,0,1-.05-.8,2.15,2.15,0,0,0-.1-3l-.17-.16a3.3,3.3,0,0,1,0-4.68,2.16,2.16,0,0,0,0-3.09.56.56,0,0,1,0-.79.56.56,0,0,1,.8,0,3.28,3.28,0,0,1,0,4.71,2.14,2.14,0,0,0,0,3.06l.18.17a3.29,3.29,0,0,1,.15,4.51A.59.59,0,0,1,26.76,41.4Z"/><path class="cls-3" d="M36,41.4a.59.59,0,0,1-.38-.14.58.58,0,0,1,0-.8,2.16,2.16,0,0,0-.09-3l-.17-.16a3.28,3.28,0,0,1,0-4.68,2.14,2.14,0,0,0,0-3.09.56.56,0,0,1,0-.79.55.55,0,0,1,.79,0,3.28,3.28,0,0,1,0,4.71A2.13,2.13,0,0,0,35.45,35a2.07,2.07,0,0,0,.64,1.53l.17.17a3.28,3.28,0,0,1,.15,4.51A.59.59,0,0,1,36,41.4Z"/><path class="cls-3" d="M31.16,41.4a.59.59,0,0,1-.37-.14.58.58,0,0,1-.05-.8,2.15,2.15,0,0,0-.1-3l-.17-.16a3.29,3.29,0,0,1-1-2.35,3.25,3.25,0,0,1,1-2.33,2.16,2.16,0,0,0,0-3.09.56.56,0,0,1,0-.79.56.56,0,0,1,.8,0,3.28,3.28,0,0,1,0,4.71,2.14,2.14,0,0,0,0,3.06l.18.17a3.29,3.29,0,0,1,.15,4.51A.61.61,0,0,1,31.16,41.4Z"/><rect class="cls-4" width="70" height="70"/></g></g></svg>