<svg xmlns="http://www.w3.org/2000/svg" viewBox="0 0 70 70"><defs><style>.cls-1{fill:#c2e5ff;}.cls-2{fill:#31a5f7;}.cls-3{fill:#a6daff;}.cls-4{fill:none;}</style></defs><title>47h</title><g id="Layer_2" data-name="Layer 2"><g id="Layer_1-2" data-name="Layer 1"><path class="cls-1" d="M56.55,11.12V59a1.38,1.38,0,0,1-1.38,1.38H14.84A1.39,1.39,0,0,1,13.45,59V11.12a1.47,1.47,0,0,1,1.48-1.47H55.08A1.46,1.46,0,0,1,56.55,11.12Z"/><rect class="cls-2" x="13.45" y="17.84" width="43.1" height="1.37"/><ellipse class="cls-2" cx="35" cy="40.2" rx="12.74" ry="12.62"/><ellipse class="cls-3" cx="35" cy="40.07" rx="9.59" ry="9.5"/><ellipse class="cls-2" cx="50.05" cy="14.2" rx="1.43" ry="1.41"/><ellipse class="cls-2" cx="43.98" cy="14.2" rx="1.43" ry="1.41"/><path class="cls-2" d="M32.93,14.89H19.22a.69.69,0,1,1,0-1.37H32.93a.69.69,0,0,1,0,1.37Z"/><rect class="cls-4" width="70" height="70"/></g></g></svg>