<svg xmlns="http://www.w3.org/2000/svg" viewBox="0 0 70 70"><defs><style>.cls-1{fill:#31a5f7;}.cls-2{fill:#c2e5ff;}.cls-3{fill:#94d2ff;}.cls-4{fill:none;}</style></defs><title>48h</title><g id="Layer_2" data-name="Layer 2"><g id="Layer_1-2" data-name="Layer 1"><rect class="cls-1" x="49.35" y="51.46" width="4.29" height="2.29"/><rect class="cls-1" x="16.5" y="51.46" width="4.29" height="2.29"/><rect class="cls-2" x="12.19" y="31.65" width="45.61" height="19.81" rx="1.69" ry="1.69"/><path class="cls-2" d="M57.81,19.84H12.19a.68.68,0,0,1,0-1.36H57.81a.68.68,0,0,1,0,1.36Z"/><path class="cls-3" d="M51.05,22a.47.47,0,0,1-.47-.47V17.14a.47.47,0,0,1,.93,0v4.41A.47.47,0,0,1,51.05,22Z"/><path class="cls-1" d="M53.73,26.12a3,3,0,0,0,.39-1.49,3.07,3.07,0,1,0-6.14,0,3,3,0,0,0,.39,1.49Z"/><path class="cls-3" d="M53.13,17.19H49a.46.46,0,0,1-.46-.47.45.45,0,0,1,.46-.46h4.17a.46.46,0,0,1,.47.46A.47.47,0,0,1,53.13,17.19Z"/><path class="cls-3" d="M35.08,22a.47.47,0,0,1-.47-.47V17.14a.47.47,0,0,1,.93,0v4.41A.47.47,0,0,1,35.08,22Z"/><path class="cls-1" d="M37.76,26.12a3.12,3.12,0,0,0,.39-1.49,3.08,3.08,0,0,0-6.15,0,3.12,3.12,0,0,0,.39,1.49Z"/><path class="cls-3" d="M37.16,17.19H33a.47.47,0,0,1-.47-.47.46.46,0,0,1,.47-.46h4.17a.46.46,0,0,1,.47.46A.47.47,0,0,1,37.16,17.19Z"/><path class="cls-3" d="M19.1,22a.47.47,0,0,1-.46-.47V17.14a.47.47,0,0,1,.93,0v4.41A.47.47,0,0,1,19.1,22Z"/><path class="cls-1" d="M21.79,26.12a3.12,3.12,0,0,0,.39-1.49,3.08,3.08,0,0,0-6.15,0,3.12,3.12,0,0,0,.39,1.49Z"/><path class="cls-3" d="M21.19,17.19H17a.47.47,0,0,1-.47-.47.46.46,0,0,1,.47-.46h4.17a.46.46,0,0,1,.47.46A.47.47,0,0,1,21.19,17.19Z"/><path class="cls-1" d="M38.62,37.71a2.5,2.5,0,0,0-.22-.24l-.25-.22a5.64,5.64,0,0,1-7.48,0l-.25.22-.22.24a5.63,5.63,0,0,1,0,7.49l.22.24.25.22a5.62,5.62,0,0,1,7.48,0l.25-.22.22-.24A5.63,5.63,0,0,1,38.62,37.71Z"/><path class="cls-1" d="M46.72,42.06H39.36a.37.37,0,0,1-.38-.37.38.38,0,0,1,.38-.38h7.36a.37.37,0,0,1,.37.38A.36.36,0,0,1,46.72,42.06Z"/><path class="cls-1" d="M30,42.06H22.61a.37.37,0,0,1-.37-.37.38.38,0,0,1,.37-.38H30a.38.38,0,0,1,.38.38A.37.37,0,0,1,30,42.06Z"/><rect class="cls-4" width="70" height="70"/></g></g></svg>