<svg xmlns="http://www.w3.org/2000/svg" viewBox="0 0 70 70"><defs><style>.cls-1{fill:#a6daff;}.cls-2{fill:#31a5f7;}.cls-3{fill:#c2e5ff;}.cls-4{fill:none;}</style></defs><title>49h</title><g id="Layer_2" data-name="Layer 2"><g id="Layer_1-2" data-name="Layer 1"><rect class="cls-1" x="10.07" y="36.65" width="49.87" height="5.86"/><path class="cls-2" d="M21.82,21H24a.85.85,0,0,1,.85.85V36.65a0,0,0,0,1,0,0H21a0,0,0,0,1,0,0V21.87A.85.85,0,0,1,21.82,21Z"/><path class="cls-2" d="M46,21h2.15a.85.85,0,0,1,.85.85V36.65a0,0,0,0,1,0,0H45.18a0,0,0,0,1,0,0V21.87A.85.85,0,0,1,46,21Z"/><path class="cls-3" d="M17.38,23.05H52.62a2.14,2.14,0,0,1,2.14,2.14v2.35a0,0,0,0,1,0,0H15.24a0,0,0,0,1,0,0V25.19A2.14,2.14,0,0,1,17.38,23.05Z"/><rect class="cls-3" x="15.24" y="29.85" width="39.53" height="4.49"/><rect class="cls-2" x="12.79" y="42.51" width="2.71" height="6.47"/><rect class="cls-2" x="54.5" y="42.51" width="2.71" height="6.47"/><rect class="cls-4" width="70" height="70"/></g></g></svg>