<svg xmlns="http://www.w3.org/2000/svg" viewBox="0 0 70 70"><defs><style>.cls-1{fill:#31a5f7;}.cls-2{fill:#a6daff;}.cls-3{fill:#94d2ff;}.cls-4{fill:none;}</style></defs><title>52h</title><g id="Layer_2" data-name="Layer 2"><g id="Layer_1-2" data-name="Layer 1"><path class="cls-1" d="M20.7,57.68a.86.86,0,0,1-.23,0,1.31,1.31,0,0,1-1.07-1.52l5.9-33.28a1.32,1.32,0,0,1,2.59.46L22,56.6A1.32,1.32,0,0,1,20.7,57.68Z"/><path class="cls-1" d="M49.3,57.68A1.32,1.32,0,0,1,48,56.6l-5.9-33.28a1.32,1.32,0,0,1,2.59-.46l5.9,33.28a1.31,1.31,0,0,1-1.07,1.52A.86.86,0,0,1,49.3,57.68Z"/><path class="cls-1" d="M35.22,50.1a1.32,1.32,0,0,1-1.32-1.32V23.09a1.32,1.32,0,0,1,2.64,0V48.78A1.32,1.32,0,0,1,35.22,50.1Z"/><path class="cls-2" d="M46.72,44H23.64a1.32,1.32,0,0,1,0-2.63H46.72a1.32,1.32,0,1,1,0,2.63Z"/><path class="cls-3" d="M20.49,12.32h29a4.1,4.1,0,0,1,4.1,4.1V21a2.12,2.12,0,0,1-2.12,2.12h-33A2.12,2.12,0,0,1,16.39,21V16.42A4.1,4.1,0,0,1,20.49,12.32Z"/><rect class="cls-4" width="70" height="70"/></g></g></svg>