<svg id="Calque_1" data-name="Calque 1" xmlns="http://www.w3.org/2000/svg" viewBox="0 0 70 70"><defs><style>.cls-1{fill:#94d2ff;}.cls-2{fill:#c2e5ff;}.cls-3{fill:#a6daff;}.cls-4,.cls-6{fill:none;stroke:#31a5f7;stroke-linecap:round;stroke-miterlimit:10;}.cls-4{stroke-width:0.93px;}.cls-5{fill:#31a5f7;}.cls-6{stroke-width:0.49px;}</style></defs><title>TV</title><g id="Layer_1-2" data-name="Layer 1-2"><rect class="cls-1" x="25.04" y="18" width="19.28" height="18.5"/><path class="cls-2" d="M20.8,17V49.56H49V17ZM46.7,36.76H23.3L22.94,18h23.4Z"/><rect class="cls-3" x="21.89" y="24.44" width="25.92" height="0.83"/><rect class="cls-3" x="21.99" y="30.88" width="25.92" height="0.76"/><polygon class="cls-1" points="44.16 31.64 44.13 36.15 25.2 36.15 25.15 31.64 21.99 31.64 22.09 37.37 47.92 37.37 47.92 31.64 44.16 31.64"/><polygon class="cls-1" points="44.12 25.27 44.09 29.66 25.16 29.66 25.11 25.27 21.95 25.27 22.05 30.88 47.87 30.88 47.87 25.27 44.12 25.27"/><polygon class="cls-2" points="22.05 30.88 25.16 29.66 44.09 29.66 47.96 30.88 22.05 30.88"/><polygon class="cls-1" points="43.97 18 43.9 23.28 25.04 23.28 25.04 18 21.89 18 21.94 24.5 47.82 24.44 47.71 18 43.97 18"/><polygon class="cls-2" points="21.84 24.5 24.95 23.28 43.88 23.28 47.82 24.44 21.84 24.5"/><rect class="cls-2" x="18.8" y="40.02" width="16.2" height="15.52"/><line class="cls-4" x1="32.5" y1="49.1" x2="32.5" y2="46.46"/><rect class="cls-2" x="35" y="40.02" width="16.2" height="15.52"/><line class="cls-4" x1="37.5" y1="49.1" x2="37.5" y2="46.46"/><polygon class="cls-1" points="51.2 57.88 18.8 57.88 18.8 55.54 51.2 55.54 51.2 57.88"/><polygon class="cls-5" points="18.8 40.02 20.8 38.98 49.02 38.98 51.2 40.02 18.8 40.02"/><polygon class="cls-5" points="49.91 15.95 19.91 15.95 20.8 17.01 49.02 17.01 49.91 15.95"/></g><rect class="cls-2" x="33.9" y="18.11" width="2.39" height="19.37"/><line class="cls-6" x1="35.7" y1="28.12" x2="35.7" y2="27.38"/><line class="cls-6" x1="34.45" y1="28.12" x2="34.45" y2="27.38"/><rect class="cls-1" x="34.86" y="40.02" width="0.5" height="15.52"/><rect class="cls-1" x="34.95" y="18" width="0.15" height="20.98"/><rect class="cls-2" x="20.8" y="17.01" width="1.58" height="21.97"/><rect class="cls-2" x="47.44" y="17.01" width="1.58" height="21.97"/></svg>