<svg xmlns="http://www.w3.org/2000/svg" viewBox="0 0 39.8 39.8"><defs><style>.cls-1{fill:none;}.cls-2{fill:#31a5f7;}.cls-3{fill:#c2e5ff;}.cls-4{fill:#a6daff;}</style></defs><title>6h</title><g id="Layer_2" data-name="Layer 2"><g id="Icons"><rect class="cls-1" width="39.8" height="39.8"/><rect class="cls-2" x="9.95" y="11.16" width="19.9" height="1.89" rx="0.25" ry="0.25"/><rect class="cls-2" x="9.95" y="19.15" width="19.9" height="1.25"/><rect class="cls-3" x="9.95" y="12.41" width="19.9" height="6.74"/><circle class="cls-2" cx="14.99" cy="15.78" r="0.8"/><circle class="cls-2" cx="24.92" cy="15.78" r="0.8"/><path class="cls-2" d="M28.4,19.15h1.45a0,0,0,0,1,0,0v9.07a.42.42,0,0,1-.42.42h-.61a.42.42,0,0,1-.42-.42V19.15a0,0,0,0,1,0,0Z"/><path class="cls-2" d="M9.95,19.15H11.4a0,0,0,0,1,0,0v9.07a.42.42,0,0,1-.42.42h-.61a.42.42,0,0,1-.42-.42V19.15A0,0,0,0,1,9.95,19.15Z"/><rect class="cls-4" x="19.8" y="12.41" width="0.61" height="6.74"/></g></g></svg>