<svg xmlns="http://www.w3.org/2000/svg" viewBox="0 0 70 70"><defs><style>.cls-1{fill:#a6daff;}.cls-2{fill:#31a5f7;}.cls-3{fill:none;}</style></defs><title>72h</title><g id="Layer_2" data-name="Layer 2"><g id="Layer_1-2" data-name="Layer 1"><path class="cls-1" d="M36.11,32.8V15a3.37,3.37,0,0,0-3.37-3.37h-12A3.37,3.37,0,0,0,17.36,15V37.75a3.37,3.37,0,0,0,3.37,3.37h24.9a2.77,2.77,0,0,0,2.77-2.77h0a2.77,2.77,0,0,0-2.77-2.78H38.88A2.77,2.77,0,0,1,36.11,32.8Z"/><path class="cls-2" d="M18.77,58.34l-.27,0a1,1,0,0,1-.7-1.23l4.48-16.22a1,1,0,0,1,1.23-.7,1,1,0,0,1,.7,1.23L19.73,57.61A1,1,0,0,1,18.77,58.34Z"/><path class="cls-2" d="M36.67,58.34a1,1,0,0,1-.94-.67L30,41.45a1,1,0,0,1,.62-1.27,1,1,0,0,1,1.27.61L37.62,57A1,1,0,0,1,37,58.28.92.92,0,0,1,36.67,58.34Z"/><path class="cls-2" d="M51.63,58.34a1,1,0,0,1-1-.71L45.81,41.41a1,1,0,1,1,1.91-.58l4.87,16.22a1,1,0,0,1-.67,1.25A.92.92,0,0,1,51.63,58.34Z"/><rect class="cls-3" width="70" height="70"/></g></g></svg>