<svg xmlns="http://www.w3.org/2000/svg" viewBox="0 0 70 70"><defs><style>.cls-1{fill:#a6daff;}.cls-2{fill:#c2e5ff;}.cls-3{fill:#94d2ff;}.cls-4{fill:#31a5f7;}.cls-5,.cls-6{fill:none;}.cls-5{stroke:#31a5f7;stroke-miterlimit:10;stroke-width:0.9px;}</style></defs><title>77h</title><g id="Layer_2" data-name="Layer 2"><g id="Layer_1-2" data-name="Layer 1"><path class="cls-1" d="M13.34,35.78H56.66a0,0,0,0,1,0,0V55.19a2.28,2.28,0,0,1-2.28,2.28H15.62a2.28,2.28,0,0,1-2.28-2.28V35.78A0,0,0,0,1,13.34,35.78Z"/><polygon class="cls-2" points="56.66 35.78 13.34 35.78 20.01 28.04 49.99 28.04 56.66 35.78"/><polygon class="cls-1" points="13.34 16.96 56.66 16.96 49.99 28.04 20.01 28.04 13.34 16.96"/><path class="cls-3" d="M17.77,12.53H52.23A4.43,4.43,0,0,1,56.66,17v0a0,0,0,0,1,0,0H13.34a0,0,0,0,1,0,0v0A4.43,4.43,0,0,1,17.77,12.53Z"/><circle class="cls-4" cx="34.82" cy="46.32" r="4.71"/><line class="cls-5" x1="24.21" y1="46.32" x2="30.11" y2="46.32"/><line class="cls-5" x1="39.53" y1="46.32" x2="45.43" y2="46.32"/><rect class="cls-6" width="70" height="70"/></g></g></svg>