<svg xmlns="http://www.w3.org/2000/svg" viewBox="0 0 70 70"><defs><style>.cls-1{fill:#31a5f7;}.cls-2{fill:#c2e5ff;}.cls-3,.cls-5{fill:none;}.cls-3{stroke:#31a5f7;stroke-linecap:round;stroke-miterlimit:10;stroke-width:2px;}.cls-4{fill:#a6daff;}</style></defs><title>84h</title><g id="Layer_2" data-name="Layer 2"><g id="Layer_1-2" data-name="Layer 1"><rect class="cls-1" x="16" y="29.63" width="38.83" height="19.81"/><rect class="cls-2" x="16.46" y="17.67" width="37.08" height="14.11"/><rect class="cls-2" x="16.46" y="33.44" width="37.08" height="14.11"/><line class="cls-3" x1="30.93" y1="25.12" x2="38.44" y2="25.12"/><line class="cls-3" x1="31.55" y1="41.33" x2="39.07" y2="41.33"/><path class="cls-4" d="M12.19,15.89V55.94a1.3,1.3,0,0,0,1.3,1.3h1.66a1.31,1.31,0,0,0,1.31-1.3V17.67H53.54V55.94a1.31,1.31,0,0,0,1.31,1.3h1.66a1.3,1.3,0,0,0,1.3-1.3v-40a3.13,3.13,0,0,0-3.13-3.13H15.32A3.13,3.13,0,0,0,12.19,15.89Z"/><rect class="cls-5" width="70" height="70"/></g></g></svg>