<svg xmlns="http://www.w3.org/2000/svg" viewBox="0 0 70 70"><defs><style>.cls-1{fill:#a6daff;}.cls-2{fill:#c2e5ff;}.cls-3{fill:#31a5f7;}.cls-4,.cls-5{fill:none;}.cls-4{stroke:#31a5f7;stroke-linecap:round;stroke-miterlimit:10;stroke-width:1.75px;}</style></defs><title>85h</title><g id="Layer_2" data-name="Layer 2"><g id="Layer_1-2" data-name="Layer 1"><rect class="cls-1" x="14.97" y="24.85" width="40.65" height="18.21"/><polygon class="cls-2" points="24.88 33.88 30.15 38.47 35.43 43.06 24.88 43.06 14.33 43.06 19.6 38.47 24.88 33.88"/><polygon class="cls-2" points="45.31 33.88 50.46 38.47 55.62 43.06 45.31 43.06 35 43.06 40.15 38.47 45.31 33.88"/><polygon class="cls-2" points="24.98 33.88 19.98 29.37 14.97 24.85 24.98 24.85 35 24.85 29.99 29.37 24.98 33.88"/><polygon class="cls-2" points="45.45 33.54 40.59 29.22 35.73 24.9 45.45 24.9 55.16 24.9 50.3 29.22 45.45 33.54"/><circle class="cls-3" cx="35.29" cy="33.89" r="2.42"/><path class="cls-4" d="M7.67,46.88a49.39,49.39,0,0,0,54.66,0"/><line class="cls-4" x1="14.69" y1="50.77" x2="14.69" y2="18.64"/><line class="cls-4" x1="55.62" y1="50.77" x2="55.62" y2="18.64"/><circle class="cls-3" cx="14.69" cy="16.9" r="2.9"/><circle class="cls-3" cx="55.62" cy="16.9" r="2.9"/><rect class="cls-5" width="70" height="70"/></g></g></svg>