<svg xmlns="http://www.w3.org/2000/svg" viewBox="0 0 70 70"><defs><style>.cls-1{fill:#c2e5ff;}.cls-2{fill:#a6daff;}.cls-3{fill:#31a5f7;}.cls-4{fill:none;}</style></defs><title>87h</title><g id="Layer_2" data-name="Layer 2"><g id="Layer_1-2" data-name="Layer 1"><path class="cls-1" d="M52.46,13.38v3.14a1.1,1.1,0,0,1-1.1,1.1H18.64a1.1,1.1,0,0,1-1.1-1.1V13.38a1.11,1.11,0,0,0-1.11-1.1H12.66a1.11,1.11,0,0,0-1.11,1.1v8.48A1.11,1.11,0,0,0,12.66,23h1.47a1.11,1.11,0,0,1,1.11,1.11V56.54a1.18,1.18,0,0,0,1.18,1.18h5.64a1.18,1.18,0,0,0,1.18-1.18V54.05a1.18,1.18,0,0,1,1.18-1.18H45.58a1.18,1.18,0,0,1,1.18,1.18v2.49a1.18,1.18,0,0,0,1.18,1.18h5.64a1.18,1.18,0,0,0,1.18-1.18V24.07A1.11,1.11,0,0,1,55.87,23h1.47a1.11,1.11,0,0,0,1.11-1.1V13.38a1.11,1.11,0,0,0-1.11-1.1H53.57A1.11,1.11,0,0,0,52.46,13.38Z"/><rect class="cls-2" x="22.66" y="38.26" width="24.68" height="8.1" rx="1.01" ry="1.01"/><rect class="cls-2" x="22.66" y="24.37" width="24.68" height="8.1" rx="1.01" ry="1.01"/><circle class="cls-3" cx="35.41" cy="28.37" r="1.54"/><circle class="cls-3" cx="35.41" cy="42.31" r="1.54"/><rect class="cls-4" width="70" height="70"/></g></g></svg>