<svg xmlns="http://www.w3.org/2000/svg" viewBox="0 0 70 70"><defs><style>.cls-1,.cls-6{fill:none;}.cls-1{stroke:#31a5f7;stroke-linecap:round;stroke-miterlimit:10;stroke-width:2.32px;}.cls-2{fill:#a6daff;}.cls-3{fill:#31a5f7;}.cls-4{fill:#c2e5ff;}.cls-5{fill:#94d2ff;}</style></defs><title>88h</title><g id="Layer_2" data-name="Layer 2"><g id="Layer_1-2" data-name="Layer 1"><path class="cls-1" d="M38,25.35h6.77A1.63,1.63,0,0,1,46.46,27v4.33a0,0,0,0,1,0,0H38a0,0,0,0,1,0,0v-6A0,0,0,0,1,38,25.35Z"/><rect class="cls-2" x="10.89" y="21.4" width="28.94" height="31.36"/><path class="cls-3" d="M39.83,21.4H10.89l-.09-.59a3.08,3.08,0,0,1,3-3.57h23a3.09,3.09,0,0,1,3,3.57Z"/><rect class="cls-3" x="10.89" y="31.04" width="28.94" height="21.56"/><rect class="cls-4" x="10.89" y="36.38" width="28.94" height="16.38"/><rect class="cls-5" x="39.83" y="29.37" width="19.41" height="23.39"/><polygon class="cls-4" points="50.71 42.84 49.14 44.76 47.56 42.84 47.56 29.37 50.71 29.37 50.71 42.84"/><circle class="cls-3" cx="49.14" cy="34.35" r="0.59"/><circle class="cls-3" cx="49.14" cy="37.79" r="0.59"/><circle class="cls-3" cx="49.14" cy="41.23" r="0.59"/><path class="cls-4" d="M53.13,50.9a4.33,4.33,0,0,1,4.33-4.34V50.9Z"/><path class="cls-4" d="M57.24,35.65a4.34,4.34,0,0,1-4.33-4.34h4.33Z"/><rect class="cls-5" x="15.59" y="36.38" width="2.83" height="6.09"/><rect class="cls-5" x="32.57" y="36.38" width="2.83" height="6.09"/><rect class="cls-3" x="15.59" y="39.29" width="2.83" height="1.35"/><rect class="cls-3" x="32.57" y="39.29" width="2.83" height="1.35"/><rect class="cls-6" width="70" height="70"/></g></g></svg>