<svg xmlns="http://www.w3.org/2000/svg" viewBox="0 0 70 70"><defs><style>.cls-1{fill:#c2e5ff;}.cls-2{fill:#94d2ff;}.cls-3,.cls-4{fill:none;}.cls-3{stroke:#31a5f7;stroke-linejoin:round;stroke-width:0.76px;}</style></defs><title>92h</title><g id="Layer_2" data-name="Layer 2"><g id="Layer_1-2" data-name="Layer 1"><path class="cls-1" d="M10.34,31.41s-.76,5.76.37,6.42,34.23,9.62,36.17,9.38S59.41,37,59.41,37s1.13-4.32,0-6.1"/><path class="cls-2" d="M10.34,28.2s-.76,5.76.37,6.42S44.94,44.24,46.88,44,59.41,33.82,59.41,33.82s1.13-4.32,0-6.1"/><path class="cls-1" d="M27,23,10.34,28.2l34.58,8.41a4.08,4.08,0,0,0,3.4-.69l11.09-8.2L28.83,22.83A4.08,4.08,0,0,0,27,23Z"/><polyline class="cls-3" points="29.57 23.13 18.21 29.39 35.98 24.54 27.63 31.9 42.78 25.48 37.9 34.64 49.19 26.95 45.91 36.61"/><rect class="cls-4" width="70" height="70"/></g></g></svg>