<svg xmlns="http://www.w3.org/2000/svg" viewBox="0 0 70 70"><defs><style>.cls-1,.cls-4,.cls-5{fill:none;}.cls-1,.cls-4{stroke:#31a5f7;stroke-linecap:round;stroke-miterlimit:10;}.cls-1{stroke-width:2.69px;}.cls-2{fill:#a6daff;}.cls-3{fill:#31a5f7;}.cls-4{stroke-width:0.9px;}</style></defs><title>95h</title><g id="Layer_2" data-name="Layer 2"><g id="Layer_1-2" data-name="Layer 1"><line class="cls-1" x1="31.81" y1="48.01" x2="26.06" y2="53.05"/><line class="cls-1" x1="50.42" y1="47.86" x2="55.9" y2="53.05"/><path class="cls-2" d="M63.17,44.71v.72a3.44,3.44,0,0,1-3.44,3.44H23.37L8.13,36.76A.64.64,0,0,1,8,36.63a3.44,3.44,0,0,1,4.44-5.24l12.41,9.88h34.9A3.44,3.44,0,0,1,63.17,44.71Z"/><circle class="cls-3" cx="38.68" cy="25.15" r="2.6"/><line class="cls-4" x1="29.58" y1="25.15" x2="32.26" y2="25.15"/><line class="cls-4" x1="45.09" y1="25.15" x2="47.77" y2="25.15"/><line class="cls-4" x1="38.68" y1="34.25" x2="38.68" y2="31.56"/><line class="cls-4" x1="38.68" y1="18.74" x2="38.68" y2="16.05"/><line class="cls-4" x1="32.24" y1="31.58" x2="34.14" y2="29.68"/><line class="cls-4" x1="43.21" y1="20.62" x2="45.11" y2="18.72"/><line class="cls-4" x1="45.11" y1="31.58" x2="43.21" y2="29.68"/><line class="cls-4" x1="34.14" y1="20.62" x2="32.24" y2="18.72"/><rect class="cls-5" width="70" height="70"/></g></g></svg>