<svg xmlns="http://www.w3.org/2000/svg" viewBox="0 0 70 70"><defs><style>.cls-1{fill:#c2e5ff;}.cls-2{fill:#94d2ff;}.cls-3,.cls-7,.cls-8{fill:none;}.cls-3,.cls-7{stroke:#31a5f7;stroke-width:0.82px;}.cls-3{stroke-miterlimit:10;}.cls-4{fill:#31a5f7;}.cls-5{fill:#a6daff;}.cls-6{fill:#87cdff;}.cls-7{stroke-linejoin:round;}</style></defs><title>98h</title><g id="Layer_2" data-name="Layer 2"><g id="Layer_1-2" data-name="Layer 1"><rect class="cls-1" x="19.18" y="43.5" width="31.65" height="13.08"/><rect class="cls-2" x="13.86" y="43.5" width="5.32" height="13.08"/><rect class="cls-2" x="50.82" y="43.5" width="5.32" height="13.08"/><circle class="cls-3" cx="34.71" cy="50.04" r="3.8"/><circle class="cls-4" cx="34.71" cy="50.04" r="2.12"/><path class="cls-5" d="M19.45,13.43H50.79a4.72,4.72,0,0,1,4.72,4.72V43.5a0,0,0,0,1,0,0H14.73a0,0,0,0,1,0,0V18.15A4.72,4.72,0,0,1,19.45,13.43Z"/><line class="cls-3" x1="48.09" y1="19.6" x2="48.09" y2="31.7"/><line class="cls-3" x1="44.07" y1="19.6" x2="44.07" y2="31.7"/><line class="cls-3" x1="40.04" y1="19.6" x2="40.04" y2="31.7"/><line class="cls-3" x1="36.01" y1="19.6" x2="36.01" y2="31.7"/><line class="cls-3" x1="31.98" y1="19.6" x2="31.98" y2="31.7"/><line class="cls-3" x1="27.95" y1="19.6" x2="27.95" y2="31.7"/><line class="cls-3" x1="23.92" y1="19.6" x2="23.92" y2="31.7"/><line class="cls-3" x1="19.9" y1="19.6" x2="19.9" y2="31.7"/><line class="cls-3" x1="50.11" y1="19.6" x2="50.11" y2="31.7"/><line class="cls-3" x1="46.08" y1="19.6" x2="46.08" y2="31.7"/><line class="cls-3" x1="42.05" y1="19.6" x2="42.05" y2="31.7"/><line class="cls-3" x1="38.02" y1="19.6" x2="38.02" y2="31.7"/><line class="cls-3" x1="34" y1="19.6" x2="34" y2="31.7"/><line class="cls-3" x1="29.97" y1="19.6" x2="29.97" y2="31.7"/><line class="cls-3" x1="25.94" y1="19.6" x2="25.94" y2="31.7"/><line class="cls-3" x1="21.91" y1="19.6" x2="21.91" y2="31.7"/><line class="cls-3" x1="50.11" y1="22.15" x2="55.51" y2="22.15"/><line class="cls-3" x1="14.58" y1="22.15" x2="19.9" y2="22.15"/><path class="cls-3" d="M17.24,43.43V28.78a1.23,1.23,0,0,1,1.23-1.23H19.9"/><path class="cls-3" d="M52.66,43.43V28.78a1.23,1.23,0,0,0-1.23-1.23H50"/><rect class="cls-6" x="21" y="36.36" width="29.46" height="4.56"/><rect class="cls-1" x="19.54" y="35.29" width="30.93" height="5.63"/><polyline class="cls-7" points="50.47 35.28 47.12 40.92 43.04 35.28 39.13 40.92 34.64 35.28 31.49 40.92 27.59 35.28 24.36 40.92 19.54 35.28"/><rect class="cls-8" width="70" height="70"/></g></g></svg>