<svg xmlns="http://www.w3.org/2000/svg" viewBox="0 0 98.61 98.61"><defs><style>.a{fill:none;}.b{fill:#9cf;}.c{fill:#c8e7ff;}.d{fill:#0f72ff;}</style></defs><title>1</title><rect class="a" width="98.61" height="98.61"/><path class="b" d="M31.43,46.33H58.16a2.45,2.45,0,0,1,2.45,2.45V57.7a0,0,0,0,1,0,0H29a0,0,0,0,1,0,0V48.78a2.45,2.45,0,0,1,2.45-2.45Z"/><path class="c" d="M27.38,67.13h3a0,0,0,0,1,0,0V72a1,1,0,0,1-1,1H28.33a1,1,0,0,1-1-1V67.13a0,0,0,0,1,0,0Z"/><path class="c" d="M59.39,67.13h3a0,0,0,0,1,0,0V72a1,1,0,0,1-1,1H60.34a1,1,0,0,1-1-1V67.13A0,0,0,0,1,59.39,67.13Z"/><rect class="d" x="31.71" y="51.22" width="11.88" height="6.7" rx="0.72" ry="0.72"/><rect class="d" x="45.34" y="51.22" width="11.88" height="6.7" rx="0.72" ry="0.72"/><path class="c" d="M28.48,56.45H61.11a2.45,2.45,0,0,1,2.45,2.45v8.91a0,0,0,0,1,0,0H26a0,0,0,0,1,0,0V58.9A2.45,2.45,0,0,1,28.48,56.45Z"/><rect class="b" x="26.03" y="61.19" width="37.53" height="2.44"/><rect class="c" x="62.15" y="24.86" width="27.45" height="43.72" rx="1.56" ry="1.56"/><rect class="d" x="74.49" y="24.86" width="2.04" height="43.72"/><rect class="d" x="74.85" y="44.45" width="2.04" height="27.45" transform="translate(17.7 134.04) rotate(-90)"/><rect class="d" x="67.56" y="57.06" width="2.04" height="12.87" transform="translate(5.09 132.07) rotate(-90)"/><path class="d" d="M79.14,39.56a.78.78,0,0,0-.78.77V43a.78.78,0,0,0,1.56,0v-2.7A.78.78,0,0,0,79.14,39.56Z"/><path class="d" d="M72.44,39.56a.78.78,0,0,0-.78.77V43a.78.78,0,0,0,1.56,0v-2.7A.78.78,0,0,0,72.44,39.56Z"/><path class="d" d="M69.94,60.83a.59.59,0,0,0-.54-.63H67.54a.64.64,0,0,0,0,1.26H69.4A.59.59,0,0,0,69.94,60.83Z"/><path class="d" d="M69.94,66.15a.59.59,0,0,0-.54-.63H67.54a.64.64,0,0,0,0,1.26H69.4A.59.59,0,0,0,69.94,66.15Z"/><path class="d" d="M84.34,61.25a.59.59,0,0,0-.54-.63H81.94a.64.64,0,0,0,0,1.27H83.8A.59.59,0,0,0,84.34,61.25Z"/><circle class="d" cx="67.16" cy="71.17" r="2.59"/><circle class="c" cx="67.16" cy="71.17" r="1.21"/><circle class="d" cx="83.59" cy="71.17" r="2.59"/><circle class="c" cx="83.59" cy="71.17" r="1.21"/><rect class="b" x="12.85" y="56.06" width="4.73" height="0.86" rx="0.27" ry="0.27" transform="translate(-41.28 71.71) rotate(-90)"/><path class="c" d="M17,53a.43.43,0,0,0-.43.43v2.29a.43.43,0,0,0,.43.43.43.43,0,0,0,.43-.43V53.43A.44.44,0,0,0,17,53Z"/><rect class="c" x="13.07" y="58.16" width="4.54" height="2.25" rx="0.19" ry="0.19"/><polygon class="d" points="17.35 50.56 13.47 50.56 12.23 54.61 18.37 54.61 17.35 50.56"/><rect class="c" x="9.66" y="70.74" width="4.73" height="0.86" rx="0.27" ry="0.27" transform="translate(-58.06 53.91) rotate(-66.57)"/><rect class="c" x="19.69" y="70.74" width="4.73" height="0.86" rx="0.27" ry="0.27" transform="translate(-34.49 119.7) rotate(-113.43)"/><rect class="b" x="9.02" y="59.93" width="16.36" height="11.33" rx="0.82" ry="0.82"/><rect class="c" x="9.02" y="64.5" width="16.36" height="1.42"/><rect class="d" x="16.17" y="62.03" width="2.36" height="0.86" rx="0.27" ry="0.27"/><rect class="d" x="16.17" y="67.18" width="2.36" height="0.86" rx="0.27" ry="0.27"/></svg>