<svg xmlns="http://www.w3.org/2000/svg" viewBox="0 0 98.61 98.61"><defs><style>.a{fill:none;}.b{fill:#9cf;}.c{fill:#2b83ff;}.d{fill:#c8e7ff;}.e{fill:#0f72ff;}</style></defs><title>13</title><rect class="a" width="98.61" height="98.61"/><polygon class="b" points="67.67 22.99 49.1 15.99 29.3 22.99 49.62 32.53 67.67 22.99"/><polygon class="c" points="67.67 22.99 49.1 30.39 49.1 52.89 67.67 45.49 67.67 22.99"/><polygon class="d" points="29.3 22.99 49.1 30.39 49.1 52.89 29.3 45.49 29.3 22.99"/><path class="c" d="M39.33,36l-2.44-1.87,2.69-4.08-5.31-1.7v8.9a4,4,0,0,0,.93,2.49Z"/><path class="c" d="M40,41.51a3.07,3.07,0,0,0,3.55-3.12V31.33l-2-.66-2.1,3.19L42.23,36,36.8,41a3.68,3.68,0,0,0,1,.29l.16,0V44.5l-2.22-.73-.37,1.77,6.88,2.26L42.66,46l-2.82-.93V41.49Z"/><path class="d" d="M77.32,50.41V35.7a2.65,2.65,0,1,1,5.29,0V58.31a3.38,3.38,0,0,1-.8,2.19L71.62,72.57a4.84,4.84,0,0,0-1.13,3.11v4.15h-11V65.31a3.35,3.35,0,0,1,1.35-2.7Z"/><path class="e" d="M61.08,63.45,64,66.92l14.8-11.49a2.53,2.53,0,0,0,.3-3.57l-.17-.2a2.53,2.53,0,0,0-3.57-.3Z"/><path class="d" d="M60.21,63.19,64,66.92,77.4,53.26a2.12,2.12,0,0,0,0-3l-.76-.75a2.13,2.13,0,0,0-3,0Z"/><rect class="b" x="56.01" y="76.63" width="20.69" height="6"/><path class="d" d="M21.29,50.41V35.7a2.65,2.65,0,1,0-5.29,0V58.31a3.43,3.43,0,0,0,.8,2.19L27,72.57a4.84,4.84,0,0,1,1.13,3.11v4.15H39.17V65.31a3.36,3.36,0,0,0-1.36-2.7Z"/><path class="e" d="M37.54,63.45,34.6,66.92,19.8,55.43a2.53,2.53,0,0,1-.3-3.57l.17-.2a2.53,2.53,0,0,1,3.57-.3Z"/><path class="d" d="M38.4,63.19l-3.8,3.73L21.21,53.26a2.13,2.13,0,0,1,0-3L22,49.5a2.13,2.13,0,0,1,3,0Z"/><rect class="b" x="21.91" y="76.63" width="20.69" height="6" transform="translate(64.52 159.25) rotate(180)"/></svg>