<svg xmlns="http://www.w3.org/2000/svg" viewBox="0 0 98.61 98.61"><defs><style>.a{fill:none;}.b{fill:#c8e7ff;}.c{fill:#9cf;}.d{fill:#0f72ff;}</style></defs><title>18</title><rect class="a" width="98.61" height="98.61"/><rect class="b" x="10.43" y="36.41" width="58.81" height="42.12"/><polygon class="c" points="69.23 36.41 10.43 36.41 20.27 20.09 59.66 20.09 69.23 36.41"/><rect class="d" x="31.58" y="43.06" width="19.51" height="4.56" rx="0.89" ry="0.89"/><rect class="d" x="38.51" y="20.09" width="4.29" height="16.32"/><polygon class="d" points="40.11 64.48 38.46 62.26 36.81 60.04 35.16 62.26 33.51 64.48 35.34 64.48 35.34 68.93 38.29 68.93 38.29 64.48 40.11 64.48"/><polygon class="d" points="49.16 64.48 47.51 62.26 45.86 60.04 44.21 62.26 42.56 64.48 44.38 64.48 44.38 68.93 47.33 68.93 47.33 64.48 49.16 64.48"/><rect class="d" x="33.51" y="70.59" width="15.65" height="1.28"/><rect class="d" x="57.28" y="53.95" width="30.9" height="24.58"/><polygon class="c" points="65.72 59.1 57.28 53.95 57.28 78.53 65.72 73.38 65.72 59.1"/><polygon class="c" points="79.74 59.1 88.18 53.95 88.18 78.53 79.74 73.38 79.74 59.1"/><rect class="c" x="65.73" y="65.49" width="14.02" height="1.5"/></svg>