<svg xmlns="http://www.w3.org/2000/svg" viewBox="0 0 98.61 98.61"><defs><style>.a{fill:none;}.b{fill:#0f72ff;}.c{fill:#9cf;}.d,.e{fill:#c8e7ff;}.e{opacity:0.7;}</style></defs><title>2_1</title><rect class="a" width="98.61" height="98.61"/><polygon class="b" points="79.68 56.47 72.43 56.47 72.43 68.1 84.06 68.1 79.68 56.47"/><rect class="c" x="51.54" y="44.48" width="13.03" height="29.8"/><rect class="d" x="36.56" y="59.37" width="13.03" height="14.9"/><rect class="c" x="21.07" y="62.74" width="13.03" height="11.53"/><rect class="e" x="36.56" y="49.42" width="13.03" height="10.22"/><circle class="b" cx="53.79" cy="80.34" r="4.19"/><path class="d" d="M47.7,77.09H38.32v3.54h8.56c0-.1,0-.19,0-.29A6.9,6.9,0,0,1,47.7,77.09Z"/><path class="d" d="M88.6,69.44h-.79l-1.14-3L82.84,56.37A4.12,4.12,0,0,0,79,53.73H72.29V45.82L73.87,47a1.77,1.77,0,0,0,2.8-1.43v-6a1.75,1.75,0,0,0-.73-1.43L43.16,14.42a1.76,1.76,0,0,0-2.06,0L8,38a1.74,1.74,0,0,0-.74,1.44v6.08a1.76,1.76,0,0,0,.93,1.56A1.78,1.78,0,0,0,10,47l2-1.34v33.2a1.77,1.77,0,0,0,1.77,1.77h17V77.09H15.48V43.29L42.12,24.81,68.76,43.29v33.8H59.88a6.89,6.89,0,0,1,.84,3.25c0,.1,0,.19,0,.29h12c0-.1,0-.19,0-.29a6.94,6.94,0,0,1,13.87,0c0,.1,0,.19,0,.29H88.6a2.81,2.81,0,0,0,2.81-2.81V72.24A2.81,2.81,0,0,0,88.6,69.44ZM73.05,67.55V56.9h6a.92.92,0,0,1,.87.59L83.7,67.55Z"/><circle class="b" cx="79.55" cy="80.34" r="4.19"/><rect class="b" x="56.86" y="44.48" width="2.79" height="3.09"/><rect class="b" x="42.1" y="49.42" width="2.79" height="3.09"/><rect class="b" x="42.1" y="59.64" width="2.79" height="3.09"/><rect class="b" x="26.19" y="62.74" width="2.79" height="3.09"/></svg>