<svg width="100" height="60" viewBox="0 0 100 60" xmlns="http://www.w3.org/2000/svg"><path d="M81.1 20.7c-.1-.2-.3-.3-.6-.3-4.2 1-7.1 3.2-8.7 6.4-.4.9-.8 1.8-1 2.8-.4-4.3-1.5-8.7-4.2-11.7-2.1-2.4-5-3.5-8.6-3.4-.2 0-.4.1-.4.3 0 .2 0 .4.1.5.1.1 10.7 9.8 10.2 22.4-.2-.5-.8-.9-1.2-.9H65v-3c0-2.5-1.5-4-4-4H46.5c-1.4 0-2.7.6-3.5 1.6-.8-1-2.1-1.6-3.5-1.6H31v-8h6.8l-2.6-13H23.9L21.3 22H28v8h-3c-2.5 0-4 1.5-4 4v3h-1c-.6 0-1 .4-1 1v13c0 .5.2 1 1 1h55.5c.5 0 .9-.4 1-.8l1.7-11.3c0-.3 0-.5-.2-.7-.3-.2-.6-.2-.9-.2h-2.9c-2.5-10.9 6.3-17.4 6.7-17.7.2-.1.3-.4.2-.6zM70.9 37.9c.1.4.1.7.2 1.1h-.3c0-.3.1-.7.1-1.1zM59.3 15.6c2.7.1 4.9 1.1 6.6 3 4.6 5.1 4.3 15.4 3.9 20.4h-.9c1-11.4-6.9-20.6-9.6-23.4zM22.5 21l2.2-11h9.7l2.2 11H22.5zm7.5 1v8h-1v-8h1zm-3 21v8h-7V38h7v5zm0-6h-5v-2.6c0-2 1.5-3.4 3.4-3.4h14.1c1.2 0 2.3.6 3 1.5-.3.6-.4 1.2-.4 1.9v7.9c0 .3 0 .5.1.8H28v-5c0-.7-.4-1.1-1-1.1zm32 14H28v-7h31v7zm0-13v5H43.1c-.1-.2-.1-.5-.1-.8v-7.9c0-.7.2-1.3.6-1.9.6-.9 1.7-1.5 2.9-1.5h14c1.9 0 3.5 1.4 3.5 3.4V37h-4c-.6 0-1 .4-1 1zm1 13V38h7v1h-2c-.3 0-.6 0-.8.2-.1.2-.2.5-.2.8l1.7 11H60zm15.4 0h-8.6l-1.1-7h10.9l-1.2 7zm-.9-11h2.6l-.5 3H65.5l-.5-3h9.5zm-1.3-1h-1c-.8-3.4-1.3-8.1.5-11.8 1.2-2.4 3.1-4.1 5.8-5.2-2.6 2.7-7.1 8.7-5.3 17z" fill="#2E425E" fill-rule="evenodd"></path></svg>
