<svg xmlns="http://www.w3.org/2000/svg" viewBox="0 0 98.61 98.61"><defs><style>.a{fill:none;}.b{fill:#0f72ff;}.c{fill:#9cf;}.d{fill:#c8e7ff;}</style></defs><title>11</title><rect class="a" width="98.61" height="98.61"/><path class="b" d="M11.45,67.2S8.09,66,8,63.2s-1.5,3.57,2.13,6A2.76,2.76,0,0,0,11.45,67.2Z"/><path class="c" d="M22.91,73.78s1.72-2.35,1.05-4.49c-1-3.23-7.45-2.55-7.45-2.55s-5.79-.68-6.79,2.55c-.67,2.14,1,4.49,1,4.49S8.33,74.36,9,75.64s2.9.56,3.11,0S13.79,74,13.79,74h6.1s1.51,1,1.72,1.61,2.47,1.29,3.1,0S22.91,73.78,22.91,73.78Z"/><path class="d" d="M13.23,68.87S15.34,74,14.51,74s-1.72.11-1.87,1,.56,1.64,2.06,1.37,1.57-.84,1.57-2.71V71.88a2.76,2.76,0,0,0-1.86-2.6Z"/><path class="d" d="M20.14,68.87S18,74,18.86,74s1.72.11,1.87,1-.56,1.64-2.07,1.37-1.56-.84-1.56-2.71V71.88A2.75,2.75,0,0,1,19,69.28Z"/><path class="d" d="M21.71,62.53c0,3.83-2.29,4.71-5.1,4.71s-5.11-.88-5.11-4.71,2.29-9.17,5.11-9.17S21.71,58.69,21.71,62.53Z"/><path class="c" d="M14.5,55s-2.5-2.71-3.74-2.5-4.51,3.33-4.23,4.8S7.45,59.69,9,58.74a7.87,7.87,0,0,0,2.49-3.33L14,56.65Z"/><path class="c" d="M19.1,55s2.5-2.71,3.73-2.5,4.52,3.33,4.23,4.8-.92,2.38-2.47,1.43a7.93,7.93,0,0,1-2.5-3.33l-2.48,1.24Z"/><circle class="b" cx="15.1" cy="59.06" r="0.6"/><circle class="b" cx="18.52" cy="59.06" r="0.6"/><ellipse class="b" cx="16.79" cy="62.4" rx="1.52" ry="1.22"/><path class="b" d="M15.27,65.1c-1.18,0-1.54-.73-1.56-1.11A.27.27,0,0,1,14,63.7a.28.28,0,0,1,.29.26c0,.05.09.58,1,.58s1.06-1.41,1.06-1.43a.27.27,0,0,1,.29-.26.28.28,0,0,1,.26.3C16.84,63.82,16.45,65.1,15.27,65.1Z"/><path class="b" d="M18.34,65.1c-1.18,0-1.58-1.28-1.62-1.95a.29.29,0,0,1,.26-.3.27.27,0,0,1,.29.26c0,.06.11,1.43,1.07,1.43s1-.58,1-.58a.28.28,0,0,1,.3-.26.28.28,0,0,1,.26.29C19.87,64.37,19.52,65.1,18.34,65.1Z"/><path class="b" d="M76.18,58.48,79,60l-2.49.81s2.27,2,1.53,2.93a1.3,1.3,0,0,1-1.64.41V60.63Z"/><rect class="c" x="64.49" y="74.01" width="4.51" height="1.27"/><rect class="c" x="70.01" y="74.01" width="3.96" height="1.27"/><polygon class="c" points="66.06 71.16 65.27 71.16 66.87 74.37 67.66 74.37 66.06 71.16"/><polygon class="c" points="70.2 71.16 69.41 71.16 71.01 74.37 71.8 74.37 70.2 71.16"/><path class="b" d="M75.56,55.77A1,1,0,0,0,75,56l-.66-1-1,1.13a1,1,0,1,0-.66,1.73h2.86a1,1,0,0,0,0-2Z"/><path class="d" d="M74.37,57.09a2,2,0,0,0-2,2v2.71H59.94a1.56,1.56,0,1,0,0,3.12H63V65H61.63a1.47,1.47,0,0,0,0,2.94H63v1.63a1.59,1.59,0,0,0,1.59,1.59h7.68a4.06,4.06,0,0,0,4.06-4.06v-8A2,2,0,0,0,74.37,57.09Z"/><circle class="b" cx="75.28" cy="58.96" r="0.36"/><path class="b" d="M76,61.35S74.31,63.16,74.86,64s1.51.08,1.51.08V60.83Z"/><path class="b" d="M81.53,65.22l-1.66.88,1.48.48s-1.34,1.2-.91,1.74a.79.79,0,0,0,1,.25V66.5Z"/><rect class="c" x="85.79" y="74.45" width="2.68" height="0.75" transform="translate(174.26 149.65) rotate(180)"/><rect class="c" x="82.84" y="74.45" width="2.35" height="0.75" transform="translate(168.04 149.65) rotate(180)"/><polygon class="c" points="87.54 72.75 88.01 72.75 87.06 74.66 86.59 74.66 87.54 72.75"/><polygon class="c" points="85.08 72.75 85.55 72.75 84.6 74.66 84.13 74.66 85.08 72.75"/><path class="b" d="M81.9,63.62a.55.55,0,0,1,.31.1l.39-.62.61.67a.59.59,0,1,1,.39,1H81.9a.59.59,0,1,1,0-1.18Z"/><path class="d" d="M82.6,64.4a1.18,1.18,0,0,1,1.19,1.18v1.61h7.38a.93.93,0,1,1,0,1.85H89.33v.06h.84a.87.87,0,0,1,0,1.74h-.84v1a.94.94,0,0,1-.94.94H83.83a2.41,2.41,0,0,1-2.41-2.41V65.58A1.18,1.18,0,0,1,82.6,64.4Z"/><circle class="b" cx="82.07" cy="65.51" r="0.21"/><path class="b" d="M81.63,66.93s1,1.07.68,1.59-.89,0-.89,0V66.62Z"/><path class="b" d="M62.19,26.22s-3.06-1.08-4.54.23-3.25,8-5.94,10.05S43.15,40,42.35,40.18,55.59,42,55.59,42l6.6-12.22Z"/><path class="b" d="M34,42s-5.37-1.59-7.25,1.55-1.54,8.16-.4,13.42c.63,3,.4,5.25-1.54,6.08,4.68-.2,7.61-2.48,7.51-8.39A55.43,55.43,0,0,1,34,42Z"/><path class="d" d="M42.91,56.13c-.34.27-.59.7-.91,1-2.32,2.26-3.86,3.22-3.92,6.25s.65,12.26.65,12.26H34.8a22.5,22.5,0,0,1,.36-5.71c.59-3,1.55-4.29.89-7.2s-5.18-8.34-5-14.47S34,38.8,39,38.86s13.81,2.85,16.9-1.67c2.15-2.8,2.84-11.57,7.39-13.69a6.7,6.7,0,0,1,7.95,2.79c2.62,5.09,5.78,6.21,5.7,7S75,36.4,74.06,35.61c-2-1.69-5.13-1.49-6.41-2s-2.31,1.51-2.37,3.89S67,53,63,54.27s-13.69,3.4-16.43,3Z"/><path class="c" d="M63,48.06s2.52,3.93-1.69,9.78C59.69,60,58.41,61,58.69,65.53s.93,10.11.93,10.11H55.94a94.18,94.18,0,0,0,0-13.19c-.38-3.91-1.08-8.46-1.49-11a4.69,4.69,0,0,1,1.09-3.85C57.29,45.6,60.38,43.33,63,48.06Z"/><path class="b" d="M63.62,25s-2-2.87-3.67-2.78.61,4.88,2.38,5.16Z"/><circle class="b" cx="68.68" cy="28.05" r="0.69"/></svg>