<svg width="100" height="60" viewBox="0 0 100 60" xmlns="http://www.w3.org/2000/svg"><path d="M66.2 10H34.4c-2.1 0-3.4 1.2-3.4 3.4v31.5c0 2.1 1.3 4.2 3.4 4.2h31.8c2.1 0 3.8-2 3.8-4.2V13.4c0-2.2-1.7-3.4-3.8-3.4zm-31.8 1h31.8c1.6 0 2.8.8 2.8 2.4v9.7c-.1 0-.2-.1-.4-.1H32v-9.6c0-1.6.8-2.4 2.4-2.4zm32.1 25L54.9 24H61l8 7.8v3.9c0 .2-.2.4-.4.4h-2.1V36zM32 31.9l3.8 4.1h-3.4c-.2 0-.4-.2-.4-.4v-3.7zm5.2 4.1L32 30.4v-5.5L42.7 36h-5.5zm6.8 0L32.5 24h6.1l11.5 12H44zm7.5 0L40 24h6.1l11.6 12h-6.2zm7.5 0L47.4 24h6.1l11.6 12H59zm10-5.6L62.5 24h6.2c.2 0 .4.2.4.4v6H69zM66.2 48H34.4c-1.6 0-2.4-1.6-2.4-3.2v-7.9h37v7.9c0 1.6-1.2 3.2-2.8 3.2zM28.4 29.5c0-.2-.1-.5-.2-.6l-6.6-5.2-.6.8 5.8 4.5H11v1h15.6L21 34.1l.6.8 6.6-4.8c.1-.1.2-.4.2-.6zm44.2 0c0-.2.1-.5.2-.6l6.6-5.2.6.8-5.8 4.5H90v1H74.4l5.7 4.1-.6.8-6.6-4.8c-.2-.1-.3-.4-.3-.6z" fill="#2E425E" fill-rule="evenodd"></path></svg>
