<svg width="100" height="60" viewBox="0 0 100 60" xmlns="http://www.w3.org/2000/svg"><path d="M63 21.2V7.5c0-.3-.2-.5-.5-.5h-1.1l.3-3.9c0-.3-.1-.6-.2-.8-.3-.3-.8-.3-1-.3h-3.3c-.3 0-.7 0-1 .3-.2.2-.2.4-.2.8l.3 3.9h-.8c-.3 0-.5.2-.5.5v13.7c-3.8 1.5-6 5.2-6 9.8v4.9c-1.1-.3-2.7-.2-3.9.1.6-1.3 1.2-2.9 1-4.8-.2-2.3-1.4-4.3-3.6-6-.2-.2-.5-.1-.7.1-.1.1-2.9 3.3-2.6 7.2v.1c-.1 0-.1-.1-.2-.1-2-1.1-4.3-1.1-7-.2-.2.1-.4.3-.3.6 0 .1.7 2.4 2.4 4.3-.7.5-1.4 1.2-1.9 2-1.6 2.4-2.1 5.6-1.3 9 1.2 5.2 4.9 9.1 8.9 9.4 0 0 .7 0 1.5-.1.2 0 .4-.1.6-.2.5-.2 1-.4 1.5-.7 0 0 1 .9 1.6.9.3 0 .6.1.8.1 1.7 0 3.4-.7 4.9-1.8 1 .9 2.2 1.4 3.5 1.4h11c2.3 0 3.9-1.9 3.9-4.6V30.9c-.1-4.5-2.3-8.2-6.1-9.7zM57.2 3h3.5l-.3 4-.1 1-.1 1.8c0 .2 0 .2-.4.2h-1.9c-.2 0-.3-.2-.4-.4L57.4 8l-.1-1-.3-4h.2zM42.3 26.3c1.7 1.4 2.7 3.1 2.8 4.9.2 2.1-.7 4-1.4 5.2-.2.3-.4.6-.5.8l-.1.1-.3-.3c-1.2-1.1-2-2.4-2.3-3.7-.1-.3-.1-.6-.2-1-.3-2.7 1.3-5.1 2-6zm-9.4 6.6c2.2-.6 4.1-.5 5.7.3.4.2.7.4 1 .7.3 1.1.9 2.1 1.7 3l1.2 1.2c0 .1.1.1.1.2-.2.1-.4.1-.7.2-1.9.4-3.6.2-5.1-.5-.4-.2-.7-.4-1-.7-.3-.2-.6-.5-.8-.7-1.2-1.3-1.9-2.9-2.1-3.7zm12.2 23.4c-.3 0-.6-.3-.9-.6.6-.6 1.1-1.5 1.4-2.6l-1-.2c-.2 1-.6 1.7-1.2 2.2-.6.6-1.3.9-1.9 1.1-.1 0-.1 0-.2.1-4 .6-8.2-3.2-9.4-8.5-.7-3-.3-6.1 1.1-8.2.5-.8 1.1-1.4 1.8-1.8.4.4.9.8 1.5 1.1 1.1.6 2.3.9 3.6.9 1.1 0 2.2-.2 3.4-.6.3-.1.4-.3.3-.6 0 0 0-.1-.1-.2.1-.2.5-.6.8-1.1.2-.1.5-.2.8-.3 1.4-.4 2.9-.3 3.8 0 0 0 1 .5 1.1.5 3.2 1.3 5 5.6 4.1 10.2-.5 2.7-1.8 5-3.4 6.6-.2.1-.5.3-.7.5-1.5 1.1-3.2 1.7-4.9 1.5zM68 52.4c0 1.8-.9 3.6-2.9 3.6h-11c-1 0-2-.4-2.8-1.1 1.8-1.7 3.2-4.2 3.7-7.1 1-5.2-1.2-10.1-5-11.5 0 0-.1 0-.1-.1v-5.3c0-4.4 2.1-7.6 5.7-9 .2-.1.3-.3.3-.5V8h.4l.2 1.7c.1.8.6 1.3 1.4 1.3h1.9c1.2 0 1.3-.8 1.4-1.2l.1-1.8h.7v13.5c0 .2.1.4.3.5 3.6 1.3 5.7 4.6 5.7 8.9v21.5z" fill="#2E425E" fill-rule="evenodd"></path></svg>
