<svg xmlns="http://www.w3.org/2000/svg" viewBox="0 0 98.61 98.61"><defs><style>.a{fill:none;}.b{fill:#9cf;}.c{fill:#0f72ff;}.d{fill:#c8e7ff;}.e{fill:#2b83ff;}</style></defs><title>14</title><rect class="a" width="98.61" height="98.61"/><path class="b" d="M23.55,54.46v3.72h-8V54.53a4,4,0,0,1,8-.07Z"/><path class="b" d="M28.05,52.59a2.92,2.92,0,0,0-2.93,2.92v2.67H31V55.47A2.93,2.93,0,0,0,28.05,52.59Z"/><path class="c" d="M19.53,46.15a1.41,1.41,0,0,0-1.4,1.41v4.67h2.8V47.56A1.41,1.41,0,0,0,19.53,46.15Z"/><path class="d" d="M23.55,54.46l-2.62-1.67L19.7,55.28l-1.87-2.36-2.31,1.94v-.33a4,4,0,0,1,8-.07Z"/><path class="c" d="M32.46,47.87c-.63-1-1.93.32-2.31-.13s.82-1.89-.22-2.5-1.43.41-1.6.77c-.18-.36-.72-1.29-1.61-.77s.17,2-.21,2.5-1.69-.84-2.32.13c-.87,1.32,2.3,3.67,3,4.38a1.5,1.5,0,0,1,.36,1.61h1.47a1.5,1.5,0,0,1,.36-1.61C30.17,51.54,33.34,49.19,32.46,47.87Z"/><path class="d" d="M61.72,21s-5.63-7.39-8.13-5.24C53.59,15.75,52.66,20.67,61.72,21Z"/><path class="c" d="M67.44,24.18c0,4.88-1.87,7.25-4.44,8-.86.24-.64-.27-1.76-.27-.54,0-.78.52-1.56.32-2.66-.68-4.63-3-4.63-8,0-2.7,2.77-4,6.19-4S67.44,21.48,67.44,24.18Z"/><path class="c" d="M62.13,21.13,61,21.07c.07-1.16.39-3,2-3.11l.06.54C62.07,18.56,62.13,21.11,62.13,21.13Z"/><path class="c" d="M52.55,31.72c-3.67,3.23-4.21,6.2-3,8.6.39.8.63.29,1.37,1.13.36.41.13.94.79,1.39C53.93,44.39,57,44.3,60.74,41c2-1.79,1.15-4.71-1.12-7.28S54.58,29.93,52.55,31.72Z"/><path class="c" d="M58.35,33.69l.77.78c.83-.82,2-2.29,1-3.6l-.45.32C60.32,32,58.36,33.67,58.35,33.69Z"/><path class="e" d="M65.05,31.05c-3.67,3.23-4.2,6.2-3,8.61.38.79.62.29,1.36,1.13.36.4.13.93.79,1.39,2.27,1.55,5.35,1.46,9.08-1.83,2-1.79,1.15-4.71-1.11-7.27S67.08,29.27,65.05,31.05Z"/><path class="e" d="M70.85,33l.77.78c.83-.81,2-2.29,1-3.59l-.45.32C72.82,31.37,70.86,33,70.85,33Z"/><path class="c" d="M75.78,42.2c3.66,3.23,4.2,6.2,3,8.61-.39.8-.62.29-1.37,1.13-.35.41-.13.93-.79,1.39-2.27,1.55-5.34,1.46-9.07-1.83-2-1.78-1.15-4.71,1.11-7.27S73.75,40.42,75.78,42.2Z"/><path class="c" d="M70,44.17,69.2,45c-.82-.82-2-2.3-1-3.6l.44.32C68,42.52,70,44.16,70,44.17Z"/><path class="e" d="M63.37,42.21c3.66,3.23,4.2,6.2,3,8.6-.38.8-.62.29-1.36,1.13-.36.41-.13.94-.79,1.39-2.27,1.55-5.35,1.46-9.08-1.83-2-1.78-1.15-4.7,1.11-7.27S61.34,40.42,63.37,42.21Z"/><path class="e" d="M57.57,44.18,56.8,45c-.83-.82-2-2.3-1-3.6l.45.32C55.6,42.52,57.56,44.16,57.57,44.18Z"/><path class="c" d="M50.45,42.21c3.67,3.23,4.21,6.2,3,8.6-.39.8-.63.29-1.37,1.13-.36.41-.13.94-.79,1.39-2.27,1.55-5.34,1.46-9.08-1.83-2-1.78-1.15-4.7,1.12-7.27S48.43,40.42,50.45,42.21Z"/><path class="c" d="M44.66,44.18l-.78.78c-.83-.82-2-2.3-1-3.6l.45.32C42.68,42.52,44.64,44.16,44.66,44.18Z"/><rect class="d" x="34.64" y="50.58" width="50.51" height="13.48"/><rect class="c" x="34.64" y="61.05" width="50.51" height="13.48"/><rect class="d" x="34.64" y="65.76" width="50.51" height="13.48"/><path class="b" d="M86,83.14a2.21,2.21,0,0,1-2.2-2.2V50.58a2.2,2.2,0,1,1,4.4,0V80.94A2.2,2.2,0,0,1,86,83.14Z"/><path class="b" d="M34.64,83.14a2.21,2.21,0,0,1-2.21-2.2V50.58a2.21,2.21,0,1,1,4.41,0V80.94A2.21,2.21,0,0,1,34.64,83.14Z"/><path class="b" d="M90.45,83.14H30a2.21,2.21,0,0,1,0-4.41H90.45a2.21,2.21,0,0,1,0,4.41Z"/><path class="b" d="M40.22,64.67c-4.23.72-8.21-1.08-9.86-4.19a6.24,6.24,0,0,1-.78-2.15,6.17,6.17,0,0,1,0-2c.42-3.61,3.66-6.76,8-7.48a9.76,9.76,0,0,1,8.78,2.68,6.64,6.64,0,0,1,1.21,1.74,6.51,6.51,0,0,1,.64,1.94C49,59.56,45.37,63.81,40.22,64.67Z"/><path class="c" d="M40.22,64.67c-5.13.88-9.91-2-10.64-6.34a6.17,6.17,0,0,1,0-2,.38.38,0,0,1,.11-.11,3.49,3.49,0,0,1,3.68-.59c.62.33,1.17,1,1.87.84s1-.71,1.23-1.28a2.9,2.9,0,0,1,1-1.54,2.4,2.4,0,0,1,2.43.35,3.11,3.11,0,0,0,2.42.62c1.32-.44,1.45-2.51,2.75-3a2.11,2.11,0,0,1,1.34,0,7,7,0,0,1,1.85,3.68C49,59.56,45.37,63.81,40.22,64.67Z"/><path class="d" d="M40.22,64.67c-4.23.72-8.21-1.08-9.86-4.19.63-.3,1.07-1,1.76-1.34,1.3-.55,2.79.75,4.14.29.88-.31,1.34-1.3,2.18-1.74,1-.55,2.29-.13,3.45-.24a3.88,3.88,0,0,0,3-2,5,5,0,0,1,1-1.8,2,2,0,0,1,1.69-.38,6.51,6.51,0,0,1,.64,1.94C49,59.56,45.37,63.81,40.22,64.67Z"/><rect class="d" x="11.47" y="56.84" width="36.42" height="10.75"/><rect class="c" x="11.47" y="65.19" width="36.42" height="10.75"/><rect class="d" x="11.47" y="68.95" width="36.42" height="10.75"/><path class="b" d="M48.53,83.25a2.19,2.19,0,0,1-2.2-2.2V56.84a2.2,2.2,0,1,1,4.4,0V81.05A2.2,2.2,0,0,1,48.53,83.25Z"/><path class="b" d="M11.47,83.25a2.2,2.2,0,0,1-2.2-2.2V56.84a2.21,2.21,0,0,1,4.41,0V81.05A2.2,2.2,0,0,1,11.47,83.25Z"/><path class="b" d="M51.71,83.25H8.16a2.2,2.2,0,1,1,0-4.4H51.71a2.2,2.2,0,0,1,0,4.4Z"/></svg>