<svg width="100" height="60" viewBox="0 0 100 60" xmlns="http://www.w3.org/2000/svg"><g fill="#2E425E" fill-rule="evenodd"><path d="M64.8 23h-.2c-.1-.1-.3-.2-.3-.3-.6-2.1-1.1-3.7-1.8-5.3-.1-.1 0-.3 0-.4 0 0 0-.1.1-.1.1-.2.2-.5.4-.6 1.8-.5 3.9.5 4.4 2.3.5 1.5-.4 3.1-2.4 4.4h-.2zm-1.2-5.8c.6 1.4 1 2.8 1.5 4.5.8-.6 1.8-1.6 1.4-2.8-.3-1.1-1.6-2-2.9-1.7z"></path><path d="M70 34c-.9 0-1.8.1-2.6.4l-7.9-21.5c0-.1-.4-1.3-2.5-2.1v-.2c0-.8-.7-1.5-1.5-1.5h-7c-.8 0-1.5.7-1.5 1.5v1c0 .8.7 1.5 1.5 1.5h7c.7 0 1.3-.5 1.5-1.2 1.3.6 1.6 1.3 1.6 1.4l4.2 11.4c-.1 0-.1.1-.1.2l-7 11.1h-4.2c-.4 0-.8-.1-1.2-.3-2.1-1.3-4.9-5-5-5-2.8-3.2-7.1-3.7-9.3-3.7H23c-.3 0-.5.2-.5.5s.2.5.5.5h13c2.1 0 6 .4 8.6 3.3.1.2 2.9 3.8 5.2 5.2.5.3 1.1.5 1.7.5H56c.2 0 .3-.1.4-.2l6.7-11 1.2 3.3L55.7 42h-9.2c-.1-3-1.5-6-3.7-8.1-2.4-2.3-5.5-3.5-8.8-3.3-7.6.3-10 4.1-11.9 7.1H22c-.1.2-.1.5.2.7.2.1.5.1.7-.2l.1-.1c1.9-3 4-6.3 11.1-6.6 2-.1 3.9.4 5.5 1.3l-1.7 2.7c-1.2-.6-2.5-.9-3.9-.9-4.7 0-8.5 3.8-8.5 8.5s3.8 8.5 8.5 8.5 8.5-3.8 8.5-8.5H56c.2 0 .3-.1.4-.2l8.4-12.6 1.7 4.5C63.2 36.1 61 39.3 61 43c0 5 4 9 9 9s9-4 9-9-4-9-9-9zM56 11.5c0 .3-.2.5-.5.5h-7c-.3 0-.5-.2-.5-.5v-1c0-.3.2-.5.5-.5h7c.3 0 .5.2.5.4v1.1zM38.2 36.8c1.7 1.2 2.9 3 3.2 5.2h-4.1c-.2-.7-.7-1.4-1.3-1.8l2.2-3.4zm-4.7 5.8v.2c-14.1-45.8 0 .1.1.1l.1.1c.1 0 .1.1.2.1h2.5c0 1.4-1.1 2.5-2.5 2.5s-2.5-1.1-2.5-2.5 1.1-2.5 2.5-2.5c.2 0 .4 0 .6.1l-1 1.6v.3c0-.1 0-.1 0 0 0-.1 0-.1 0 0zm1.4-.6l.6-1c.3.3.6.6.8 1h-1.4zm-.9 8.5c-4.1 0-7.5-3.4-7.5-7.5s3.4-7.5 7.5-7.5c1.2 0 2.3.3 3.3.8l-2.2 3.4c-.4-.1-.8-.2-1.2-.2-1.9 0-3.5 1.6-3.5 3.5s1.6 3.5 3.5 3.5 3.5-1.6 3.5-3.5h4c.1 4.1-3.3 7.5-7.4 7.5zm8.4-8.5c-.3-2.5-1.7-4.7-3.7-6.1l1.7-2.7c.6.4 1.1.8 1.6 1.3 2.1 2 3.3 4.6 3.4 7.4h-3v.1zM70 51c-4.4 0-8-3.6-8-8 0-3.3 2-6.1 4.8-7.3l1.6 4.3c-1.1.6-1.8 1.7-1.8 3.1 0 1.9 1.6 3.5 3.5 3.5s3.5-1.6 3.5-3.5-1.6-3.5-3.5-3.5c-.2 0-.5 0-.7.1l-1.6-4.2c.7-.2 1.5-.3 2.3-.3 4.4 0 8 3.6 8 8S74.4 51 70 51zm-.5-7.8c.1.2.3.3.5.3h.2c.3-.1.4-.4.3-.6l-.8-2.3h.4c1.4 0 2.5 1.1 2.5 2.5s-1.1 2.5-2.5 2.5-2.5-1.1-2.5-2.5c0-.9.5-1.7 1.2-2.1l.7 2.2z"></path></g></svg>
