<svg xmlns="http://www.w3.org/2000/svg" viewBox="0 0 98.61 98.61"><defs><style>.a{fill:none;}.b{fill:#0f72ff;}.c{fill:#9cf;}.d{fill:#c8e7ff;}</style></defs><title>17</title><rect class="a" width="98.61" height="98.61"/><path class="b" d="M68.37,30.14H61.82a1.52,1.52,0,0,0-1.51,1.51v.42a1.52,1.52,0,0,0,1.51,1.51h3.69A1.51,1.51,0,0,0,67,32.07v-.42a.8.8,0,0,0,0-.15h.55a.54.54,0,0,1,.54.54v4.25h1.37V31.21A1.07,1.07,0,0,0,68.37,30.14Z"/><path class="b" d="M74.13,30.14h6.55a1.52,1.52,0,0,1,1.51,1.51v.42a1.52,1.52,0,0,1-1.51,1.51H77a1.51,1.51,0,0,1-1.51-1.51v-.42a.8.8,0,0,1,0-.15H75a.54.54,0,0,0-.54.54v4.25H73.06V31.21A1.07,1.07,0,0,1,74.13,30.14Z"/><rect class="c" x="78.06" y="56.99" width="1.73" height="4.26" transform="translate(-15.08 88.89) rotate(-54.41)"/><path class="d" d="M90,52.72V67.66a.82.82,0,0,1-.82.81H83.37a.8.8,0,0,1-.8-.81V52.72a.8.8,0,0,1,.8-.81h5.76A.82.82,0,0,1,90,52.72Z"/><path class="c" d="M80,56.9h2.55a0,0,0,0,1,0,0v5.56a0,0,0,0,1,0,0H80a.41.41,0,0,1-.41-.41V57.31A.41.41,0,0,1,80,56.9Z"/><path class="c" d="M90,54.4v1.73h0l-3,0a.87.87,0,0,1,0-1.73l3,0Z"/><path class="c" d="M90,61v1.73h0l-3,0a.86.86,0,0,1-.86-.85.87.87,0,0,1,.85-.89h3Z"/><path class="c" d="M86.42,58.5a.87.87,0,0,1-.87.87l-3,0h0V57.66l3,0A.9.9,0,0,1,86.42,58.5Z"/><path class="c" d="M86.42,65.1a.87.87,0,0,1-.87.88l-3,0h0V64.27l3,0A.88.88,0,0,1,86.42,65.1Z"/><rect class="c" x="61.57" y="58.25" width="4.26" height="1.73" transform="translate(-22.51 48.12) rotate(-35.59)"/><path class="c" d="M60.46,56.9H63a0,0,0,0,1,0,0v5.56a0,0,0,0,1,0,0H60.46a.41.41,0,0,1-.41-.41V57.31A.41.41,0,0,1,60.46,56.9Z" transform="translate(123.07 119.36) rotate(180)"/><polygon class="d" points="76.72 35.71 66.03 35.71 62.65 42.76 62.65 52.73 66.03 59.78 76.72 59.78 80.1 52.73 80.1 42.76 76.72 35.71"/><path class="c" d="M66.91,30.39h6.51a2.21,2.21,0,0,1,2.21,2.21V59.54a2.21,2.21,0,0,1-2.21,2.21H66.91a0,0,0,0,1,0,0V30.39A0,0,0,0,1,66.91,30.39Z" transform="translate(25.2 117.34) rotate(-90)"/><circle class="b" cx="59.31" cy="46" r="2.07"/><circle class="b" cx="82.88" cy="46" r="2.07"/><rect class="b" x="65.71" y="44.28" width="11.28" height="0.84" rx="0.24" ry="0.24"/><rect class="b" x="65.71" y="47.06" width="11.28" height="0.84" rx="0.24" ry="0.24"/><rect class="c" x="68.89" y="37.95" width="5.06" height="2.03" rx="0.59" ry="0.59"/><polygon class="c" points="76.22 52.71 67.03 52.71 68.4 56.87 74.84 56.87 76.22 52.71"/><circle class="b" cx="55.37" cy="60.14" r="8.34"/><circle class="d" cx="55.37" cy="60.14" r="3.88"/><circle class="b" cx="21.44" cy="60.14" r="8.34"/><circle class="d" cx="21.44" cy="60.14" r="3.88"/><polygon class="c" points="36.31 64.02 9.57 62.9 9.26 60.99 36.31 60.99 36.31 64.02"/><rect class="d" x="38.01" y="53.99" width="7.53" height="5.11" rx="1.48" ry="1.48"/><rect class="c" x="34.37" y="58.02" width="10.18" height="5.99" rx="1.48" ry="1.48"/><path class="c" d="M50.64,43.49a.88.88,0,0,1-.85-.68L49,39l-6.43-1.51a.87.87,0,0,1,.4-1.69l7.49,1.77,1.05,4.92a.87.87,0,0,1-.67,1A.55.55,0,0,1,50.64,43.49Z"/><polygon class="b" points="10.29 49.45 13.1 54.73 45.82 53.99 48.7 47.3 10.29 49.45"/><path class="d" d="M12.27,37.54h4.25a2,2,0,0,1,2,2v9.92a0,0,0,0,1,0,0H10.29a0,0,0,0,1,0,0V39.53A2,2,0,0,1,12.27,37.54Z"/><rect class="d" x="18.51" y="44.54" width="9.43" height="4.91"/><polygon class="c" points="37.57 49.45 27.62 49.45 27.62 44.54 37.57 45.9 37.57 49.45"/><path class="c" d="M41.85,42.63h4.69A3.29,3.29,0,0,1,49.71,46h0a3.3,3.3,0,0,1-3.17,3.41H31.94l6.86-5.7A4.73,4.73,0,0,1,41.85,42.63Z"/><path class="c" d="M55.37,61a.88.88,0,0,1-.84-.63L49.78,43.73a.86.86,0,0,1,.59-1.07.88.88,0,0,1,1.07.6L56.2,59.9A.87.87,0,0,1,55.6,61Z"/><path class="c" d="M15.14,48.82H27.75a4.85,4.85,0,0,1,4.85,4.85v3.94a.55.55,0,0,1-.55.55H10.84a.55.55,0,0,1-.55-.55V53.67a4.85,4.85,0,0,1,4.85-4.85Z"/><path class="b" d="M49,41.9h5.8a.69.69,0,0,1,.69.69v2.5A1.48,1.48,0,0,1,54,46.56H49.8a1.48,1.48,0,0,1-1.48-1.48v-2.5A.69.69,0,0,1,49,41.9Z" transform="translate(22.18 105.61) rotate(-104.59)"/></svg>