<svg xmlns="http://www.w3.org/2000/svg" viewBox="0 0 98.61 98.61"><defs><style>.a{fill:none;}.b{fill:#c8e7ff;}.c{fill:#0f72ff;}</style></defs><title>19</title><rect class="a" width="98.61" height="98.61"/><rect class="b" x="36.38" y="14.98" width="25.84" height="25.46"/><rect class="c" x="45.83" y="14.98" width="6.94" height="7.2"/><polygon class="c" points="53.22 32.7 52.13 31.23 51.03 29.75 49.94 31.23 48.84 32.7 50.05 32.7 50.05 35.65 52.01 35.65 52.01 32.7 53.22 32.7"/><polygon class="c" points="59.23 32.7 58.13 31.23 57.03 29.75 55.94 31.23 54.84 32.7 56.05 32.7 56.05 35.65 58.01 35.65 58.01 32.7 59.23 32.7"/><rect class="c" x="48.84" y="36.75" width="10.38" height="0.85"/><rect class="b" x="20.95" y="44.14" width="25.84" height="25.46"/><rect class="c" x="30.4" y="44.14" width="6.94" height="7.2"/><polygon class="c" points="37.79 61.86 36.69 60.39 35.6 58.91 34.5 60.39 33.41 61.86 34.62 61.86 34.62 64.81 36.58 64.81 36.58 61.86 37.79 61.86"/><polygon class="c" points="43.79 61.86 42.7 60.39 41.6 58.91 40.5 60.39 39.41 61.86 40.62 61.86 40.62 64.81 42.58 64.81 42.58 61.86 43.79 61.86"/><rect class="c" x="33.41" y="65.91" width="10.38" height="0.85"/><rect class="b" x="51.82" y="44.14" width="25.84" height="25.46"/><rect class="c" x="61.27" y="44.14" width="6.94" height="7.2"/><polygon class="c" points="68.66 61.86 67.56 60.39 66.47 58.91 65.37 60.39 64.28 61.86 65.49 61.86 65.49 64.81 67.45 64.81 67.45 61.86 68.66 61.86"/><polygon class="c" points="74.66 61.86 73.56 60.39 72.47 58.91 71.37 60.39 70.28 61.86 71.49 61.86 71.49 64.81 73.45 64.81 73.45 61.86 74.66 61.86"/><rect class="c" x="64.28" y="65.91" width="10.38" height="0.85"/><rect class="c" x="46.85" y="72.33" width="4.92" height="9.84" rx="1.44" ry="1.44"/><rect class="c" x="22.54" y="72.33" width="4.92" height="9.84" rx="1.44" ry="1.44"/><rect class="c" x="71.15" y="72.33" width="4.92" height="9.84" rx="1.44" ry="1.44"/><rect class="c" x="17.86" y="78.16" width="62.88" height="5.47" rx="1.44" ry="1.44"/><rect class="c" x="17.86" y="69.6" width="62.88" height="5.47" rx="1.44" ry="1.44"/></svg>