<svg width="100" height="60" viewBox="0 0 100 60" xmlns="http://www.w3.org/2000/svg"><g fill="none" fill-rule="evenodd"><path d="M55.1 40c-.1-.3-.1-.6-.1-1h-3v1h3.1zm-.1-2v-1H23v1h32zm1.7 3.2c.6.5 1.3.8 2.3.8h2c.5-3.1 3.2-5.4 6.4-5.4s5.9 2.3 6.4 5.5h1.7c.2 0 .4 0 .6.1 1.2 0 2.9.1 3.6-.8.5-.7.4-1.8-.3-3.4l-13-14.6c-.6-.7-2-1.2-2.2-1.2h-6.7c-.9 0-1.3.3-1.5.9v11.8l.7 6.3zM31 39h-6v2.5l3.6.9c.2-1.5 1.1-2.8 2.4-3.4zm6.1 2.2l2.9-1V39h-5c1 .5 1.7 1.3 2.1 2.2zM41 40v2h10v-3H41v1z"></path><path d="M52 39v1h3.1c-.1-.3-.1-.6-.1-1h-3zm3-2H23v1h32v-1z"></path><path d="M67.5 47.6c-2.5 0-4.5-2-4.5-4.5s2-4.5 4.5-4.5 4.5 2 4.5 4.5-2.1 4.5-4.5 4.5zm0-8c-1.9 0-3.5 1.6-3.5 3.5s1.6 3.5 3.5 3.5S71 45 71 43.1s-1.6-3.5-3.5-3.5zM68 33h-8c-1.6 0-2-.1-2-1.5V26h1v6h9v1z" fill="#2E425E"></path><path d="M80.4 37.4c0-.1-.1-.1-.1-.1L67.2 22.5c-.8-1-2.5-1.5-3-1.5h-6.7c-.6 0-1.1.1-1.5.3v-7.8c0-.3-.2-.5-.5-.5h-36c-.3 0-.5.2-.5.5V37h3v1.5c0 .3.2.5.5.5H24v2.9c0 .2.2.4.4.5l4.2 1c.2 2.3 2.1 4.1 4.5 4.1 2.5 0 4.5-2 4.5-4.5 0-.3 0-.5-.1-.8l2.6-.9v1.2c0 .3.2.5.5.5h11c.3 0 .5-.2.5-.5V41h3.4c.2.3.3.6.6.8.7.7 1.8 1.1 3 1.1h2.5c.3 0 .5-.2.5-.4.3-2.8 2.6-5 5.5-5 2.8 0 5.2 2.2 5.5 5 0 .3.2.5.5.5h3.5c1.3 0 2.9-.2 3.6-1.3.6-.8.5-2.3-.3-4.3zM20 36V14h35v4h-6.5c-.3 0-.5.2-.5.5V24h-6.5c-.3 0-.5.2-.5.5V30h-6.5c-.3 0-.5.2-.5.5V36H20zm35-5v5h-6v-5h6zm-6-1v-5h6v5h-6zm6-6h-6v-5h6v5zm-13 6v-5h6v5h-6zm6 1v5h-6v-5h6zm-7 0v5h-6v-5h6zM25 41.5V39h6c-1.3.6-2.2 1.9-2.4 3.3l-3.6-.8zm8 5c-1.9 0-3.5-1.6-3.5-3.5s1.6-3.5 3.5-3.5 3.5 1.6 3.5 3.5-1.6 3.5-3.5 3.5zm7-6.2l-2.9 1c-.4-1-1.2-1.8-2.1-2.2h5v1.2zm11-.3v2H41v-3h10v1zm.5-2H23v-1h32v1h-3.5zm.5 2v-1h3c0 .4 0 .7.1 1H52zm4-1V22.9c.2-.6.6-.9 1.5-.9h6.7c.3 0 1.6.4 2.2 1.2l13 14.6c.6 1.6.7 2.8.3 3.4-.6.9-2.3.8-3.6.8h-2.2c-.5-3.1-3.2-5.5-6.4-5.5s-5.9 2.3-6.4 5.4h-2c-1 0-1.7-.3-2.3-.8-.1.1-.8-.5-.8-2.1z" fill="#2E425E"></path></g></svg>
