<svg xmlns="http://www.w3.org/2000/svg" viewBox="0 0 98.61 98.61"><defs><style>.a{fill:none;}.b{fill:#c8e7ff;}.c{fill:#9cf;}.d{fill:#0f72ff;}</style></defs><title>3</title><rect class="a" width="98.61" height="98.61"/><path class="b" d="M41.34,25.76H32.55A26.18,26.18,0,0,0,6.37,51.94h0a9.53,9.53,0,0,0,9.53,9.53H54.26a4.63,4.63,0,0,0,4.63-4.63V43.32A17.56,17.56,0,0,0,41.34,25.76Z"/><rect class="c" x="6.37" y="59.96" width="54.7" height="6.22" rx="1.83" ry="1.83"/><rect class="d" x="17.06" y="38.77" width="12.79" height="11.2" rx="2" ry="2"/><path class="c" d="M39.58,36.4h6.1A4.34,4.34,0,0,1,50,40.75V60.55a0,0,0,0,1,0,0H35.24a0,0,0,0,1,0,0V40.75a4.34,4.34,0,0,1,4.34-4.34Z"/><circle class="d" cx="42.69" cy="44.86" r="3.88"/><circle class="d" cx="45.33" cy="53.3" r="1.88"/><circle class="d" cx="22.17" cy="63.42" r="7.32"/><circle class="b" cx="22.17" cy="63.42" r="3.41"/><path class="d" d="M86,57.4l-6.34-.32c-.54,0-1.1-.07-1.7-.08-2.79-.14-6.06-.31-9.41-.46l-1.7-.09C59.4,56.11,52,55.8,49.37,55.8a27.42,27.42,0,0,1,17.47-8.75c.56,0,1.12-.1,1.7-.13s1,0,1.58,0A19.82,19.82,0,0,1,78,48.37a12.16,12.16,0,0,1,1.7.8,14.85,14.85,0,0,1,6,5.95Z"/><path class="b" d="M68.54,46.92V57.4h-1.7V47.05C67.4,47,68,47,68.54,46.92Z"/><path class="b" d="M79.65,49.17V57.4H78v-9A12.16,12.16,0,0,1,79.65,49.17Z"/><path class="b" d="M38.33,67.63H91.54a.7.7,0,0,0,.71-.7V63.67H90.63V57.78a1.07,1.07,0,0,0-.69-1l-4.26-1.65H48.07s-9.23.31-9.6,3.78v4.27h-1.3v3.3A1.16,1.16,0,0,0,38.33,67.63Z"/><rect class="d" x="38.47" y="61.7" width="2.47" height="1.48"/><rect class="d" x="88.21" y="59.9" width="2.47" height="1.48"/><circle class="d" cx="49.37" cy="66.38" r="6.47"/><circle class="b" cx="49.37" cy="66.38" r="3.01"/><circle class="d" cx="79.65" cy="66.38" r="6.47"/><circle class="b" cx="79.65" cy="66.38" r="3.01"/></svg>