<svg width="100" height="60" viewBox="0 0 100 60" xmlns="http://www.w3.org/2000/svg"><g fill="#2E425E" fill-rule="evenodd"><path d="M30 42.5c-2.5 0-4.5-2-4.5-4.5s2-4.5 4.5-4.5 4.5 2 4.5 4.5-2 4.5-4.5 4.5zm0-8c-1.9 0-3.5 1.6-3.5 3.5s1.6 3.5 3.5 3.5 3.5-1.6 3.5-3.5-1.6-3.5-3.5-3.5zm35 8c-2.5 0-4.5-2-4.5-4.5s2-4.5 4.5-4.5 4.5 2 4.5 4.5-2 4.5-4.5 4.5zm0-8c-1.9 0-3.5 1.6-3.5 3.5s1.6 3.5 3.5 3.5 3.5-1.6 3.5-3.5-1.6-3.5-3.5-3.5zM45 29h4v1h-4v-1z"></path><path d="M81 31.3c0-.7-.5-1.3-1.3-1.3h-.3c-.6-.5-2.5-1.2-2.5-1.2l-12.8-4.3c-.8-.5-8.8-6.4-16.1-6.5H35.9c-7 .6-8.4 1.9-11.3 3.8-5.8 3.9-5.6 7.9-5.6 7.9v3.4c0 2.5 2.4 4.6 3.4 5.4.2.1.4.1.5.1.2-.1.4-.3.4-.5 0-3.6 2.9-6.5 6.6-6.5 3.6 0 6.5 2.9 6.5 6.5v2L59 40v-2c0-3.6 2.4-6.5 6-6.5s6 2.9 6 6.5v2h5.8c2.3 0 4.3-1.9 4.3-4.3v-4.4H81zm-1.3-.3c.2 0 .3.1.3.3v1.4c0 .1-.1.2-.3.2h-5.3c-.2 0-.3-.1-.3-.3v-1.3c0-.2.1-.3.3-.3h5.3zM44 19h4c6.2.1 13.1 4.7 15 6H44v-6zm-7.5 0H43v6H28c-.3 0-1 0-1.3-.3-.3-.2-.1-.8.4-1.4l2.3-2.6c-.1-.1 3.6-1.8 7.1-1.7zM20 28.3c0-.2.1-.3.3-.3h2.3c.3 0 .4.1.4.3v1.3c0 .3-.1.4-.3.4h-2.4c-.2 0-.3-.1-.3-.3v-1.4zm9.9 2.2c-3.9 0-7.1 2.9-7.5 6.6-1-.9-2.4-2.4-2.4-4.1v-2.1c.1.1.2.1.3.1h2.3c.8 0 1.4-.6 1.4-1.3v-1.3c0-.8-.6-1.4-1.3-1.4h-1.8c1.1-1.7 3.8-4.2 6.9-6 0 0-2.9 2.5-2.3 3.9.3.6 1 1.1 2.1 1.1H43v11h-5.6c-.5-3.7-3.6-6.5-7.5-6.5zm7.6 8.5v-1H58v1H37.5zM80 36c0 1.8-1.5 3-3.3 3H72v-1c0-4.2-2.9-7.5-7-7.5-3.8 0-6.5 2.8-7 6.5H44V26h21l11.6 3.8h.1c.2.1.4.1.6.2h-3c-.7 0-1.3.6-1.3 1.3v1.3c0 .7.6 1.3 1.3 1.3H80V36z"></path></g></svg>
