<svg xmlns="http://www.w3.org/2000/svg" viewBox="0 0 98.61 98.61"><defs><style>.a{fill:none;}.b{fill:#9cf;}.c{fill:#0f72ff;}.d{fill:#c8e7ff;}</style></defs><title>5</title><rect class="a" width="98.61" height="98.61"/><path class="b" d="M65.14,35.38l1.19-2.25a.93.93,0,0,0,0-1l-1.14-1.83A1.37,1.37,0,0,0,64,29.71H48.43a7.24,7.24,0,0,0-5.3,2.3L32.7,43.14H63.8Z"/><path class="c" d="M77,46.2,65.29,34.68H51.38a3.91,3.91,0,0,0-3,1.37L39.53,46.5Z"/><circle class="c" cx="83.51" cy="65.5" r="2.83"/><circle class="c" cx="40.61" cy="64.13" r="4.77"/><circle class="d" cx="40.61" cy="64.13" r="2.27"/><circle class="c" cx="31.45" cy="64.13" r="4.77"/><circle class="d" cx="31.45" cy="64.13" r="2.27"/><path class="d" d="M11.18,44.22V60.46h53.4s24.27,0,24.27-18H33.42L27,44.22Z"/><path class="b" d="M88.25,63.15H10.36a1.72,1.72,0,0,1-1.71-1.72V43.14a1.72,1.72,0,0,1,3.43,0V59.71H88.25a1.72,1.72,0,0,1,0,3.44Z"/><rect class="d" x="56.51" y="34.68" width="3.44" height="9.91"/><rect class="d" x="16.87" y="39.63" width="1.72" height="5.72"/><path class="d" d="M31.45,40.16H12.89a.86.86,0,0,1,0-1.72H31.45a.86.86,0,1,1,0,1.72Z"/><rect class="d" x="27.55" y="38.19" width="1.72" height="7.15" transform="translate(-21.45 33.66) rotate(-46.55)"/><path class="c" d="M88.21,47.18s-6.74,4.26-76.07,4.26V56S84.39,57.63,88.21,47.18Z"/></svg>