<svg width="100" height="60" viewBox="0 0 100 60" xmlns="http://www.w3.org/2000/svg"><path d="M76 36l3-8.6c0-.4-.6-.4-.6-.4-4.5.5-10.5 1.8-16.4 3.4L41.6 16.5c-.1-.1-.3-.1-.4-.1-.1 0-.3.1-.3.2L30.8 34.3l-6.9-1.6h-.1c-.5 0-1 .3-1.3.7-.3.5-.3 1-.1 1.5.8 1.5 1.9 3.4 2.8 5.1H18v1h7.7c.7 1.2 1.1 2.2 1.3 2.5 0 .3.2.5.5.5h45.4c.2 0 .4-.1.5-.3l2.3-6.7H82v-1h-6zM42 18l18.7 12.7c-6.4 1.7-12.5 3.6-16.1 4.8l-2.6.8V18zm-1 .6v17.9l-9.1-2L41 18.6zM74.6 37l-2.1 6H27.8c-.4-.9-1.5-3-4.5-8.5-.1-.2-.1-.3 0-.5 0-.1.2-.2.4-.3L41 37.6c8-2.535 30.282-9.236 36.5-9.5L74.9 36l-.3 1z" fill="#2E425E" fill-rule="evenodd"></path></svg>
