<svg width="100" height="60" viewBox="0 0 100 60" xmlns="http://www.w3.org/2000/svg"><g fill="#2E425E" fill-rule="evenodd"><path d="M60.1 10.5c-3.5 0-6.8.9-9.7 2.6-3-1.9-6.5-3.1-10.3-3.1C29.6 10 21 18.5 21 29h1c0-9.9 8.1-18 18.1-18 3.4 0 6.6 1 9.3 2.7-5.4 3.5-8.9 9.5-8.9 16.3 0 6.1 2.9 11.6 7.3 15.2-2.4 1.1-5 1.8-7.8 1.8-7 0-13.3-4-16.3-10.3l7.2 1.8.2-1-8.6-2.1c-.1 0-.3 0-.4.1-.1.1-.2.2-.2.4l.3 8.7 1-.1-.3-7.2C26 43.8 32.6 48 40 48c3.1 0 6.1-.8 8.7-2.1 3.2 2.3 7.1 3.6 11.3 3.6 10.8 0 19.5-8.7 19.5-19.5s-8.7-19.5-19.4-19.5zm-.1 38c-3.8 0-7.4-1.2-10.3-3.2l-.9-.6c-4.4-3.4-7.3-8.7-7.3-14.7 0-6.6 3.5-12.5 8.8-15.7l.9-.6c2.6-1.4 5.6-2.2 8.8-2.2 10.2 0 18.4 8.3 18.4 18.5S70.2 48.5 60 48.5z"></path><path d="M64.7 32h.2c2.8-1.1 2.8-4.1 2.8-4.2 0-1.9-.4-3.2-1.3-4-.8-.8-1.6-.8-1.7-.8H55v8h-3v1h3v2h-3v1h3v4h1v-4h10v-1H56v-2h8.7zm0-8s.5 0 1 .5c.6.6.9 1.7.9 3.2 0 .1 0 2.4-2.1 3.3H56v-7h8.7z"></path></g></svg>
