<svg xmlns="http://www.w3.org/2000/svg" viewBox="0 0 39.8 39.8"><defs><style>.cls-1{fill:#c8e7ff;}.cls-2{fill:#0f72ff;}.cls-3{fill:none;}</style></defs><title>6</title><g id="Layer_2" data-name="Layer 2"><g id="Icons"><path class="cls-1" d="M11.24,18.35A3.75,3.75,0,0,0,7.65,21a1.1,1.1,0,0,0,2.09.67,1.56,1.56,0,0,1,1.5-1.11,1.61,1.61,0,0,1,0,3.21h-.1a1.1,1.1,0,0,0-1.1,1.1v1.43a1.1,1.1,0,1,0,2.2,0V25.8a3.8,3.8,0,0,0-1-7.45Z"/><path class="cls-1" d="M11.14,28.93A1.1,1.1,0,0,0,10,30v.44a1.1,1.1,0,1,0,2.2,0V30A1.1,1.1,0,0,0,11.14,28.93Z"/><path class="cls-1" d="M28.43,18.35A3.76,3.76,0,0,0,24.84,21a1.1,1.1,0,0,0,2.1.67,1.56,1.56,0,0,1,1.49-1.11,1.61,1.61,0,0,1,0,3.21h-.09a1.1,1.1,0,0,0-1.1,1.1v1.43a1.1,1.1,0,0,0,2.2,0V25.8a3.8,3.8,0,0,0-1-7.45Z"/><path class="cls-1" d="M28.34,28.93a1.1,1.1,0,0,0-1.1,1.1v.44a1.1,1.1,0,0,0,2.2,0V30A1.1,1.1,0,0,0,28.34,28.93Z"/><path class="cls-2" d="M25.71,14.45a6.16,6.16,0,0,0-12-1.9,1.1,1.1,0,1,0,2.09.66,4,4,0,1,1,3.78,5.27l-.09,0-.09,0a1.1,1.1,0,0,0-1.1,1.1V22.3a1.1,1.1,0,1,0,2.2,0V20.6A6.22,6.22,0,0,0,25.71,14.45Z"/><path class="cls-2" d="M19.36,24.76a1.1,1.1,0,0,0-1.1,1.1v.67a1.1,1.1,0,0,0,2.2,0v-.67A1.1,1.1,0,0,0,19.36,24.76Z"/><rect class="cls-3" width="39.8" height="39.8"/></g></g></svg>