<svg xmlns="http://www.w3.org/2000/svg" viewBox="0 0 98.61 98.61"><defs><style>.a{fill:none;}.b{fill:#9cf;}.c{fill:#2b83ff;}.d,.e{fill:#c8e7ff;}.e{opacity:0.7;}.f{fill:#0f72ff;}</style></defs><title>9</title><rect class="a" width="98.61" height="98.61"/><path class="b" d="M31.92,57.3h-12a36.24,36.24,0,0,1,.91-8.41,52.33,52.33,0,0,0,1-6.47C22,41,22,40.11,22,40.11h7.86s0,.86.14,2.31a54.32,54.32,0,0,0,1,6.47A36,36,0,0,1,31.92,57.3Z"/><rect class="c" x="20.36" y="36.76" width="11.01" height="3.34" rx="0.93" ry="0.93"/><path class="d" d="M30,42.42H21.85C22,41,22,40.11,22,40.11h7.86S29.88,41,30,42.42Z"/><path class="b" d="M66.29,57.3H48.56a53.79,53.79,0,0,1,1.36-12.45,78.53,78.53,0,0,0,1.48-9.56c.19-2.15.21-3.42.21-3.42H63.24s0,1.27.21,3.42a78.88,78.88,0,0,0,1.49,9.56A53.37,53.37,0,0,1,66.29,57.3Z"/><rect class="c" x="49.19" y="26.91" width="16.28" height="4.94" rx="1.38" ry="1.38"/><path class="d" d="M63.45,35.29H51.4c.19-2.15.21-3.42.21-3.42H63.24S63.27,33.14,63.45,35.29Z"/><circle class="d" cx="26.13" cy="33.46" r="1.6"/><circle class="d" cx="28.8" cy="31.86" r="2.57"/><circle class="d" cx="33.9" cy="31.08" r="3.31"/><circle class="d" cx="59.16" cy="21.99" r="2.55"/><circle class="d" cx="63.43" cy="19.43" r="4.1"/><circle class="d" cx="71.57" cy="18.19" r="5.28"/><path class="d" d="M67,63.08H31.14a7.42,7.42,0,0,0-7.42,7.42V83.72a1.81,1.81,0,0,1-1.8,1.8H15.07a1.81,1.81,0,0,1-1.8-1.8V58.33l24.1-10.57v8l12-8v7.72L61,47.76v8.55l12.35-8.55v8.55l12-8.55v36a1.81,1.81,0,0,1-1.8,1.8H76.22a1.8,1.8,0,0,1-1.8-1.8V70.5A7.42,7.42,0,0,0,67,63.08Z"/><rect class="b" x="55.66" y="73.32" width="12.33" height="12.38"/><rect class="d" x="43.02" y="73.23" width="11.99" height="12.47"/><rect class="b" x="31.76" y="71.4" width="10.91" height="14.12"/><rect class="e" x="43.02" y="64.9" width="11.99" height="8.55"/><rect class="f" x="60.69" y="73.32" width="2.64" height="2.93"/><rect class="f" x="48.19" y="64.9" width="2.33" height="2.59"/><rect class="f" x="48.19" y="73.46" width="2.33" height="2.59"/><rect class="f" x="36.05" y="71.4" width="2.33" height="2.59"/></svg>