<svg width="100" height="60" viewBox="0 0 100 60" xmlns="http://www.w3.org/2000/svg"><g fill="#2E425E" fill-rule="evenodd"><path d="M85.5 46h-5.1c-.3 0-.5-.2-.5-.5-.2-3.1-2.8-5.4-5.9-5.4-3.1 0-5.6 2.4-5.9 5.4 0 .3-.2.5-.5.5h-4.2c-.3 0-.4.3-.4 0V26c0-2.9.3-5 5.6-5h8.8c.8 0 1.5.2 1.9.6l.1.1 3.4 6c.2.1.3.4.2.7V39h2.5c.3 0 .5.2.5.5v6c0 .3-.2.5-.5.5zm-.5-1v-5h-2.5c-.3 0-.5-.2-.5-.5V28.4l-3.5-6.1c-.1-.1-.5-.3-1-.3h-8.8C64 22 64 23.6 64 26v19h3.3c.5-3.3 3.4-5.9 6.8-5.9s6.3 2.6 6.8 5.9H85z"></path><path d="M74.1 50.5c-2.5 0-4.5-2-4.5-4.5s2-4.5 4.5-4.5 4.5 2 4.5 4.5-2 4.5-4.5 4.5zm0-8c-1.9 0-3.5 1.6-3.5 3.5s1.6 3.5 3.5 3.5 3.5-1.6 3.5-3.5-1.6-3.5-3.5-3.5zM77 33h-8c-1.6 0-2-.1-2-1.5V26h1v6h9v1z"></path><path d="M61.4 18.5c-.2.1-.4.3-.4.5v19H16.4l8.4-14h32.6c.3 0 .5-.2.5-.5V14h14.9l-.2 1.6-11.2 2.9zm-20.2-7.8c.9 0 1.6.3 2 .8 0 0 8 11.3 8.1 11.5h-20l7.9-11.5c.4-.5 1.1-.8 2-.8zM61.5 40h-42c-.3 0-.5.2-.5.5v5c0 .3.2.5.5.5h2.1c0 2.5 2 4.5 4.5 4.5s4.5-2 4.5-4.5h2c0 2.5 2 4.5 4.5 4.5s4.5-2 4.5-4.5H44v2.5c0 .3.2.5.5.5h15c.3 0 .5-.2.5-.5V46h1.5c.3 0 .5-.2.5-.5v-5c0-.3-.2-.5-.5-.5zm-31.9 6c0 1.9-1.6 3.5-3.5 3.5s-3.5-1.6-3.5-3.5c0-.3.1-.7.2-1 .4-1.5 1.8-2.5 3.3-2.5 1.5 0 2.9 1.1 3.3 2.5.1.3.2.6.2 1zm11 0c0 1.9-1.6 3.5-3.5 3.5s-3.5-1.6-3.5-3.5c0-.3.1-.7.2-1 .4-1.5 1.8-2.5 3.3-2.5 1.5 0 2.9 1.1 3.3 2.5.1.3.2.6.2 1zm3.4-1h-2.5c-.4-2-2.2-3.5-4.4-3.5s-4 1.5-4.4 3.5h-2.2c-.4-2-2.2-3.5-4.4-3.5s-4 1.5-4.4 3.5H20v-4h24v4zm15 0v3H45v-7h14v4zm2 0h-1v-4h1v4zm12.5-32h-16c-.3 0-.5.2-.5.5V23h-4.7c-.2-.5-8.4-12.1-8.4-12.1-.6-.7-1.6-1.2-2.8-1.2-1.2 0-2.2.4-2.8 1.2l-8.1 11.8c-.1.1-.1.2-.2.3h-5.6c-.2 0-.3.1-.4.2l-9 15c-.1.2-.1.3 0 .5.2.2.3.3.5.3h46c.3 0 .5-.2.5-.5V19.4l11.1-2.9c.2 0 .3-.2.4-.4l.5-2.5c0-.1 0-.3-.1-.4-.1-.1-.2-.2-.4-.2z"></path></g></svg>
