<svg version="1.1" id="Layer_1" xmlns="http://www.w3.org/2000/svg" xmlns:xlink="http://www.w3.org/1999/xlink" x="0px" y="0px"
	 viewBox="0 0 75 75" style="enable-background:new 0 0 75 75;" xml:space="preserve">
<g>
	<path fill="#fff" d="M59,48c-1.4,0-2.5,1.1-2.5,2.5S57.6,53,59,53s2.5-1.1,2.5-2.5S60.3,48,59,48z M64.3,42.7h-0.5l-0.7-1.9
		l-2.5-6.4c-0.4-1-1.4-1.7-2.5-1.7H53v-2.4c0-0.6-0.5-1.1-1.1-1.1h-15c-0.1,2.5-0.7,5.9-2.7,8.5c0.9,0.6,3.9,2.4,7.5,3.3h0.1
		l0.1,0.1c4.5,1.6,4.7,6.4,4.7,8.3v0.1v0.1v0.2c0,0,0,0.1,0,0.3h9.1c0-1.7,1.4-3,3.1-3c1.7,0,3.1,1.4,3.1,3h2.2c1,0,1.8-0.8,1.8-1.8
		v-3.8C66.1,43.5,65.3,42.7,64.3,42.7z M54.3,41.5v-6.8h3.8c0.2,0,0.5,0.2,0.6,0.4l2.4,6.4H54.3z M40.9,44c-4.8-1.2-8.6-3.9-8.8-4
		c0,0-2.9,1.1-5.4,1.1c-2.8,0-6.3-1.1-6.3-1.1c-0.2,0.1-4,2.8-8.8,4c-2.2,0.8-2.5,3.2-2.6,5.4c0.1,0.1,0.1,0.1,0.1,0.2
		c0,0.9,0,2.2,0.2,3c1.6,0.9,7.7,3.9,17,3.9s15.4-3,17-3.9c0.2-0.8,0.2-2.1,0.2-3c0-0.1,0-0.2,0-0.2C43.4,47.2,43.1,44.8,40.9,44z
		 M26.2,38.2L26.2,38.2c2.2,0,3.8-0.7,5.1-2c3.1-3.4,2.4-9.9,2.4-10c0,0,0,0,0-0.1c-0.3-6.5-4.7-7.5-7.3-7.6h-0.1
		c-2.1,0-7,0.7-7.3,7.6c0,0,0,0,0,0.1s-0.7,6.6,2.4,10C22.5,37.5,24.1,38.2,26.2,38.2z"/>
</g>
<rect fill="none" width="75" height="75"/>
</svg>
