<svg version="1.1" id="Layer_1" xmlns="http://www.w3.org/2000/svg" xmlns:xlink="http://www.w3.org/1999/xlink" x="0px" y="0px"
	 viewBox="0 0 75 75" style="enable-background:new 0 0 75 75;" xml:space="preserve">
<g>
	<polygon fill="#fff" points="16.8,28.5 12.6,28.5 12.6,56.3 15.3,56.3 16.8,56.3 54.1,56.3 54.1,52 16.8,52 	"/>
	<path fill="#fff" d="M42.7,26.3c-3.8,0-6.9,3.1-7,6.9c0,3.8,3.1,6.9,6.9,7c3.8,0,6.9-3.1,7-6.9c0,0,0,0,0,0
		C49.6,29.4,46.5,26.3,42.7,26.3z"/>
	<path fill="#fff" d="M21.6,19.2v28.1h42V19.2H21.6z M58.5,38c-2.4,0-4.4,2-4.4,4.4h-23c0-2.4-2-4.4-4.4-4.4c-0.2,0-0.4,0-0.5,0.1
		v-9.6c0.2,0,0.4,0,0.5,0.1c2.4,0,4.4-2,4.4-4.4c0,0,0,0,0,0h23c0,2.4,2,4.4,4.4,4.4V38z"/>
</g>
</svg>
