<svg version="1.1" id="Icons" xmlns="http://www.w3.org/2000/svg" xmlns:xlink="http://www.w3.org/1999/xlink" x="0px" y="0px"
	 viewBox="0 0 204.8 204.8" style="enable-background:new 0 0 204.8 204.8;" xml:space="preserve">
<style type="text/css">
	.st0{opacity:0.8;}
	.st1{fill:#3D4E60;}
	.st2{fill:none;}
</style>
<g class="st0">
	<path class="st1" d="M81.6,61.5c0-0.1,0-0.2,0-0.2c0.9-19.4,14.7-21.5,20.6-21.5h0.3c7.3,0.2,19.8,3.1,20.6,21.5c0,0.1,0,0.2,0,0.2
		c0,0.2,1.9,18.6-6.7,28.3c-3.4,3.8-8,5.7-14,5.8h-0.3c-6-0.1-10.5-2-13.9-5.8C79.7,80.2,81.5,61.7,81.6,61.5L81.6,61.5z"/>
	<path class="st1" d="M118.8,109.4c0.5,0.3,11.3,7.8,24.8,11.3c6.3,2.2,7,9,7.2,15.2c0,0.2,0,0.5,0,0.7c0,2.4-0.1,6.2-0.6,8.4
		c-4.4,2.5-21.6,11.1-47.8,11.1c-26.1,0-43.4-8.6-47.8-11.1c-0.4-2.2-0.6-5.9-0.6-8.4c0-0.2,0-0.4,0-0.7c0.2-6.2,0.9-12.9,7.2-15.2
		c13.5-3.5,24.2-11.5,24.8-11.3C107.1,116.4,118.8,109.4,118.8,109.4z"/>
</g>
<rect y="0" class="st2" width="204.8" height="204.8"/>
</svg>
